<svg width="123" height="124" viewBox="0 0 123 124" fill="none" xmlns="http://www.w3.org/2000/svg">
<circle cx="61.5" cy="62.02" r="61.5" fill="#336667"/>
<path d="M74.6724 80.5547L74.3203 80.9089L72.5599 82.3256C68.335 85.7885 62.5061 87.52 55.0734 87.52C49.2054 87.52 44.7066 86.1821 41.577 83.5061C38.5257 80.8302 37 77.2885 37 72.8811C37 68.7885 38.6039 65.483 41.8117 62.9645C45.0196 60.4459 50.066 59.1867 56.9511 59.1867H74.6724V57.2978C74.6724 53.3626 73.6553 50.4506 71.621 48.5617C69.5868 46.6728 65.8313 45.7284 60.3545 45.7284C56.2861 45.7284 53.3521 46.3186 51.5526 47.4992C49.8313 48.6797 48.9707 50.5686 48.9707 53.1659V53.52C48.9707 54.2284 48.3056 54.5825 46.9756 54.5825H40.6381C40.3252 54.5825 39.934 54.3464 39.4645 53.8742C38.9951 53.402 38.7604 52.9691 38.7604 52.5756V52.2214C38.7604 47.4205 40.5208 43.6034 44.0416 40.77C47.5623 37.9367 53.0391 36.52 60.4719 36.52C69.0782 36.52 75.2983 38.4483 79.132 42.3047C83.044 46.2399 85 51.5524 85 58.2422V84.0964C85 84.4899 84.7653 84.9228 84.2958 85.395C83.8264 85.8672 83.3961 86.1034 83.0049 86.1034H78.0758C77.4499 86.1034 76.824 85.4344 76.198 84.0964L74.6724 80.5547ZM55.0734 78.6659V78.5478C58.8289 78.5478 62.467 77.9575 65.9878 76.777C69.5086 75.5964 72.4034 74.101 74.6724 72.2909V67.0964H56.9511C50.4572 67.0964 47.2103 69.064 47.2103 72.9992C47.2103 76.777 49.8313 78.6659 55.0734 78.6659Z" fill="white"/>
</svg>
