<?xml version="1.0" encoding="UTF-8"?> <svg xmlns="http://www.w3.org/2000/svg" xmlns:xlink="http://www.w3.org/1999/xlink" xmlns:xodm="http://www.corel.com/coreldraw/odm/2003" xml:space="preserve" width="300mm" height="157.174mm" version="1.1" style="shape-rendering:geometricPrecision; text-rendering:geometricPrecision; image-rendering:optimizeQuality; fill-rule:evenodd; clip-rule:evenodd" viewBox="0 0 2650.82 1388.8"> <defs> <style type="text/css"> .fil0 {fill:#727271} .fil1 {fill:#727271;fill-rule:nonzero} </style> </defs> <g id="Слой_x0020_1"> <metadata id="CorelCorpID_0Corel-Layer"></metadata> <g id="_2097917066192"> <path class="fil0" d="M1097.1 241.82l-0.1 31.16 -98.98 55.39 0.1 138.24 -108.29 55.86 -0.2 385.64c41.86,-12.21 22.42,-133.63 22.41,-174.26 -0.01,-65.77 -0.06,-131.53 0.07,-197.3l183.49 -94.61 1.59 208.58 0.01 199.39 22.88 -3.05 -0.95 -208.32 -0.31 -223.48 -5.19 -5 -92.76 43.56 -0.48 -111.94 193.92 -106.95 5.49 599.95 17.52 -1.08 0.02 -377.17 -0.25 -249.69 -6 -5.48 -111.38 58.95 -0.59 -49.38 0.09 -56.69c25.6,-15.36 176.36,-108.41 185.83,-120.32l5.95 -1.38c4.84,47.17 1.12,327.74 1.18,399.83 0.06,64.76 -3.78,361.74 1.53,399.36l22.97 0.28c5.2,-59.54 0.84,-138.66 0.84,-199.51l-0.03 -400.24c0.08,-33.83 -6.6,-177.5 4.75,-197.81l159.41 99.66 29.78 21.45 -0.16 103.39 -111.04 -56.99 -6.8 5.18 -0.4 245.54 0.04 381.22 21.59 1.57 0.24 -343.9 0.01 -255.44 196.38 104.47 -1.3 112.49 -92.76 -42.87 -6.48 4.73 1.69 434.51 20.38 -0.05 0.45 -405.38 184.8 88.94 0.1 193.2 0 174.43 18.52 6.68 3.94 1.26 0.04 -386.77 -29.18 -18.45 -78.33 -38.08 -14.09 -144.17 -85.69 -47.25 -0.44 -131.77 -33.51 -18.87 -181.62 -116.99c-14.92,-13.49 -24.55,-1.59 -38.68,8.05l-200.58 127.16 -1.5 100.55zm831.11 782.7c6.08,5.29 -0.31,3.25 10.04,4.98l-9.13 -8.28c-15.61,-15.87 -37.4,-31.05 -56.6,-43.72 -10.75,-7.09 -60.63,-34.94 -63.62,-38.15l-68.77 -29.08c-13.64,-5.37 -34.95,-15.72 -48.95,-14.94 -9.72,-7.92 -45.54,-18.43 -59.11,-16.97 -12.64,-9.34 -60.21,-16.85 -78.55,-18.94l-140.94 -15.14c-14.27,-7.78 -71.4,-5.24 -91.68,-5.29l-47.52 1.16 -45.11 2.7 -67.65 6.54 -36.64 5.44c-61.74,7.14 -119.98,25.33 -178.96,42.46l-55.97 20.41c-15.52,11.49 -65.07,30.77 -88.38,45.29 -24.82,15.47 -58.31,36.45 -78.7,58 -6.53,3.54 -4.65,0.07 -9.38,8.78l9.47 -5.4c50.92,-28.57 168.43,-70.92 224.47,-80.02l130.64 -25.25 98.14 -13.96 7.89 1.53 85.51 -7.04 80.22 1.43 152.79 9.02 81.71 9.96 80.35 15 51.71 9.36c9.14,7.27 91.41,29.12 111.48,36.36 32.24,11.63 71.51,27.22 101.25,43.76z"></path> <path class="fil1" d="M217.87 1203.13c-5.01,1.45 -8.38,2.94 -10.17,4.63 -1.78,1.64 -3.04,3.86 -3.76,6.6 -0.67,2.79 -1.06,7.71 -1.06,14.75l0 122.16c0,5.73 0.29,10.26 0.87,13.59 0.58,3.37 1.73,5.88 3.47,7.61 1.73,1.78 5.3,3.33 10.65,4.77l0 9.3 -72.43 0 0 -9.3c4.15,-1.16 7.04,-2.12 8.63,-2.99 1.59,-0.82 2.84,-1.93 3.71,-3.33 0.92,-1.35 1.59,-3.42 1.98,-6.22 0.43,-2.75 0.68,-7.32 0.68,-13.73l0 -69.2c0,-7.61 0.14,-16.63 0.38,-26.94 0.29,-10.36 0.58,-17.73 0.87,-22.02l-2.99 0c-1.11,3.76 -2.31,7.42 -3.57,11.08 -1.3,3.61 -3.66,10.07 -7.13,19.37l-37.83 101.97 -24.87 0 -39.8 -114.5c-2.36,-6.51 -4.43,-12.96 -6.22,-19.37l-2.55 0c0.96,15.52 1.45,33.88 1.45,55.08l0 64.96c0,6.94 0.29,11.81 0.96,14.51 0.67,2.75 1.97,5.01 3.95,6.79 1.98,1.78 5.4,3.28 10.31,4.53l0 9.3 -53.39 0 0 -9.3c3.52,-0.96 6.26,-1.98 8.29,-3.13 2.02,-1.11 3.57,-2.65 4.58,-4.53 1.06,-1.88 1.69,-4.24 1.93,-7.18 0.24,-2.94 0.34,-6.65 0.34,-11.13l0 -122.16c0,-7.13 -0.29,-12.05 -0.92,-14.65 -0.63,-2.65 -1.83,-4.82 -3.61,-6.51 -1.78,-1.69 -5.3,-3.28 -10.6,-4.82l0 -9.3 70.21 0 39.08 115.9 42.36 -115.9 66.21 0 0 9.3zm127.61 123.7l-60.28 0 -4.63 13.4c-1.35,3.76 -2.41,7.42 -3.28,10.94 -0.82,3.52 -1.25,7.28 -1.25,11.23 0,9.2 4.87,14.17 14.7,14.84l0 9.3 -60.29 0 0 -9.3c3.47,-0.39 6.51,-1.64 9.16,-3.71 2.65,-2.07 5.01,-4.87 7.18,-8.43 2.17,-3.61 4.48,-8.72 6.94,-15.42l58.89 -156.86 37.68 0 46.6 158.16c2.07,7.04 3.81,12.05 5.2,15.03 1.4,2.94 3.23,5.35 5.49,7.18 2.27,1.83 5.45,3.18 9.49,4.05l0 9.3 -77.97 0 0 -9.3c4.92,-0.58 8.53,-1.93 10.89,-4.1 2.36,-2.17 3.52,-5.25 3.52,-9.2 0,-2.89 -0.34,-6.17 -0.96,-9.73 -0.67,-3.57 -1.73,-8.1 -3.28,-13.54l-3.81 -13.83zm-54.89 -16.53l50.79 0 -22.55 -79.46 -28.24 79.46zm217.09 76.24l-74.12 0 0 -9.3c3.52,-0.96 6.26,-1.98 8.29,-3.04 2.02,-1.11 3.52,-2.6 4.48,-4.53 1.01,-1.93 1.64,-4.39 1.93,-7.32 0.29,-2.99 0.43,-6.75 0.43,-11.23l0 -121.73c0,-4.43 -0.14,-8.14 -0.39,-11.13 -0.19,-3.04 -0.82,-5.44 -1.83,-7.37 -0.96,-1.88 -2.46,-3.37 -4.48,-4.58 -2.02,-1.16 -4.82,-2.22 -8.43,-3.18l0 -9.3 82.31 0c11.13,0 20.58,0.77 28.34,2.31 7.76,1.59 14.55,3.95 20.38,7.13 4.92,2.65 9.06,5.98 12.43,9.98 3.37,4 5.98,8.68 7.81,13.98 1.88,5.3 2.79,11.52 2.79,18.55 0,9.2 -1.64,17.16 -4.87,23.71 -3.28,6.6 -7.66,12.1 -13.16,16.48 -5.49,4.34 -12.87,8.48 -22.07,12.34l0 1.4c6.94,3.04 12.72,7.04 17.25,12.09 4.58,5.01 8.72,11.42 12.39,19.13l8.87 19.18c3.95,8.58 7.9,14.99 11.81,19.28 3.9,4.29 8.53,6.89 13.93,7.86l0 9.3 -54.36 0c-5.49,-7.52 -11.66,-18.75 -18.51,-33.59l-11.04 -24.14c-3.28,-7.18 -6.12,-12.24 -8.43,-15.28 -2.36,-2.99 -4.82,-5.06 -7.28,-6.22 -2.51,-1.11 -6.36,-1.69 -11.52,-1.69l-8.19 0 0 45.49c0,7.04 0.34,12 0.96,14.79 0.67,2.84 1.98,5.11 3.86,6.79 1.88,1.69 5.35,3.18 10.41,4.53l0 9.3zm-15.23 -175.89l0 78.45 13.98 0c7.52,0 13.73,-1.01 18.65,-2.99 4.87,-2.02 8.77,-4.87 11.61,-8.48 2.89,-3.61 4.87,-7.9 5.93,-12.77 1.11,-4.91 1.64,-10.26 1.64,-16.1 0,-12.82 -2.99,-22.41 -9.01,-28.82 -6.02,-6.41 -14.99,-9.59 -26.84,-9.59 -8.1,0 -13.4,0.1 -15.95,0.29zm232.8 116.19l-60.28 0 -4.63 13.4c-1.35,3.76 -2.41,7.42 -3.28,10.94 -0.82,3.52 -1.25,7.28 -1.25,11.23 0,9.2 4.87,14.17 14.7,14.84l0 9.3 -60.29 0 0 -9.3c3.47,-0.39 6.51,-1.64 9.16,-3.71 2.65,-2.07 5.01,-4.87 7.18,-8.43 2.17,-3.61 4.48,-8.72 6.94,-15.42l58.89 -156.86 37.68 0 46.6 158.16c2.07,7.04 3.81,12.05 5.2,15.03 1.4,2.94 3.23,5.35 5.49,7.18 2.27,1.83 5.45,3.18 9.49,4.05l0 9.3 -77.97 0 0 -9.3c4.92,-0.58 8.53,-1.93 10.89,-4.1 2.36,-2.17 3.52,-5.25 3.52,-9.2 0,-2.89 -0.34,-6.17 -0.96,-9.73 -0.67,-3.57 -1.73,-8.1 -3.28,-13.54l-3.81 -13.83zm-54.89 -16.53l50.79 0 -22.55 -79.46 -28.24 79.46zm299.98 38.7c3.66,5.64 6.75,10.12 9.25,13.44 2.51,3.37 4.67,5.98 6.55,7.86 1.88,1.88 3.76,3.33 5.59,4.29 1.83,1.01 4.24,1.93 7.28,2.79l0 9.16 -76.52 0 0 -9.3c3.18,-0.48 5.35,-1.25 6.51,-2.36 1.11,-1.06 1.69,-2.51 1.69,-4.29 0,-1.49 -0.24,-2.99 -0.63,-4.43 -0.43,-1.49 -1.44,-3.61 -3.04,-6.46 -1.64,-2.79 -4.87,-8 -9.73,-15.52l-21.64 -33.3c-2.6,-4.05 -4.92,-7.23 -6.84,-9.49 -1.93,-2.27 -3.86,-3.86 -5.78,-4.87 -1.93,-0.96 -4.58,-1.45 -7.95,-1.45l-2.84 0 0 56.04c0,3.28 0.1,6.31 0.29,9.16 0.19,2.84 0.53,5.16 1.11,6.94 0.58,1.78 1.4,3.28 2.46,4.48 1.11,1.25 2.6,2.31 4.48,3.18 1.88,0.92 4.19,1.69 6.89,2.36l0 9.3 -74.12 0 0 -9.3c3.52,-0.96 6.26,-1.98 8.29,-3.04 2.02,-1.11 3.52,-2.6 4.48,-4.53 1.01,-1.93 1.64,-4.39 1.93,-7.32 0.29,-2.99 0.43,-6.75 0.43,-11.23l0 -121.73c0,-4.43 -0.15,-8.14 -0.39,-11.13 -0.19,-3.04 -0.82,-5.44 -1.83,-7.37 -0.96,-1.88 -2.46,-3.37 -4.48,-4.58 -2.02,-1.16 -4.82,-2.22 -8.43,-3.18l0 -9.3 74.12 0 0 9.3c-3.95,1.06 -6.84,2.17 -8.67,3.42 -1.83,1.21 -3.18,2.65 -4.1,4.34 -0.87,1.74 -1.54,3.86 -1.88,6.51 -0.39,2.65 -0.58,6.65 -0.58,12l0 50.26 2.99 0c4.29,0 7.76,-0.48 10.27,-1.4 2.55,-0.96 5.16,-2.65 7.85,-5.11 2.7,-2.41 7.86,-8.15 15.52,-17.11 7.66,-9.01 13.25,-15.95 16.67,-20.77 3.42,-4.87 5.78,-8.87 7.04,-12 1.3,-3.18 1.93,-6.31 1.93,-9.4 0,-3.28 -1.11,-5.88 -3.33,-7.76 -2.22,-1.88 -5.35,-2.89 -9.4,-2.99l0 -9.3 72.14 0 0 9.59c-3.57,0.67 -6.6,1.64 -9.16,2.99 -2.55,1.3 -5.45,3.42 -8.77,6.41 -3.28,2.99 -7.47,7.32 -12.53,13.06l-42.36 47.42 49.25 75.71zm140.47 -22.17l-60.28 0 -4.63 13.4c-1.35,3.76 -2.41,7.42 -3.28,10.94 -0.82,3.52 -1.25,7.28 -1.25,11.23 0,9.2 4.87,14.17 14.7,14.84l0 9.3 -60.29 0 0 -9.3c3.47,-0.39 6.51,-1.64 9.16,-3.71 2.65,-2.07 5.01,-4.87 7.18,-8.43 2.17,-3.61 4.48,-8.72 6.94,-15.42l58.89 -156.86 37.68 0 46.6 158.16c2.07,7.04 3.81,12.05 5.2,15.03 1.4,2.94 3.23,5.35 5.49,7.18 2.27,1.83 5.45,3.18 9.49,4.05l0 9.3 -77.97 0 0 -9.3c4.92,-0.58 8.53,-1.93 10.89,-4.1 2.36,-2.17 3.52,-5.25 3.52,-9.2 0,-2.89 -0.34,-6.17 -0.96,-9.73 -0.67,-3.57 -1.73,-8.1 -3.28,-13.54l-3.81 -13.83zm-54.89 -16.53l50.79 0 -22.55 -79.46 -28.24 79.46zm314.1 -116.47l0 9.3c-3.76,1.25 -6.41,2.26 -7.95,3.13 -1.59,0.82 -2.89,1.97 -4,3.37 -1.06,1.4 -1.88,3.57 -2.46,6.41 -0.58,2.89 -0.82,7.28 -0.82,13.2l0 157.29 -35.85 0 -63.56 -109.82c-8.58,-14.89 -14.84,-26.55 -18.89,-35.03l-1.3 0c0.96,20.24 1.45,41.59 1.45,64.09l0 45.49c0,7.04 0.34,12 1.01,14.79 0.72,2.84 2.02,5.06 3.85,6.7 1.83,1.69 5.25,3.13 10.36,4.48l0 9.3 -53.39 0 0 -9.3c3.52,-0.96 6.26,-1.98 8.29,-3.13 2.02,-1.11 3.52,-2.65 4.53,-4.58 0.96,-1.93 1.59,-4.34 1.88,-7.28 0.29,-2.89 0.43,-6.6 0.43,-10.99l0 -122.16c0,-7.04 -0.29,-11.9 -0.92,-14.6 -0.63,-2.7 -1.88,-4.92 -3.81,-6.7 -1.93,-1.78 -5.4,-3.33 -10.41,-4.67l0 -9.3 57.2 0 49.97 86.84c3.13,5.44 7.18,12.82 12.14,22.17 5.01,9.3 9.4,18.12 13.25,26.36l2.26 0c-1.01,-22.46 -1.54,-47.03 -1.54,-73.68l0 -26.26c0,-6.12 -0.24,-10.51 -0.72,-13.25 -0.43,-2.75 -1.16,-4.82 -2.17,-6.22 -0.96,-1.4 -2.31,-2.6 -3.95,-3.52 -1.64,-0.96 -4.38,-1.98 -8.24,-3.13l0 -9.3 53.35 0zm98.69 0c15.71,0 28.82,1.2 39.37,3.66 10.55,2.46 19.9,6.31 28.09,11.56 8.19,5.3 14.79,11.57 19.85,18.84 5.01,7.32 8.77,15.81 11.23,25.44 2.41,9.64 3.66,20.53 3.66,32.67 0,14.7 -1.74,27.85 -5.16,39.52 -3.42,11.71 -8.58,21.69 -15.47,29.93 -6.12,7.47 -13.64,13.59 -22.5,18.36 -8.92,4.82 -19.13,8.19 -30.7,10.17 -9.98,1.69 -22.55,2.55 -37.73,2.55l-64.09 0 0 -9.3c3.52,-0.96 6.26,-1.98 8.29,-3.04 2.02,-1.11 3.52,-2.6 4.48,-4.53 1.01,-1.93 1.64,-4.39 1.93,-7.32 0.29,-2.99 0.43,-6.75 0.43,-11.23l0 -121.73c0,-4.43 -0.15,-8.14 -0.39,-11.13 -0.19,-3.04 -0.82,-5.44 -1.83,-7.37 -0.96,-1.88 -2.46,-3.37 -4.48,-4.58 -2.02,-1.16 -4.82,-2.22 -8.43,-3.18l0 -9.3 73.44 0zm-14.55 175.65c1.69,0.24 5.98,0.39 12.87,0.39 10.31,0 19.04,-1.5 26.12,-4.53 5.25,-2.22 9.73,-5.35 13.4,-9.3 6.12,-6.51 10.75,-14.89 13.83,-25.25 3.37,-11.32 5.06,-25.11 5.06,-41.4 0,-17.88 -2.36,-32.72 -7.18,-44.53 -4.82,-11.81 -11.57,-20.53 -20.24,-26.12 -8.72,-5.59 -19.13,-8.39 -31.28,-8.39 -5.83,0 -10.02,0.1 -12.58,0.29l0 158.83zm267.41 -18.22c0,6.17 0.24,10.6 0.72,13.2 0.43,2.55 1.2,4.63 2.31,6.17 1.06,1.59 2.65,2.84 4.67,3.9 2.02,1.01 5.16,1.93 9.35,2.7l0 9.3 -75.95 0 0 -9.3c3.52,-0.96 6.26,-1.98 8.29,-3.04 2.02,-1.11 3.52,-2.6 4.48,-4.53 1.01,-1.93 1.64,-4.39 1.93,-7.32 0.29,-2.99 0.43,-6.75 0.43,-11.23l0 -121.73c0,-4.43 -0.15,-8.14 -0.39,-11.13 -0.19,-3.04 -0.82,-5.44 -1.83,-7.37 -0.96,-1.88 -2.46,-3.37 -4.48,-4.58 -2.02,-1.16 -4.82,-2.22 -8.43,-3.18l0 -9.3 82.02 0c23.85,0 41.69,4.24 53.54,12.77 11.85,8.53 17.78,21.64 17.78,39.32 0,12.53 -2.79,23.37 -8.34,32.63 -5.54,9.2 -13.59,16.19 -24.14,20.96 -10.55,4.72 -23.71,7.13 -39.52,7.13 -9.16,0 -16.63,-0.19 -22.46,-0.58l0 45.2zm0 -61.15l12.14 0c9.4,0 16.87,-1.35 22.46,-4 5.54,-2.7 9.64,-6.99 12.34,-12.82 2.7,-5.83 4.05,-13.69 4.05,-23.56 0,-9.78 -1.35,-17.59 -4.05,-23.37 -2.7,-5.78 -6.6,-9.88 -11.81,-12.34 -5.16,-2.46 -11.81,-3.66 -19.9,-3.66 -6.55,0 -11.66,0.1 -15.23,0.29l0 79.47zm192.28 36.72l-60.28 0 -4.63 13.4c-1.35,3.76 -2.41,7.42 -3.28,10.94 -0.82,3.52 -1.25,7.28 -1.25,11.23 0,9.2 4.87,14.17 14.7,14.84l0 9.3 -60.29 0 0 -9.3c3.47,-0.39 6.51,-1.64 9.16,-3.71 2.65,-2.07 5.01,-4.87 7.18,-8.43 2.17,-3.61 4.48,-8.72 6.94,-15.42l58.89 -156.86 37.68 0 46.6 158.16c2.07,7.04 3.81,12.05 5.2,15.03 1.4,2.94 3.23,5.35 5.49,7.18 2.27,1.83 5.45,3.18 9.49,4.05l0 9.3 -77.97 0 0 -9.3c4.92,-0.58 8.53,-1.93 10.89,-4.1 2.36,-2.17 3.52,-5.25 3.52,-9.2 0,-2.89 -0.34,-6.17 -0.96,-9.73 -0.67,-3.57 -1.73,-8.1 -3.28,-13.54l-3.81 -13.83zm-54.89 -16.53l50.79 0 -22.55 -79.46 -28.24 79.46zm217.09 -116.47l0 9.3c-3.37,0.96 -6.07,1.98 -8.05,3.04 -1.98,1.11 -3.47,2.55 -4.58,4.48 -1.06,1.88 -1.78,4.29 -2.12,7.23 -0.34,2.99 -0.48,6.75 -0.48,11.23l0 140.62 27.37 0c5.49,0 9.83,-0.82 13.16,-2.51 3.28,-1.73 6.12,-4.34 8.53,-7.85 2.41,-3.52 4.48,-8.14 6.22,-13.83 1.74,-5.69 3.13,-11.04 4.15,-16.05l19.37 0 -3.13 57.06 -134.55 0 0 -9.3c3.52,-0.96 6.26,-1.98 8.29,-3.13 2.02,-1.11 3.52,-2.65 4.48,-4.58 1.01,-1.93 1.64,-4.39 1.93,-7.33 0.29,-2.99 0.43,-6.75 0.43,-11.23l0 -121.58c0,-4.43 -0.14,-8.14 -0.39,-11.13 -0.19,-3.04 -0.82,-5.44 -1.83,-7.37 -0.96,-1.88 -2.46,-3.37 -4.48,-4.58 -2.02,-1.16 -4.82,-2.22 -8.43,-3.18l0 -9.3 74.12 0zm185.53 133l-60.28 0 -4.63 13.4c-1.35,3.76 -2.41,7.42 -3.28,10.94 -0.82,3.52 -1.25,7.28 -1.25,11.23 0,9.2 4.87,14.17 14.7,14.84l0 9.3 -60.29 0 0 -9.3c3.47,-0.39 6.51,-1.64 9.16,-3.71 2.65,-2.07 5.01,-4.87 7.18,-8.43 2.17,-3.61 4.48,-8.72 6.94,-15.42l58.89 -156.86 37.68 0 46.6 158.16c2.07,7.04 3.81,12.05 5.2,15.03 1.4,2.94 3.23,5.35 5.49,7.18 2.27,1.83 5.45,3.18 9.49,4.05l0 9.3 -77.97 0 0 -9.3c4.92,-0.58 8.53,-1.93 10.89,-4.1 2.36,-2.17 3.52,-5.25 3.52,-9.2 0,-2.89 -0.34,-6.17 -0.96,-9.73 -0.67,-3.57 -1.73,-8.1 -3.28,-13.54l-3.81 -13.83zm-54.89 -16.53l50.79 0 -22.55 -79.46 -28.24 79.46zm277.09 -112.09l0 40.91 -19.18 0c-2.26,-10.6 -5.83,-18.46 -10.75,-23.47 -4.87,-5.06 -11.28,-7.57 -19.18,-7.57 -14.89,0 -26.12,7.13 -33.73,21.4 -7.66,14.26 -11.47,35.42 -11.47,63.47 0,26.07 3.52,45.78 10.46,59.22 6.99,13.4 17.2,20.09 30.65,20.09 6.89,0 12.48,-1.16 16.82,-3.47 4.29,-2.31 7.76,-5.73 10.36,-10.36 2.6,-4.63 4.82,-11.08 6.7,-19.47l19.32 0 0 42.75c-10.31,2.46 -19.81,4.24 -28.34,5.4 -8.58,1.11 -17.49,1.69 -26.7,1.69 -19.56,0 -35.56,-3.52 -47.95,-10.6 -12.38,-7.04 -21.49,-17.73 -27.37,-31.95 -5.88,-14.26 -8.82,-32.34 -8.82,-54.17 0,-20.43 3.47,-38.17 10.36,-53.3 6.94,-15.08 17.11,-26.75 30.55,-34.94 13.49,-8.19 29.59,-12.29 48.29,-12.29 9.54,0 18.12,0.53 25.83,1.54 7.76,1.06 15.81,2.75 24.14,5.11zm165.63 -4.38l0 44.91 -19.37 0c-3.08,-8.96 -5.74,-14.99 -7.9,-18.17 -2.17,-3.13 -4.77,-5.64 -7.76,-7.47 -3.04,-1.83 -8.15,-2.75 -15.37,-2.75l-30.79 0 0 67.76 18.65 0c4.15,0 7.37,-0.58 9.73,-1.78 2.36,-1.16 4.29,-3.13 5.83,-5.83 1.59,-2.75 3.04,-6.99 4.48,-12.72l15.95 0 0 57.35 -15.95 0c-1.35,-5.49 -2.79,-9.64 -4.38,-12.53 -1.59,-2.84 -3.52,-4.91 -5.73,-6.12 -2.22,-1.25 -5.54,-1.83 -9.93,-1.83l-18.65 0 0 75.37 30.65 0c3.28,0 6.07,-0.19 8.34,-0.63 2.22,-0.43 4.24,-1.16 6.07,-2.17 1.78,-1.06 3.47,-2.46 5.11,-4.24 1.69,-1.78 3.13,-3.71 4.39,-5.78 1.3,-2.07 2.6,-4.82 4.05,-8.19 1.4,-3.42 2.94,-8.05 4.63,-13.98l19.37 0 -2.7 51.52 -138.79 0 0 -9.3c3.52,-0.96 6.26,-1.98 8.29,-3.04 2.02,-1.11 3.52,-2.6 4.48,-4.53 1.01,-1.93 1.64,-4.39 1.93,-7.32 0.29,-2.99 0.43,-6.75 0.43,-11.23l0 -121.73c0,-4.43 -0.14,-8.14 -0.39,-11.13 -0.19,-3.04 -0.82,-5.44 -1.83,-7.37 -0.96,-1.88 -2.46,-3.37 -4.48,-4.58 -2.02,-1.16 -4.82,-2.22 -8.43,-3.18l0 -9.3 140.09 0z"></path> </g> </g> </svg> 