<?xml version="1.0" encoding="UTF-8"?> <svg xmlns="http://www.w3.org/2000/svg" width="115" height="30" viewBox="0 0 115 30" fill="none"><path d="M1.81622 10.5727H1.95076C3.13915 8.78855 4.9778 7.89648 7.4667 7.89648C9.46231 7.89648 11.0655 8.55727 12.2763 9.87885C13.4872 11.2004 14.0926 12.8965 14.0926 14.967C14.0926 17.2137 13.4199 18.9648 12.0745 20.2203C10.7516 21.4537 9.11476 22.0705 7.164 22.0705C5.01144 22.0705 3.26248 21.4207 1.91713 20.1211H1.84986V29.6366C1.84986 29.6806 1.81623 29.7577 1.74896 29.8678C1.68169 29.9559 1.60321 30 1.51352 30H0.302704C0.235436 30 0.168169 29.9559 0.100901 29.8678C0.0336338 29.7577 0 29.6806 0 29.6366V8.59031C0 8.54626 0.0336338 8.46916 0.100901 8.35903C0.168169 8.27092 0.235436 8.22687 0.302704 8.22687H1.21082C1.3902 8.22687 1.4911 8.37004 1.51352 8.65639L1.81622 10.5727ZM12.2427 15H12.31C12.31 13.37 11.8391 12.0595 10.8974 11.0683C9.9556 10.0771 8.76721 9.5815 7.33217 9.5815C6.05408 9.5815 4.93296 9.92291 3.96879 10.6057C2.9822 11.3106 2.27589 12.2137 1.84986 13.315V18.2048C3.30732 19.7026 5.04507 20.4515 7.0631 20.4515C8.56541 20.4515 9.79865 19.9559 10.7628 18.9648C11.7494 17.9515 12.2427 16.63 12.2427 15Z" fill="white"></path><path d="M20.144 10.7379V10.7048C20.7943 9.80176 21.5678 9.10793 22.4647 8.62335C23.3841 8.11674 24.3258 7.86344 25.29 7.86344C26.725 7.86344 27.8349 8.25991 28.6197 9.05286C29.4045 9.86784 29.7969 10.9802 29.7969 12.3899V13.1498C29.7969 13.2159 29.7633 13.2819 29.696 13.348C29.6287 13.4141 29.5615 13.4471 29.4942 13.4471H28.2834C28.2161 13.4471 28.1489 13.4141 28.0816 13.348C28.0143 13.2819 27.9807 13.2159 27.9807 13.1498V12.489C27.9807 11.5859 27.7228 10.859 27.2071 10.3084C26.6914 9.77974 25.9851 9.51542 25.0882 9.51542C24.0567 9.51542 23.0702 9.87885 22.1284 10.6057C21.1867 11.3326 20.514 12.2247 20.1104 13.2819V21.4427C20.1104 21.5088 20.0767 21.5749 20.0095 21.641C19.9422 21.707 19.8749 21.7401 19.8077 21.7401H18.5969C18.5296 21.7401 18.4623 21.707 18.3951 21.641C18.3278 21.5749 18.2942 21.5088 18.2942 21.4427V8.59031C18.2942 8.54626 18.3278 8.46916 18.3951 8.35903C18.4623 8.27092 18.5296 8.22687 18.5969 8.22687H19.4377C19.6395 8.22687 19.7628 8.38106 19.8077 8.68943L20.144 10.7379Z" fill="white"></path><path d="M40.0736 7.89648H40.0064C42.1365 7.89648 43.9191 8.53524 45.3541 9.81277C46.8116 11.1123 47.5403 12.8414 47.5403 15C47.5403 17.1806 46.8228 18.9097 45.3878 20.1872C43.9751 21.4427 42.1926 22.0705 40.04 22.0705C37.8874 22.0705 36.1048 21.4427 34.6922 20.1872C33.2572 18.9097 32.5396 17.1806 32.5396 15C32.5396 12.8414 33.2684 11.1123 34.7258 9.81277C36.1609 8.53524 37.9435 7.89648 40.0736 7.89648ZM40.0064 9.54846L40.04 9.51542C38.4256 9.51542 37.0802 10.011 36.0039 11.0022C34.9277 11.9934 34.3895 13.315 34.3895 14.967C34.3895 16.641 34.9277 17.9736 36.0039 18.9648C37.0802 19.9559 38.4256 20.4515 40.04 20.4515C41.632 20.4515 42.9661 19.9559 44.0424 18.9648C45.1187 17.9736 45.6568 16.652 45.6568 15C45.6568 13.348 45.1187 12.0264 44.0424 11.0352C42.9661 10.0441 41.6208 9.54846 40.0064 9.54846Z" fill="white"></path><path d="M63.6701 19.8238V19.8568C62.3472 21.3546 60.5646 22.1035 58.3223 22.1035C56.4164 22.1035 54.802 21.4868 53.479 20.2533C52.1337 18.9978 51.461 17.2577 51.461 15.033C51.461 13.0066 52.1225 11.3106 53.4454 9.94493C54.7459 8.60132 56.4276 7.92951 58.4905 7.92951C60.8 7.92951 62.5265 8.72247 63.6701 10.3084H63.7374V0.363437C63.7374 0.319384 63.771 0.242291 63.8383 0.132159C63.9055 0.0440529 63.9728 0 64.0401 0H65.2509C65.3181 0 65.3854 0.0440529 65.4527 0.132159C65.52 0.242291 65.5536 0.319384 65.5536 0.363437V21.4758C65.5536 21.5419 65.52 21.6079 65.4527 21.674C65.3854 21.7401 65.3069 21.7731 65.2172 21.7731H64.3091C64.1298 21.7731 64.0064 21.63 63.9392 21.3436L63.6701 19.8238ZM53.3445 15.033L53.2436 15.0661C53.2436 16.696 53.7369 18.0176 54.7235 19.0308C55.7101 20.022 56.9433 20.5176 58.4232 20.5176C60.5534 20.5176 62.3023 19.6476 63.6701 17.9075V13.1167C63.2216 12.0374 62.5378 11.1894 61.6184 10.5727C60.6543 9.93392 59.6004 9.61454 58.4569 9.61454C56.9994 9.61454 55.7886 10.1101 54.8244 11.1013C53.8378 12.1145 53.3445 13.4251 53.3445 15.033Z" fill="white"></path><path d="M81.4261 19.2621L81.3925 19.3282C80.8319 20.1432 80.0583 20.815 79.0717 21.3436C78.0851 21.8502 76.9752 22.1035 75.742 22.1035C73.8809 22.1035 72.4683 21.5859 71.5041 20.5507C70.5175 19.4714 70.0242 18.0507 70.0242 16.2885V8.65639C70.0242 8.59031 70.0579 8.51322 70.1252 8.42511C70.1924 8.337 70.2597 8.29295 70.327 8.29295H71.5378C71.605 8.29295 71.6723 8.337 71.7396 8.42511C71.8068 8.51322 71.8405 8.59031 71.8405 8.65639V16.2885C71.8405 17.6101 72.1768 18.6454 72.8495 19.3943C73.5222 20.1432 74.4863 20.5176 75.742 20.5176C76.9977 20.5176 78.1412 20.1542 79.1726 19.4273C80.2489 18.6784 81.0113 17.7753 81.4597 16.7181V8.62335C81.4597 8.57929 81.4934 8.5022 81.5606 8.39207C81.6279 8.30396 81.6952 8.25991 81.7624 8.25991H82.9733C83.0405 8.25991 83.1078 8.30396 83.1751 8.39207C83.2423 8.5022 83.276 8.57929 83.276 8.62335V21.4758C83.276 21.5419 83.2423 21.6079 83.1751 21.674C83.1078 21.7401 83.0405 21.7731 82.9733 21.7731H82.0651C81.8633 21.7731 81.74 21.6189 81.6952 21.3106L81.4261 19.2621Z" fill="white"></path><path d="M101.954 12.6211L101.819 12.5551C101.864 12.8634 101.886 13.0947 101.886 13.2489C101.886 13.4471 101.774 13.5463 101.55 13.5463H100.339C100.182 13.5463 100.081 13.4471 100.036 13.2489C99.8346 12.0815 99.2628 11.1674 98.3211 10.5066C97.3793 9.84581 96.2358 9.51542 94.8904 9.51542C93.2087 9.51542 91.8521 10.0441 90.8207 11.1013C89.7893 12.1366 89.2736 13.4361 89.2736 15C89.2736 16.6079 89.8341 17.9295 90.9552 18.9648C92.0539 19.978 93.4666 20.4846 95.1931 20.4846C97.1439 20.4846 98.9601 19.6586 100.642 18.0066C100.731 17.9185 100.832 17.8744 100.944 17.8744C101.057 17.8744 101.158 17.9185 101.247 18.0066L101.819 18.5683C101.931 18.6784 101.987 18.7775 101.987 18.8656C101.987 18.9537 101.931 19.0749 101.819 19.2291C100.205 21.1454 98.0183 22.1035 95.2604 22.1035C93.0181 22.1035 91.1683 21.4648 89.7108 20.1872C88.2309 18.9097 87.491 17.1916 87.491 15.033C87.491 12.9185 88.1973 11.2004 89.6099 9.87885C91.0225 8.55727 92.8163 7.89648 94.9913 7.89648C96.9196 7.89648 98.5004 8.35903 99.7337 9.28414C100.967 10.2093 101.707 11.3216 101.954 12.6211Z" fill="white"></path><path d="M106.76 9.87885L104.607 9.84581C104.54 9.84581 104.473 9.81277 104.405 9.7467C104.338 9.68062 104.304 9.61454 104.304 9.54846V8.49119C104.304 8.42511 104.338 8.35903 104.405 8.29295C104.473 8.22687 104.54 8.19383 104.607 8.19383H106.793V4.92291C106.793 4.87885 106.827 4.80176 106.894 4.69163C106.962 4.60352 107.029 4.55947 107.096 4.55947H108.307C108.374 4.55947 108.441 4.60352 108.509 4.69163C108.576 4.80176 108.61 4.87885 108.61 4.92291V8.19383H113.756C113.823 8.19383 113.89 8.22687 113.957 8.29295C114.025 8.35903 114.058 8.42511 114.058 8.49119V9.54846C114.058 9.61454 114.025 9.68062 113.957 9.7467C113.89 9.81277 113.823 9.84581 113.756 9.84581H108.61V17.1476C108.61 19.3282 109.551 20.4185 111.435 20.4185C112.264 20.4185 113.072 20.1322 113.856 19.5595C113.946 19.4714 114.047 19.4273 114.159 19.4273C114.249 19.4273 114.327 19.4824 114.395 19.5925L114.865 20.2863C114.955 20.3965 115 20.4956 115 20.5837C115 20.6718 114.944 20.7709 114.832 20.8811C113.8 21.674 112.634 22.0705 111.334 22.0705C109.876 22.0705 108.755 21.674 107.971 20.8811C107.163 20.0661 106.76 18.8326 106.76 17.1806V9.87885Z" fill="white"></path></svg> 