<?xml version="1.0" encoding="UTF-8"?> <svg xmlns="http://www.w3.org/2000/svg" width="127" height="30" viewBox="0 0 127 30" fill="none"><path d="M11.694 19.835L11.4621 19.868C9.58491 21.3421 7.46475 22.0792 5.10165 22.0792C3.44527 22.0792 2.18642 21.7272 1.3251 21.0231C0.441701 20.297 0 19.3729 0 18.2508C0 17.1727 0.452744 16.2816 1.35823 15.5776C2.26372 14.8735 3.62195 14.5215 5.43292 14.5215H11.5947V13.7954C11.5947 11.0011 9.92723 9.60396 6.59239 9.60396C3.78759 9.60396 2.38519 10.6051 2.38519 12.6073V12.7723C2.38519 12.9043 2.27476 12.9703 2.05391 12.9703H0.861317C0.795062 12.9703 0.728807 12.9263 0.662552 12.8383C0.596296 12.7503 0.563169 12.6733 0.563169 12.6073V12.4422C0.563169 11.0121 1.08217 9.90099 2.12017 9.10891C3.13608 8.31683 4.6489 7.92079 6.65864 7.92079C9.06591 7.92079 10.8106 8.45985 11.8928 9.53795C12.9971 10.6381 13.5492 12.1012 13.5492 13.9274V21.4521C13.5492 21.5182 13.5161 21.5842 13.4498 21.6502C13.3835 21.7162 13.3062 21.7492 13.2179 21.7492H12.3235C12.1468 21.7492 12.0253 21.6062 11.9591 21.3201L11.694 19.835ZM5.10165 20.462L5.06852 20.495C7.49788 20.495 9.65117 19.725 11.5284 18.1848V16.0396H5.36667C4.10782 16.0396 3.20233 16.2596 2.65021 16.6997C2.12016 17.1177 1.85514 17.6458 1.85514 18.2838C1.85514 18.9439 2.14225 19.4719 2.71646 19.868C3.26859 20.264 4.06365 20.462 5.10165 20.462Z" fill="white"></path><path d="M31.7499 12.6073L31.6174 12.5413C31.6616 12.8493 31.6837 13.0803 31.6837 13.2343C31.6837 13.4323 31.5733 13.5314 31.3524 13.5314H30.1598C30.0052 13.5314 29.9058 13.4323 29.8617 13.2343C29.6629 12.0682 29.0997 11.1551 28.1722 10.495C27.2446 9.83498 26.1182 9.50495 24.7931 9.50495C23.1368 9.50495 21.8006 10.033 20.7847 11.0891C19.7688 12.1232 19.2608 13.4213 19.2608 14.9835C19.2608 16.5897 19.813 17.9098 20.9172 18.9439C21.9994 19.956 23.3907 20.462 25.0913 20.462C27.0127 20.462 28.8016 19.637 30.458 17.9868C30.5463 17.8988 30.6457 17.8548 30.7561 17.8548C30.8665 17.8548 30.9659 17.8988 31.0543 17.9868L31.6174 18.5479C31.7279 18.6579 31.7831 18.7569 31.7831 18.8449C31.7831 18.9329 31.7279 19.0539 31.6174 19.2079C30.0273 21.1221 27.874 22.0792 25.1575 22.0792C22.949 22.0792 21.127 21.4411 19.6915 20.165C18.2339 18.8889 17.5051 17.1727 17.5051 15.0165C17.5051 12.9043 18.2008 11.1881 19.5921 9.86799C20.9835 8.54785 22.7503 7.88779 24.8925 7.88779C26.7918 7.88779 28.3488 8.34984 29.5635 9.27393C30.7782 10.198 31.507 11.3091 31.7499 12.6073Z" fill="white"></path><path d="M46.8597 19.835L46.6278 19.868C44.7506 21.3421 42.6304 22.0792 40.2673 22.0792C38.611 22.0792 37.3521 21.7272 36.4908 21.0231C35.6074 20.297 35.1657 19.3729 35.1657 18.2508C35.1657 17.1727 35.6184 16.2816 36.5239 15.5776C37.4294 14.8735 38.7876 14.5215 40.5986 14.5215H46.7604V13.7954C46.7604 11.0011 45.0929 9.60396 41.7581 9.60396C38.9533 9.60396 37.5509 10.6051 37.5509 12.6073V12.7723C37.5509 12.9043 37.4405 12.9703 37.2196 12.9703H36.027C35.9608 12.9703 35.8945 12.9263 35.8283 12.8383C35.762 12.7503 35.7289 12.6733 35.7289 12.6073V12.4422C35.7289 11.0121 36.2479 9.90099 37.2859 9.10891C38.3018 8.31683 39.8146 7.92079 41.8243 7.92079C44.2316 7.92079 45.9763 8.45985 47.0585 9.53795C48.1628 10.6381 48.7149 12.1012 48.7149 13.9274V21.4521C48.7149 21.5182 48.6818 21.5842 48.6155 21.6502C48.5492 21.7162 48.4719 21.7492 48.3836 21.7492H47.4892C47.3125 21.7492 47.191 21.6062 47.1248 21.3201L46.8597 19.835ZM40.2673 20.462L40.2342 20.495C42.6636 20.495 44.8169 19.725 46.6941 18.1848V16.0396H40.5324C39.2735 16.0396 38.368 16.2596 37.8159 16.6997C37.2859 17.1177 37.0208 17.6458 37.0208 18.2838C37.0208 18.9439 37.3079 19.4719 37.8822 19.868C38.4343 20.264 39.2293 20.462 40.2673 20.462Z" fill="white"></path><path d="M64.7623 19.802V19.835C63.4593 21.3311 61.7036 22.0792 59.4951 22.0792C57.6178 22.0792 56.0277 21.4631 54.7247 20.231C53.3996 18.9769 52.737 17.2387 52.737 15.0165C52.737 12.9923 53.3885 11.2981 54.6916 9.93399C55.9725 8.59186 57.6289 7.92079 59.6607 7.92079C61.9355 7.92079 63.636 8.71287 64.7623 10.297H64.8286V0.363037C64.8286 0.319032 64.8617 0.242024 64.928 0.132013C64.9942 0.0440045 65.0605 0 65.1267 0H66.3193C66.3856 0 66.4519 0.0440045 66.5181 0.132013C66.5844 0.242024 66.6175 0.319032 66.6175 0.363037V21.4521C66.6175 21.5182 66.5844 21.5842 66.5181 21.6502C66.4519 21.7162 66.3746 21.7492 66.2862 21.7492H65.3918C65.2151 21.7492 65.0936 21.6062 65.0274 21.3201L64.7623 19.802ZM54.5922 15.0165L54.4928 15.0495C54.4928 16.6777 54.9787 17.9978 55.9504 19.0099C56.9221 20 58.1368 20.495 59.5944 20.495C61.6925 20.495 63.4152 19.626 64.7623 17.8878V13.1023C64.3206 12.0242 63.647 11.1771 62.7416 10.5611C61.7919 9.92299 60.7539 9.60396 59.6276 9.60396C58.192 9.60396 56.9995 10.099 56.0498 11.0891C55.078 12.1012 54.5922 13.4103 54.5922 15.0165Z" fill="white"></path><path d="M85.1001 15.5116H72.5447C72.6772 17.1177 73.2735 18.3388 74.3336 19.1749C75.4158 20.011 76.7299 20.429 78.2758 20.429C80.2414 20.429 81.953 19.703 83.4106 18.2508C83.5431 18.1188 83.6646 18.0528 83.775 18.0528C83.8854 18.0528 83.9848 18.0968 84.0731 18.1848L84.6694 18.7459C84.7578 18.8339 84.8019 18.9329 84.8019 19.0429C84.8019 19.1969 84.7136 19.3619 84.5369 19.538C82.9247 21.2101 80.8377 22.0462 78.2758 22.0462C76.0452 22.0462 74.2232 21.4081 72.8098 20.132C71.3742 18.8339 70.6565 17.1177 70.6565 14.9835C70.6565 12.9813 71.3411 11.2981 72.7104 9.93399C74.0797 8.56986 75.8906 7.88779 78.1433 7.88779C80.3739 7.88779 82.0965 8.49285 83.3112 9.70297C84.6363 11.0231 85.2547 12.5413 85.1663 14.2574L85.1001 15.5116ZM78.1102 9.50495C76.763 9.50495 75.5593 9.86799 74.4993 10.5941C73.4613 11.3201 72.8208 12.4312 72.5779 13.9274H83.2118C83.1676 12.5633 82.7039 11.4851 81.8205 10.6931C80.915 9.90099 79.6782 9.50495 78.1102 9.50495Z" fill="white"></path><path d="M89.2677 21.4191L89.1683 8.61386C89.1683 8.56986 89.2014 8.49285 89.2677 8.38284C89.3339 8.29483 89.4002 8.25082 89.4665 8.25082H90.3609C90.5376 8.25082 90.648 8.40484 90.6922 8.71287L90.9903 10.6271H91.0897C91.6418 9.81298 92.3596 9.15292 93.243 8.64686C94.0822 8.16282 94.9988 7.92079 95.9926 7.92079C97.0085 7.92079 97.9029 8.17382 98.6759 8.67987C99.4489 9.16392 99.9789 9.88999 100.266 10.8581H100.332C101.635 8.87789 103.391 7.88779 105.6 7.88779C107.079 7.88779 108.239 8.33883 109.078 9.24092C109.895 10.121 110.304 11.3751 110.304 13.0033V21.4191C110.304 21.4851 110.271 21.5512 110.204 21.6172C110.138 21.6832 110.072 21.7162 110.006 21.7162H108.813C108.747 21.7162 108.68 21.6832 108.614 21.6172C108.548 21.5512 108.515 21.4851 108.515 21.4191V13.5314C108.515 10.8691 107.499 9.53795 105.467 9.53795C104.495 9.53795 103.568 9.85699 102.684 10.495C101.845 11.1111 101.172 11.9692 100.664 13.0693V21.4191C100.664 21.4851 100.63 21.5512 100.564 21.6172C100.498 21.6832 100.432 21.7162 100.365 21.7162H99.1728C99.1066 21.7162 99.0403 21.6832 98.9741 21.6172C98.9078 21.5512 98.8747 21.4851 98.8747 21.4191V13.5314C98.8747 10.8691 97.8588 9.53795 95.827 9.53795C94.811 9.53795 93.8835 9.85699 93.0442 10.495C92.2271 11.1331 91.5645 11.9912 91.0566 13.0693V21.4191C91.0566 21.4851 91.0235 21.5512 90.9572 21.6172C90.8909 21.6832 90.8247 21.7162 90.7584 21.7162H89.5658C89.4996 21.7162 89.4333 21.6832 89.3671 21.6172C89.3008 21.5512 89.2677 21.4851 89.2677 21.4191Z" fill="white"></path><path d="M126.867 8.87789L118.221 29.703C118.155 29.901 117.989 30 117.724 30H116.432C116.278 30 116.2 29.945 116.2 29.835C116.2 29.747 116.256 29.582 116.366 29.3399L119.546 21.6832L112.722 8.84488C112.612 8.64686 112.556 8.50385 112.556 8.41584C112.556 8.28383 112.634 8.21782 112.788 8.21782H114.113C114.356 8.21782 114.544 8.34983 114.677 8.61386L119.513 17.7228L120.374 19.538H120.441L125.012 8.54786C125.101 8.32783 125.266 8.21782 125.509 8.21782H126.801C126.934 8.21782 127 8.28383 127 8.41584C127 8.54785 126.956 8.70187 126.867 8.87789Z" fill="white"></path></svg> 