<?xml version="1.0" encoding="UTF-8"?> <svg xmlns="http://www.w3.org/2000/svg" xmlns:xlink="http://www.w3.org/1999/xlink" xmlns:xodm="http://www.corel.com/coreldraw/odm/2003" xml:space="preserve" width="300mm" height="237.179mm" version="1.1" style="shape-rendering:geometricPrecision; text-rendering:geometricPrecision; image-rendering:optimizeQuality; fill-rule:evenodd; clip-rule:evenodd" viewBox="0 0 1989.81 1573.14"> <defs> <style type="text/css"> .fil2 {fill:#D9DADA} .fil0 {fill:#9D9E9E} .fil1 {fill:#727271} .fil3 {fill:#5B5B5B} .fil4 {fill:#727271;fill-rule:nonzero} </style> </defs> <g id="Слой_x0020_1"> <metadata id="CorelCorpID_0Corel-Layer"></metadata> <polygon class="fil0" points="503.72,283.58 503.72,1143.15 994.9,859.84 1486.08,1143.15 1486.08,283.58 994.9,0 "></polygon> <polygon class="fil1" points="994.9,737.05 610.07,959.01 716.46,1020.44 994.9,859.84 1379.69,1081.78 1486.08,1020.35 "></polygon> <polygon class="fil1" points="994.9,614.25 1273.34,774.85 1379.74,713.42 994.9,491.46 503.72,774.76 610.07,836.22 "></polygon> <polygon class="fil1" points="716.46,529.26 994.9,368.66 1379.74,590.63 1486.08,529.17 994.9,245.87 610.06,467.84 "></polygon> <polygon class="fil1" points="994.9,123.07 1379.74,345.04 1486.08,283.58 994.9,0 503.72,283.58 610.06,345.04 "></polygon> <polygon class="fil2" points="994.9,123.07 610.06,345.04 610.06,467.84 994.9,245.87 "></polygon> <polygon class="fil2" points="994.9,368.66 503.72,651.97 503.72,774.76 994.9,491.46 "></polygon> <polygon class="fil2" points="994.9,614.25 610.07,836.22 610.07,959.01 994.9,737.05 "></polygon> <polygon class="fil3" points="994.9,245.87 1486.08,529.17 1486.08,406.38 994.9,123.07 "></polygon> <polygon class="fil3" points="1379.74,590.63 994.9,368.66 994.96,491.49 1379.74,713.42 "></polygon> <polygon class="fil3" points="994.9,614.25 994.9,737.05 1486.08,1020.35 1486.08,897.56 "></polygon> <path class="fil4" d="M0.02 1435.37c-0.39,-27.69 9.65,-51.43 30.13,-71.22 20.47,-19.79 44.75,-29.39 72.83,-28.81 18.33,0 34.95,4.24 49.87,12.72 14.92,8.48 26.66,20.23 35.24,35.24l-29.83 21.06c-13.84,-21.64 -32.27,-32.47 -55.28,-32.47 -17.94,0 -32.81,6.05 -44.6,18.14 -11.8,12.09 -17.69,27.3 -17.69,45.63 0,18.33 5.9,33.44 17.69,45.34 11.8,11.89 26.67,17.84 44.6,17.84 23.01,0 41.44,-10.82 55.28,-32.47l29.83 21.06c-8.39,15.02 -20.08,26.76 -35.1,35.24 -15.01,8.48 -31.78,12.72 -50.31,12.72 -28.27,0.58 -52.6,-9.02 -72.98,-28.81 -20.38,-19.79 -30.27,-43.53 -29.69,-71.22zm265.28 96.52l0 -157.36 -61.71 0 0 -35.68 163.21 0 0 35.68 -62.01 0 0 157.36 -39.49 0zm127.52 0l0 -193.04 72.54 0c20.28,0 36.95,5.75 50.02,17.26 13.06,11.5 19.59,26.52 19.59,45.04 0,18.33 -6.53,33.34 -19.59,45.04 -13.07,11.7 -29.74,17.55 -50.02,17.55l-33.05 0 0 68.15 -39.49 0zm39.49 -102.66l33.05 0c9.17,0 16.33,-2.58 21.5,-7.75 5.17,-5.17 7.75,-11.94 7.75,-20.33 0,-8.19 -2.68,-14.82 -8.04,-19.89 -5.36,-5.07 -12.43,-7.6 -21.21,-7.6l-33.05 0 0 55.57zm123.14 6.14c-0.39,-27.49 9.6,-51.18 29.98,-71.07 20.38,-19.89 44.51,-29.54 72.39,-28.96 27.88,-0.58 52.11,9.07 72.68,28.96 20.57,19.89 30.66,43.58 30.27,71.07 0.39,27.49 -9.7,51.19 -30.27,71.07 -20.57,19.89 -44.8,29.54 -72.68,28.96 -27.88,0.58 -52.01,-9.07 -72.39,-28.96 -20.38,-19.89 -30.37,-43.58 -29.98,-71.07zm164.67 0c0,-18.33 -5.9,-33.49 -17.69,-45.48 -11.8,-11.99 -26.57,-17.99 -44.31,-17.99 -17.94,0 -32.76,5.95 -44.46,17.84 -11.7,11.89 -17.55,27.1 -17.55,45.63 0,18.53 5.85,33.73 17.55,45.63 11.7,11.89 26.52,17.84 44.46,17.84 17.74,0 32.52,-5.95 44.31,-17.84 11.8,-11.9 17.69,-27.1 17.69,-45.63zm226.38 -100.03l13.16 0 0 196.55 -39.49 0 0 -119.63 -113.19 123.14 -12.87 0 0 -196.55 39.49 0 0 118.46 112.9 -121.97zm-114.65 -65.22l0 -4.39 31.59 0 0 5.56c0,7.02 1.66,12.48 4.97,16.38 3.31,3.9 7.99,5.85 14.04,5.85 6.05,0 10.72,-1.95 14.04,-5.85 3.32,-3.9 4.97,-9.36 4.97,-16.38l0 -5.56 31.3 0 0 4.39c0,15.01 -4.68,27.4 -14.04,37.15 -9.36,9.55 -21.45,14.33 -36.27,14.33 -15.01,0 -27.2,-4.78 -36.56,-14.33 -9.36,-9.75 -14.04,-22.13 -14.04,-37.15zm401.58 303.02l0 -41.24 -147.7 0 0 -193.04 39.48 0 0 157.36 80.73 0 0 -157.36 39.49 0 0 157.36 25.74 0 0 76.93 -37.73 0zm66.98 -41.24l0 -193.04 129.86 0 0 35.68 -90.38 0 0 39.19 66.4 0 0 33.64 -66.4 0 0 48.85 93.89 0 0 35.68 -133.37 0zm167.59 0l0 -193.04 39.49 0 0 74 85.41 0 0 -74 39.49 0 0 193.04 -39.49 0 0 -83.36 -85.41 0 0 83.36 -39.49 0zm252.12 0l0 -157.36 -61.71 0 0 -35.68 163.21 0 0 35.68 -62.01 0 0 157.36 -39.49 0zm127.52 0l0 -193.04 72.54 0c20.28,0 36.95,5.75 50.02,17.26 13.06,11.5 19.59,26.52 19.59,45.04 0,18.33 -6.53,33.34 -19.59,45.04 -13.07,11.7 -29.74,17.55 -50.02,17.55l-33.05 0 0 68.15 -39.48 0zm39.48 -102.66l33.05 0c9.17,0 16.33,-2.58 21.5,-7.75 5.17,-5.17 7.75,-11.94 7.75,-20.33 0,-8.19 -2.68,-14.82 -8.04,-19.89 -5.36,-5.07 -12.43,-7.6 -21.21,-7.6l-33.05 0 0 55.57z"></path> </g> </svg> 