<?xml version="1.0" encoding="UTF-8"?> <svg xmlns="http://www.w3.org/2000/svg" xmlns:xlink="http://www.w3.org/1999/xlink" xmlns:xodm="http://www.corel.com/coreldraw/odm/2003" xml:space="preserve" width="300mm" height="119.421mm" version="1.1" style="shape-rendering:geometricPrecision; text-rendering:geometricPrecision; image-rendering:optimizeQuality; fill-rule:evenodd; clip-rule:evenodd" viewBox="0 0 1993.49 793.55"> <defs> <style type="text/css"> .fil0 {fill:#727271} </style> </defs> <g id="Слой_x0020_1"> <metadata id="CorelCorpID_0Corel-Layer"></metadata> <path class="fil0" d="M1798.96 438.38c-7.32,-10.94 -208.69,-154.93 -239.89,-179.31 -10.87,-8.49 -10.06,-9.87 -28.46,-9.9 -25.66,-0.04 -51.31,0.21 -76.99,0.04 -27.87,-0.18 -19.94,3.35 -51.94,24.78l-108.03 -78.28c-10.03,-7.52 -98.87,-75.34 -108.42,-77.89 2.98,-11.17 25.16,-22.25 34.05,-28.96 6.81,-5.13 10.59,-7.9 17.22,-12.92 22.14,-16.78 15.82,-17.72 49.57,4.06l143.14 89.75c11.1,6.65 51.42,33.42 60.15,35.75 -5.93,-8.85 -26.34,-21.08 -36.8,-28.96l-118.2 -87.28c-13.97,-10.5 -25.46,-19.27 -39.1,-29.4 -22.59,-16.77 -18.7,-13.3 -55.23,-13.27 -20.37,0.02 -50.02,-3.79 -63.76,4.73 -11.26,6.98 -29.36,25.21 -40.35,28.14 -84.62,-56.66 -85.67,-74.55 -117.72,-79.46l-175.45 0 -55.77 0c-5.81,1.58 -9.36,5.67 -22.12,15.27l-160.9 118.56c-9.36,6.87 -17.3,13.03 -26.58,20l-53.63 39.53c-9.93,7.46 -17.3,12.23 -27.02,19.55l-267.71 198.07c-12.77,9.6 -44.4,29.66 -52.06,41.1l224.85 0.18c21.34,-0.06 29.17,-10.57 50.31,-26.41l524.89 -387.5 272.83 171.03c9.08,5.56 16.54,10.17 25.28,15.82 9.44,6.09 92.9,60.08 101.91,62.48 -3.83,14.36 -38.96,33.31 -50.88,42.27 -15.76,11.84 -156.72,113.01 -162.83,122.12 21.92,0 43.84,-0 65.76,0 10.29,0 23.11,0.72 33.05,0.17 16.03,-0.89 47.96,-28.71 62.07,-39.31l195.31 -144.43c12.58,2.93 24.75,12.87 35.49,19.31 11.54,6.91 23.19,14.75 35.22,22.32l172.27 107.2c10.43,6.16 25.95,18.23 36.49,21.04z"></path> <path class="fil0" d="M42.69 791.82l27.4 0c5.89,-25.29 16.13,-47.13 23.66,-69.5l9.22 -23.66c6.12,26.24 28.51,73.61 30.14,93.15l27.4 0 35.27 -104.46c8.29,-24.69 15.2,-29.79 -7.87,-29.79 -12,0 -15.72,23.85 -22.27,43.49 -3.99,11.96 -15.04,39.8 -16.09,52.41l-5.48 0c-0.82,-9.94 -4.15,-16.38 -7.22,-25.66 -3.17,-9.61 -4.33,-15.76 -7.48,-25.4 -3.09,-9.46 -5.2,-15.05 -8.23,-24.65 -6.63,-21.03 -2.8,-20.18 -23.65,-20.18 -9.46,0 -15.33,27.03 -22.27,46.23 -3.87,10.69 -15.13,40.93 -16.09,52.41 -1.98,-2.85 -0.18,0.82 -2.92,-5.3l-15.23 -45.05c-16.28,-48.84 -10.35,-48.28 -33.91,-48.28 -12.83,0 -5.54,9.49 1.03,29.1 4.31,12.87 7.34,22.08 11.63,34.95 7.56,22.69 17.82,48.19 22.95,70.2z"></path> <path class="fil0" d="M985.21 350.71l0 101.37 109.6 0 0 -109.59 -101.38 0c-6.31,0 -8.22,1.91 -8.22,8.22z"></path> <polygon class="fil0" points="985.21,323.31 1094.81,323.31 1094.81,216.45 985.21,216.45 "></polygon> <polygon class="fil0" points="859.18,452.08 966.03,452.08 966.03,342.49 859.18,342.49 "></polygon> <polygon class="fil0" points="859.18,323.31 966.03,323.31 966.03,216.45 859.18,216.45 "></polygon> <path class="fil0" d="M826.3 769.91l-27.4 0 0 -87.68c24.42,0 76.71,-7.57 76.71,38.36 0,30.94 -11.9,49.32 -49.32,49.32zm-54.8 -104.11l0 126.03c38.15,0 84.51,5.83 109,-17.04 38.27,-35.74 36.94,-117.22 -67.9,-117.22 -28.31,0 -41.1,-3.96 -41.1,8.22z"></path> <path class="fil0" d="M1300.3 769.91c-65,0 -60.95,-90.42 0,-90.42 55.83,0 58.4,90.42 0,90.42zm-73.98 -46.58c0,90.35 142.47,96.13 142.47,0 0,-87.7 -142.47,-87.66 -142.47,0z"></path> <path class="fil0" d="M316.68 726.07c0,-60.44 90.42,-63.73 90.42,0 0,59.31 -90.42,58.03 -90.42,0zm-24.66 -8.22c0,21.28 -0.28,35.66 15.68,52.82 26.29,28.28 76.75,31.51 107.06,1.42 33.63,-33.39 27.8,-114.52 -59.72,-114.52 -31.57,0 -63.02,28.82 -63.02,60.28z"></path> <path class="fil0" d="M552.31 726.07c0,-63.04 90.42,-56.52 90.42,-8.22 0,15.39 0.54,26.94 -10.4,38.92 -23.2,25.38 -80.01,13.86 -80.01,-30.7zm-24.66 -8.22c0,85.26 87.26,89.67 121.33,55.58 39.67,-39.69 26.19,-115.85 -58.31,-115.85 -30.03,0 -63.02,30.03 -63.02,60.28z"></path> <path class="fil0" d="M1004.39 665.79l0 117.81c0,10.92 7.76,8.22 27.4,8.22l0 -57.54 65.76 0 0 57.54 24.66 0 0 -134.25c-30.84,0 -24.66,-7.96 -24.66,54.8l-65.76 0c0,-61.11 4.97,-54.8 -19.18,-54.8 -6.31,0 -8.22,1.91 -8.22,8.22z"></path> <path class="fil0" d="M1894.86 665.79l0 126.03 98.64 0 0 -21.92 -73.98 0 0 -35.62c66.69,0 65.76,5.17 65.76,-13.7 0,-14.11 -27.05,-8.22 -65.76,-8.22l0 -30.14 71.24 0 0 -24.66 -87.68 0c-6.31,0 -8.22,1.91 -8.22,8.22z"></path> <path class="fil0" d="M1470.17 665.79c0,57.1 -11.84,125.97 57.85,127.73 72.75,1.84 59.96,-77.01 59.96,-127.73 0,-10.07 -5.85,-8.22 -19.18,-8.22 -19.58,0 0.23,74.37 -11.55,98.05 -9.72,19.56 -45.3,18.75 -55.4,1.78 -7.04,-11.83 -4.42,-53.34 -4.27,-69.71 0.28,-29.43 4.28,-30.12 -19.2,-30.12 -6.31,0 -8.22,1.91 -8.22,8.22z"></path> <path class="fil0" d="M1689.36 695.93c0,46.94 61.26,30.37 79.46,57.54 -3.66,15.7 -14.82,19.32 -31.93,18.02 -22.61,-1.72 -26.58,-8.94 -42.05,-12.54 -3.17,6.61 -4.68,12.48 -8.22,19.18 45.05,23.84 106.86,21.63 106.86,-27.4 0,-45.58 -76.72,-24.17 -76.72,-57.53 0,-27.75 65.73,-5.48 65.76,-5.48 0.96,-11.52 3.11,-9.03 5.48,-19.18 -43.16,-22.84 -98.64,-9.57 -98.64,27.4z"></path> <path class="fil0" d="M1807.18 443.86c-4.1,-5.9 -0.4,-3.61 -8.22,-5.48 4.1,5.9 0.4,3.61 8.22,5.48z"></path> <path class="fil0" d="M1497.57 210.97c-4.1,-5.9 -0.4,-3.61 -8.22,-5.48 4.1,5.89 0.4,3.61 8.22,5.48z"></path> <polygon class="fil0" points="1807.18,443.86 1807.18,446.6 1810.38,444.32 "></polygon> <polygon class="fil0" points="1497.57,210.97 1497.57,213.71 1500.77,211.43 "></polygon> </g> </svg> 