<?xml version="1.0" encoding="UTF-8"?> <svg xmlns="http://www.w3.org/2000/svg" xmlns:xlink="http://www.w3.org/1999/xlink" xmlns:xodm="http://www.corel.com/coreldraw/odm/2003" xml:space="preserve" width="300mm" height="66.0396mm" version="1.1" style="shape-rendering:geometricPrecision; text-rendering:geometricPrecision; image-rendering:optimizeQuality; fill-rule:evenodd; clip-rule:evenodd" viewBox="0 0 1989.81 438.02"> <defs> <style type="text/css"> .fil0 {fill:#727271} </style> </defs> <g id="Слой_x0020_1"> <metadata id="CorelCorpID_0Corel-Layer"></metadata> <g id="_2062525438080"> <path class="fil0" d="M1632.07 129.6c15.77,-1.66 32.3,-2.31 48.31,-3.23 64.15,-3.67 135.89,-2.74 199.81,2.27 1.77,0.14 11.33,0.45 12.01,1.15 0.55,0.57 0.23,0.05 0.4,1.23 2.64,19.38 3.5,67.01 3.02,84.7 -0.16,5.87 -1.95,45.57 -3.54,47.62 -0.88,0.74 -0.8,0.48 -2.41,0.57l-43.48 1.36 -141.62 -1.48 -0.07 46.84 -72.43 -0.09 0.01 -180.95zm-29.46 112.43c-1.05,13.16 -2.06,36.51 -3.92,48.68 -0.16,1.05 -1.37,14.56 -2.3,15.35 -3.13,1.7 -58.48,5.24 -67.24,5.92 -22.96,1.78 -48.08,2.06 -71.32,2.04 -23.33,-0.02 -48.22,-0.27 -71.26,-2.04 -8.42,-0.65 -64.58,-4.25 -67.27,-5.96l-1.67 -10.34c-0.4,-3.23 -0.83,-6.59 -1.26,-10.03 -5.14,-41.27 -4.72,-90.04 0.06,-131.39l2.17 -18.05c0.28,-1.65 -0.12,-1.03 0.69,-2.04 2.16,-1.92 73.5,-6.21 85.43,-6.68 9.92,-0.39 19.83,-0.36 29.79,-0.76 19.34,-0.76 40.68,-0.45 60.18,0.21l58.3 2.64c2.04,-0.55 3.32,-0.06 5.06,-0.53 6.21,-1.71 6.93,0.12 13.93,-0.92 4.02,-0.6 53.54,-0.19 60.06,-0.19 -1.34,5.06 -0.58,56.9 -0.58,66.7 -4.49,0 -8.97,0 -13.46,0 -13.76,0 -9.4,-0.61 -11.41,1.76 -1.33,-1.08 -1.45,-1.83 -2.2,0.44 -1.71,-1.38 -0.53,0.28 -1.19,-1.53 -0.48,-1.31 -0.13,-0.33 0.31,-0.66l0 41.69c0.01,1.88 0.53,4.54 -0.9,5.7zm-296.5 -111.61c-2.17,0.86 -59.38,59.78 -67.04,67.08 -3.07,2.92 -21.24,20.74 -22.13,22.59 0.96,1.52 21.6,21 23.36,22.67l35.4 33.93c4.28,4.07 33.68,31.8 34.75,33.89 -23.01,0.83 -47.55,0.05 -70.74,0.05 -10.14,0 -8.62,1.26 -14.25,-3.46l-28.57 -24.08c-11.88,-10.02 -27.35,-22.51 -38.15,-32.07 -2.49,-2.21 -2.01,-2.53 -6.35,-2.48l-26.34 0.01c-10.82,-0 -24.26,-0.72 -34.75,0.05 -1.12,6.39 0.89,57.14 -0.53,62.3l-72.47 -0.18c-0.9,-3.73 -0.39,-179.87 0.02,-181.16 -1.43,2.91 -0.66,160.95 -0.66,178.28 -0.11,0.1 -0.28,0.17 -0.38,0.24 -0.09,0.06 -0.25,0.15 -0.35,0.23l-1.9 2.17c-1.05,-1.24 -0.88,1.7 -0.88,-1.75 -66.23,-0.44 -133.63,-0 -200.11,-0 -15.14,0 -7.52,0.22 -11.85,1.76l0.44 -45.64 0 40.37c0.02,2.37 0.45,4.67 -0.86,5.55l-72.38 -0.05c-1.02,-0.82 -0.42,0.08 -0.87,-1.52l-0.05 -3.97c0.01,-1.9 0,-3.8 0,-5.71 0,-56.05 0.5,-113.74 -0.15,-169.39l0 167.19 -20.48 0 -0.01 2.52c-0.36,0.07 -4.08,0.78 -3.81,0.22 -0.06,2.71 3.2,6.97 3.62,10.56l-72.13 -0.07 -11.19 -26.82 -142.61 0.06 -9.52 26.83 -72.13 -0.03c0.73,-4.34 20.33,-47.03 20.56,-50.75 -0.69,-0.58 -0.78,-0.2 -1.63,-0.17 -6.36,0.19 -36.14,-0.57 -38.75,-0.07l-0.62 0.18c-0.1,0.03 -0.22,0.1 -0.31,0.14 -0.11,0.05 -0.54,0.36 -1.03,0.54l-0.87 -2.63c1.06,1.04 0.16,0.39 -0.39,0.88 -0.72,8.04 -1.23,16.24 -2.11,24.19 -0.43,3.89 -0.79,8 -1.31,11.95 -0.2,1.54 -0.94,10.55 -1.97,11.3 -2.3,1.66 -58.74,5.24 -66.03,5.81 -40.64,3.14 -98.77,2.29 -139.7,-0.06 -8.13,-0.47 -63.05,-4.17 -65.7,-5.89 -1.13,-1.05 -2.5,-17.49 -2.85,-20.45 -0.82,-7.07 -1.2,-13.77 -1.89,-21.01 -2.29,-24.26 -2.32,-64.65 0,-88.96 0.56,-5.87 3,-39.06 4.72,-41.41 2.1,-1.33 52.91,-5.02 60,-5.39 52.49,-2.76 105.59,-3.55 158.12,0.37 4.44,0.33 27.98,2.45 30.23,2.12 3.57,-0.88 14.42,-0.4 16.95,-0.6l1.13 -0.2c0.14,-0.03 0.23,-0.07 0.37,-0.1 2.29,-0.46 10.02,-0.23 12.61,-0.23 28.54,0 68.8,0.91 94.78,-0.44 0.08,1.14 0.11,1.38 0.29,2.23 1.09,-3.46 2.13,-2.6 5.79,-3.24 32.83,-5.68 79.82,-5.46 113.19,-3.59 3.6,0.2 13.89,1.63 16.67,0.98 5.76,-1.54 0.88,-1.21 9.75,-1.21l147.05 0.02c1.6,0.11 3.1,0.66 4.49,0.8 1.99,0.21 2.75,-0.16 4.78,0.39 2.89,0.81 21.53,-0.7 26.24,-0.84 46.9,-1.32 85.79,-1.42 132.96,0.84 6.46,0.31 48.9,3.53 51.11,2.67l2.34 -1.8c0.06,-0.09 0.21,-0.15 0.26,-0.37 0.05,-0.24 0.17,-0.27 0.28,-0.4 7.83,0 4.2,-0.55 7.4,-0.88l13.66 0c93.62,0 187.23,0 280.85,0 2.32,0 39.24,-0.72 41.07,0.53l0.81 0.88c0.05,-0.08 0.15,0.23 0.24,0.34l-2.17 0.91c-1.53,0.24 -18.34,-0.42 -20.31,0.11l-1.3 0.46c-0.13,0.03 -0.25,0.05 -0.38,0.07 -4.46,0.57 -2.6,-0.23 -2.6,-0.23 0,3.83 0.07,1.17 -0.75,2.04zm-476.69 -130.07c-136.96,0.5 -274.3,2.9 -411.18,5.21 -101.63,1.72 -203.77,5.13 -305.42,7.53l-75.46 2.43c-1.47,0.03 -23.65,-0.04 -24.82,1.17 -0.9,0.94 -4.1,43.41 -4.41,48.03 -1.08,16.33 -2.58,32.29 -3.84,48.63 -7.43,96.82 -4.61,154.58 3.91,249.63l3.55 42.5c0.7,7.13 -1.7,5.68 15.49,6.35l45.21 2.29c19.9,0.83 40.01,1.97 60.11,3.1 39.93,2.24 80.41,3.69 120.24,5.44 81.3,3.56 162.35,6.33 243.99,8.45 165.37,4.31 331.43,6.91 498.07,6.89 166.49,-0.02 332.6,-2.78 497.61,-7.01 20.81,-0.53 41.3,-1.23 61.89,-1.76 10.26,-0.27 20.13,-0.83 30.27,-1 9.61,-0.17 21.02,-0.4 30.42,-1.1 10.13,-0.75 20.56,-0.46 30.91,-1 10.25,-0.53 20.02,-0.72 30.41,-1.16l181.22 -7.77c29.11,-1.4 61.08,-2.63 90.12,-4.66l22.66 -1.13c8.46,-0.34 7.03,1.79 7.96,-11.4 0.27,-3.79 0.59,-6.84 0.89,-10.53l5.29 -64.38c2.54,-28.85 4.18,-58.33 5.02,-87.47 1.16,-40.4 -1.45,-93.43 -4.92,-134.51 -0.54,-6.38 -3.87,-39.4 -3.14,-42.76 -0.34,-0.56 -0.12,0.05 -0.37,-0.98l-0.27 -2.55c-0.08,-1.29 -0.19,-2.3 -0.29,-3.54 -0.19,-2.28 -0.32,-4.41 -0.59,-6.56 -0.95,-1.12 -0.8,1.4 -0.8,-1.31 0.66,0.24 0.23,2.6 0.36,3.95l-0.82 0.44c-2.67,1.07 -69.92,0.44 -72.39,0.44 -9.41,0 -220.77,0.46 -221.18,-0.31 -0.09,-0.17 -0.29,-0.08 -0.43,-0.13 -0.97,-0.97 -0.44,-39.22 -0.44,-39.93 -2.65,0 -3.32,-0.44 -5.7,-0.44 -0.36,-0.43 -0.33,-1.21 -0.44,-1.53 -69.47,-1.42 -139.66,-3.28 -209.76,-4.2 -70.61,-0.93 -140.78,-2.01 -211.51,-2.66 -142.47,-1.32 -284.93,-1.2 -427.41,-0.7z"></path> <path class="fil0" d="M348.57 131.26c1.64,1.08 8.77,1.2 11.31,1.4 4.04,0.32 8.15,0.84 12.08,1.21 1.18,3.51 4.82,34.98 4.06,37.84 0.6,0.96 0.61,2.08 0.71,3.39 0.39,5.53 1.66,22.2 1.03,25.55l-80.16 0 -1.9 -22.41c-2.49,0.52 -24.33,-1.54 -29.3,-1.79 -10,-0.5 -20.03,-0.8 -30.27,-0.82 -8.91,-0.02 -54.99,1 -59.79,3.2 -2.44,6.17 -3.66,32.95 -3.64,41.25 0.02,9.28 1.16,33.06 3.59,41.4 8.98,1.45 19.47,1.5 28.89,2.23 22.03,1.71 53.57,0.43 76.13,-0.99 2.51,-0.16 5.29,-0.33 7.54,-0.55l5.21 -0.45c1.95,-0.38 0.76,0.15 1.58,-0.61 0.91,-1.25 1.62,-15.75 1.97,-18.7l80.16 -0.01 -0.73 16.3c0.55,-0.48 1.44,0.16 0.39,-0.88l0.87 2.63c0.49,-0.18 0.92,-0.49 1.03,-0.54 0.09,-0.04 0.21,-0.1 0.31,-0.14l0.62 -0.18c2.61,-0.49 32.39,0.26 38.75,0.07 0.86,-0.03 0.95,-0.4 1.63,0.17 1.49,-1.29 36.4,-85.94 40.45,-95.65 3.65,-8.75 9.91,-24.42 13.6,-32.28 -0.18,-0.85 -0.21,-1.09 -0.29,-2.23 -25.98,1.35 -66.25,0.44 -94.78,0.44 -2.59,0 -10.32,-0.23 -12.61,0.23 -0.14,0.03 -0.24,0.07 -0.37,0.1l-1.13 0.2c-2.53,0.2 -13.38,-0.27 -16.95,0.6z"></path> <path class="fil0" d="M986.72 128.75c0.12,0.08 0.29,0.13 0.4,0.17l0.78 0.29c2.34,0.83 1.78,-0.05 2.24,5.75 1.78,22.54 2.82,36.21 3.05,60.11 0.08,8.53 -1.18,60.01 -3.78,68.69 -31.13,1.44 -62.61,1.87 -94.16,1.68 -15.63,-0.1 -32.02,0.07 -47.41,-0.59l-45.97 -1.12 -0.07 47.03c1.31,-0.88 0.88,-3.18 0.86,-5.55l-0 -40.37 -0.44 45.64c4.33,-1.53 -3.3,-1.76 11.85,-1.76 66.48,0 133.88,-0.44 200.11,0 0,3.45 -0.17,0.52 0.88,1.75l1.9 -2.17c0.11,-0.07 0.26,-0.17 0.35,-0.23 0.1,-0.07 0.27,-0.14 0.38,-0.24 0,-17.33 -0.78,-175.37 0.66,-178.28 1.53,-0.48 68.9,-0.75 72.44,-0.13 1.46,4.68 -0.64,59.48 0.54,66.51 1.32,0.09 57.7,0.52 60.63,0.02 1.78,-0.3 3.67,-2.83 4.82,-3.99l52.69 -52.19c3.06,-3 5.84,-5.68 8.82,-8.73 2.21,-2.26 3.41,-1.56 7.4,-1.56 2.93,0 5.85,0 8.78,0 23.4,0 46.81,-0.06 70.21,0 2.77,0.13 0.52,-0.14 1.44,0.89 0.82,-0.87 0.75,1.79 0.75,-2.04 -0,0 -1.86,0.81 2.6,0.23 0.13,-0.02 0.25,-0.04 0.38,-0.07l1.3 -0.46c1.97,-0.53 18.78,0.13 20.31,-0.11l2.17 -0.91c-0.09,-0.11 -0.19,-0.42 -0.24,-0.34l-0.81 -0.88c-1.84,-1.24 -38.75,-0.53 -41.07,-0.53 -93.62,0 -187.23,0 -280.85,0l-13.66 -0c-3.21,0.33 0.43,0.88 -7.4,0.88 -0.1,0.12 -0.23,0.16 -0.28,0.4 -0.05,0.22 -0.2,0.28 -0.26,0.37l-2.34 1.8z"></path> <path class="fil0" d="M1979.95 46.75c-0.19,-3.71 -1.74,-28.8 -2.8,-29.99 -0.78,-0.81 -0.08,-0.45 -1.91,-0.6 -8.73,-0.7 -25.76,-0.22 -35.1,-1.02 -11.58,-1 -25.08,-0.71 -36.93,-1.18 -24.68,-0.97 -49.94,-0.88 -74.79,-2.19 -24.71,-1.3 -49.97,-1.37 -74.85,-2.02 -25.09,-0.66 -50.28,-1.43 -75.46,-1.83 0.11,0.32 0.08,1.1 0.44,1.53 2.39,0 3.06,0.44 5.7,0.44 0,0.71 -0.53,38.97 0.44,39.93 0.14,0.06 0.33,-0.04 0.43,0.13 0.41,0.76 211.77,0.31 221.18,0.31 2.46,0 69.72,0.63 72.39,-0.44l0.82 -0.44c-0.13,-1.35 0.3,-3.71 -0.36,-3.95 0,2.72 -0.15,0.19 0.8,1.31z"></path> <path class="fil0" d="M610.35 126.08l21.8 3.27c3.55,7.06 14.01,33.43 17.92,42.79l51.28 122.48c0.71,1.73 1.46,4.18 2.68,5.45 -0.27,0.56 3.45,-0.16 3.81,-0.22l0.01 -2.52 20.48 0 0 -167.19c0.65,55.64 0.15,113.34 0.15,169.39 0,1.9 0.01,3.81 -0,5.71l0.05 3.97c0.45,1.6 -0.15,0.7 0.87,1.52 -0.5,-14.85 -0.05,-30.49 -0.05,-45.43l0.52 -135.64c1.98,-0.78 19.33,-1.54 23.14,-1.82l23.07 -1.62c0.08,-0.02 0.23,-0.07 0.33,-0.13 -2.03,-0.55 -2.8,-0.18 -4.78,-0.39 -1.39,-0.15 -2.89,-0.69 -4.49,-0.8l-147.05 -0.02c-8.87,-0 -3.99,-0.34 -9.75,1.21z"></path> <path class="fil0" d="M1396.97 178.56c-4.74,15.83 -5.01,68.85 0.06,83 39.89,3.7 81.74,4 121.58,-0.01 2.65,-7.88 3.81,-31.92 3.82,-41.46 0.02,-10.67 -1.06,-32.19 -3.76,-41.53 -41.29,-3.85 -80.41,-3.65 -121.7,-0z"></path> <path class="fil0" d="M802.02 176.42l-0.16 43.57c14.83,1.65 69.54,1.44 86.82,1.12l28.26 -1.22c1.45,-12.98 1.1,-25.79 0.33,-38.84 -0.35,-5.93 2.16,-4.69 -15.42,-5.53 -30.99,-1.48 -69.27,-2.31 -99.82,0.9z"></path> <path class="fil0" d="M1704.64 219.91c9.2,1.65 112.15,1.8 114.49,-0.06 2.26,-1.94 1.19,-33.41 0.94,-36.71 -0.58,-7.7 1.27,-6.7 -6.37,-7.09 -16.78,-0.86 -33.39,-1.75 -50.46,-1.82 -14.59,-0.06 -42.42,0.54 -56.65,1.99 -2.88,0.29 -2.09,1.13 -2.05,4.37 0.13,10.89 -0.64,30.74 0.1,39.32z"></path> <path class="fil0" d="M504.09 235.18l98.19 0.09 -22.96 -58.94 -50.5 0.03c-0.8,0.97 -24.46,56.88 -24.73,58.82z"></path> <path class="fil0" d="M1552.98 129.58l2.25 0.55c0.91,0.09 1.96,0.11 2.9,0.18 8.42,0.68 33.62,2.72 38.69,3.81 5.29,34.42 6.6,71.52 5.79,107.91 1.43,-1.16 0.92,-3.83 0.9,-5.7l-0 -41.69c-0.44,0.33 -0.79,-0.65 -0.31,0.66 0.66,1.81 -0.52,0.15 1.19,1.53 0.74,-2.27 0.87,-1.52 2.2,-0.44 2.01,-2.37 -2.35,-1.76 11.41,-1.76 4.49,0 8.97,0 13.46,0 0,-9.8 -0.75,-61.63 0.58,-66.7 -6.52,0 -56.05,-0.42 -60.06,0.19 -7,1.05 -7.72,-0.78 -13.93,0.92 -1.74,0.48 -3.02,-0.02 -5.06,0.53z"></path> <path class="fil0" d="M1091.31 248.61c-0.68,0.35 -0.8,-0.51 -0.79,3.05 0.03,8.99 0.42,55.39 -0.13,58.62l-71.66 0.02 -0.17 -180.44 71.94 -0.06c0.69,14.54 0.06,41.35 0.05,58.25 0,1.32 0.01,2.64 -0.02,3.96 -0.01,0.36 -0.04,1.95 -0,2.2 0.39,2.54 -0.21,0.95 0.78,1.74 -1.19,-7.03 0.92,-61.83 -0.54,-66.51 -3.54,-0.63 -70.92,-0.36 -72.44,0.13 -0.4,1.29 -0.92,177.42 -0.02,181.16l72.47 0.18c1.42,-5.16 -0.59,-55.91 0.53,-62.3z"></path> </g> </g> </svg> 