<?xml version="1.0" encoding="UTF-8"?> <svg xmlns="http://www.w3.org/2000/svg" width="198" height="47" viewBox="0 0 198 47" fill="none"><path d="M0.151171 32.7537L0 13.2023C0 13.1351 0.0503903 13.0175 0.151171 12.8495C0.251951 12.7151 0.352732 12.648 0.453513 12.648H1.81405C2.0828 12.648 2.25077 12.8831 2.31795 13.3534L2.77147 16.2761H2.92264C3.76247 15.0331 4.85426 14.0253 6.19801 13.2526C7.47456 12.5136 8.86869 12.1441 10.3804 12.1441C11.9257 12.1441 13.2862 12.5304 14.462 13.303C15.6378 14.0421 16.444 15.1507 16.8807 16.6288H16.9815C18.9635 13.6054 21.6342 12.0937 24.9936 12.0937C27.2443 12.0937 29.008 12.7823 30.2846 14.1597C31.5275 15.5034 32.149 17.4182 32.149 19.9042V32.7537C32.149 32.8545 32.0986 32.9552 31.9978 33.056C31.8971 33.1568 31.7963 33.2072 31.6955 33.2072H29.8814C29.7807 33.2072 29.6799 33.1568 29.5791 33.056C29.4783 32.9552 29.4279 32.8545 29.4279 32.7537V20.7104C29.4279 16.6456 27.8826 14.6132 24.792 14.6132C23.3139 14.6132 21.903 15.1003 20.5592 16.0745C19.2827 17.0151 18.2581 18.3253 17.4854 20.0049V32.7537C17.4854 32.8545 17.435 32.9552 17.3343 33.056C17.2335 33.1568 17.1327 33.2072 17.0319 33.2072H15.2179C15.1171 33.2072 15.0163 33.1568 14.9155 33.056C14.8147 32.9552 14.7644 32.8545 14.7644 32.7537V20.7104C14.7644 16.6456 13.2191 14.6132 10.1284 14.6132C8.58315 14.6132 7.17222 15.1003 5.89566 16.0745C4.6527 17.0487 3.6449 18.3589 2.87225 20.0049V32.7537C2.87225 32.8545 2.82186 32.9552 2.72108 33.056C2.62029 33.1568 2.51951 33.2072 2.41873 33.2072H0.604684C0.503903 33.2072 0.403122 33.1568 0.302342 33.056C0.201561 32.9552 0.151171 32.8545 0.151171 32.7537Z" fill="white"></path><path d="M49.612 12.0937H49.5112C52.7026 12.0937 55.3733 13.0679 57.5233 15.0163C59.7068 16.9983 60.7986 19.6354 60.7986 22.9276C60.7986 26.2533 59.7236 28.8904 57.5737 30.8389C55.4573 32.7537 52.7866 33.7111 49.5616 33.7111C46.3366 33.7111 43.6659 32.7537 41.5495 30.8389C39.3996 28.8904 38.3246 26.2533 38.3246 22.9276C38.3246 19.6354 39.4164 16.9983 41.5999 15.0163C43.7499 13.0679 46.4206 12.0937 49.612 12.0937ZM49.5112 14.6132L49.5616 14.5628C47.1429 14.5628 45.1273 15.3186 43.5148 16.8304C41.9023 18.3421 41.096 20.3577 41.096 22.8772C41.096 25.4303 41.9023 27.4627 43.5148 28.9744C45.1273 30.4861 47.1429 31.242 49.5616 31.242C51.9467 31.242 53.9456 30.4861 55.558 28.9744C57.1705 27.4627 57.9768 25.4471 57.9768 22.9276C57.9768 20.4081 57.1705 18.3925 55.558 16.8807C53.9456 15.369 51.9299 14.6132 49.5112 14.6132Z" fill="white"></path><path d="M84.9643 30.2846V30.335C82.9823 32.6193 80.3116 33.7615 76.9523 33.7615C74.0968 33.7615 71.6781 32.8209 69.6961 30.9396C67.6805 29.0248 66.6726 26.3709 66.6726 22.978C66.6726 19.8874 67.6637 17.3007 69.6457 15.2179C71.5941 13.1687 74.1136 12.1441 77.2042 12.1441C80.6644 12.1441 83.2511 13.3534 84.9643 15.7722H85.0651V0.604685C85.0651 0.537496 85.1155 0.419919 85.2163 0.251951C85.3171 0.117577 85.4178 0.0503896 85.5186 0.0503896H87.3327C87.4334 0.0503896 87.5342 0.117577 87.635 0.251951C87.7358 0.419919 87.7862 0.537496 87.7862 0.604685V32.8041C87.7862 32.9049 87.7358 33.0056 87.635 33.1064C87.5342 33.2072 87.4166 33.2576 87.2823 33.2576H85.9217C85.653 33.2576 85.4682 33.0392 85.3674 32.6025L84.9643 30.2846ZM69.4945 22.978L69.3433 23.0284C69.3433 25.5143 70.0824 27.5299 71.5605 29.0752C73.0386 30.5869 74.8863 31.3428 77.1034 31.3428C80.2948 31.3428 82.9151 30.0158 84.9643 27.3619V20.0553C84.2925 18.4093 83.2679 17.1159 81.8905 16.1753C80.446 15.2011 78.8671 14.714 77.1538 14.714C74.9702 14.714 73.1562 15.4698 71.7117 16.9815C70.2336 18.5268 69.4945 20.5256 69.4945 22.978Z" fill="white"></path><path d="M115.9 23.7338H96.8021C97.0037 26.1862 97.9107 28.0506 99.5232 29.3271C101.169 30.6037 103.168 31.242 105.52 31.242C108.509 31.242 111.113 30.1334 113.33 27.9162C113.532 27.7147 113.716 27.6139 113.884 27.6139C114.052 27.6139 114.204 27.6811 114.338 27.8154L115.245 28.6721C115.379 28.8064 115.447 28.9576 115.447 29.1256C115.447 29.3607 115.312 29.6127 115.043 29.8814C112.591 32.4345 109.416 33.7111 105.52 33.7111C102.127 33.7111 99.3552 32.7369 97.2052 30.7885C95.0216 28.8064 93.9299 26.1862 93.9299 22.9276C93.9299 19.8706 94.9713 17.3007 97.054 15.2179C99.1368 13.1351 101.892 12.0937 105.318 12.0937C108.711 12.0937 111.331 13.0175 113.179 14.8651C115.195 16.8807 116.135 19.1987 116.001 21.819L115.9 23.7338ZM105.268 14.5628C103.218 14.5628 101.388 15.1171 99.7751 16.2257C98.1962 17.3343 97.222 19.0307 96.8525 21.3151H113.028C112.961 19.2323 112.255 17.5862 110.911 16.3768C109.534 15.1675 107.653 14.5628 105.268 14.5628Z" fill="white"></path><path d="M125.061 0.554292V32.7537C125.061 32.8545 125.011 32.9552 124.91 33.056C124.809 33.1568 124.708 33.2072 124.608 33.2072H122.794C122.693 33.2072 122.592 33.1568 122.491 33.056C122.391 32.9552 122.34 32.8545 122.34 32.7537V0.554292C122.34 0.453513 122.391 0.335936 122.491 0.201562C122.592 0.0671872 122.693 0 122.794 0H124.608C124.708 0 124.809 0.0671872 124.91 0.201562C125.011 0.369529 125.061 0.487106 125.061 0.554292Z" fill="white"></path><path d="M134.657 0.554292V32.7537C134.657 32.8545 134.607 32.9552 134.506 33.056C134.405 33.1568 134.304 33.2072 134.203 33.2072H132.389C132.289 33.2072 132.188 33.1568 132.087 33.056C131.986 32.9552 131.936 32.8545 131.936 32.7537V0.554292C131.936 0.453513 131.986 0.335936 132.087 0.201562C132.188 0.0671872 132.289 0 132.389 0H134.203C134.304 0 134.405 0.0671872 134.506 0.201562C134.607 0.369529 134.657 0.487106 134.657 0.554292Z" fill="white"></path><path d="M144.253 13.1519V32.7537C144.253 32.8545 144.202 32.9552 144.102 33.056C144.001 33.1568 143.9 33.2072 143.799 33.2072H141.985C141.884 33.2072 141.784 33.1568 141.683 33.056C141.582 32.9552 141.532 32.8545 141.532 32.7537V13.1519C141.532 13.0847 141.582 12.9671 141.683 12.7991C141.784 12.6648 141.884 12.5976 141.985 12.5976H143.799C143.9 12.5976 144.001 12.6648 144.102 12.7991C144.202 12.9671 144.253 13.0847 144.253 13.1519ZM141.028 4.63591V4.6863C141.028 4.18239 141.213 3.71208 141.582 3.27537C141.918 2.87225 142.355 2.67068 142.892 2.67068C143.43 2.67068 143.867 2.87225 144.202 3.27537C144.572 3.71208 144.757 4.18239 144.757 4.6863C144.757 5.25739 144.589 5.7277 144.253 6.09722C143.883 6.50035 143.43 6.70191 142.892 6.70191C142.355 6.70191 141.901 6.50035 141.532 6.09722C141.196 5.7277 141.028 5.24059 141.028 4.63591Z" fill="white"></path><path d="M168.311 32.7537L168.159 20.2065C168.159 18.5268 167.639 17.1831 166.597 16.1753C165.522 15.1675 164.095 14.6636 162.314 14.6636C160.399 14.6636 158.669 15.2011 157.124 16.2761C155.646 17.3175 154.52 18.678 153.748 20.3577V32.8041C153.748 32.9049 153.697 33.0056 153.597 33.1064C153.496 33.2072 153.395 33.2576 153.294 33.2576H151.48C151.38 33.2576 151.279 33.2072 151.178 33.1064C151.077 33.0056 151.027 32.9049 151.027 32.8041V13.2023C151.027 13.1351 151.077 13.0175 151.178 12.8495C151.279 12.7151 151.38 12.648 151.48 12.648H152.79C153.059 12.648 153.227 12.8831 153.294 13.3534L153.798 16.5784H153.949C154.756 15.3354 155.915 14.2772 157.426 13.4038C158.972 12.5304 160.651 12.0937 162.465 12.0937C165.254 12.0937 167.37 12.8159 168.815 14.2605C170.293 15.7386 171.032 17.7038 171.032 20.1561V32.7537C171.032 32.8545 170.981 32.9552 170.881 33.056C170.78 33.1568 170.679 33.2072 170.578 33.2072H168.764C168.663 33.2072 168.563 33.1568 168.462 33.056C168.361 32.9552 168.311 32.8545 168.311 32.7537Z" fill="white"></path><path d="M177.044 39.254L177.095 39.1029C177.095 36.9865 178.019 35.1556 179.866 33.6103V33.5599C177.985 32.7537 177.044 31.3596 177.044 29.3775C177.044 27.6979 177.8 26.2029 179.312 24.8928C178.136 23.4147 177.548 21.735 177.548 19.8538C177.548 17.6366 178.321 15.7722 179.866 14.2605C181.445 12.7487 183.511 11.9929 186.064 11.9929C188.651 11.9929 190.75 12.7991 192.363 14.4116H192.413C193.488 12.7991 195.067 11.9929 197.15 11.9929C197.486 11.9929 197.654 12.1105 197.654 12.3456V14.4116C197.654 14.6468 197.536 14.7644 197.301 14.7644C195.689 14.7644 194.479 15.3019 193.673 16.3768C194.244 17.6198 194.53 18.7788 194.53 19.8538C194.53 22.1045 193.757 23.9858 192.212 25.4975C190.666 27.0092 188.6 27.765 186.014 27.765C184.032 27.765 182.369 27.3115 181.025 26.4045C180.152 27.2779 179.715 28.2186 179.715 29.2264C179.715 31.0068 180.891 31.8971 183.242 31.8971H188.987C191.574 31.8971 193.572 32.5185 194.983 33.7615C196.361 35.038 197.049 36.6337 197.049 38.5486C197.049 40.5978 196.193 42.4118 194.479 43.9907C192.8 45.536 190.297 46.3087 186.971 46.3087H186.77C183.813 46.3087 181.445 45.62 179.665 44.2427C177.918 42.8989 177.044 41.2361 177.044 39.254ZM189.037 34.2654H182.638C180.79 35.6091 179.866 37.1208 179.866 38.8005C179.866 40.1779 180.504 41.32 181.781 42.2271C183.024 43.1341 184.636 43.5876 186.618 43.5876H186.971C189.289 43.5876 191.086 43.0837 192.363 42.0759C193.639 41.0681 194.278 39.8587 194.278 38.4478C194.278 37.272 193.858 36.281 193.018 35.4748C192.145 34.6685 190.818 34.2654 189.037 34.2654ZM181.882 16.0241C180.84 17.0319 180.32 18.2917 180.32 19.8034C180.32 21.3151 180.84 22.5748 181.882 23.5827C182.923 24.5905 184.301 25.0944 186.014 25.0944C187.727 25.0944 189.088 24.5905 190.095 23.5827C191.103 22.5748 191.607 21.3151 191.607 19.8034C191.607 18.2917 191.103 17.0319 190.095 16.0241C189.088 15.0163 187.727 14.5124 186.014 14.5124C184.301 14.5124 182.923 15.0163 181.882 16.0241Z" fill="white"></path></svg> 