<?xml version="1.0" encoding="UTF-8"?> <svg xmlns="http://www.w3.org/2000/svg" xmlns:xlink="http://www.w3.org/1999/xlink" xmlns:xodm="http://www.corel.com/coreldraw/odm/2003" xml:space="preserve" width="300mm" height="38.6956mm" version="1.1" style="shape-rendering:geometricPrecision; text-rendering:geometricPrecision; image-rendering:optimizeQuality; fill-rule:evenodd; clip-rule:evenodd" viewBox="0 0 1989.81 256.66"> <defs> <style type="text/css"> .fil0 {fill:#727271;fill-rule:nonzero} </style> </defs> <g id="Слой_x0020_1"> <metadata id="CorelCorpID_0Corel-Layer"></metadata> <g id="_2062133446752"> <path class="fil0" d="M1989.81 162.38c0,12.57 -5.5,22.78 -16.5,30.64 -11.18,7.68 -23.49,11.52 -36.93,11.52l-49.63 0 0 -15.98c14.26,0 40.73,0 49.63,0 9.25,0 17.46,-2.36 24.62,-7.07 7.16,-4.54 10.74,-10.48 10.74,-17.81 0,-9.43 -6.89,-17.02 -20.69,-22.78 -1.4,-0.52 -3.36,-1.22 -5.89,-2.09 -2.53,-0.88 -5.72,-1.83 -9.56,-2.88 -4.02,-1.22 -7.55,-2.36 -10.61,-3.4 -3.06,-1.05 -5.81,-2.09 -8.25,-3.14l-0.26 0c-13.62,-6.64 -22.61,-14.84 -26.97,-24.62 -3.67,-8.38 -3.67,-17.11 0,-26.19 3.49,-8.03 9.51,-14.41 18.07,-19.12 8.21,-4.89 17.81,-7.33 28.81,-7.33l0 0 0 16.5c-8.87,0 8.56,0 0,0 -6.63,0 -12.48,1.13 -17.55,3.4 -5.24,2.09 -8.99,5.32 -11.26,9.69 -5.24,9.43 -3.49,17.64 5.24,24.62 9.29,7.82 19.65,10.58 30.91,14.14 0.23,0.07 1.49,0.61 3.93,1.31 2.8,0.88 5.41,1.66 7.86,2.36 1.22,0.35 2.53,0.83 3.93,1.44 1.4,0.61 3.06,1.36 4.98,2.23 1.74,0.87 3.4,1.79 4.97,2.75 1.57,0.96 3.06,1.88 4.45,2.75 10.65,7.51 15.98,17.2 15.98,29.07z"></path> <path class="fil0" d="M1868.83 52.12l0 17.65 -1.34 0c-15.69,0 -28.88,5.88 -39.58,17.65 -11.06,11.94 -16.58,26.12 -16.58,42.52l0 74.61 -17.92 0 0 -74.61c0,-21.75 7.22,-40.11 21.66,-55.09 14.62,-15.15 32.09,-22.73 52.41,-22.73l1.34 0z"></path> <path class="fil0" d="M1775.51 87.12l-105.79 74.07c9.29,12.96 21.66,21.06 37.13,24.29 15.24,3.45 29.85,0.42 42.5,-8.29 0,8.66 0,11.72 0,20.32 -14.33,7.04 -28.85,8.82 -45.78,5.52 -20.29,-3.95 -36.58,-14.72 -48.88,-32.28 -12.4,-17.71 -16.99,-36.77 -13.76,-57.19 3.01,-20.71 12.87,-36.91 29.55,-48.59 16.4,-11.48 34.86,-15.22 55.4,-11.22 20.29,3.96 36.58,14.72 48.88,32.28l0.76 1.09zm-26.17 -3.09c-9.77,-8.08 -20.9,-12.72 -33.41,-13.9 -13.19,-0.93 -25.01,2.27 -35.47,9.58 -10.3,7.21 -17.27,17.17 -20.91,29.89 -3.16,12.16 -2.62,24.22 1.64,36.15l88.15 -61.73z"></path> <path class="fil0" d="M1622.07 124.31l0 80.23 -17.71 0 0 -80.23c0,-17 -4.38,-30.41 -13.15,-40.25 -8.77,-9.84 -20.75,-14.76 -35.96,-14.76 -15.2,0 -27.19,4.92 -35.96,14.76 -8.76,9.84 -13.15,23.26 -13.15,40.25l0 80.23 -17.98 0 0 -80.23c0,-21.47 6.08,-39 18.25,-52.59 11.98,-13.42 28.17,-20.13 48.57,-20.13 20.4,0 36.67,6.71 48.84,20.13 12.16,13.6 18.24,31.12 18.24,52.59z"></path> <path class="fil0" d="M1412.64 69.84l0 56.08c0,16.46 5.54,30.68 16.63,42.67 10.74,11.8 23.97,17.71 39.72,17.71l1.34 0 0 17.71 -1.34 0c-20.4,0 -37.92,-7.6 -52.59,-22.81 -14.49,-15.03 -21.73,-33.45 -21.73,-55.28l0 -56.62 -15.3 0 0 -17.71 15.3 0 0 -51.59 17.98 0 0 52.12 57.69 0 0 17.71 -57.69 0z"></path> <path class="fil0" d="M1363.94 52.12l0 17.65 -1.34 0c-15.69,0 -28.88,5.88 -39.58,17.65 -11.06,11.94 -16.58,26.12 -16.58,42.52l0 74.61 -17.92 0 0 -74.61c0,-21.75 7.22,-40.11 21.66,-55.09 14.62,-15.15 32.09,-22.73 52.41,-22.73l1.34 0z"></path> <path class="fil0" d="M1107.35 128.59c0,21.13 -7.07,39.02 -21.21,53.69 -14.32,14.84 -31.34,22.26 -51.07,22.26 -12.4,0 -23.83,-3.4 -34.31,-10.21 -9.08,-5.59 -15.98,-12.05 -20.69,-19.38l0 81.71 -17.55 0 0 -128.33c0,-21.12 7.07,-39.02 21.21,-53.69 14.14,-15.01 31.25,-22.52 51.33,-22.52 19.9,0 36.93,7.51 51.07,22.52 14.14,14.67 21.21,32.65 21.21,53.95zm-33.52 41.38c10.83,-11.7 16.24,-25.58 16.24,-41.64 0,-16.06 -5.41,-29.94 -16.24,-41.64 -10.48,-11.35 -23.4,-17.02 -38.76,-17.02 -15.01,0 -27.94,5.68 -38.76,17.02 -10.83,11.7 -16.24,25.58 -16.24,41.64 0,16.07 5.41,29.94 16.24,41.64 10.82,11.35 23.75,17.02 38.76,17.02 15.36,0 28.28,-5.68 38.76,-17.02z"></path> <path class="fil0" d="M144.83 166.4l0 14.04 -0 0.95 0 0.04 -0 0.05 0 0.01 -0 0.03 0 0.01c-0,0.27 -0.01,0.55 -0.01,0.82l0 0.01 -0 0.01 0 0.01 -0 0.01 0 0.01 -0.02 0.86 -0 0.03 -0.01 0.24 -0.03 0.72 -0 0.11 -0 0.02 -0 0.07 -0.04 0.86 -0 0.02 -0 0.02 -0.06 0.95 -0 0.03 -0.05 0.78 -0.01 0.16 -0 0.05 -0.07 0.86 -0 0.04 -0 0.04 -0.08 0.87 -0 0.04 -0.01 0.07 -0.08 0.75 -0.01 0.13 -0.01 0.05 -0.01 0.08 -0.08 0.71 -0.04 0.31 -0 0.04 -0.05 0.38 -0.01 0.08 -0.06 0.48 -0 0.01 -0.02 0.18 -0.05 0.38 -0.04 0.3 -0.01 0.07 -0.06 0.37 -0.02 0.12 -0 0.01 -0.04 0.25 -0.06 0.37 -0.06 0.37 -0.05 0.32 -0.01 0.05 -0.07 0.37 -0.01 0.04 -0.01 0.06 -0.05 0.27 -0.07 0.37 -0.03 0.14 -0.11 0.59 -0 0.01 -0.07 0.37 -0.01 0.05 -0.07 0.32 -0.08 0.37 -0.03 0.15 -0.13 0.58 -0.08 0.36 -0.11 0.48 -0.01 0.02 -0 0.02 -0.01 0.02 -0 0.02 -0.01 0.02 -0.01 0.02 -0 0.02 -0.01 0.02 -0.01 0.02 -0 0.02 -0.01 0.02 -0.01 0.02 -0 0.02 -0.01 0.02 -0.01 0.02 -0 0.02 -0.01 0.02 -0.01 0.02 -0.01 0.02 -0.01 0.02 -0.01 0.02 -0 0.02 -0.1 0.39 -0.01 0.02 -0.01 0.02 -0.01 0.04 -0.09 0.36 -0.02 0.06 -0.01 0.02 -0.07 0.28 -0.09 0.36 -0.03 0.1 -0 0.01 -0.16 0.6 -0.1 0.36 -0.1 0.36 -0.1 0.35 -0.1 0.35 -0.08 0.26 -0.01 0.02 -0.02 0.07 -0.11 0.35c-0.16,0.52 -0.32,1.03 -0.49,1.54l-0.01 0.03c-0.27,0.83 -0.56,1.65 -0.86,2.46l-0.06 0.17c-0.11,0.3 -0.22,0.6 -0.34,0.89l-0.02 0.05 -0.18 0.46 -0.05 0.12c-2.46,6.17 -5.76,11.94 -9.9,17.32l-0.01 0.01c-0.34,0.44 -0.68,0.87 -1.02,1.3l-0.35 0.43 -0.33 0.4 -0.07 0.08c-0.21,0.26 -0.43,0.52 -0.65,0.77l-0.04 0.05 -0.35 0.41 -0.37 0.42 -0 0 -0.27 0.3 -0.32 0.36 -0.15 0.17 -0.01 0.01 -0.14 0.15 -0.37 0.41 -0.19 0.2 -0.52 0.56 -0.14 0.15 -0.57 0.6c-14.32,14.84 -31.34,22.26 -51.07,22.26l-0.13 -0 0 -17.29 0.13 0c15.02,0 27.93,-5.76 38.76,-17.28l0.46 -0.51 0.04 -0.04c0.33,-0.36 0.65,-0.72 0.96,-1.09l0.04 -0.04 0.41 -0.47 0.06 -0.07 0.07 -0.08 0.32 -0.38 0.09 -0.11 0.03 -0.04 0.05 -0.06 0.34 -0.42 0.03 -0.04 0.01 -0.01 0.2 -0.25 0.21 -0.26 0.15 -0.2 0.05 -0.07 0.21 -0.26 0.01 -0.02 0.15 -0.2 0.04 -0.05 0.2 -0.26 0.11 -0.15 0.09 -0.12 0.2 -0.27 0.05 -0.07 0.15 -0.2 0.2 -0.27 0.07 -0.09 0.26 -0.37 0.06 -0.08 0.19 -0.27 0.01 -0.02 0.18 -0.25 0.19 -0.27 0.17 -0.24 0.02 -0.03 0.18 -0.27 0.07 -0.11 0.11 -0.16 0.18 -0.27 0.1 -0.16 0.07 -0.12 0.18 -0.28 0.04 -0.06 0.14 -0.21 0.17 -0.28 0.17 -0.28 0.17 -0.28 0.3 -0.49 0.04 -0.06 0.17 -0.28 0.05 -0.07 0.12 -0.21 0.16 -0.28 0.16 -0.28 0.16 -0.28 0.16 -0.28 0.16 -0.28c0.77,-1.42 1.48,-2.86 2.13,-4.34l0 -0.01 0.25 -0.59 0.01 -0.02 0.01 -0.02 0.01 -0.02 0.01 -0.02 0.01 -0.02 0.01 -0.02 0.15 -0.35 0.01 -0.02 0.01 -0.02 0.01 -0.02 0.01 -0.02 0.01 -0.02 0.01 -0.02 0.01 -0.02 0.01 -0.02 0.01 -0.02 0.01 -0.02 0.01 -0.02 0.01 -0.02 0.01 -0.02 0.01 -0.02 0.01 -0.02 0.01 -0.02 0.01 -0.02 0.01 -0.02 0.01 -0.02 0.01 -0.02 0.01 -0.02 0.01 -0.02 0.01 -0.02 0 -0.01 0 -0.01 0.02 -0.04 0.01 -0.02 0.01 -0.02 0.01 -0.02 0.01 -0.02 0.01 -0.02 0.01 -0.02 0.01 -0.02 0.01 -0.02 0.01 -0.02 0.01 -0.02 0.01 -0.02 0.01 -0.02 0.01 -0.02 0.01 -0.02 0.01 -0.02 0.01 -0.02 0 -0 0.14 -0.35 0.14 -0.35 0.13 -0.35 0.13 -0.35 0.01 -0.04 0.07 -0.19 0.01 -0.04 0.01 -0.04 0.01 -0.04 0.01 -0.04 0.01 -0.04 0.01 -0.04 0.01 -0.04 0.01 -0.04 0.01 -0.04 0.01 -0.04 0.01 -0.04 0.12 -0.34 0.01 -0.04 0.01 -0.04 0.01 -0.04 0.01 -0.04 0.01 -0.04 0.01 -0.04 0.01 -0.04 0.01 -0.04 0.01 -0.04 0.01 -0.04 0.09 -0.27 0.01 -0.04 0.01 -0.04 0.01 -0.04 0.01 -0.04 0.01 -0.04 0.01 -0.04 0.01 -0.04 0.01 -0.04 0.01 -0.04 0.01 -0.04 0.01 -0.04 0.05 -0.15 0.01 -0.04 0.01 -0.04 0.01 -0.04 0.01 -0.04 0.01 -0.04 0.01 -0.04 0.04 -0.13 0.01 -0.03 0.01 -0.03 0.01 -0.03 0.01 -0.03 0.06 -0.19 0.01 -0.03 0.02 -0.06 0.01 -0.03 0.01 -0.03 0.01 -0.03 0.01 -0.03 0.01 -0.03 0.01 -0.03 0.01 -0.03 0.01 -0.03 0.01 -0.03 0.01 -0.03 0.01 -0.03 0.01 -0.03 0.01 -0.03 0.01 -0.03 0.08 -0.28 0.01 -0.03 0.01 -0.03 0.01 -0.03 0.01 -0.03 0.01 -0.03 0.01 -0.03 0.01 -0.03 0.01 -0.03 0.01 -0.03 0.01 -0.03 0.01 -0.03 0.01 -0.03 0.01 -0.03 0.01 -0.03 0.01 -0.03 0.07 -0.25 0.01 -0.03 0.01 -0.03 0.1 -0.37 0.09 -0.36 0 -0.01 0.1 -0.37 0.08 -0.32 0.01 -0.05 0.09 -0.37 0.01 -0.03 0.08 -0.34 0.04 -0.16 0.05 -0.21 0.08 -0.37 0.02 -0.09 0 -0.01 0.06 -0.27 0.08 -0.37 0.08 -0.37 0.07 -0.38 0.07 -0.38 0.07 -0.38 0.06 -0.33 0.01 -0.04 0 -0.01 0.07 -0.38 0.01 -0.08 0.02 -0.14 0.07 -0.4 0.02 -0.14 0 -0.02 0.06 -0.36 0.02 -0.12 0.06 -0.44 0.05 -0.38 0.02 -0.12 0.01 -0.09 0.07 -0.55 0.01 -0.07 0.02 -0.15 0.05 -0.39 0 -0.04 0.03 -0.26 0.05 -0.49 0.01 -0.12 0.01 -0.11 0.05 -0.55 0.01 -0.07 0.06 -0.73 0.05 -0.73 0 -0.05 0.04 -0.63 0 -0.06 0.01 -0.11 0.03 -0.61 0 -0.02 0 -0.02 0.03 -0.7 0 -0.02 0 -0.03 0.02 -0.6 0 -0.12 0 -0.03 0.01 -0.66 0 -0.06 0 -0.06 0 -0.69 0 -5.5c-12.43,17.76 -33.32,29.7 -55.13,29.6 -28.33,-0.05 -45.92,-13.58 -60.24,-33.65 -1.31,-1.83 -2.49,-3.8 -3.54,-5.89 0,-0.17 -0.04,-0.31 -0.13,-0.39 -0.09,-0.09 -0.13,-0.22 -0.13,-0.39 0,0 -0.17,-0.17 -0.52,-0.52 0,-0.18 -0.04,-0.31 -0.13,-0.39 -0.09,-0.09 -0.13,-0.31 -0.13,-0.66 -0.35,-0.35 -0.52,-0.61 -0.52,-0.79 -4.71,-10.13 -7.07,-21.21 -7.07,-33.26 0,-21.3 7.07,-39.28 21.21,-53.95 14.14,-15.01 31.16,-22.52 51.07,-22.52l0.13 0c20.02,0.03 37.09,7.54 51.2,22.52 14.14,14.67 21.21,32.56 21.21,53.69l0 38.07zm-72.41 -96.74c-15.31,0.03 -28.18,5.71 -38.63,17.02 -10.83,11.7 -16.24,25.58 -16.24,41.64 0,16.06 5.41,29.94 16.24,41.64 10.45,11.32 23.32,16.99 38.63,17.02l0.13 0c15.02,0 27.93,-5.67 38.76,-17.02l0.05 -0.05 0.05 -0.06 0.3 -0.33 0.05 -0.06 0.05 -0.06 0 -0 0.05 -0.05 0.05 -0.06 0.3 -0.33 0.05 -0.06 0.05 -0.06 0 -0 0.05 -0.05 0.44 -0.5 0 -0 0.05 -0.05 0.29 -0.33 0.05 -0.06 0.05 -0.06 0.05 -0.06 0 -0 0.04 -0.05 0.05 -0.06 0.05 -0.06 0.05 -0.06 0.09 -0.11 0.05 -0.06 0.05 -0.06 0.05 -0.06 0.05 -0.06 0 -0 0.04 -0.05 0.05 -0.06 0.05 -0.06 0.05 -0.06 0.05 -0.06 0.05 -0.06 0.05 -0.06 0.05 -0.06 0.05 -0.06 0.05 -0.06 0.09 -0.11 0.05 -0.06 0.05 -0.06c8.77,-10.92 13.16,-23.61 13.16,-38.07 0,-16.06 -5.41,-29.95 -16.24,-41.64 -10.82,-11.35 -23.74,-17.03 -38.76,-17.03l-0.13 0z"></path> <path class="fil0" d="M361.06 106.13l0 98.41 -17.91 0 0 -98.41c0,-9.63 -3.57,-18.18 -10.7,-25.67 -7.49,-7.13 -16.04,-10.7 -25.67,-10.7 -9.63,0 -18.19,3.57 -25.67,10.7 -7.13,7.13 -10.7,15.69 -10.7,25.67l0 98.41 -17.65 0 0 -98.41c0,-9.63 -3.57,-18.18 -10.7,-25.67 -7.48,-7.13 -16.13,-10.7 -25.94,-10.7 -9.81,0 -18.27,3.57 -25.41,10.7 -7.13,7.13 -10.69,15.69 -10.69,25.67l0 98.41 -17.92 0 0 -98.41c0,-14.8 5.26,-27.45 15.78,-37.97 10.7,-10.69 23.53,-16.04 38.51,-16.04 9.27,0 18.1,2.68 26.47,8.02 7.67,4.64 13.91,10.79 18.72,18.45 4.81,-7.49 10.96,-13.64 18.45,-18.45 8.2,-5.35 17.11,-8.02 26.74,-8.02 14.97,0 27.72,5.35 38.24,16.04 10.7,10.52 16.04,23.18 16.04,37.97z"></path> <path class="fil0" d="M556.83 73.33c14.26,14.78 21.38,32.91 21.38,54.38l0 76.82 -17.42 0 0 -26.93c-3.17,3.87 -6.64,7.39 -10.43,10.56 -3.78,3.17 -7.96,5.9 -12.54,8.19 -9.86,5.46 -20.68,8.18 -32.47,8.18 -20.24,0 -37.49,-7.57 -51.74,-22.71 -14.2,-14.64 -21.38,-33.86 -21.38,-54.12 0,-20.69 6.93,-39.27 21.38,-54.38 14.43,-14.96 31.59,-22.44 51.48,-22.44 20.06,0 37.32,7.48 51.74,22.44zm3.96 51.22c-0.35,-7.39 -1.89,-14.35 -4.62,-20.86 -2.73,-6.51 -6.64,-12.5 -11.75,-17.95 -10.91,-11.62 -23.93,-17.43 -39.07,-17.43 -15.49,0 -28.51,5.81 -39.07,17.43 -10.91,11.79 -16.37,25.78 -16.37,41.97 0,16.19 5.45,30.18 16.37,41.97 10.56,11.44 23.58,17.16 39.07,17.16 15.13,0 28.16,-5.72 39.07,-17.16 10.03,-10.56 15.49,-23.5 16.37,-38.81l0 -6.34z"></path> <path class="fil0" d="M1249.23 73.33c14.26,14.78 21.38,32.91 21.38,54.38l0 76.82 -17.42 0 0 -26.93c-3.17,3.87 -6.64,7.39 -10.43,10.56 -3.78,3.17 -7.96,5.9 -12.54,8.19 -9.86,5.46 -20.68,8.18 -32.47,8.18 -20.24,0 -37.49,-7.57 -51.74,-22.71 -14.2,-14.64 -21.38,-33.86 -21.38,-54.12 0,-20.69 6.93,-39.27 21.38,-54.38 14.43,-14.96 31.59,-22.44 51.48,-22.44 20.06,0 37.32,7.48 51.74,22.44zm3.96 54.38l0 -1.58 0 -1.32 0 -0.26c-0.35,-7.39 -1.89,-14.35 -4.62,-20.86 -2.73,-6.51 -6.64,-12.5 -11.75,-17.95 -10.91,-11.62 -23.93,-17.43 -39.07,-17.43 -15.49,0 -28.51,5.81 -39.07,17.43 -10.91,11.79 -16.37,25.78 -16.37,41.97 0,16.19 5.45,30.18 16.37,41.97 10.56,11.44 23.58,17.16 39.07,17.16 15.14,0 28.16,-5.72 39.07,-17.16 10.03,-10.56 15.49,-23.5 16.37,-38.81l0 -1.58 0 -1.58z"></path> <path class="fil0" d="M729.08 124.59l0 79.96 -17.65 0 0 -79.96c0,-16.94 -4.37,-30.31 -13.1,-40.11 -8.74,-9.81 -20.68,-14.71 -35.83,-14.71 -15.15,0 -27.1,4.9 -35.84,14.71 -8.73,9.8 -13.1,23.18 -13.1,40.11l0 79.96 -17.92 0 0 -79.96c0,-21.39 6.06,-38.86 18.18,-52.41 11.94,-13.37 28.08,-20.06 48.4,-20.06 20.32,0 36.55,6.69 48.67,20.06 12.13,13.55 18.19,31.02 18.19,52.41z"></path> <path class="fil0" d="M891.56 0l0 128.33c0,21.29 -7.07,39.29 -21.21,53.95 -14.31,14.84 -31.43,22.26 -51.33,22.26 -19.73,0 -36.75,-7.42 -51.07,-22.26 -14.14,-14.66 -21.21,-32.56 -21.21,-53.69 0,-21.3 7.07,-39.28 21.21,-53.95 14.14,-15.02 31.25,-22.52 51.33,-22.52 12.4,0 23.83,3.4 34.31,10.21 8.91,5.94 15.8,12.39 20.69,19.38l0 -81.71 17.29 0zm-72.28 187.25c15.02,0 27.94,-5.76 38.76,-17.29 10.83,-11.7 16.24,-25.58 16.24,-41.64 0,-16.06 -5.41,-29.94 -16.24,-41.64 -10.82,-11.35 -23.74,-17.03 -38.76,-17.03 -15.36,0 -28.28,5.68 -38.76,17.03 -10.83,11.7 -16.24,25.58 -16.24,41.64 0,16.06 5.41,29.94 16.24,41.64 10.48,11.52 23.4,17.29 38.76,17.29z"></path> </g> </g> </svg> 