<?xml version="1.0" encoding="UTF-8"?> <svg xmlns="http://www.w3.org/2000/svg" width="276" height="34" viewBox="0 0 276 34" fill="none"><path d="M17.9539 30.5493L17.5978 30.6C14.7157 32.8667 11.4606 34 7.83256 34C5.28952 34 3.35681 33.4587 2.03443 32.3761C0.678144 31.2597 0 29.8388 0 28.1134C0 26.4557 0.695097 25.0856 2.08529 24.003C3.47549 22.9204 5.56078 22.3791 8.34117 22.3791H17.8013V21.2627C17.8013 16.9662 15.2413 14.8179 10.1213 14.8179C5.81508 14.8179 3.66198 16.3572 3.66198 19.4358V19.6896C3.66198 19.8925 3.49244 19.994 3.15337 19.994H1.32238C1.22066 19.994 1.11894 19.9264 1.01722 19.791C0.915494 19.6557 0.864633 19.5373 0.864633 19.4358V19.1821C0.864633 16.9831 1.66145 15.2746 3.25509 14.0567C4.81482 12.8388 7.13746 12.2298 10.223 12.2298C13.9189 12.2298 16.5976 13.0587 18.259 14.7164C19.9544 16.408 20.8021 18.6577 20.8021 21.4657V33.0358C20.8021 33.1373 20.7512 33.2388 20.6495 33.3403C20.5478 33.4418 20.4291 33.4925 20.2935 33.4925H18.9202C18.649 33.4925 18.4625 33.2726 18.3607 32.8328L17.9539 30.5493ZM7.83256 31.5134L7.7817 31.5642C11.5115 31.5642 14.8174 30.3801 17.6996 28.0119V24.7134H8.23945C6.30674 24.7134 4.91654 25.0517 4.06886 25.7284C3.25509 26.3711 2.8482 27.1831 2.8482 28.1642C2.8482 29.1791 3.289 29.991 4.17058 30.6C5.01826 31.209 6.23892 31.5134 7.83256 31.5134Z" fill="white"></path><path d="M30.2324 16.5433V16.4925C31.2157 15.1055 32.3855 14.0398 33.7418 13.2955C35.132 12.5174 36.5561 12.1284 38.0141 12.1284C40.1841 12.1284 41.8625 12.7373 43.0493 13.9552C44.236 15.207 44.8294 16.9154 44.8294 19.0806V20.2478C44.8294 20.3493 44.7785 20.4507 44.6768 20.5522C44.5751 20.6537 44.4734 20.7045 44.3717 20.7045H42.5407C42.4389 20.7045 42.3372 20.6537 42.2355 20.5522C42.1338 20.4507 42.0829 20.3493 42.0829 20.2478V19.2328C42.0829 17.8458 41.693 16.7294 40.9131 15.8836C40.1333 15.0716 39.0652 14.6657 37.7089 14.6657C36.1492 14.6657 34.6573 15.2239 33.2332 16.3403C31.809 17.4567 30.7918 18.8269 30.1815 20.4507V32.9851C30.1815 33.0866 30.1306 33.1881 30.0289 33.2896C29.9272 33.391 29.8255 33.4418 29.7238 33.4418H27.8928C27.791 33.4418 27.6893 33.391 27.5876 33.2896C27.4859 33.1881 27.435 33.0866 27.435 32.9851V13.2448C27.435 13.1771 27.4859 13.0587 27.5876 12.8896C27.6893 12.7542 27.791 12.6866 27.8928 12.6866H29.1643C29.4695 12.6866 29.6559 12.9234 29.7238 13.397L30.2324 16.5433Z" fill="white"></path><path d="M70.8979 19.4358L70.6945 19.3343C70.7623 19.808 70.7962 20.1632 70.7962 20.4C70.7962 20.7045 70.6267 20.8567 70.2876 20.8567H68.4566C68.2193 20.8567 68.0667 20.7045 67.9989 20.4C67.6937 18.607 66.8291 17.203 65.405 16.1881C63.9809 15.1731 62.2516 14.6657 60.2172 14.6657C57.6741 14.6657 55.6228 15.4776 54.063 17.1015C52.5033 18.6915 51.7234 20.6876 51.7234 23.0896C51.7234 25.5592 52.5711 27.5891 54.2665 29.1791C55.9279 30.7353 58.0641 31.5134 60.6749 31.5134C63.6249 31.5134 66.3713 30.2448 68.9144 27.7075C69.05 27.5721 69.2026 27.5045 69.3721 27.5045C69.5416 27.5045 69.6942 27.5721 69.8299 27.7075L70.6945 28.5702C70.864 28.7393 70.9488 28.8915 70.9488 29.0269C70.9488 29.1622 70.864 29.3483 70.6945 29.5851C68.2532 32.5284 64.9472 34 60.7766 34C57.3859 34 54.5886 33.0189 52.3846 31.0567C50.1467 29.0945 49.0278 26.4557 49.0278 23.1403C49.0278 19.8925 50.0959 17.2537 52.232 15.2239C54.3682 13.194 57.0808 12.1791 60.3698 12.1791C63.2858 12.1791 65.6762 12.8896 67.5411 14.3104C69.406 15.7313 70.525 17.4398 70.8979 19.4358Z" fill="white"></path><path d="M80.1494 0.558208L79.946 16.6955H80.0986C80.9802 15.4099 82.1669 14.3443 83.6588 13.4985C85.2186 12.6189 86.9139 12.1791 88.7449 12.1791C91.5592 12.1791 93.6954 12.9065 95.1534 14.3612C96.6453 15.8498 97.3912 17.8289 97.3912 20.2985V32.9851C97.3912 33.0866 97.3404 33.1881 97.2387 33.2896C97.1369 33.391 97.0352 33.4418 96.9335 33.4418H95.1025C95.0008 33.4418 94.8991 33.391 94.7973 33.2896C94.6956 33.1881 94.6448 33.0866 94.6448 32.9851V20.2985C94.6448 18.607 94.1192 17.2537 93.0681 16.2388C92.017 15.2239 90.5928 14.7164 88.7958 14.7164C86.7613 14.7164 84.9982 15.2915 83.5062 16.4418C81.9804 17.6259 80.8615 19.0637 80.1494 20.7552V32.9851C80.1494 33.0866 80.0986 33.1881 79.9969 33.2896C79.8951 33.391 79.7934 33.4418 79.6917 33.4418H77.8607C77.759 33.4418 77.6573 33.391 77.5555 33.2896C77.4538 33.1881 77.403 33.0866 77.403 32.9851V0.558208C77.403 0.456717 77.4538 0.338309 77.5555 0.202985C77.6573 0.0676618 77.759 0 77.8607 0H79.6917C79.7934 0 79.8951 0.0676618 79.9969 0.202985C80.0986 0.37214 80.1494 0.490547 80.1494 0.558208Z" fill="white"></path><path d="M107.02 13.2448V32.9851C107.02 33.0866 106.969 33.1881 106.868 33.2896C106.766 33.391 106.664 33.4418 106.562 33.4418H104.731C104.63 33.4418 104.528 33.391 104.426 33.2896C104.325 33.1881 104.274 33.0866 104.274 32.9851V13.2448C104.274 13.1771 104.325 13.0587 104.426 12.8896C104.528 12.7542 104.63 12.6866 104.731 12.6866H106.562C106.664 12.6866 106.766 12.7542 106.868 12.8896C106.969 13.0587 107.02 13.1771 107.02 13.2448ZM103.765 4.66866V4.7194C103.765 4.21194 103.952 3.73831 104.325 3.29851C104.664 2.89254 105.104 2.68955 105.647 2.68955C106.189 2.68955 106.63 2.89254 106.969 3.29851C107.342 3.73831 107.529 4.21194 107.529 4.7194C107.529 5.29453 107.359 5.76816 107.02 6.1403C106.647 6.54627 106.189 6.74925 105.647 6.74925C105.104 6.74925 104.647 6.54627 104.274 6.1403C103.935 5.76816 103.765 5.27761 103.765 4.66866Z" fill="white"></path><path d="M114.722 15.2239L111.467 15.1731C111.365 15.1731 111.264 15.1224 111.162 15.0209C111.06 14.9194 111.009 14.8179 111.009 14.7164V13.0925C111.009 12.991 111.06 12.8896 111.162 12.7881C111.264 12.6866 111.365 12.6358 111.467 12.6358H114.773V7.61194C114.773 7.54428 114.824 7.42587 114.925 7.25672C115.027 7.12139 115.129 7.05373 115.231 7.05373H117.062C117.163 7.05373 117.265 7.12139 117.367 7.25672C117.469 7.42587 117.519 7.54428 117.519 7.61194V12.6358H125.301C125.403 12.6358 125.505 12.6866 125.606 12.7881C125.708 12.8896 125.759 12.991 125.759 13.0925V14.7164C125.759 14.8179 125.708 14.9194 125.606 15.0209C125.505 15.1224 125.403 15.1731 125.301 15.1731H117.519V26.3881C117.519 29.7373 118.944 31.4119 121.792 31.4119C123.046 31.4119 124.267 30.9721 125.454 30.0925C125.589 29.9572 125.742 29.8896 125.911 29.8896C126.047 29.8896 126.166 29.9741 126.267 30.1433L126.979 31.209C127.115 31.3781 127.183 31.5303 127.183 31.6657C127.183 31.801 127.098 31.9532 126.929 32.1224C125.369 33.3403 123.606 33.9493 121.639 33.9493C119.435 33.9493 117.74 33.3403 116.553 32.1224C115.332 30.8706 114.722 28.9761 114.722 26.4388V15.2239Z" fill="white"></path><path d="M153.055 23.9015H133.779C133.982 26.3711 134.897 28.2488 136.525 29.5343C138.186 30.8199 140.204 31.4627 142.577 31.4627C145.595 31.4627 148.223 30.3463 150.461 28.1134C150.664 27.9104 150.851 27.809 151.02 27.809C151.19 27.809 151.342 27.8766 151.478 28.0119L152.394 28.8746C152.529 29.0099 152.597 29.1622 152.597 29.3313C152.597 29.5682 152.461 29.8219 152.19 30.0925C149.715 32.6637 146.511 33.9493 142.577 33.9493C139.153 33.9493 136.355 32.9682 134.185 31.006C131.981 29.0099 130.879 26.3711 130.879 23.0896C130.879 20.0109 131.931 17.4229 134.033 15.3254C136.135 13.2279 138.915 12.1791 142.374 12.1791C145.799 12.1791 148.443 13.1095 150.308 14.9701C152.343 17 153.292 19.3343 153.157 21.9731L153.055 23.9015ZM142.323 14.6657C140.255 14.6657 138.407 15.2239 136.779 16.3403C135.186 17.4567 134.202 19.1652 133.829 21.4657H150.156C150.088 19.3682 149.376 17.7104 148.02 16.4925C146.629 15.2746 144.731 14.6657 142.323 14.6657Z" fill="white"></path><path d="M180.815 19.4358L180.611 19.3343C180.679 19.808 180.713 20.1632 180.713 20.4C180.713 20.7045 180.544 20.8567 180.205 20.8567H178.374C178.136 20.8567 177.984 20.7045 177.916 20.4C177.611 18.607 176.746 17.203 175.322 16.1881C173.898 15.1731 172.169 14.6657 170.134 14.6657C167.591 14.6657 165.54 15.4776 163.98 17.1015C162.42 18.6915 161.64 20.6876 161.64 23.0896C161.64 25.5592 162.488 27.5891 164.183 29.1791C165.845 30.7353 167.981 31.5134 170.592 31.5134C173.542 31.5134 176.288 30.2448 178.831 27.7075C178.967 27.5721 179.119 27.5045 179.289 27.5045C179.459 27.5045 179.611 27.5721 179.747 27.7075L180.611 28.5702C180.781 28.7393 180.866 28.8915 180.866 29.0269C180.866 29.1622 180.781 29.3483 180.611 29.5851C178.17 32.5284 174.864 34 170.694 34C167.303 34 164.505 33.0189 162.302 31.0567C160.064 29.0945 158.945 26.4557 158.945 23.1403C158.945 19.8925 160.013 17.2537 162.149 15.2239C164.285 13.194 166.998 12.1791 170.287 12.1791C173.203 12.1791 175.593 12.8896 177.458 14.3104C179.323 15.7313 180.442 17.4398 180.815 19.4358Z" fill="white"></path><path d="M188.083 15.2239L184.828 15.1731C184.726 15.1731 184.624 15.1224 184.523 15.0209C184.421 14.9194 184.37 14.8179 184.37 14.7164V13.0925C184.37 12.991 184.421 12.8896 184.523 12.7881C184.624 12.6866 184.726 12.6358 184.828 12.6358H188.134V7.61194C188.134 7.54428 188.184 7.42587 188.286 7.25672C188.388 7.12139 188.49 7.05373 188.591 7.05373H190.422C190.524 7.05373 190.626 7.12139 190.728 7.25672C190.829 7.42587 190.88 7.54428 190.88 7.61194V12.6358H198.662C198.764 12.6358 198.865 12.6866 198.967 12.7881C199.069 12.8896 199.12 12.991 199.12 13.0925V14.7164C199.12 14.8179 199.069 14.9194 198.967 15.0209C198.865 15.1224 198.764 15.1731 198.662 15.1731H190.88V26.3881C190.88 29.7373 192.304 31.4119 195.152 31.4119C196.407 31.4119 197.628 30.9721 198.814 30.0925C198.95 29.9572 199.103 29.8896 199.272 29.8896C199.408 29.8896 199.526 29.9741 199.628 30.1433L200.34 31.209C200.476 31.3781 200.544 31.5303 200.544 31.6657C200.544 31.801 200.459 31.9532 200.289 32.1224C198.73 33.3403 196.966 33.9493 195 33.9493C192.796 33.9493 191.101 33.3403 189.914 32.1224C188.693 30.8706 188.083 28.9761 188.083 26.4388V15.2239Z" fill="white"></path><path d="M222.488 29.6358L222.438 29.7373C221.59 30.9891 220.42 32.0209 218.928 32.8328C217.436 33.6109 215.758 34 213.893 34C211.079 34 208.943 33.205 207.485 31.6149C205.993 29.9572 205.247 27.7751 205.247 25.0687V13.3463C205.247 13.2448 205.298 13.1264 205.399 12.991C205.501 12.8557 205.603 12.7881 205.704 12.7881H207.535C207.637 12.7881 207.739 12.8557 207.841 12.991C207.942 13.1264 207.993 13.2448 207.993 13.3463V25.0687C207.993 27.0985 208.502 28.6886 209.519 29.8388C210.536 30.9891 211.994 31.5642 213.893 31.5642C215.792 31.5642 217.521 31.006 219.081 29.8896C220.708 28.7393 221.861 27.3522 222.539 25.7284V13.2955C222.539 13.2279 222.59 13.1095 222.692 12.9403C222.794 12.805 222.895 12.7373 222.997 12.7373H224.828C224.93 12.7373 225.032 12.805 225.133 12.9403C225.235 13.1095 225.286 13.2279 225.286 13.2955V33.0358C225.286 33.1373 225.235 33.2388 225.133 33.3403C225.032 33.4418 224.93 33.4925 224.828 33.4925H223.455C223.15 33.4925 222.963 33.2557 222.895 32.7821L222.488 29.6358Z" fill="white"></path><path d="M235.017 16.5433V16.4925C236 15.1055 237.17 14.0398 238.526 13.2955C239.916 12.5174 241.34 12.1284 242.798 12.1284C244.968 12.1284 246.647 12.7373 247.833 13.9552C249.02 15.207 249.614 16.9154 249.614 19.0806V20.2478C249.614 20.3493 249.563 20.4507 249.461 20.5522C249.359 20.6537 249.258 20.7045 249.156 20.7045H247.325C247.223 20.7045 247.121 20.6537 247.02 20.5522C246.918 20.4507 246.867 20.3493 246.867 20.2478V19.2328C246.867 17.8458 246.477 16.7294 245.697 15.8836C244.917 15.0716 243.849 14.6657 242.493 14.6657C240.933 14.6657 239.441 15.2239 238.017 16.3403C236.593 17.4567 235.576 18.8269 234.966 20.4507V32.9851C234.966 33.0866 234.915 33.1881 234.813 33.2896C234.711 33.391 234.61 33.4418 234.508 33.4418H232.677C232.575 33.4418 232.473 33.391 232.372 33.2896C232.27 33.1881 232.219 33.0866 232.219 32.9851V13.2448C232.219 13.1771 232.27 13.0587 232.372 12.8896C232.473 12.7542 232.575 12.6866 232.677 12.6866H233.948C234.254 12.6866 234.44 12.9234 234.508 13.397L235.017 16.5433Z" fill="white"></path><path d="M275.886 23.9015H256.609C256.813 26.3711 257.728 28.2488 259.356 29.5343C261.017 30.8199 263.035 31.4627 265.408 31.4627C268.426 31.4627 271.054 30.3463 273.292 28.1134C273.495 27.9104 273.682 27.809 273.851 27.809C274.021 27.809 274.173 27.8766 274.309 28.0119L275.224 28.8746C275.36 29.0099 275.428 29.1622 275.428 29.3313C275.428 29.5682 275.292 29.8219 275.021 30.0925C272.546 32.6637 269.341 33.9493 265.408 33.9493C261.984 33.9493 259.186 32.9682 257.016 31.006C254.812 29.0099 253.71 26.3711 253.71 23.0896C253.71 20.0109 254.761 17.4229 256.864 15.3254C258.966 13.2279 261.746 12.1791 265.205 12.1791C268.629 12.1791 271.274 13.1095 273.139 14.9701C275.174 17 276.123 19.3343 275.987 21.9731L275.886 23.9015ZM265.154 14.6657C263.086 14.6657 261.238 15.2239 259.61 16.3403C258.016 17.4567 257.033 19.1652 256.66 21.4657H272.987C272.919 19.3682 272.207 17.7104 270.85 16.4925C269.46 15.2746 267.561 14.6657 265.154 14.6657Z" fill="white"></path></svg> 