<?xml version="1.0" encoding="UTF-8"?> <svg xmlns="http://www.w3.org/2000/svg" xmlns:xlink="http://www.w3.org/1999/xlink" xmlns:xodm="http://www.corel.com/coreldraw/odm/2003" xml:space="preserve" width="300mm" height="136.843mm" version="1.1" style="shape-rendering:geometricPrecision; text-rendering:geometricPrecision; image-rendering:optimizeQuality; fill-rule:evenodd; clip-rule:evenodd" viewBox="0 0 1989.81 907.64"> <defs> <style type="text/css"> .fil0 {fill:#727271} </style> </defs> <g id="Слой_x0020_1"> <metadata id="CorelCorpID_0Corel-Layer"></metadata> <path class="fil0" d="M1583.75 795.18l-70.95 -0.15 -0 -280.12 41.3 -37.79c2.58,-2.78 3.59,-4.73 8.67,-4.69l66.31 0.03c17.29,0 36.1,-0.71 53.2,0.06l0.09 322.41 -76.5 0.11 -0 -48.92 -22.08 -0.16 -0.04 49.23zm-252 -0.13l-80.34 -0.01 -0.23 -322.48 80.75 -0.11c1.9,3.4 22.41,89.17 24.61,93.19l25.98 -93.19 76.65 0.01 -0.15 322.58 -76.49 0.01c-0.02,-8.67 0.72,-118.94 -0.31,-124.19l-25.64 89.86c-0.23,-0.45 -0.09,-0.04 -0.57,-1.18 -0.24,-0.57 -0.26,-0.66 -0.46,-1.3 -0.31,-1.01 -0.43,-1.69 -0.67,-2.67 -0.51,-2.05 -1,-3.84 -1.54,-5.77l-20.94 -78.87c-1.66,8.73 1.46,117.63 -0.64,124.13zm577.95 -0.26l-75.68 0.26c-0.92,-3.41 -0.32,-89.44 -0.32,-100.82 0,-9.81 -0.88,-24.81 0.21,-33.98l-19.96 0.33c0.03,7.38 0.7,130.45 -0.32,134.5l-77 0.12c-0.88,-3.44 -0.86,-319.39 0.04,-322.81l77.17 -0.18 0.12 117.23 19.51 -0 -0.02 -117.06c5.92,-0.65 74.2,-0.56 76.82,0.22 0.65,12.63 0.07,26.85 0.07,39.64l-0.13 281.31c-0.32,1.37 0.08,0.42 -0.52,1.25zm-834.86 -652.17c0,-2.33 0.67,-2.57 1.77,-3.68l37.04 -33.19c2.36,-1.93 2.96,-4.22 6.53,-4.22l81.45 0c3.59,0 4.17,2.26 6.55,4.19 6.51,5.28 16.3,15.1 22.57,20.13 3.27,2.63 14.11,13.17 16.93,14.99l0.8 245.2c-3.46,1.97 -22.91,20.61 -26.9,24.22 -1.13,1.02 -1.95,1.58 -3.08,2.56 -1.13,0.99 -1.66,1.75 -2.78,2.81l-8.91 7.96c-1.46,1.21 -1.69,1.47 -2.86,2.71 -1.3,1.39 -1.43,1.88 -4.01,1.88l-74.71 -0c-2.77,0 -2.77,-0.78 -4.31,-2.09l-15.6 -13.61c-5.67,-5.44 -19.19,-16.04 -25.3,-21.89 -2.16,-2.07 -5.19,-3.12 -5.19,-6.44l0 -241.54zm444.16 283.55l-0.01 -284.24c3.32,-2.38 13.22,-12.22 17.1,-15.9 1.25,-1.19 2.3,-2.02 3.6,-3.16 2.37,-2.07 4.25,-4.23 6.61,-6.3l6.9 -6.57c2.26,-2.07 4.8,-3.87 6.84,-6.1 3.92,-4.27 3.82,-3.12 10.63,-3.12l119.13 0.01 -0 325.76 -77.98 -0.2 -0 -51.23 -21.35 0.09c0.01,8.28 1.02,46.43 -0.37,51.4 -3.92,0.53 -46.01,0.18 -53.69,0.18 -2.21,0 -15.7,0.8 -17.41,-0.61zm306.93 -312.56c0.97,-2.95 2.81,-12.34 4.26,-12.83l82.94 0c-1.24,11.36 -0.19,29.21 -0.19,41.27 0,25.11 0.79,280.69 -0.39,284.5l-75.27 -0.07c-0.66,-3.61 -0.41,-83.22 -0.21,-96.26 0.1,-6.46 -0.53,-4.39 -0.69,-5.49 -0.04,-0.3 -0.18,-0.34 -0.3,-0.49 0,4.3 -5.42,20.61 -7,26.25 -2.38,8.51 -4.78,16.93 -7.16,25.4l-13.65 48.14c-0.78,2.48 -0.05,1.61 -1.69,2.51 -1.08,0.28 -77.84,-0.43 -80.44,0.15l0 -325.91 72.66 0 0 113.99c2.01,-3.5 5.68,-20.13 7.17,-25.59l19.93 -75.57zm-1752.07 681.72l-0.1 -245.6c-0.62,-5.92 -0.14,-102.29 -0.14,-111.09l0 -278.61c0,-9.25 -1.16,-50.49 0.38,-56.12l692.32 -0.07 0.06 691.13c-0.28,0.1 -199.44,1.48 -206.56,0.12 -1.09,-4.17 -0.24,-173.07 -0.35,-198.61 -0,-1.02 -0.11,-2.47 -0.07,-3.41 0.01,-0.32 0.09,-1.33 0.18,-1.6 0.55,-1.6 -0.39,-0.2 0.85,-1.21l67.46 0c-2.06,-2.6 -9.59,-8.61 -12.94,-11.52l-40.74 -35.09c-3.15,-2.67 -6.17,-5.22 -9.01,-7.84 -2.89,-2.66 -6.36,-5.21 -9.01,-7.66l-0.17 -75.26c-4.08,-0.77 -64.36,-0.41 -73.95,-0.44 -12.18,-0.03 -8.47,1.31 -17.24,-7.25 -8.96,-8.73 -147.11,-145.76 -150.27,-148.07l-0.29 497.78c-8.42,0.85 -21.05,0.11 -29.93,0.11 -32.32,0 -207.81,-0.7 -210.49,0.29zm1314.67 -505.54l0.16 0.33 -19.95 0.11 -0.01 136.32 -77.19 0.14 0 -325.26 77.19 0 0.01 117.67 19.97 0.05 0 -117.72 76.49 0.01 -0 325.13 -76.49 -0.02 -0.17 -136.74zm-542.99 -188.34l79.73 -0.03 17.15 73.48c1.57,-3.97 11.73,-47.65 13.58,-55.5l3.23 -13.59c0.92,-4.17 0.58,-4.03 1.99,-4.4l80.55 0.01c-1.92,12.86 -5.92,27.24 -8.63,40.1 -2.21,10.5 -21.5,95.92 -21.47,99.4 0.04,4.42 2.63,15.76 3.54,20.73l21.72 123.24c2.37,13.6 5.4,27.82 7.23,41.46l-84.32 0.43c-1.55,-4.45 -16.17,-120.78 -16.83,-126.86 -2.2,7.57 -3.33,22.56 -4.49,31.1 -4.04,29.72 -10.03,66.96 -12.8,95.36l-80.66 0.07c1.7,-13.37 5.09,-28.03 7.5,-41.43 2.49,-13.83 4.98,-27.5 7.52,-41.27 5.08,-27.55 9.94,-55.16 15.1,-82.66 4.95,-26.37 4.71,-15.74 -1.26,-40.75 -3.11,-13.04 -6.15,-26.32 -9.45,-39.41 -3.29,-13.03 -6.25,-26.29 -9.43,-39.4l-9.53 -40.07zm-845.52 -98.7l0 904.88 1989.8 -0.01 -0 -907.63 -1989.8 0 0 2.76z"></path> </g> </svg> 