<?xml version="1.0" encoding="UTF-8"?> <svg xmlns="http://www.w3.org/2000/svg" xmlns:xlink="http://www.w3.org/1999/xlink" xmlns:xodm="http://www.corel.com/coreldraw/odm/2003" xml:space="preserve" width="300mm" height="181.539mm" version="1.1" style="shape-rendering:geometricPrecision; text-rendering:geometricPrecision; image-rendering:optimizeQuality; fill-rule:evenodd; clip-rule:evenodd" viewBox="0 0 1989.81 1204.09"> <defs> <style type="text/css"> .fil0 {fill:#727271} </style> </defs> <g id="Слой_x0020_1"> <metadata id="CorelCorpID_0Corel-Layer"></metadata> <g id="_2062948771360"> <path class="fil0" d="M-0 597.03l158.22 -132.57 3.61 -3.03 6.03 -5.15 6.1 -5.24 6.16 -5.33 9.35 -8.16 9.48 -8.32 12.8 -11.31 29.4 -26.06 13.28 -11.73 10.01 -8.8 10.06 -8.79 6.72 -5.84 6.73 -5.81 6.74 -5.77 6.74 -5.74 6.74 -5.69 6.73 -5.63 3.43 -2.81 22.99 -14.63 10.75 -6.81 6.16 -3.86 4.85 -3 2.65 -1.61 2.29 -1.35 2.01 -1.15 1.82 -1 1.72 -0.91 2.57 -1.3 7.51 -3.7 4.57 -2.3 5.8 -2.98 4.7 -2.46 5.46 -2.89 6.32 -3.39 8.33 -4.18 4.14 -2.11 4.07 -2.09 3.99 -2.08 15.25 -7.97 3.63 -1.88 3.57 -1.82 3.49 -1.76 3.43 -1.68 3.36 -1.61 3.3 -1.53 3.24 -1.44 3.17 -1.34 3.11 -1.24 3.05 -1.13 2.99 -1.02 2.93 -0.89 2.88 -0.77 2.82 -0.63 2.77 -0.49 2.71 -0.35 2.67 -0.19 2.61 -0.03 2.56 0.13 2.51 0.31 2.46 0.48 2.41 0.67 2.37 0.86 2.32 1.06 2.28 1.26 2.24 1.46 2.19 1.68 2.15 1.91 2.11 2.13 2.08 2.37 2.04 2.61 2 2.86 1.97 3.11 1.93 3.37 1.9 3.64 1.87 3.91 1.84 4.19 1.8 4.48 1.78 4.77 2.21 6.32 1.87 5.22 1.93 5.27 1.99 5.32 2.05 5.35 2.11 5.38 2.16 5.39 2.21 5.4 2.27 5.42 2.32 5.41 2.36 5.39 2.41 5.39 2.45 5.36 2.49 5.33 2.53 5.29 2.57 5.25 1.3 2.61 1.3 2.59 1.31 2.58 1.32 2.56 1.33 2.54 1.34 2.53 1.35 2.51 1.35 2.49 1.36 2.47 1.37 2.45 1.37 2.43 1.38 2.41 1.38 2.38 1.39 2.36 1.4 2.34 1.41 2.31 1.19 1.94 1.63 2.7 1.41 2.41 1.21 2.14 1.65 3.02 1.34 2.43 0.71 1.22 0.46 0.73 0.45 0.67 0.46 0.61 0.48 0.56 0.25 0.27 0.25 0.26 0.26 0.25 0.27 0.24 0.28 0.23 0.3 0.23 0.31 0.22 0.66 0.43 0.73 0.42 0.81 0.42 0.9 0.42 1.53 0.65 0.42 -1.26 0.41 -1.28 0.4 -1.3 0.38 -1.32 0.75 -2.7 0.71 -2.76 0.68 -2.82 0.65 -2.88 0.63 -2.92 0.9 -4.46 0.88 -4.54 1.7 -9.23 1.44 -7.76 0.9 -4.64 0.95 -4.61 0.67 -3.04 0.7 -3.02 0.72 -2.98 0.77 -2.94 0.81 -2.89 0.42 -1.43 1.3 -4.15 1.6 -4.78 1.59 -4.41 1.59 -4.04 1.6 -3.71 1.6 -3.38 1.61 -3.08 1.62 -2.8 1.63 -2.53 1.65 -2.29 1.67 -2.06 1.7 -1.85 1.73 -1.66 1.76 -1.49 1.8 -1.34 1.83 -1.21 1.88 -1.09 1.92 -1 1.98 -0.93 2.03 -0.87 2.08 -0.84 2.15 -0.81 6.82 -2.53 2.42 -0.93 2.48 -1.01 2.58 -1.1 2.68 -1.22 2.72 -1.35 2.82 -1.51 2.92 -1.68 3.02 -1.87 3.16 -2.08 3.21 -2.31 3.31 -2.55 3.45 -2.82 3.55 -3.1 3.7 -3.41 3.79 -3.74 3.89 -4.08 4.09 -4.44 4.13 -4.82 4.33 -5.22 4.48 -5.64 4.57 -6.08 4.72 -6.54 4.91 -7.01 3.75 -5.53 2.53 -3.6 2.58 -3.77 2.63 -3.92 2.68 -4.06 2.72 -4.19 2.77 -4.32 2.82 -4.44 2.87 -4.55 2.92 -4.65 2.97 -4.75 2.97 -4.83 2.97 -4.9 6.13 -10 6.13 -10.2 6.23 -10.35 15.57 -26.02 9.19 -15.41 6.08 -10.04 5.93 -9.78 2.92 -4.77 2.92 -4.68 2.82 -4.59 2.82 -4.48 2.72 -4.36 2.72 -4.24 2.68 -4.11 2.58 -3.97 2.53 -3.82 2.48 -3.66 2.38 -3.5 2.34 -3.32 2.24 -3.14 2.19 -2.95 2.09 -2.76 2.04 -2.55 1.9 -2.34 1.75 -1.98 1.22 -1.34 1.17 -1.28 1.22 -1.23 1.17 -1.17 1.17 -1.12 1.12 -1.06 1.17 -1.01 1.12 -0.95 1.12 -0.89 1.12 -0.84 1.12 -0.78 1.07 -0.72 1.12 -0.67 1.07 -0.62 1.12 -0.56 1.07 -0.51 1.12 -0.45 1.07 -0.39 1.07 -0.34 1.12 -0.28 1.07 -0.23 1.12 -0.18 1.07 -0.12 1.12 -0.07 1.12 -0.01 1.12 0.04 1.12 0.1 1.12 0.15 1.17 0.2 1.12 0.26 1.17 0.31 1.17 0.37 1.22 0.42 1.17 0.47 1.22 0.53 1.26 0.58 1.22 0.63 1.26 0.69 1.31 0.74 1.26 0.79 1.31 0.85 1.36 0.9 1.36 0.95 1.36 1.01 1.41 1.06 1.46 1.11 1.46 1.16 1.46 1.22 0.92 0.79 0.92 0.79 0.92 0.8 1.85 1.65 1.85 1.71 1.85 1.77 1.8 1.81 1.85 1.86 1.85 1.9 1.8 1.94 1.8 1.97 1.8 1.99 1.75 2.01 1.75 2.02 2.58 3.06 2.53 3.06 2.43 3.05 2.38 3.01 2.29 2.97 2.24 2.91 2.09 2.83 2.63 3.58 3.06 4.28 3.06 4.29 2.97 4.29 2.97 4.3 2.92 4.31 2.87 4.31 2.82 4.32 2.77 4.33 2.77 4.34 2.77 4.37 2.68 4.38 2.72 4.39 2.67 4.42 3.94 6.66 3.94 6.71 3.94 6.77 3.89 6.83 3.89 6.9 5.2 9.3 4.82 8.74 3.36 6.24 3.31 6.15 3.16 6.08 3.11 6 2.97 5.92 2.87 5.85 2.82 5.77 2.72 5.7 2.63 5.63 2.58 5.56 2.48 5.5 2.43 5.43 2.34 5.38 2.28 5.31 2.24 5.25 2.19 5.2 2.09 5.14 2.09 5.1 1.99 5.03 1.99 4.99 1.9 4.94 1.9 4.89 1.9 4.85 3.65 9.58 7 18.68 5.16 13.67 3.45 8.97 1.75 4.45 1.7 4.43 1.75 4.41 1.8 4.39 1.8 4.37 1.8 4.36 1.85 4.34 1.9 4.33 1.9 4.32 1.95 4.32 1.99 4.31 2.04 4.31 2.04 4.3 1.95 3.59 0.78 -0.09 0.92 -0.17 1.02 -0.26 1.12 -0.33 1.22 -0.41 1.31 -0.48 1.36 -0.55 1.46 -0.62 1.56 -0.68 1.61 -0.74 1.65 -0.79 1.75 -0.85 1.75 -0.89 1.85 -0.94 1.9 -0.98 1.9 -1.03 1.95 -1.06 1.99 -1.1 4.04 -2.28 4.13 -2.37 4.13 -2.44 4.09 -2.48 4.09 -2.5 3.99 -2.48 3.89 -2.45 3.7 -2.39 3.45 -2.3 3.26 -2.18 2.97 -2.04 2.68 -1.88 1.17 -0.87 1.12 -0.82 0.97 -0.76 0.92 -0.7 0.78 -0.65 0.68 -0.58 1.26 -1.16 1.36 -1.24 1.31 -1.26 1.31 -1.27 1.26 -1.29 1.26 -1.3 1.22 -1.31 1.22 -1.34 1.22 -1.34 1.17 -1.35 1.12 -1.37 1.17 -1.39 1.12 -1.4 1.12 -1.42 1.07 -1.43 1.07 -1.44 1.07 -1.45 1.02 -1.46 1.02 -1.48 1.02 -1.49 0.97 -1.51 1.02 -1.52 0.97 -1.54 0.92 -1.55 0.97 -1.57 0.92 -1.58 0.92 -1.59 0.92 -1.61 0.92 -1.62 0.88 -1.63 0.92 -1.64 1.75 -3.34 1.7 -3.39 1.75 -3.45 1.65 -3.5 1.7 -3.55 1.65 -3.61 2.48 -5.51 3.26 -7.34 2.53 -5.67 2.77 -6.04 1.95 -4.2 2.04 -4.31 2.14 -4.39 2.24 -4.46 1.12 -2.24 1.17 -2.25 1.22 -2.26 1.17 -2.26 1.22 -2.25 1.26 -2.26 1.26 -2.24 1.26 -2.24 1.31 -2.22 1.31 -2.21 1.31 -2.19 1.36 -2.16 1.36 -2.14 1.36 -2.12 1.36 -2.09 1.41 -2.05 1.41 -2.02 1.46 -1.98 1.46 -1.94 1.46 -1.89 1.46 -1.85 1.46 -1.79 1.51 -1.75 1.51 -1.69 1.51 -1.63 1.56 -1.57 1.51 -1.51 1.56 -1.44 1.56 -1.37 1.61 -1.29 1.56 -1.23 1.61 -1.14 1.65 -1.1 1.9 -0.99 2.09 -0.78 2.19 -0.58 2.34 -0.38 2.48 -0.2 2.58 -0.01 2.72 0.16 2.82 0.33 2.87 0.49 3.02 0.64 3.06 0.79 3.16 0.92 3.21 1.06 3.31 1.19 3.36 1.3 3.36 1.42 3.45 1.52 3.5 1.62 3.5 1.71 3.5 1.79 3.55 1.87 3.55 1.94 3.55 2 3.55 2.06 3.55 2.1 3.5 2.15 3.5 2.18 3.45 2.2 3.4 2.23 3.36 2.24 3.31 2.25 3.26 2.25 3.21 2.24 3.06 2.22 3.06 2.2 2.92 2.17 2.87 2.14 2.72 2.1 2.63 2.05 2.53 1.99 2.38 1.93 2.29 1.86 2.09 1.78 1.99 1.7 1.85 1.6 1.65 1.51 1.51 1.4 2.14 1.86 8.17 6.16 7.88 6.05 7.59 5.94 7.3 5.83 7 5.71 6.71 5.58 6.42 5.46 6.18 5.32 5.89 5.18 5.69 5.03 5.4 4.88 5.16 4.73 4.96 4.57 4.72 4.4 4.48 4.23 4.28 4.06 11.63 11.08 3.5 3.31 3.31 3.11 3.16 2.91 2.97 2.7 2.82 2.49 2.68 2.27 2.53 2.04 2.38 1.81 2.24 1.58 2.14 1.34 1.99 1.1 1.9 0.85 1.8 0.6 1.7 0.34 1.56 0.08 1.56 -0.19 1.41 -0.46 1.36 -0.74 1.31 -1.03 1.26 -1.31 1.17 -1.61 1.17 -1.9 1.12 -2.2 1.07 -2.51 1.07 -2.82 1.07 -3.14 1.02 -3.46 1.02 -3.79 1.22 -4.85 0.34 -1.49 0.73 -3.68 1.56 0.14 2.72 0.53 2.92 0.78 3.02 1.03 3.16 1.26 3.26 1.5 3.36 1.71 3.5 1.93 3.6 2.12 3.65 2.32 3.79 2.49 3.84 2.67 3.89 2.83 3.99 2.98 3.99 3.12 4.09 3.25 4.13 3.37 4.13 3.49 4.18 3.59 4.23 3.69 4.18 3.77 4.23 3.84 4.23 3.91 4.23 3.97 4.18 4.01 4.18 4.05 4.18 4.07 4.13 4.09 4.09 4.1 3.99 4.09 3.99 4.08 3.94 4.06 3.84 4.02 3.75 3.98 3.7 3.93 3.6 3.87 3.5 3.8 3.36 3.72 3.31 3.64 3.16 3.53 3.02 3.42 2.92 3.3 2.77 3.18 2.63 3.04 2.43 2.89 2.34 2.74 2.14 2.57 1.95 2.39 1.8 2.26 1.8 2.26 3.45 4.35 3.26 4.13 4.52 5.85 5.5 7.24 6.37 8.34 3.7 4.75 2.43 3.09 2.43 3.06 2.48 3.04 1.31 1.52 1.26 1.52 1.31 1.53 1.31 1.53 1.36 1.55 1.41 1.56 1.41 1.57 1.46 1.59 1.51 1.61 1.56 1.63 1.61 1.65 1.65 1.68 1.65 1.71 1.75 1.74 1.8 1.77 1.9 1.8 1.9 1.84 2 1.88 2.04 1.92 2.14 1.97 2.24 2.01 2.19 1.99 3.75 3.35 4.57 4.06 4.52 3.93 4.48 3.82 4.43 3.72 4.38 3.63 4.33 3.56 4.38 3.49 4.38 3.44 5.01 3.85 3.21 2.52 8.27 6.63 3.65 2.88 2.68 2.08 2.24 1.66 2.04 1.51 2.19 1.51 2.04 1.4 4.82 3.18 2.29 1.53 1.8 1.24 1.26 0.96 1.31 0.99 1.31 1.05 1.26 1.1 0.88 0.78 0.88 0.81 0.88 0.85 0.29 0.34 -0.49 0.2 -0.63 0.21 -0.63 0.16 -2.14 0.27 -2.24 0.02 -2.43 -0.22 -2.58 -0.44 -2.68 -0.66 -2.87 -0.87 -2.97 -1.07 -3.06 -1.26 -3.21 -1.45 -3.31 -1.63 -3.41 -1.79 -3.5 -1.96 -3.6 -2.11 -3.7 -2.25 -3.75 -2.38 -3.79 -2.51 -3.84 -2.64 -3.94 -2.74 -3.94 -2.85 -3.99 -2.94 -4.04 -3.03 -4.04 -3.11 -4.09 -3.18 -4.04 -3.24 -4.09 -3.29 -4.04 -3.34 -4.04 -3.38 -4.04 -3.41 -3.99 -3.42 -3.94 -3.44 -3.94 -3.44 -3.84 -3.44 -3.79 -3.43 -3.75 -3.41 -3.65 -3.39 -3.6 -3.35 -3.5 -3.3 -3.41 -3.25 -3.31 -3.19 -3.21 -3.12 -3.11 -3.05 -2.92 -2.96 -2.87 -2.87 -2.68 -2.76 -2.58 -2.66 -2.38 -2.53 -2.24 -2.41 -2.09 -2.28 -1.8 -2.02 -1.75 -2.12 -1.85 -2.28 -1.85 -2.43 -1.95 -2.58 -1.95 -2.72 -2.04 -2.85 -2.09 -2.97 -2.09 -3.08 -2.19 -3.2 -2.24 -3.29 -9.39 -14 -5.01 -7.39 -2.58 -3.77 -2.63 -3.8 -2.67 -3.83 -2.72 -3.85 -2.77 -3.86 -2.77 -3.87 -2.87 -3.86 -2.92 -3.85 -2.97 -3.84 -3.02 -3.81 -3.06 -3.77 -3.11 -3.74 -3.16 -3.68 -3.21 -3.62 -3.26 -3.56 -3.31 -3.49 -3.36 -3.4 -3.41 -3.32 -3.45 -3.22 -3.5 -3.12 -3.55 -3 -3.6 -2.88 -3.65 -2.75 -3.65 -2.61 -3.75 -2.47 -3.79 -2.32 -3.84 -2.16 -3.89 -2 -3.89 -1.81 -3.99 -1.63 -4.04 -1.44 -2.04 -0.66 -2.58 6.01 -0.34 1.05 -2.14 6.11 -0.68 1.8 -0.44 1.15 -0.49 1.11 -0.49 1.09 -0.58 1.07 -0.58 1.05 -0.34 0.53 -0.34 0.52 -0.34 0.52 -0.34 0.52 -0.39 0.53 -0.44 0.53 -0.44 0.53 -0.44 0.53 -0.49 0.53 -0.49 0.54 -0.53 0.54 -0.54 0.55 -0.58 0.56 -0.63 0.56 -0.63 0.57 -0.68 0.58 -0.68 0.59 -0.73 0.6 -0.78 0.61 -0.83 0.63 -0.83 0.64 -1.8 1.32 -1.95 1.38 -2.14 1.43 -2.24 1.41 -2.29 1.37 -2.33 1.32 -2.38 1.28 -2.48 1.23 -2.48 1.18 -2.58 1.13 -2.58 1.08 -2.63 1.02 -2.68 0.96 -2.68 0.9 -2.72 0.83 -2.72 0.77 -2.77 0.7 -2.77 0.63 -2.77 0.55 -2.82 0.48 -2.77 0.4 -2.82 0.32 -2.77 0.24 -2.77 0.16 -2.77 0.07 -2.77 -0.01 -2.72 -0.11 -2.72 -0.2 -2.67 -0.3 -2.68 -0.39 -2.58 -0.5 -2.58 -0.59 -2.58 -0.7 -2.48 -0.81 -2.43 -0.91 -2.38 -1.03 -2.34 -1.14 -2.29 -1.25 -2.19 -1.37 -2.14 -1.49 -2.04 -1.62 -1.99 -1.74 -1.9 -1.86 -1.85 -1.99 -1.75 -2.13 -1.61 -2.26 -1.56 -2.39 -1.46 -2.53 -1.36 -2.67 -1.22 -2.81 -0.92 -2.26 -1.46 -3.87 -2.09 -5.51 -4.91 -13.25 -1.7 -4.54 -1.17 -2.92 -1.12 -2.87 -1.22 -2.81 -1.17 -2.77 -0.63 -1.38 -0.63 -1.37 -0.68 -1.36 -0.63 -1.36 -0.73 -1.36 -0.68 -1.36 -0.73 -1.36 -0.78 -1.37 -0.78 -1.37 -0.78 -1.38 -0.83 -1.38 -0.88 -1.39 -0.88 -1.41 -0.92 -1.42 -0.97 -1.43 -0.97 -1.44 -1.07 -1.46 -1.07 -1.48 -1.07 -1.5 -1.17 -1.52 -1.22 -1.54 -1.22 -1.57 -1.31 -1.59 -1.75 -2.12 -2.38 -2.73 -2.48 -2.69 -2.58 -2.67 -2.72 -2.63 -2.77 -2.6 -2.87 -2.55 -2.92 -2.51 -3.06 -2.47 -3.11 -2.42 -3.16 -2.37 -3.26 -2.33 -3.26 -2.27 -3.36 -2.21 -3.41 -2.15 -3.45 -2.1 -3.5 -2.03 -3.55 -1.97 -3.55 -1.9 -3.6 -1.82 -3.6 -1.76 -3.65 -1.68 -3.6 -1.6 -3.65 -1.52 -3.7 -1.44 -3.65 -1.36 -3.65 -1.27 -3.6 -1.18 -3.65 -1.09 -3.6 -1 -3.55 -0.9 -3.55 -0.8 -3.55 -0.71 -3.45 -0.6 -3.45 -0.5 -3.36 -0.39 -3.36 -0.28 -3.26 -0.17 -3.21 -0.05 -3.16 0.06 -3.06 0.19 -3.02 0.31 -2.92 0.43 -2.82 0.55 -2.77 0.69 -2.63 0.82 -2.58 0.95 -2.43 1.09 -2.29 1.2 -2.04 1.21 -1.99 1.33 -1.95 1.44 -1.9 1.54 -1.85 1.65 -1.8 1.75 -1.8 1.85 -1.8 1.94 -1.7 2.03 -1.75 2.12 -1.65 2.2 -1.7 2.28 -1.65 2.35 -1.65 2.43 -1.65 2.5 -1.61 2.56 -1.65 2.63 -1.61 2.68 -1.61 2.74 -1.65 2.79 -1.65 2.84 -1.61 2.88 -6.71 11.9 -3.5 6.12 -1.75 3.09 -1.85 3.11 -1.85 3.12 -1.85 3.13 -1.95 3.14 -1.95 3.14 -1.99 3.14 -2.04 3.13 -2.09 3.13 -2.14 3.12 -2.24 3.1 -2.24 3.08 -2.34 3.06 -2.38 3.03 -2.43 3.01 -2.53 2.97 -2.58 2.94 -2.67 2.89 -2.72 2.86 -2.82 2.81 -1.65 1.61 -1.56 1.45 -1.51 1.4 -1.46 1.35 -1.46 1.3 -1.41 1.25 -1.41 1.2 -1.41 1.15 -1.41 1.11 -1.36 1.07 -1.36 1.02 -1.36 0.98 -1.36 0.93 -1.31 0.89 -1.36 0.86 -1.36 0.81 -1.36 0.78 -1.36 0.74 -1.36 0.7 -1.36 0.67 -1.41 0.63 -1.41 0.6 -1.41 0.56 -1.46 0.54 -1.46 0.51 -1.46 0.48 -1.56 0.45 -1.51 0.42 -1.61 0.39 -1.61 0.37 -1.65 0.35 -1.65 0.32 -1.75 0.3 -1.75 0.28 -1.8 0.25 -1.85 0.24 -1.9 0.22 -1.99 0.2 -1.99 0.19 -2.04 0.17 -2.14 0.15 -2.19 0.14 -2.24 0.13 -2.29 0.11 -4.82 0.2 -5.11 0.16 -0.78 0.66 0.24 1.02 0.34 1.09 0.44 1.16 0.54 1.22 0.58 1.28 0.63 1.34 0.73 1.39 0.78 1.44 0.88 1.48 0.88 1.53 0.97 1.57 1.02 1.61 1.07 1.64 1.12 1.67 1.12 1.7 1.17 1.72 1.26 1.74 1.22 1.75 1.26 1.77 1.31 1.78 2.68 3.57 2.72 3.57 2.72 3.53 2.72 3.48 2.72 3.39 2.68 3.28 3.79 4.65 3.55 4.25 3.16 3.76 3.5 4.09 3.45 4.01 2.48 2.82 2.43 2.75 2.43 2.68 2.43 2.62 2.38 2.56 2.38 2.51 2.38 2.46 2.33 2.42 2.38 2.38 3.55 3.52 3.55 3.47 3.6 3.44 3.6 3.43 4.91 4.59 5.01 4.64 9.15 8.39 5.16 4.72 3.7 3.45 3.7 3.51 3.75 3.56 3.75 3.61 3.7 3.66 3.75 3.69 3.75 3.73 4.96 5 4.91 5.02 4.87 5.03 4.86 5.04 5.98 6.26 6.08 6.44 8.76 9.23 4.72 5.01 3.45 3.74 2.92 3.15 2.87 3.22 2.34 2.66 2.97 3.42 1.17 1.34 1.22 1.31 1.22 1.3 1.85 1.92 4.96 5.06 1.85 1.91 1.8 1.93 1.22 1.3 1.17 1.32 1.12 1.34 1.12 1.37 1.07 1.4 0.49 0.72 0.54 0.72 0.49 0.73 0.49 0.73 0.49 0.75 0.49 0.76 0.44 0.77 0.44 0.78 0.44 0.79 0.39 0.8 0.39 0.82 0.39 0.83 0.34 0.84 0.39 0.86 -0.1 0.48 -0.97 -0.37 -1.17 -0.55 -1.31 -0.72 -1.51 -0.89 -1.65 -1.04 -1.8 -1.19 -1.95 -1.33 -2.09 -1.47 -2.19 -1.6 -2.34 -1.72 -2.48 -1.83 -2.53 -1.94 -2.68 -2.04 -2.72 -2.13 -2.87 -2.22 -2.87 -2.3 -2.97 -2.37 -3.06 -2.43 -6.23 -5.03 -6.37 -5.2 -6.47 -5.33 -9.73 -8.08 -9.63 -8.02 -18 -15.11 -10.51 -8.76 -6.71 -5.56 -3.79 -3.11 -3.21 -2.58 -6.47 -5.09 -5.01 -3.96 -5.01 -3.98 -4.96 -4 -4.91 -4.02 -4.91 -4.05 -4.86 -4.07 -4.82 -4.1 -2.38 -2.06 -2.38 -2.06 -2.38 -2.07 -2.38 -2.08 -2.34 -2.09 -2.38 -2.1 -2.29 -2.11 -2.33 -2.11 -2.29 -2.12 -2.34 -2.13 -2.24 -2.14 -2.29 -2.15 -2.24 -2.15 -2.24 -2.16 -2.19 -2.17 -2.24 -2.19 -2.14 -2.2 -2.19 -2.2 -2.14 -2.21 -2.14 -2.22 -2.09 -2.24 -2.09 -2.25 -2.09 -2.26 -2.04 -2.27 -2.04 -2.28 -2.04 -2.29 -1.99 -2.31 -1.95 -2.32 -1.95 -2.32 -1.95 -2.34 -1.9 -2.35 -1.9 -2.36 -1.9 -2.44 -1.95 -2.46 -1.85 -2.48 -1.9 -2.5 -1.9 -2.51 -1.85 -2.53 -1.8 -2.54 -1.85 -2.56 -1.8 -2.57 -1.8 -2.59 -1.8 -2.6 -1.75 -2.62 -1.75 -2.64 -1.75 -2.65 -1.75 -2.67 -1.7 -2.68 -1.7 -2.69 -1.7 -2.71 -1.65 -2.72 -1.7 -2.74 -1.65 -2.75 -1.61 -2.77 -1.65 -2.79 -1.61 -2.8 -1.61 -2.82 -1.56 -2.83 -1.61 -2.84 -1.56 -2.86 -1.51 -2.87 -1.56 -2.89 -1.51 -2.9 -1.51 -2.92 -1.51 -2.93 -1.46 -2.95 -1.46 -2.96 -1.46 -2.98 -1.46 -2.99 -1.41 -3.01 -1.41 -3.02 -1.41 -3.04 -1.41 -3.05 -1.36 -3.06 -1.36 -3.08 -1.36 -3.09 -1.31 -3.11 -1.31 -3.13 -1.31 -3.13 -2.34 -5.66 -0.92 -2.08 -1.02 -2.19 -1.07 -2.3 -1.22 -2.4 -1.31 -2.49 -1.36 -2.57 -1.51 -2.65 -1.56 -2.72 -1.61 -2.79 -1.7 -2.85 -1.8 -2.89 -1.85 -2.94 -1.95 -2.98 -1.99 -3.01 -2.04 -3.04 -2.09 -3.06 -2.19 -3.07 -2.19 -3.07 -2.29 -3.07 -2.29 -3.06 -2.34 -3.05 -2.38 -3.03 -2.43 -3 -2.48 -2.97 -2.48 -2.92 -2.48 -2.87 -2.53 -2.82 -2.58 -2.76 -2.53 -2.69 -2.58 -2.61 -2.58 -2.54 -2.63 -2.44 -2.58 -2.35 -2.63 -2.25 -2.58 -2.14 -2.58 -2.03 -2.58 -1.9 -2.58 -1.78 -2.58 -1.64 -2.53 -1.5 -2.48 -1.35 -2.48 -1.2 -2.48 -1.04 -2.43 -0.87 -2.38 -0.7 -2.34 -0.52 -2.33 -0.33 -1.99 0.35 -4.96 5.48 -6.28 6.82 -7.35 7.95 -8.27 8.88 -9.05 9.63 -6.37 6.74 -6.57 6.92 -6.76 7.05 -6.86 7.12 -6.91 7.13 -6.91 7.09 -6.86 6.99 -3.41 3.44 -3.36 3.39 -3.36 3.33 -3.26 3.27 -3.26 3.21 -3.16 3.13 -3.16 3.05 -3.06 2.95 -2.97 2.86 -2.92 2.76 -2.77 2.64 -2.72 2.52 -2.63 2.39 -2.53 2.26 -2.38 2.12 -2.29 1.97 -2.19 1.81 -1.99 1.65 -2.97 2.31 -0.88 0.74 -0.78 0.64 -0.58 0.54 -0.44 0.46 -0.39 0.37 -0.34 0.43 -0.58 0.65 -1.02 0.08 -1.17 0.13 -1.26 0.2 -1.7 0.3 -2.14 0.43 0 -2.1 0.29 -2.83 0.34 -2.88 0.44 -2.94 0.49 -2.99 0.54 -3.03 0.58 -3.07 0.63 -3.1 0.68 -3.14 0.73 -3.16 0.73 -3.19 0.78 -3.21 0.83 -3.22 0.83 -3.23 1.7 -6.46 1.7 -6.45 3.41 -12.71 1.65 -6.18 0.78 -3.04 0.73 -2.99 0.68 -2.95 0.68 -2.89 0.63 -2.84 0.54 -2.77 0.54 -2.71 0.44 -2.64 0.44 -2.56 0.29 -2.49 0.29 -2.41 0.2 -2.32 0.1 -2.23 0 -2.13 -0.05 -2.03 -0.15 -1.92 -0.24 -1.81 -0.34 -1.7 -0.49 -1.58 -0.53 -1.46 -0.68 -1.33 -0.83 -1.2 -0.92 -1.06 -1.02 -0.92 -1.99 -0.72 -2.82 -0.51 -2.77 -0.36 -2.82 -0.2 -2.82 -0.06 -2.87 0.08 -2.82 0.22 -2.82 0.34 -2.87 0.47 -2.82 0.59 -2.82 0.71 -2.87 0.82 -2.82 0.92 -2.82 1.02 -2.82 1.11 -2.82 1.21 -2.82 1.29 -2.77 1.37 -2.77 1.45 -2.77 1.52 -2.77 1.58 -2.72 1.64 -2.72 1.69 -2.72 1.74 -2.68 1.79 -2.63 1.82 -2.68 1.86 -2.58 1.89 -2.58 1.91 -2.58 1.93 -2.53 1.95 -2.48 1.95 -2.48 1.96 -2.43 1.96 -2.38 1.95 -4.72 3.85 -10.99 9.17 -4.09 3.38 -1.99 1.6 -1.95 1.54 -1.85 1.47 -1.85 1.4 -2.04 1.54 -2.92 2.08 -2.82 1.93 -2.77 1.79 -2.72 1.66 -2.63 1.54 -2.58 1.43 -2.53 1.34 -2.48 1.25 -2.38 1.17 -2.33 1.1 -2.29 1.04 -2.24 0.99 -4.33 1.87 -4.09 1.78 -1.95 0.89 -1.95 0.9 -1.85 0.92 -1.85 0.94 -1.75 0.98 -1.75 1.03 -1.7 1.09 -1.63 1.16 -1.6 1.24 -1.56 1.32 -1.52 1.42 -1.48 1.53 -1.44 1.64 -1.41 1.77 -1.37 1.91 -1.33 2.05 -1.3 2.21 -1.26 2.37 -1.24 2.55 -1.2 2.73 -1.17 2.93 -1.14 3.13 -1.11 3.35 -1.09 3.57 -1.07 3.81 -1.04 4.05 -1.01 4.31 -0.99 4.57 -0.97 4.84 -0.94 5.13 -0.93 5.42 -1.31 8.25 -0.42 2.37 -0.43 2.26 -0.45 2.16 -0.46 2.06 -0.47 1.97 -0.47 1.88 -0.48 1.79 -0.48 1.71 -0.48 1.64 -0.47 1.56 -0.92 2.91 -1.68 5.13 -0.72 2.29 -0.32 1.09 -0.29 1.05 -0.26 1.03 -0.22 1 -0.18 0.98 -0.15 0.96 -0.1 0.95 -0.05 0.95 -0 0.94 0.05 0.94 0.1 0.95 0.16 0.96 0.21 0.97 0.28 0.99 0.34 1.01 0.4 1.04 0.48 1.07 0.55 1.1 0.62 1.13 0.7 1.18 0.78 1.22 0.86 1.27 0.94 1.33 1.03 1.39 1.12 1.45 1.22 1.52 1.31 1.59 1.41 1.66 1.51 1.74 4.75 5.41 1.58 1.75 0.97 1.04 0.92 0.95 0.89 0.85 0.43 0.39 0.43 0.37 0.43 0.35 0.43 0.34 0.43 0.32 0.44 0.31 0.44 0.29 0.45 0.28 0.46 0.26 0.47 0.26 0.48 0.24 0.49 0.23 0.51 0.22 1.07 0.42 1.16 0.4 1.25 0.38 1.37 0.37 1.5 0.37 2.52 0.57 2.91 0.61 5.01 1.02 2.24 0.41 3.11 0.51 4.82 0.71 6.47 0.94 3.21 0.51 2.38 0.41 2.34 0.45 2.29 0.5 1.51 0.36 1.46 0.38 1.41 0.41 1.36 0.44 1.36 0.47 1.26 0.51 0.88 0.36 1.75 0.82 1.75 0.89 1.7 0.94 1.7 1.01 1.65 1.06 1.65 1.11 1.61 1.17 1.61 1.22 1.56 1.26 1.56 1.31 1.56 1.35 1.51 1.39 1.51 1.43 1.46 1.46 1.46 1.5 1.46 1.53 1.41 1.56 1.41 1.58 1.41 1.61 1.36 1.63 1.41 1.64 1.36 1.66 1.31 1.68 1.36 1.69 2.62 3.41 2.63 3.43 6.47 8.55 2.58 3.36 2.58 3.29 1.26 1.62 1.31 1.6 1.26 1.57 1.31 1.54 1.31 1.51 1.26 1.48 1.31 1.45 1.31 1.41 1.36 1.37 1.31 1.33 1.36 1.29 0.44 0.41 0.39 0.35 0.44 0.35 0.49 0.34 0.49 0.34 0.49 0.34 1.07 0.67 1.12 0.66 1.22 0.65 1.85 0.98 3.26 1.64 2.63 1.35 1.95 1.04 1.26 0.72 1.26 0.73 1.17 0.75 0.54 0.38 0.58 0.39 0.49 0.39 0.54 0.41 0.49 0.41 0.49 0.42 0.44 0.43 0.44 0.43 0.39 0.44 0.39 0.45 0.34 0.46 0.29 0.47 0.29 0.48 0.24 0.49 0.24 0.5 -1.26 0.7 -1.95 0.63 -1.95 0.43 -1.95 0.24 -1.95 0.06 -1.95 -0.11 -1.99 -0.28 -1.95 -0.44 -1.99 -0.59 -1.95 -0.74 -1.95 -0.88 -1.99 -1.01 -1.95 -1.14 -1.99 -1.25 -1.95 -1.37 -1.95 -1.47 -1.99 -1.57 -1.95 -1.66 -1.95 -1.74 -1.95 -1.82 -1.95 -1.89 -1.95 -1.95 -1.95 -2 -1.95 -2.05 -1.9 -2.1 -1.95 -2.13 -1.9 -2.15 -1.9 -2.17 -1.9 -2.19 -7.49 -8.75 -3.7 -4.27 -1.85 -2.09 -1.8 -2.04 -1.8 -2 -1.8 -1.93 -1.8 -1.87 -1.75 -1.8 -1.75 -1.73 -1.75 -1.63 -1.7 -1.55 -1.7 -1.45 -1.7 -1.34 -1.65 -1.23 -1.65 -1.11 -1.75 -1.06 -1.9 -1.07 -1.85 -0.99 -1.8 -0.92 -1.75 -0.85 -1.7 -0.79 -1.65 -0.72 -1.61 -0.66 -1.61 -0.6 -1.56 -0.55 -1.56 -0.5 -1.46 -0.45 -1.46 -0.4 -1.46 -0.35 -1.41 -0.32 -1.36 -0.28 -1.36 -0.24 -1.31 -0.2 -1.31 -0.18 -1.31 -0.15 -1.26 -0.13 -1.26 -0.11 -2.48 -0.16 -2.43 -0.11 -5.93 -0.18 -2.38 -0.1 -2.37 -0.14 -1.19 -0.1 -1.2 -0.12 -1.21 -0.14 -1.22 -0.17 -1.23 -0.2 -1.24 -0.22 -1.26 -0.26 -1.27 -0.3 -1.29 -0.34 -1.31 -0.38 -1.33 -0.42 -1.35 -0.48 -1.37 -0.52 -1.28 -0.53 -0.61 -0.28 -0.66 -0.33 -0.7 -0.37 -0.73 -0.42 -0.77 -0.46 -0.8 -0.5 -0.84 -0.54 -0.87 -0.58 -0.9 -0.61 -1.87 -1.32 -1.96 -1.44 -2.05 -1.54 -2.11 -1.63 -3.26 -2.57 -3.33 -2.69 -3.36 -2.75 -4.43 -3.68 -11.04 -9.27 -3.27 -2.71 -2.08 -1.68 -4.22 -3.48 -4.49 -3.96 -4.29 -4.07 -4.1 -4.15 -3.92 -4.21 -3.76 -4.27 -3.59 -4.3 -3.44 -4.32 -3.3 -4.32 -3.17 -4.31 -3.05 -4.29 -2.94 -4.25 -2.84 -4.19 -2.75 -4.11 -5.27 -7.95 -2.54 -3.81 -2.49 -3.66 -2.45 -3.52 -2.42 -3.35 -2.4 -3.17 -2.39 -2.97 -2.39 -2.76 -2.41 -2.53 -2.43 -2.29 -2.46 -2.03 -2.5 -1.76 -2.55 -1.46 -2.61 -1.16 -2.68 -0.84 -2.76 -0.5 -2.86 -0.15 -2.96 0.22 -3.07 0.6 -3.19 1 -3.32 1.41 -3.46 1.85 -3.61 2.29 -3.78 2.75 -3.95 3.22 -4.13 3.71 -4.32 4.22 -4.52 4.74 -4.74 5.28 -4.96 5.84 -5.19 6.4 -5.43 6.99 -5.69 7.59 -2.97 3.02 -1.23 -0.04 -1.23 -0.09 -1.24 -0.13 -1.25 -0.18 -1.25 -0.22 -1.26 -0.26 -1.26 -0.3 -1.26 -0.33 -1.27 -0.37 -1.27 -0.4 -1.28 -0.43 -1.28 -0.47 -1.28 -0.5 -1.28 -0.53 -1.28 -0.55 -1.29 -0.58 -1.28 -0.6 -1.28 -0.62 -1.28 -0.64 -1.28 -0.66 -1.28 -0.68 -1.28 -0.7 -1.27 -0.71 -1.27 -0.72 -2.52 -1.48 -2.51 -1.52 -2.48 -1.54 -3.66 -2.33 -8.18 -5.3 -3.32 -2.12 -2.14 -1.33 -2.08 -1.26 -2.95 -1.71 -1.63 -0.92 -1.59 -0.88 -1.54 -0.83 -1.5 -0.79 -1.46 -0.74 -1.43 -0.7 -1.39 -0.66 -1.36 -0.61 -1.33 -0.57 -1.3 -0.53 -1.28 -0.49 -1.26 -0.45 -1.23 -0.4 -1.22 -0.36 -1.2 -0.33 -1.19 -0.29 -1.18 -0.25 -1.17 -0.21 -1.16 -0.17 -1.16 -0.14 -1.16 -0.1 -1.15 -0.06 -1.16 -0.02 -1.17 0.01 -1.17 0.04 -1.19 0.08 -1.2 0.12 -1.21 0.16 -1.23 0.18 -1.24 0.22 -1.27 0.25 -1.29 0.28 -1.32 0.32 -1.35 0.35 -1.38 0.37 -1.42 0.41 -1.45 0.44 -1.49 0.47 -3.11 1.02 -3.29 1.14 -3.49 1.25 -5.91 2.16 -4.54 1.71 -4.57 1.79 -4.59 1.85 -4.61 1.93 -4.64 1.99 -4.65 2.06 -4.67 2.12 -4.68 2.17 -4.69 2.23 -4.71 2.29 -4.72 2.34 -4.73 2.38 -4.74 2.44 -4.75 2.48 -4.76 2.52 -4.76 2.56 -4.77 2.6 -4.76 2.63 -4.77 2.67 -4.77 2.69 -4.76 2.72 -4.76 2.75 -4.76 2.77 -4.75 2.79 -4.74 2.81 -4.73 2.83 -4.72 2.84 -4.71 2.85 -4.69 2.86 -9.35 5.73 -9.28 5.73 -9.2 5.72 -27.02 16.87 -13.12 8.16 -8.57 5.29 -9.91 6.06 -2.38 1.51 -4.67 3.04 -5.83 3.84 -25.22 16.79 -11.44 7.58 -8.65 5.69 -8.5 5.54 -5.48 3.54 -5.27 3.36 -5 3.14 -4.67 2.88 -2.19 1.33 -2.09 1.25 -1.98 1.16 -1.86 1.07 -1.74 0.97 -1.6 0.88 -1.46 0.76 -1.31 0.65 -1.16 0.53 -1 0.41 -1.06 0.3zm274.58 -197.81l4.37 -2.08 4.91 -2.28 4.89 -2.22 4.91 -2.17 4.91 -2.11 4.92 -2.05 4.85 -1.96 4.91 -1.92 4.8 -1.81 6.01 -2.2 3.84 -1.37 3.7 -1.28 3.49 -1.14 1.75 -0.55 1.8 -0.54 1.83 -0.52 1.77 -0.48 1.77 -0.45 1.86 -0.44 1.8 -0.39 1.57 -0.31 1.94 -0.34 2.1 -0.3 1.63 -0.21 2 -0.2 2.01 -0.14 1.96 -0.07 1.97 -0.02 2.03 0.04 2.02 0.1 2.07 0.18 2 0.24 1.99 0.29 2.01 0.36 1.99 0.42 1.96 0.47 1.93 0.52 1.9 0.57 1.9 0.62 1.86 0.66 1.86 0.71 2.09 0.86 1.78 0.77 1.78 0.81 1.72 0.81 1.86 0.91 1.73 0.89 1.79 0.94 1.78 0.96 1.83 1.01 1.93 1.09 3.34 1.95 2.4 1.45 2.39 1.49 3.4 2.17 8.17 5.3 3.43 2.19 2.21 1.37 2.2 1.33 2.22 1.3 1.02 0.58 1.02 0.57 2.04 1.1 0.97 0.5 1.26 0.63 2.76 -3.55 5.57 -6.87 5.41 -6.36 5.27 -5.88 5.16 -5.4 5.09 -4.96 5.04 -4.53 5.06 -4.13 5.13 -3.73 5.24 -3.32 5.45 -2.9 5.68 -2.41 5.95 -1.87 6.2 -1.21 6.34 -0.47 6.36 0.34 6.18 1.12 5.83 1.82 5.37 2.38 0.11 0.06 -0.9 -2 -2.45 -5.6 -2.41 -5.62 -2.35 -5.62 -2.29 -5.59 -2.24 -5.59 -2.18 -5.57 -2.13 -5.55 -2.06 -5.52 -2 -5.46 -1.93 -5.41 -2.15 -6.14 -1.55 -4.17 -1.51 -3.74 -1.5 -3.41 -1.47 -3.07 -1.43 -2.73 -1.36 -2.37 -1.3 -2.06 -1.22 -1.74 -1.11 -1.42 -1 -1.14 -0.89 -0.89 -0.75 -0.67 -0.6 -0.46 -0.52 -0.34 -0.43 -0.24 -0.32 -0.15 -0.32 -0.12 -0.36 -0.1 -0.46 -0.09 -0.56 -0.07 -0.7 -0.04 -0.92 0.01 -1.1 0.08 -1.28 0.16 -1.51 0.27 -1.67 0.37 -1.87 0.5 -2.08 0.63 -2.19 0.74 -2.4 0.89 -2.53 1.01 -2.66 1.12 -2.8 1.25 -2.95 1.36 -3.08 1.48 -3.2 1.57 -3.29 1.66 -3.41 1.74 -3.51 1.82 -15.23 7.96 -4.08 2.12 -4.17 2.15 -4.27 2.17 -8.07 4.05 -6.04 3.24 -5.58 2.96 -4.85 2.54 -6 3.08 -4.77 2.4 -7.48 3.69 -2.19 1.11 -1.29 0.69 -1.44 0.79 -1.66 0.95 -2.01 1.18 -2.4 1.45 -4.66 2.88 -6.03 3.78 -10.67 6.76 -21.57 13.73 -2.04 1.67 -6.58 5.5 -6.64 5.61 -6.66 5.67 -6.67 5.71 -6.66 5.75 -6.66 5.79 -9.99 8.73 -8.08 7.11zm517.11 -159.52l0.76 -0.43 3.02 -1.65 3.3 -1.72 3.4 -1.67 3.5 -1.61 3.51 -1.5 3.55 -1.4 3.59 -1.3 3.74 -1.23 3.82 -1.09 3.76 -0.94 3.93 -0.83 4.04 -0.66 4 -0.49 4.12 -0.32 4.23 -0.11 4.2 0.09 4.29 0.31 4.24 0.54 5.83 1.06 9.29 3.38 6.25 5.66 3.04 3.49 2.75 3.99 2.26 4.43 1.36 3.72 1.11 3.61 0.79 3.94 0.47 3.49 0.26 3.43 0.07 3.08 0 3.06 -0.15 3.38 -0.28 3.38 -0.35 2.86 -0.37 3.15 -0.55 3.21 -0.49 2.99 -0.61 3.07 -0.6 3.1 -0.8 3.56 -0.67 2.83 -0.5 2.17 1.05 -1.06 6.78 -6.91 6.84 -7.02 6.85 -7.07 6.81 -7.08 6.69 -6.97 6.5 -6.85 6.32 -6.69 8.97 -9.55 8.19 -8.8 7.29 -7.89 6.18 -6.71 11.25 -12.43 15.66 -2.75 7.72 1.09 4.27 0.94 4.06 1.18 3.88 1.39 3.85 1.61 3.77 1.82 3.51 1.92 3.34 1.98 3.37 2.15 3.36 2.32 3.27 2.41 3.2 2.52 3.19 2.66 2.95 2.53 3.09 2.82 2.91 2.7 3.15 3.1 2.81 2.85 2.79 2.96 2.8 2.99 2.9 3.23 2.72 3.16 2.62 3.08 2.81 3.36 2.68 3.31 2.61 3.31 2.74 3.58 -0.45 -1.09 -2.1 -4.99 -2.2 -5.16 -2.24 -5.22 -2.25 -5.19 -2.35 -5.26 -2.41 -5.34 -2.51 -5.41 -2.56 -5.49 -2.61 -5.48 -2.76 -5.64 -2.81 -5.72 -2.83 -5.64 -6.09 -11.71 -6.51 -12.09 -4.71 -8.54 -5.14 -9.18 -3.84 -6.8 -3.8 -6.66 -3.85 -6.62 -3.89 -6.63 -3.84 -6.49 -2.53 -4.17 -2.69 -4.35 -2.6 -4.26 -2.63 -4.14 -5.44 -8.52 -2.68 -4.11 -2.74 -4.11 -2.79 -4.11 -5.73 -8.29 -5.91 -8.26 -2.5 -3.41 -1.9 -2.57 -4.25 -5.52 -2.23 -2.82 -2.24 -2.8 -2.29 -2.77 -2.38 -2.83 -3.16 -3.64 -1.57 -1.74 -1.67 -1.83 -1.52 -1.64 -1.54 -1.58 -3.31 -3.34 -1.43 -1.37 -1.5 -1.39 -1.52 -1.36 -2.34 -2.01 -1.07 -0.9 -0.98 -0.78 -2.42 -1.82 -1 -0.73 -0.72 -0.51 -0.95 -0.62 -1.04 -0.67 -0.61 -0.38 -0.54 -0.31 -0.83 -0.45 -0.39 -0.2 -0.52 -0.24 -0.41 0.29 -0.43 0.32 -0.46 0.37 -1.3 1.11 -1.49 1.42 -1.67 1.69 -1.87 2.06 -1.25 1.41 -1.46 1.81 -1.76 2.19 -1.77 2.35 -1.94 2.62 -2.03 2.86 -2.17 3.09 -2.25 3.3 -2.38 3.51 -2.38 3.59 -5.16 7.94 -2.58 4.02 -2.66 4.25 -2.77 4.39 -2.79 4.53 -2.9 4.66 -2.83 4.63 -5.9 9.72 -6.03 9.95 -9.16 15.35 -15.59 26.07 -12.49 20.77 -6.09 9.94 -2.98 4.92 -3.07 4.99 -3.04 4.86 -2.95 4.69 -2.91 4.61 -2.88 4.53 -2.85 4.44 -2.81 4.33 -2.79 4.23 -2.83 4.22 -2.77 4.05 -1.14 1.62zm556.28 4.06l1.87 -0.84 4.13 -1.52 4.08 -1.27 4.22 -1.04 4.11 -0.81 4.19 -0.62 4.21 -0.43 4.19 -0.25 4.2 -0.08 4.19 0.06 4.19 0.21 4.25 0.35 4.19 0.48 4.22 0.61 4.18 0.72 4.24 0.84 4.25 0.96 4.21 1.07 2.99 0.83 -3.07 -1.91 -3.23 -1.98 -3.26 -1.93 -3.29 -1.9 -3.24 -1.82 -3.21 -1.75 -3.23 -1.7 -3.12 -1.6 -3.02 -1.47 -3.01 -1.39 -3.02 -1.33 -2.81 -1.18 -2.64 -1.03 -2.64 -0.95 -2.4 -0.79 -2.29 -0.67 -2.07 -0.53 -1.88 -0.4 -1.6 -0.27 -1.3 -0.15 -0.99 -0.06 -0.5 0.39 -1.03 0.83 -0.83 0.73 -0.89 0.83 -2.3 2.31 -1 1.08 -1.19 1.34 -1.1 1.27 -1.08 1.33 -1.24 1.57 -1.25 1.63 -1.28 1.7 -1.18 1.6 -2.31 3.34 -1.13 1.74 -1.27 1.98 -1.19 1.88zm207.76 104.48l1.27 2.76 1.29 3.06 1.36 3.15 1.26 3.23 1.24 3.1 1.82 4.86 4.89 13.2 2.07 5.43 1.33 3.55 0.68 1.66 0.75 1.72 0.65 1.27 0.74 1.28 0.84 1.29 0.7 0.99 0.61 0.73 0.86 0.92 0.86 0.84 0.87 0.76 0.88 0.7 0.89 0.62 0.93 0.58 1.02 0.56 1.15 0.56 1.19 0.51 1.24 0.47 1.24 0.4 1.4 0.38 1.57 0.36 1.49 0.29 1.59 0.23 1.67 0.19 1.77 0.13 1.79 0.07 1.87 0.01 1.93 -0.05 1.93 -0.11 1.96 -0.17 2.06 -0.24 2.01 -0.28 2.08 -0.36 2.05 -0.41 2.12 -0.48 2.07 -0.52 1.35 -0.38 -3.17 -1.75 -3.42 -2.15 -3.26 -2.3 -3.09 -2.35 -3.1 -2.51 -3.32 -2.82 -3.15 -2.78 -3.02 -2.75 -3.45 -3.17 -3.33 -3.14 -3.57 -3.37 -11.64 -11.1 -4.24 -4.03 -4.39 -4.15 -4.58 -4.28 -4.57 -4.21z"></path> <polygon class="fil0" points="163.95,814.8 159.02,827.08 154.46,839.63 150.28,852.41 146.52,865.39 143.19,878.52 140.33,891.76 137.95,905.09 136.08,918.45 134.75,931.82 133.98,945.15 133.79,958.41 134.22,971.56 135.28,984.55 137,997.35 139.41,1009.92 142.52,1022.23 146.38,1034.23 150.99,1045.89 156.39,1057.17 162.6,1068.03 169.64,1078.43 177.54,1088.33 186.34,1097.7 196.03,1106.5 202.66,1111.75 207.49,1115.24 212.37,1118.48 217.3,1121.48 222.28,1124.24 227.3,1126.78 232.37,1129.09 237.47,1131.18 242.59,1133.05 247.75,1134.7 252.93,1136.14 258.13,1137.38 263.35,1138.41 268.58,1139.24 273.82,1139.88 279.07,1140.33 284.31,1140.58 289.56,1140.66 294.8,1140.55 300.03,1140.27 305.25,1139.81 310.45,1139.2 315.62,1138.41 320.77,1137.46 325.9,1136.35 330.99,1135.1 336.05,1133.69 341.07,1132.14 346.04,1130.45 350.97,1128.62 355.85,1126.66 360.67,1124.57 365.43,1122.35 370.13,1120.01 374.77,1117.55 379.34,1114.98 383.83,1112.3 388.24,1109.51 392.58,1106.62 396.83,1103.63 400.99,1100.55 405.06,1097.38 409.04,1094.12 412.91,1090.77 416.68,1087.35 420.35,1083.85 423.9,1080.29 427.34,1076.65 430.66,1072.95 432.93,1070.31 436.42,1066.09 437.22,1065.19 437.78,1064.6 438.34,1064.07 438.91,1063.57 439.53,1063.11 440.21,1062.67 440.97,1062.23 442.15,1061.62 443.56,1060.96 446.24,1059.8 446.08,1063.69 445.73,1067.54 445.19,1071.37 444.46,1075.16 443.56,1078.92 442.47,1082.64 441.22,1086.33 439.81,1089.98 438.24,1093.6 436.51,1097.17 434.64,1100.7 432.62,1104.19 430.47,1107.64 428.19,1111.05 425.77,1114.4 423.25,1117.71 420.6,1120.98 417.84,1124.19 414.98,1127.35 412.02,1130.47 408.96,1133.52 405.82,1136.53 402.59,1139.48 399.28,1142.37 395.9,1145.21 392.45,1147.99 388.94,1150.7 385.37,1153.36 381.75,1155.95 378.09,1158.48 374.38,1160.95 370.64,1163.35 366.86,1165.68 363.07,1167.94 359.25,1170.13 355.41,1172.25 351.57,1174.3 347.72,1176.28 343.88,1178.18 340.04,1180.01 336.22,1181.76 332.41,1183.43 328.62,1185.02 324.87,1186.53 321.14,1187.96 317.46,1189.31 313.82,1190.57 310.23,1191.74 306.69,1192.83 302.2,1194.12 297.23,1195.46 292.26,1196.69 287.3,1197.83 282.35,1198.87 277.41,1199.81 272.48,1200.66 267.56,1201.41 262.67,1202.07 257.78,1202.63 252.91,1203.1 248.06,1203.48 243.23,1203.77 238.42,1203.96 233.64,1204.08 228.88,1204.09 224.14,1204.02 219.43,1203.87 214.76,1203.62 210.11,1203.29 205.49,1202.87 200.9,1202.38 196.36,1201.8 191.84,1201.13 187.36,1200.38 182.92,1199.55 178.52,1198.64 174.16,1197.65 169.85,1196.58 165.57,1195.44 161.35,1194.21 157.17,1192.91 153.04,1191.53 148.96,1190.08 144.92,1188.56 140.94,1186.96 137.02,1185.28 133.15,1183.54 129.33,1181.73 125.58,1179.84 121.88,1177.88 118.25,1175.86 114.67,1173.77 111.16,1171.61 107.72,1169.38 104.34,1167.09 101.02,1164.73 97.78,1162.31 94.61,1159.82 91.43,1157.21 88.16,1154.43 84.96,1151.63 81.83,1148.8 78.76,1145.93 75.77,1143.03 72.85,1140.11 69.99,1137.15 67.2,1134.16 64.49,1131.12 61.84,1128.06 59.26,1124.95 56.75,1121.79 54.32,1118.6 51.95,1115.37 49.65,1112.08 47.43,1108.76 45.27,1105.38 43.18,1101.96 41.17,1098.49 39.23,1094.96 37.35,1091.38 35.55,1087.74 33.82,1084.05 32.16,1080.3 30.58,1076.5 29.06,1072.63 27.62,1068.7 26.25,1064.7 24.95,1060.65 23.73,1056.52 22.57,1052.33 21.49,1048.07 20.48,1043.74 19.54,1039.34 18.68,1034.87 17.89,1030.32 17.18,1025.69 16.53,1020.99 15.96,1016.21 15.47,1011.35 15.05,1006.41 14.7,1001.38 14.43,996.28 14.23,991.08 14.1,985.8 14.05,980.43 14.07,974.97 14.17,969.42 14.34,963.78 14.55,959.13 14.81,954.5 15.15,949.88 15.54,945.28 16,940.69 16.52,936.11 17.1,931.56 17.73,927.02 18.43,922.5 19.18,918 19.99,913.52 20.86,909.05 21.78,904.61 22.76,900.2 23.78,895.8 24.86,891.43 26,887.08 27.18,882.76 28.42,878.47 29.7,874.2 31.03,869.96 32.4,865.75 33.83,861.57 35.29,857.41 36.81,853.29 38.37,849.2 39.96,845.14 41.61,841.11 43.29,837.12 45.01,833.16 46.77,829.24 48.58,825.36 50.41,821.51 52.29,817.7 54.2,813.92 56.15,810.19 58.13,806.5 60.14,802.85 62.19,799.24 64.26,795.67 66.37,792.14 68.51,788.66 70.67,785.22 72.87,781.83 75.09,778.49 77.34,775.19 79.62,771.94 81.91,768.74 84.23,765.59 90.19,757.82 98.05,748.14 106.04,738.94 114.13,730.22 122.33,721.97 130.61,714.18 138.96,706.85 147.37,699.98 155.85,693.55 164.37,687.56 172.92,682.01 181.49,676.88 190.08,672.18 198.66,667.89 207.24,664.02 215.79,660.55 224.32,657.48 232.8,654.8 241.23,652.51 249.6,650.59 257.9,649.05 266.11,647.88 274.22,647.08 282.24,646.63 290.13,646.53 297.89,646.77 305.52,647.36 313,648.27 320.33,649.51 327.48,651.08 334.45,652.96 341.23,655.14 347.82,657.63 354.18,660.42 360.33,663.49 366.24,666.85 371.91,670.49 377.32,674.4 382.47,678.57 387.33,683.01 391.92,687.7 396.21,692.64 400.18,697.82 403.84,703.24 407.17,708.89 410.16,714.76 412.8,720.85 415.07,727.16 416.98,733.67 418.65,741.07 420.23,749.83 421.43,758.45 422.25,766.95 422.71,775.31 422.81,783.53 422.56,791.61 421.99,799.53 421.09,807.29 419.88,814.9 418.37,822.34 416.56,829.6 414.48,836.7 412.13,843.61 409.52,850.33 406.66,856.87 403.57,863.2 400.25,869.34 396.71,875.28 392.96,881 389.03,886.51 384.91,891.79 380.62,896.85 376.16,901.68 371.55,906.28 366.81,910.64 361.93,914.75 356.93,918.61 351.82,922.22 346.62,925.58 341.33,928.66 335.96,931.47 330.52,934.02 325.03,936.28 319.5,938.26 313.93,939.95 308.33,941.34 302.73,942.44 297.12,943.23 291.52,943.72 285.95,943.89 280.4,943.74 274.89,943.27 269.43,942.47 264.04,941.34 258.71,939.87 253.48,938.06 248.33,935.9 243.29,933.39 238.37,930.51 235.96,928.93 233.69,927.27 231.54,925.55 229.51,923.77 227.61,921.93 225.83,920.04 224.16,918.09 222.61,916.1 221.18,914.08 219.85,912 218.64,909.9 217.53,907.76 216.52,905.6 215.62,903.41 214.82,901.19 214.12,898.97 213.51,896.73 212.99,894.48 212.56,892.23 212.23,889.97 211.98,887.72 211.82,885.47 211.73,883.24 211.73,881.01 211.81,878.8 211.96,876.62 212.18,874.46 212.47,872.32 212.83,870.22 213.27,868.16 213.76,866.14 214.31,864.15 214.92,862.21 215.6,860.33 216.33,858.5 217.1,856.73 217.94,855.01 218.82,853.37 219.74,851.79 220.71,850.29 221.72,848.86 222.77,847.52 223.86,846.26 224.98,845.09 226.14,844 227.32,843.02 228.54,842.14 229.78,841.35 231.04,840.67 232,841.11 233.58,843.05 235.13,845.04 236.65,847.05 241.18,853.21 243.49,856.29 245.06,858.31 246.68,860.31 247.5,861.29 248.33,862.26 249.19,863.22 250.06,864.16 250.95,865.09 251.85,866 252.78,866.89 253.72,867.77 254.69,868.63 255.68,869.46 256.7,870.28 257.74,871.06 258.81,871.82 259.91,872.56 261.04,873.27 262.2,873.95 263.39,874.6 264.61,875.22 265.87,875.8 267.16,876.36 268.49,876.87 269.86,877.35 271.27,877.8 272.72,878.2 274.2,878.57 275.74,878.89 277.31,879.17 278.94,879.41 280.61,879.6 283.15,879.8 287.29,879.89 291.33,879.7 295.26,879.23 299.08,878.49 302.79,877.49 306.39,876.24 309.88,874.75 313.26,873.02 316.52,871.06 319.66,868.89 322.68,866.51 325.58,863.94 328.35,861.17 331,858.21 333.53,855.09 335.93,851.8 338.19,848.35 340.33,844.76 342.33,841.03 344.2,837.17 345.93,833.18 347.52,829.09 348.97,824.89 350.29,820.59 351.45,816.22 352.47,811.75 353.35,807.22 354.07,802.64 354.65,798 355.07,793.32 355.34,788.6 355.46,783.85 355.41,779.09 355.21,774.32 354.85,769.55 354.32,764.8 353.64,760.05 352.78,755.34 351.76,750.66 350.57,746.03 349.21,741.44 347.68,736.92 345.97,732.47 344.09,728.09 342.03,723.81 339.78,719.62 337.37,715.54 334.76,711.56 331.97,707.71 326.08,700.78 319.93,695.08 313.54,690.57 306.95,687.21 300.17,684.96 293.22,683.79 286.15,683.65 278.96,684.52 271.69,686.34 264.35,689.08 256.98,692.71 249.6,697.19 242.23,702.47 234.9,708.51 227.64,715.29 220.46,722.76 213.4,730.89 206.47,739.62 199.71,748.94 193.14,758.79 186.77,769.15 180.65,779.97 174.79,791.2 169.21,802.83 "></polygon> <path class="fil0" d="M467.4 912.4l151.23 -3.78 -0.17 3.57 -0.37 4.74 -0.53 4.97 -0.67 5.2 -0.8 5.4 -0.92 5.59 -1.03 5.76 -1.12 5.92 -1.21 6.06 -1.29 6.19 -1.35 6.31 -1.41 6.41 -1.44 6.5 -4.48 19.85 -2.99 13.4 -1.46 6.71 -1.43 6.69 -1.38 6.66 -1.32 6.62 -1.25 6.56 -1.17 6.48 -1.08 6.39 -0.98 6.29 -0.86 6.17 -0.74 6.04 -0.6 5.89 -0.45 5.73 -0.3 5.56 -0.13 5.36 0.06 5.16 0.25 4.94 0.45 4.7 0.67 4.46 0.89 4.19 1.13 3.91 1.38 3.62 1.64 3.31 1.9 2.99 2.19 2.65 2.48 2.3 2.78 1.94 3.1 1.55 3.43 1.16 3.76 0.75 4.11 0.33 3.57 -0.04 1.99 -0.16 1.47 -0.16 1.45 -0.2 1.43 -0.24 1.41 -0.28 2.07 -0.47 2.01 -0.54 1.97 -0.6 1.92 -0.66 1.87 -0.71 1.83 -0.75 1.78 -0.78 1.74 -0.82 2.26 -1.12 2.72 -1.43 3.6 -1.98 2.73 -1.56 1.74 -1.04 1.02 -0.66 0.92 -0.64 1.18 -0.9 1.06 -1 0.85 -1 0.74 -1.13 0.74 -1.56 0.63 -1.9 0.41 -1.73 0.39 -1.91 0.52 -2.97 1.59 -9.84 1.07 -7.05 1.23 -8.54 2.95 -21.36 1.39 -9.76 1.03 -6.82 1.07 -6.65 3.33 -19.22 3.55 -20.27 2.68 -14.95 2.24 -11.91 0.58 -3.19 0.24 -1.71 0.24 -1.69 0.24 -1.67 0.19 -1.65 0.15 -1.63 0.2 -1.62 0.1 -1.6 0.2 -3.15 0.15 -3.09 0.05 -3.05 -0.05 -2.99 -0.05 -2.95 -0.15 -4.34 -0.24 -4.27 -0.73 -11.1 -0.24 -4.11 -0.15 -4.1 -0.1 -2.74 0 -2.74 0.05 -2.76 0.1 -2.77 0.29 -2.96 98.8 0.54 -28.75 161.56 -2.09 10.34 -1.22 6.27 -0.78 4.17 -0.68 4.16 -0.68 4.11 -0.29 2.04 -0.24 2.02 -0.24 2 -0.24 1.98 -0.15 1.96 -0.15 1.93 -0.15 1.9 -0.05 1.87 -0.05 1.83 0 1.8 0.05 1.76 0.1 1.72 0.1 1.67 0.19 1.63 0.24 1.58 0.29 1.53 0.39 1.48 0.39 1.43 0.49 1.36 0.54 1.31 0.58 1.24 0.68 1.18 0.73 1.11 0.83 1.04 0.88 0.97 0.97 0.89 1.02 0.82 1.12 0.74 1.22 0.66 1.26 0.57 1.36 0.49 1.46 0.4 1.56 0.32 1.65 0.22 1.8 0.13 1.85 0.07 1.85 0 1.8 -0.05 1.75 -0.11 1.75 -0.16 1.7 -0.22 1.7 -0.27 1.65 -0.32 1.61 -0.36 1.61 -0.41 1.56 -0.45 1.56 -0.5 1.51 -0.54 1.51 -0.57 1.46 -0.61 1.46 -0.64 1.41 -0.68 1.41 -0.71 1.36 -0.73 1.36 -0.76 1.31 -0.78 1.31 -0.8 1.26 -0.83 1.26 -0.84 1.26 -0.86 1.22 -0.87 1.22 -0.89 1.17 -0.9 2.34 -1.81 2.29 -1.83 2.19 -1.83 5.25 -4.47 2.97 -2.53 1.99 -1.59 1.9 -1.5 0.92 -0.71 1.02 -0.73 0 -2.21 -0.1 -2.19 -0.15 -2.14 -0.2 -2.09 -0.34 -2.73 -0.39 -2.7 -1.07 -6.79 -0.53 -3.52 -0.39 -2.93 -0.29 -2.28 -0.19 -2.36 -0.15 -2.46 -0.1 -2.25 -0.1 -2.89 0 -3.58 0.1 -3.55 0.24 -8.43 0.15 -4.9 0.05 -3.51 -0.05 -2.82 -0.1 -2.87 -1.65 -1.57 -6.66 -6.01 -3.41 -3.16 -2.68 -2.52 -2.72 -2.62 -1.85 -1.79 -1.75 -1.81 -1.8 -1.84 -1.7 -1.85 -1.65 -1.86 -1.61 -1.86 -0.73 -0.93 -0.78 -0.92 -0.68 -0.92 -0.68 -0.91 -0.68 -0.91 -0.63 -0.9 -0.58 -0.9 -0.58 -0.89 -0.49 -0.88 -0.54 -0.88 -0.44 -0.86 -0.39 -0.85 -0.39 -0.84 -0.34 -0.83 -0.1 -0.42 43.25 7.08 1.65 -2.89 1.51 -2.76 1.46 -2.64 1.95 -3.77 1.8 -3.57 3.21 -6.65 2.09 -4.2 1.56 -3.08 1.12 -2.04 1.12 -2.04 1.22 -2.06 1.26 -2.08 1.36 -2.12 1.46 -2.15 1.56 -2.21 0.83 -1.13 0.88 -1.14 0.88 -1.17 0.92 -1.19 0.97 -1.21 1.02 -1.23 1.07 -1.26 1.07 -1.28 1.17 -1.31 2.24 -2.48 3.31 -3.47 3.41 -3.35 3.5 -3.24 3.55 -3.12 3.7 -3 3.75 -2.89 3.84 -2.77 3.89 -2.65 3.99 -2.53 3.99 -2.42 4.14 -2.3 4.13 -2.18 4.18 -2.07 4.23 -1.95 4.28 -1.83 4.33 -1.72 4.38 -1.6 4.38 -1.48 4.38 -1.36 4.43 -1.24 4.43 -1.13 4.48 -1.01 4.43 -0.9 4.48 -0.78 4.43 -0.66 4.48 -0.55 4.43 -0.43 4.43 -0.32 4.38 -0.2 4.38 -0.08 4.38 0.03 4.28 0.15 4.28 0.27 4.23 0.38 4.18 0.5 4.13 0.62 4.09 0.73 4.04 0.85 3.94 0.97 3.89 1.08 3.79 1.2 3.75 1.31 3.65 1.43 3.6 1.55 3.45 1.66 3.41 1.78 3.26 1.89 3.16 2 2.63 1.82 2.53 1.89 2.43 1.96 2.29 2.02 2.14 2.08 2.04 2.14 1.9 2.19 1.8 2.24 1.7 2.29 1.56 2.34 1.46 2.37 1.31 2.41 1.26 2.45 1.07 2.49 1.02 2.52 0.88 2.54 0.78 2.57 0.63 2.59 0.54 2.61 0.44 2.63 0.34 2.64 0.24 2.65 0.1 2.66 0 2.67 -0.1 2.67 -0.19 2.67 -0.34 2.66 -0.39 2.66 -0.53 2.65 -0.63 2.64 -0.68 2.62 -0.83 2.6 -0.92 2.59 -1.07 2.56 -1.12 2.54 -1.22 2.51 -1.31 2.48 -1.41 2.44 -1.51 2.4 -1.61 2.36 -1.7 2.32 -1.8 2.27 -1.9 2.23 -1.99 2.17 -2.09 2.12 -2.14 2.06 -2.29 2 -2.33 1.94 -2.48 1.89 -2.48 1.82 -2.48 1.74 -2.53 1.66 -2.53 1.58 -2.58 1.5 -2.58 1.43 -2.58 1.35 -2.58 1.28 -2.63 1.22 -2.63 1.15 -2.63 1.09 -2.67 1.02 -2.68 0.96 -2.72 0.9 -2.72 0.85 -2.77 0.79 -2.77 0.74 -2.77 0.69 -2.82 0.64 -2.87 0.59 -2.87 0.55 -2.92 0.51 -2.92 0.47 -2.92 0.43 -3.02 0.39 -2.97 0.36 -3.06 0.33 -3.06 0.29 -3.06 0.27 -3.16 0.24 -3.16 0.22 -3.16 0.2 -3.26 0.18 -6.52 0.3 -6.71 0.24 -6.81 0.21 -17.76 0.46 -11.14 0.32 -3.6 0.29 -0.15 2.71 -0.1 2.67 0 2.62 0.05 2.58 0.1 2.53 0.19 2.49 0.24 2.44 0.29 2.39 0.39 2.34 0.44 2.29 0.49 2.24 0.58 2.19 0.63 2.15 0.73 2.09 0.73 2.04 0.83 1.99 0.92 1.94 0.92 1.89 1.02 1.83 1.07 1.78 1.12 1.73 1.22 1.67 1.26 1.62 1.31 1.57 1.36 1.51 1.41 1.45 1.51 1.4 1.56 1.34 1.61 1.28 1.65 1.23 1.7 1.17 1.75 1.11 1.85 1.05 1.85 0.99 1.95 0.93 1.99 0.87 2.04 0.81 2.09 0.75 2.14 0.68 2.19 0.63 2.29 0.56 2.29 0.5 2.33 0.44 2.43 0.37 2.43 0.31 2.48 0.24 2.58 0.18 2.58 0.11 2.87 0.05 2.97 -0.01 2.92 -0.07 2.92 -0.14 2.82 -0.19 2.77 -0.25 2.72 -0.3 2.68 -0.35 2.63 -0.4 2.63 -0.44 2.53 -0.49 2.48 -0.53 2.48 -0.56 2.43 -0.6 2.38 -0.63 2.38 -0.66 2.29 -0.69 2.29 -0.71 2.24 -0.74 2.24 -0.75 2.19 -0.77 2.14 -0.79 2.14 -0.8 4.18 -1.63 4.13 -1.65 11.77 -4.88 3.84 -1.54 3.75 -1.46 1.9 -0.69 1.85 -0.67 1.85 -0.64 1.85 -0.61 1.85 -0.57 1.85 -0.53 1.85 -0.5 1.85 -0.45 1.85 -0.4 1.85 -0.36 1.9 -0.31 1.65 0.09 -0.19 3.59 -0.34 3.5 -0.53 3.41 -0.63 3.32 -0.83 3.24 -0.92 3.15 -1.07 3.07 -1.22 2.98 -1.31 2.9 -1.46 2.82 -1.61 2.74 -1.7 2.66 -1.8 2.57 -1.95 2.5 -1.99 2.42 -2.14 2.34 -2.24 2.26 -2.34 2.19 -2.43 2.11 -2.53 2.03 -2.58 1.96 -2.68 1.89 -2.77 1.81 -2.82 1.74 -2.92 1.67 -2.97 1.6 -3.02 1.53 -3.11 1.46 -3.16 1.39 -3.21 1.32 -3.26 1.25 -3.26 1.18 -3.36 1.12 -3.41 1.06 -3.41 0.99 -3.45 0.92 -3.45 0.87 -3.5 0.8 -3.55 0.74 -3.5 0.68 -3.55 0.61 -3.6 0.56 -3.55 0.5 -3.55 0.44 -3.6 0.38 -3.55 0.33 -3.55 0.26 -3.55 0.21 -5.06 0.2 -5.84 0.1 -5.69 -0.06 -5.45 -0.22 -5.25 -0.36 -5.11 -0.51 -4.86 -0.64 -4.72 -0.77 -4.57 -0.9 -4.38 -1.02 -4.18 -1.13 -4.04 -1.24 -3.89 -1.34 -3.75 -1.44 -3.6 -1.52 -3.41 -1.61 -3.31 -1.69 -3.16 -1.76 -3.02 -1.82 -2.92 -1.89 -2.77 -1.94 -2.63 -1.98 -2.53 -2.03 -2.43 -2.07 -2.33 -2.1 -2.24 -2.13 -2.09 -2.15 -2.04 -2.16 -1.9 -2.17 -1.85 -2.17 -1.8 -2.17 -1.65 -2.16 -1.61 -2.15 -1.56 -2.12 -1.51 -2.1 -1.41 -2.07 -1.36 -2.02 -1.31 -1.99 -3.65 -5.62 -2.24 -3.43 -1.07 -1.6 -1.07 -1.51 -1.07 -1.42 -1.02 -1.32 -1.02 -1.22 -0.92 -0.96 -0.73 0.52 -0.83 0.81 -12.7 21.76 -1.8 3.22 -1.51 2.53 -1.61 2.47 -1.7 2.4 -1.75 2.33 -1.85 2.26 -1.95 2.2 -1.99 2.12 -2.09 2.06 -2.14 1.99 -2.19 1.92 -2.29 1.85 -2.33 1.78 -2.38 1.71 -2.43 1.63 -2.48 1.57 -2.53 1.49 -2.58 1.43 -2.63 1.36 -2.68 1.28 -2.72 1.21 -2.72 1.14 -2.82 1.07 -2.77 1 -2.87 0.92 -2.82 0.85 -2.92 0.78 -2.92 0.71 -2.92 0.63 -2.92 0.56 -2.97 0.48 -2.97 0.41 -2.92 0.34 -3.02 0.26 -2.97 0.18 -2.97 0.11 -2.97 0.04 -2.97 -0.04 -2.92 -0.11 -2.97 -0.19 -2.92 -0.27 -2.92 -0.34 -2.87 -0.42 -2.87 -0.5 -2.87 -0.57 -2.82 -0.65 -2.77 -0.72 -2.77 -0.8 -1.75 -0.56 -1.22 -0.43 -1.22 -0.44 -1.17 -0.46 -1.12 -0.47 -1.07 -0.48 -1.07 -0.5 -0.97 -0.52 -1.02 -0.53 -0.92 -0.54 -0.92 -0.56 -0.88 -0.57 -0.83 -0.58 -0.83 -0.6 -0.83 -0.61 -0.78 -0.62 -0.73 -0.64 -0.73 -0.65 -0.73 -0.66 -0.68 -0.68 -0.68 -0.69 -0.63 -0.7 -0.63 -0.72 -0.63 -0.73 -0.58 -0.74 -0.59 -0.75 -0.58 -0.76 -0.57 -0.78 -1.11 -1.6 -1.08 -1.64 -1.07 -1.69 -1.59 -2.63 -4.4 -7.52 -1.81 -3.01 -0.64 -0.79 -1.06 0.46 -1.63 0.99 -1.83 1.31 -1.59 1.24 -2.24 1.81 -6.58 5.46 -3.04 2.46 -1.61 1.27 -1.67 1.29 -1.73 1.3 -1.79 1.31 -1.85 1.32 -1.91 1.32 -1.98 1.32 -2.04 1.31 -2.1 1.3 -2.16 1.28 -2.23 1.26 -2.3 1.24 -2.36 1.21 -2.42 1.17 -2.49 1.13 -2.56 1.09 -2.63 1.04 -2.69 0.98 -2.76 0.92 -2.83 0.86 -2.89 0.79 -2.97 0.72 -3.04 0.64 -3.11 0.56 -3.19 0.48 -3.25 0.38 -3.33 0.29 -3.4 0.19 -3.47 0.08 -3.54 -0.03 -3.61 -0.14 -3.69 -0.26 -2.92 -0.29 -2.53 -0.33 -2.49 -0.39 -2.44 -0.45 -2.4 -0.52 -2.34 -0.58 -2.3 -0.65 -2.26 -0.71 -2.21 -0.76 -2.16 -0.83 -2.11 -0.89 -2.06 -0.95 -2.01 -1.01 -1.96 -1.07 -1.91 -1.12 -1.86 -1.18 -1.81 -1.24 -1.76 -1.29 -1.7 -1.35 -1.65 -1.41 -1.6 -1.46 -1.54 -1.51 -1.49 -1.57 -1.43 -1.63 -1.38 -1.67 -1.32 -1.72 -1.26 -1.78 -1.21 -1.83 -1.15 -1.88 -1.09 -1.93 -1.03 -1.98 -0.97 -2.03 -0.91 -2.08 -0.85 -2.12 -0.79 -2.17 -0.73 -2.22 -0.67 -2.26 -0.61 -2.31 -0.54 -2.35 -0.48 -2.4 -0.41 -2.44 -0.35 -2.49 -0.28 -2.52 -0.22 -2.57 -0.15 -2.61 -0.09 -2.66 -0.02 -2.69 0.05 -2.74 0.11 -2.48 0.09 -1.5 0.12 -1.62 0.16 -1.73 0.4 -3.78 0.51 -4.17 0.61 -4.53 0.7 -4.85 1.2 -7.79 1.35 -8.29 1.47 -8.66 1.56 -8.91 2.17 -12.02 2.74 -14.84 7.41 -39.34 0.92 -4.85 2.01 -9.93 0.72 -3.78 0.42 -2.39 0.35 -2.3 0.33 -2.69 0.13 -1.68 0.09 -1.59 0 -2.05 -0.1 -2.01 -0.23 -1.99 -0.36 -1.97 -0.51 -1.97 -0.66 -1.97 -0.82 -1.98 -0.75 -1.51 -0.54 -1.02 -0.59 -1.03 -0.64 -1.04 -0.69 -1.05 -0.73 -1.07 -0.79 -1.08 -0.84 -1.1 -0.89 -1.12 -0.95 -1.14 -1.01 -1.16 -1.28 -1.43 -1.59 -1.69 -1.6 -1.63 -1.62 -1.58 -1.64 -1.53 -1.65 -1.46 -1.67 -1.41 -1.68 -1.34 -1.7 -1.28 -1.71 -1.21 -1.29 -0.86 -1.29 -0.82 -1.3 -0.78 -1.79 -1.01 -1.53 -0.72 -1.51 -0.65 -2.02 -0.79 -3.98 -1.44 -1.9 -0.72 -1.36 -0.56 -1.29 -0.61 -0.82 -0.44 -0.78 -0.46 -0.74 -0.5 -0.69 -0.54 -0.33 -0.28 -0.31 -0.3 -0.3 -0.31 -0.29 -0.32 -0.27 -0.33 -0.26 -0.34 -0.24 -0.36 -0.23 -0.37 -0.21 -0.38 -0.19 -0.4 -0.12 -0.3zm451.62 117.91l1.46 0.28 1.46 0.26 1.46 0.24 1.51 0.22 1.51 0.2 1.51 0.19 1.56 0.17 3.11 0.28 3.21 0.2 3.21 0.14 3.21 0.06 3.26 -0.01 3.26 -0.09 3.26 -0.17 3.26 -0.24 1.61 -0.15 1.61 -0.17 1.61 -0.19 1.61 -0.2 1.56 -0.23 1.56 -0.24 1.56 -0.26 1.56 -0.29 1.51 -0.3 1.51 -0.32 1.46 -0.34 1.51 -0.36 1.41 -0.38 1.46 -0.4 1.36 -0.42 1.36 -0.44 1.36 -0.46 1.31 -0.48 1.31 -0.5 1.26 -0.52 1.22 -0.54 1.22 -0.56 1.17 -0.58 1.12 -0.6 1.07 -0.62 1.07 -0.64 1.02 -0.67 0.97 -0.68 0.92 -0.71 0.92 -0.72 0.83 -0.74 0.83 -0.78 0.88 -0.83 0.78 -0.88 0.83 -0.91 0.83 -0.95 0.78 -1 0.83 -1.03 0.78 -1.07 0.73 -1.11 0.78 -1.14 0.73 -1.17 0.73 -1.2 0.68 -1.23 0.68 -1.26 0.68 -1.28 0.63 -1.31 0.63 -1.33 0.58 -1.35 0.58 -1.37 0.53 -1.39 0.49 -1.41 0.49 -1.42 0.49 -1.43 0.44 -1.45 0.39 -1.45 0.34 -1.46 0.34 -1.47 0.29 -1.47 0.24 -1.48 0.19 -1.47 0.2 -1.48 0.15 -1.48 0.1 -1.47 0.05 -1.47 0 -1.46 -0.05 -1.46 -0.1 -1.45 -0.15 -1.44 -0.2 -1.42 -0.19 -1.41 -0.29 -1.4 -0.34 -1.38 -0.39 -1.36 -0.44 -1.34 -0.54 -1.32 -0.54 -1.29 -0.63 -1.27 -0.68 -1.25 -0.73 -1.22 -0.83 -1.19 -0.88 -1.15 -0.92 -1.12 -1.26 -1.39 -1.95 -1.84 -1.95 -1.62 -1.99 -1.4 -2.04 -1.2 -2.04 -0.99 -2.09 -0.79 -2.14 -0.6 -2.14 -0.4 -2.14 -0.23 -2.19 -0.04 -2.19 0.13 -2.19 0.29 -2.19 0.45 -2.24 0.61 -2.19 0.76 -2.19 0.9 -2.24 1.05 -2.19 1.18 -2.19 1.31 -2.14 1.43 -2.14 1.55 -2.14 1.66 -2.14 1.77 -2.04 1.87 -2.09 1.97 -1.99 2.06 -1.99 2.15 -1.95 2.23 -1.9 2.3 -1.9 2.37 -1.8 2.43 -1.75 2.5 -1.7 2.55 -1.7 2.6 -1.56 2.64 -1.56 2.68 -1.46 2.71 -1.41 2.73 -1.36 2.75 -1.26 2.77 -1.17 2.78 -1.12 2.78 -1.02 2.79 -0.92 2.78 -0.83 2.77 -0.78 2.75 -0.68 2.73 -0.54 2.7 -0.49 2.67 -0.34 2.63 -0.24 2.59 -0.15 2.54 -0.05 2.48z"></path> <polygon class="fil0" points="1096.14,1158.75 1096.14,1155.94 1096.19,1153.08 1096.33,1150.19 1096.48,1147.27 1096.72,1144.33 1096.97,1141.38 1097.5,1135.46 1098.38,1126.64 1098.91,1120.87 1099.16,1118.04 1099.35,1115.25 1099.54,1112.52 1099.69,1109.84 1100.52,1110.05 1101.34,1110.27 1102.12,1110.51 1102.85,1110.76 1103.53,1111.02 1104.21,1111.29 1104.85,1111.57 1105.43,1111.86 1106.01,1112.16 1107.13,1112.76 1108.16,1113.39 1109.13,1114.03 1111.03,1115.32 1112.44,1116.26 1113.41,1116.87 1114.43,1117.44 1115.55,1117.99 1116.42,1118.38 1117.69,1118.85 1119.1,1119.25 1120.66,1119.61 1122.36,1119.89 1124.21,1120.1 1126.3,1120.23 1128,1120.25 1129.22,1120.25 1130.48,1120.22 1131.8,1120.16 1133.21,1120.08 1134.67,1119.97 1136.37,1119.82 1138.61,1119.55 1140.75,1119.21 1142.84,1118.79 1144.88,1118.3 1146.83,1117.74 1148.73,1117.1 1150.53,1116.4 1152.33,1115.63 1154.03,1114.79 1155.68,1113.89 1157.29,1112.92 1158.8,1111.88 1160.3,1110.78 1161.76,1109.62 1163.13,1108.4 1164.49,1107.12 1165.8,1105.78 1167.07,1104.38 1168.28,1102.92 1169.45,1101.4 1170.62,1099.84 1171.69,1098.22 1172.76,1096.54 1173.83,1094.81 1174.8,1093.04 1175.77,1091.21 1176.75,1089.33 1177.62,1087.4 1178.55,1085.43 1179.42,1083.41 1180.25,1081.35 1181.08,1079.24 1181.9,1077.1 1182.68,1074.9 1183.46,1072.68 1184.24,1070.4 1184.97,1068.1 1185.7,1065.75 1187.16,1060.95 1188.62,1056.01 1190.03,1050.94 1195.77,1030.14 1197.81,1022.54 1199.12,1017.53 1200.34,1012.56 1200.92,1010.1 1201.46,1007.65 1201.99,1005.23 1202.48,1002.81 1202.92,1000.41 1203.36,998.03 1203.74,995.66 1204.09,993.31 1204.38,990.98 1204.62,988.67 1204.81,986.37 1204.96,984.1 1205.01,981.84 1205.06,979.61 1205.06,977.4 1204.96,975.21 1204.81,973.04 1204.57,970.89 1204.28,968.77 1203.94,966.68 1203.5,964.6 1203.01,962.56 1202.38,960.54 1201.75,958.54 1200.97,956.57 1200.14,954.63 1199.22,952.71 1198.2,950.83 1197.08,948.97 1195.86,947.15 1194.55,945.35 1193.14,943.58 1191.58,941.85 1189.98,940.14 1188.23,938.47 1186.38,936.83 1184.43,935.23 1182.34,933.66 1161.86,919.29 1158.94,916.88 1157.87,915.96 1157.24,914.81 1155.83,912.82 1321.37,912.85 1321.76,914.13 1322.34,916.31 1322.98,918.69 1323.61,921.26 1324.19,924.02 1324.82,926.94 1325.46,930.03 1326.09,933.27 1326.72,936.64 1327.35,940.16 1327.94,943.79 1329.2,951.37 1330.47,959.31 1331.73,967.54 1332.95,975.96 1334.75,988.79 1336.5,1001.62 1340.78,1033.72 1342.63,1047.4 1343.89,1056.09 1344.62,1060.99 1345.3,1065.08 1345.6,1066.79 1345.89,1068.27 1346.18,1069.5 1346.42,1070.49 1346.67,1071.2 1347.35,1070.93 1348.47,1070 1349.58,1068.78 1350.7,1067.27 1351.87,1065.48 1352.8,1063.93 1353.38,1062.85 1353.96,1061.72 1354.55,1060.53 1355.18,1059.3 1356.4,1056.7 1357.61,1053.95 1358.83,1051.07 1360.04,1048.08 1361.84,1043.47 1363.64,1038.77 1369.82,1022.19 1371.33,1018.23 1372.74,1014.68 1373.62,1012.58 1377.65,1003.54 1380.57,996.92 1392.93,968.51 1395.07,963.7 1397.11,959.17 1399.06,954.91 1400.91,950.91 1402.76,947.15 1404.51,943.65 1406.26,940.37 1407.96,937.32 1409.66,934.49 1411.37,931.88 1413.07,929.46 1414.82,927.25 1416.57,925.22 1418.37,923.37 1420.27,921.69 1422.16,920.19 1424.21,918.83 1426.3,917.62 1428.49,916.56 1430.77,915.63 1433.21,914.82 1435.79,914.13 1438.51,913.56 1441.38,913.08 1444.4,912.7 1447.66,912.4 1451.06,912.18 1454.66,912.03 1458.5,911.95 1462.54,911.92 1466.82,911.93 1471.39,911.99 1476.16,912.08 1492.26,912.44 1504.47,912.7 1511.04,912.81 1518,912.89 1525.29,912.95 1529.38,914.16 1529.23,917.02 1528.94,920.15 1528.6,923.54 1528.16,927.19 1527.63,931.06 1527,935.16 1526.27,939.47 1525.54,943.98 1524.66,948.68 1523.79,953.54 1522.81,958.57 1521.79,963.74 1519.65,974.48 1517.36,985.65 1512.5,1008.89 1508.8,1026.7 1506.37,1038.57 1504.04,1050.32 1502.92,1056.11 1501.85,1061.84 1500.82,1067.48 1499.85,1073.03 1498.93,1078.47 1498.05,1083.79 1497.27,1088.97 1496.54,1094.02 1495.86,1098.9 1495.28,1103.62 1494.79,1108.15 1494.4,1112.48 1494.11,1116.6 1493.92,1120.5 1493.82,1124.17 1493.82,1127.59 1493.97,1130.75 1494.26,1133.64 1494.65,1136.24 1495.18,1138.54 1495.86,1140.53 1496.89,1142.14 1498.1,1143.55 1499.32,1144.8 1500.58,1145.92 1501.85,1146.89 1503.16,1147.74 1504.47,1148.46 1505.79,1149.05 1507.15,1149.53 1508.51,1149.9 1509.92,1150.16 1511.28,1150.31 1512.69,1150.37 1514.11,1150.33 1515.56,1150.21 1516.98,1150 1518.43,1149.71 1519.89,1149.34 1521.3,1148.91 1522.76,1148.42 1524.22,1147.86 1525.68,1147.24 1527.14,1146.58 1528.6,1145.88 1530.01,1145.13 1531.47,1144.34 1532.93,1143.53 1534.34,1142.68 1535.75,1141.82 1537.16,1140.94 1539.94,1139.16 1547.82,1133.9 1550.3,1132.31 1551.51,1131.57 1552.68,1130.86 1553.8,1130.21 1554.92,1129.61 1555.99,1129.06 1557.06,1128.57 1558.08,1128.15 1559.05,1127.8 1560.03,1127.52 1559.54,1132.6 1558.81,1137.45 1557.89,1142.09 1556.77,1146.5 1555.41,1150.7 1553.8,1154.68 1552.05,1158.46 1550.15,1162.03 1548.01,1165.41 1545.72,1168.59 1543.29,1171.58 1540.71,1174.38 1537.99,1177 1535.17,1179.44 1532.2,1181.7 1529.14,1183.79 1525.93,1185.72 1522.67,1187.48 1519.31,1189.08 1515.9,1190.53 1512.4,1191.83 1508.85,1192.97 1505.25,1193.98 1501.6,1194.84 1497.95,1195.58 1494.26,1196.18 1490.56,1196.65 1486.86,1196.99 1483.17,1197.22 1479.52,1197.34 1475.87,1197.34 1472.22,1197.24 1468.67,1197.03 1465.12,1196.72 1461.66,1196.32 1458.26,1195.83 1454.95,1195.24 1451.74,1194.58 1448.63,1193.84 1445.61,1193.01 1442.69,1192.12 1439.92,1191.16 1437.25,1190.15 1434.76,1189.06 1432.43,1187.93 1430.19,1186.74 1428.2,1185.51 1426.35,1184.23 1424.4,1182.69 1421.97,1180.44 1419.73,1178.06 1417.69,1175.54 1415.84,1172.91 1414.19,1170.15 1412.73,1167.27 1411.41,1164.29 1410.3,1161.2 1409.27,1158 1408.45,1154.72 1407.81,1151.34 1407.23,1147.88 1406.84,1144.33 1406.6,1140.7 1406.4,1137.01 1406.4,1133.25 1406.45,1129.42 1406.6,1125.54 1406.89,1121.61 1407.23,1117.63 1407.67,1113.61 1408.2,1109.55 1408.79,1105.45 1409.42,1101.33 1410.1,1097.19 1410.83,1093.03 1411.66,1088.85 1412.48,1084.67 1413.31,1080.48 1415.11,1072.11 1418.71,1055.55 1420.46,1047.43 1421.29,1043.43 1422.12,1039.48 1422.85,1035.57 1423.58,1031.72 1424.21,1027.93 1424.79,1024.2 1425.33,1020.54 1425.76,1016.96 1426.15,1013.45 1426.4,1010.03 1426.59,1006.71 1426.35,1005.43 1425.52,1006.21 1424.21,1007.9 1423.04,1009.64 1422.26,1010.92 1421.39,1012.34 1420.51,1013.87 1419.59,1015.53 1418.66,1017.3 1417.69,1019.18 1416.67,1021.16 1415.6,1023.22 1413.46,1027.6 1411.22,1032.26 1408.93,1037.16 1406.6,1042.23 1403.1,1050.04 1398.43,1060.58 1386.02,1088.85 1383.64,1094.17 1381.69,1098.43 1380.67,1100.59 1331.97,1191.43 1331.63,1191.52 1328.23,1191.5 1324.97,1191.39 1321.86,1191.19 1318.89,1190.9 1316.07,1190.53 1313.39,1190.08 1310.86,1189.54 1308.48,1188.91 1306.19,1188.21 1304.05,1187.43 1302.01,1186.57 1300.06,1185.64 1298.26,1184.63 1296.56,1183.54 1294.96,1182.38 1293.45,1181.15 1292.04,1179.85 1290.72,1178.47 1289.46,1177.03 1288.34,1175.52 1287.27,1173.95 1286.25,1172.31 1285.32,1170.6 1284.45,1168.84 1283.67,1167.01 1282.94,1165.12 1282.26,1163.17 1281.63,1161.17 1281.04,1159.1 1280.51,1156.99 1279.97,1154.81 1279.53,1152.59 1279.1,1150.31 1278.66,1147.98 1278.27,1145.61 1277.93,1143.18 1277.2,1138.19 1275.16,1122.17 1274.38,1116.52 1273.94,1113.64 1273.5,1110.73 1272.72,1105.9 1271.65,1099.11 1270.19,1089.54 1264.94,1053.16 1263.34,1042.5 1262.07,1034.59 1260.81,1026.8 1259.44,1019.19 1258.57,1014.26 1257.64,1009.45 1256.67,1004.77 1255.7,1000.26 1254.68,995.93 1253.66,991.78 1253.17,989.79 1252.83,989.24 1251.71,990.46 1250.59,991.58 1250.25,992.76 1249.86,994.03 1249.13,995.83 1248.74,996.95 1248.35,998.21 1248.01,999.61 1247.57,1001.61 1240.96,1037.03 1237.07,1053.91 1234.63,1064.24 1232.88,1071.44 1231.03,1078.84 1230.06,1082.61 1229.04,1086.4 1228.02,1090.22 1226.95,1094.05 1225.83,1097.9 1224.66,1101.75 1223.49,1105.61 1222.28,1109.46 1220.97,1113.3 1219.7,1117.11 1218.34,1120.91 1216.93,1124.67 1215.47,1128.4 1213.96,1132.08 1212.45,1135.71 1210.85,1139.29 1209.19,1142.8 1207.49,1146.25 1205.74,1149.62 1203.94,1152.91 1202.09,1156.11 1200.19,1159.22 1198.2,1162.23 1196.16,1165.14 1194.06,1167.93 1191.92,1170.6 1189.69,1173.15 1187.45,1175.57 1185.06,1177.86 1182.68,1179.99 1180.2,1181.98 1177.62,1183.82 1174.99,1185.49 1172.32,1187 1169.55,1188.33 1166.73,1189.48 1162.01,1191.1 1156.8,1192.72 1151.89,1194.1 1147.22,1195.24 1142.79,1196.17 1138.66,1196.86 1134.76,1197.35 1131.07,1197.63 1127.66,1197.7 1124.4,1197.58 1121.44,1197.28 1118.61,1196.79 1116.04,1196.12 1113.65,1195.29 1111.41,1194.29 1109.42,1193.14 1107.57,1191.84 1105.87,1190.4 1104.36,1188.81 1103,1187.1 1101.78,1185.27 1100.66,1183.31 1099.74,1181.25 1098.91,1179.08 1098.23,1176.82 1097.65,1174.46 1097.16,1172.02 1096.77,1169.5 1096.48,1166.9 1096.29,1164.24 1096.19,1161.52 "></polygon> <path class="fil0" d="M1567.47 1065.38l0.78 -8.02 1.17 -8.03 1.61 -8.02 2.04 -7.99 2.53 -7.94 2.97 -7.87 3.41 -7.78 3.89 -7.67 4.38 -7.54 4.86 -7.38 5.35 -7.21 5.84 -7.01 6.32 -6.79 6.86 -6.55 7.39 -6.29 7.88 -6.01 8.42 -5.71 9 -5.39 9.49 -5.04 9.29 -4.34 1.8 -0.77 1.8 -0.74 1.75 -0.72 1.75 -0.69 1.7 -0.66 1.7 -0.63 1.7 -0.6 1.7 -0.57 1.7 -0.55 1.65 -0.52 1.65 -0.5 1.65 -0.47 1.65 -0.45 1.65 -0.43 1.65 -0.4 1.65 -0.38 1.61 -0.36 1.65 -0.34 1.65 -0.32 1.65 -0.3 3.31 -0.54 3.36 -0.48 3.41 -0.4 3.41 -0.35 3.5 -0.29 3.6 -0.24 3.65 -0.19 3.7 -0.16 5.79 -0.16 6.03 -0.09 6.37 -0.05 10.95 -0.01 5.74 -0.03 8.03 -0.11 18.97 -0.37 13.09 -0.23 8.76 -0.1 6.57 -0.03 6.47 0.03 6.32 0.09 6.23 0.17 4.04 0.16 3.99 0.2 3.89 0.24 3.75 0.29 3.65 0.35 1.46 0.16 -25.88 168.76 -0.39 2.08 -1.56 7.93 -0.92 4.72 -0.58 3.35 -0.49 3.47 -0.24 1.77 -0.24 1.79 -0.19 1.8 -0.15 1.81 -0.15 1.82 -0.1 1.82 -0.05 1.82 0 1.81 0 1.81 0.1 1.79 0.1 1.77 0.19 1.75 0.24 1.72 0.29 1.69 0.34 1.65 0.44 1.62 0.49 1.57 0.58 1.52 0.63 1.47 0.73 1.42 0.83 1.35 0.88 1.29 0.97 1.22 1.07 1.15 1.22 1.07 1.26 0.99 1.36 0.9 1.46 0.82 1.61 0.72 1.7 0.63 1.8 0.53 1.95 0.42 2.04 0.31 2.14 0.2 1.99 0.09 1.99 0.03 1.95 -0.04 1.95 -0.11 1.9 -0.17 1.9 -0.23 1.9 -0.29 1.9 -0.34 1.85 -0.39 1.8 -0.44 1.8 -0.49 1.75 -0.53 1.8 -0.57 1.7 -0.61 1.7 -0.64 1.65 -0.67 1.65 -0.71 1.61 -0.72 1.61 -0.75 1.56 -0.77 1.51 -0.78 1.51 -0.8 1.46 -0.82 1.41 -0.82 1.41 -0.83 1.31 -0.84 1.36 -0.83 1.26 -0.84 2.43 -1.65 2.29 -1.61 2.14 -1.54 1.95 -1.46 5.3 -4.11 1.12 -0.8 0.83 -0.59 0.39 -0.2 0.29 -0.15 0 1.09 -0.1 1.4 -0.1 1.43 -0.19 1.46 -0.29 1.5 -0.29 1.53 -0.34 1.57 -0.44 1.59 -0.44 1.61 -0.53 1.64 -0.58 1.66 -0.58 1.68 -0.68 1.69 -0.73 1.7 -0.78 1.72 -0.83 1.73 -0.88 1.74 -0.92 1.74 -0.97 1.75 -1.02 1.75 -1.07 1.75 -1.12 1.74 -1.17 1.74 -1.22 1.73 -1.26 1.72 -1.26 1.71 -1.36 1.69 -1.41 1.68 -1.41 1.66 -1.51 1.64 -1.51 1.62 -1.56 1.59 -1.61 1.57 -1.65 1.53 -1.7 1.51 -1.7 1.47 -1.8 1.43 -1.8 1.4 -1.85 1.36 -1.9 1.31 -1.95 1.27 -1.95 1.23 -1.99 1.18 -2.04 1.12 -2.09 1.07 -2.14 1.02 -2.14 0.96 -2.19 0.9 -2.24 0.84 -1.8 0.62 -1.02 0.33 -2.14 0.63 -2.19 0.57 -2.34 0.53 -2.33 0.47 -2.43 0.41 -2.53 0.36 -2.53 0.3 -2.53 0.24 -2.63 0.18 -2.63 0.12 -2.63 0.06 -2.63 -0.01 -2.63 -0.07 -2.58 -0.14 -2.58 -0.2 -2.58 -0.28 -2.53 -0.35 -1.22 -0.2 -1.22 -0.21 -1.22 -0.24 -1.22 -0.25 -1.17 -0.27 -1.17 -0.29 -1.17 -0.31 -1.12 -0.33 -1.07 -0.35 -1.12 -0.37 -1.02 -0.38 -1.07 -0.41 -0.97 -0.43 -1.02 -0.45 -1.07 -0.54 -1.12 -0.55 -1.02 -0.55 -0.97 -0.55 -0.97 -0.55 -0.92 -0.56 -0.83 -0.56 -0.88 -0.56 -0.78 -0.56 -0.78 -0.57 -0.73 -0.57 -0.68 -0.57 -0.68 -0.58 -0.63 -0.58 -0.58 -0.59 -0.58 -0.59 -0.53 -0.6 -0.54 -0.6 -0.54 -0.61 -0.49 -0.61 -0.44 -0.62 -0.44 -0.62 -0.44 -0.63 -0.39 -0.63 -0.78 -1.28 -0.68 -1.31 -0.68 -1.33 -0.63 -1.36 -0.88 -2.09 -1.8 -4.37 -1.26 -3.08 -1.02 -2.4 -0.97 -1.99 -0.97 -2.05 -0.68 -1.2 -1.26 -1.72 -1.36 0.88 -1.26 0.88 -1.26 0.88 -1.22 0.88 -1.17 0.87 -1.12 0.87 -2.19 1.73 -2.09 1.71 -2.04 1.7 -4.86 4.18 -2.87 2.45 -1.99 1.62 -2.04 1.59 -1.02 0.79 -1.07 0.78 -1.12 0.78 -1.12 0.77 -1.17 0.77 -1.17 0.76 -1.22 0.75 -1.31 0.75 -1.31 0.74 -1.31 0.74 -1.41 0.72 -1.46 0.72 -1.56 0.72 -1.56 0.71 -1.61 0.7 -1.7 0.7 -1.8 0.69 -1.8 0.68 -1.9 0.68 -1.99 0.67 -2.04 0.66 -2.14 0.65 -2.24 0.64 -2.29 0.63 -2.38 0.63 -5.89 1.39 -8.61 1.53 -8.37 0.9 -8.12 0.3 -7.93 -0.28 -7.64 -0.84 -7.39 -1.38 -7.15 -1.9 -6.91 -2.39 -6.57 -2.87 -6.32 -3.33 -6.03 -3.76 -5.74 -4.17 -5.45 -4.57 -5.16 -4.94 -4.82 -5.28 -4.48 -5.62 -4.18 -5.93 -3.84 -6.21 -3.45 -6.48 -3.16 -6.72 -2.77 -6.95 -2.38 -7.15 -2.04 -7.33 -1.7 -7.49 -1.26 -7.63 -0.88 -7.75 -0.49 -7.85 -0.1 -7.93 0.34 -7.98zm75.79 12.68l0.2 3.08 0.34 3.06 0.39 3.03 0.54 3 0.63 2.96 0.73 2.92 0.88 2.87 0.92 2.82 1.07 2.76 1.12 2.71 1.26 2.64 1.36 2.57 1.46 2.5 1.56 2.43 1.65 2.34 1.65 2.12 1.7 1.98 1.75 1.84 1.8 1.71 1.85 1.58 1.85 1.45 1.95 1.32 1.95 1.2 1.99 1.08 2.04 0.96 2.04 0.84 2.09 0.73 2.14 0.62 2.14 0.51 2.14 0.4 2.14 0.31 2.19 0.2 2.24 0.11 2.19 0.01 2.19 -0.08 2.24 -0.18 2.24 -0.26 2.19 -0.35 2.24 -0.43 2.19 -0.51 2.24 -0.58 2.19 -0.66 2.19 -0.73 2.14 -0.8 2.14 -0.87 2.14 -0.93 2.09 -0.99 2.09 -1.06 2.04 -1.11 2.04 -1.16 1.99 -1.22 1.95 -1.26 1.9 -1.31 1.9 -1.35 1.8 -1.4 1.8 -1.43 1.7 -1.47 1.7 -1.51 1.65 -1.53 1.56 -1.57 1.51 -1.59 1.46 -1.62 1.41 -1.63 1.31 -1.65 1.26 -1.67 1.17 -1.68 1.12 -1.69 0.68 -1.14 0.68 -1.27 0.73 -1.39 0.68 -1.51 0.68 -1.63 0.73 -1.73 0.68 -1.83 0.73 -1.94 0.68 -2.03 0.73 -2.13 0.68 -2.21 0.73 -2.29 0.68 -2.37 0.68 -2.44 0.68 -2.51 0.68 -2.57 0.68 -2.63 0.68 -2.68 1.31 -5.5 1.26 -5.66 1.22 -5.78 1.22 -5.86 1.12 -5.91 1.07 -5.92 0.97 -5.9 0.97 -5.83 0.83 -5.73 0.78 -5.59 0.63 -5.41 0.58 -5.2 0.24 -2.51 0.24 -2.44 0.19 -2.37 0.15 -2.29 0.15 -2.21 0.1 -2.13 0.1 -2.04 0.05 -1.94 0 -1.84 0 -1.74 -3.31 0.01 -3.5 0.08 -3.7 0.15 -3.89 0.21 -4.04 0.28 -4.13 0.34 -4.23 0.39 -4.28 0.44 -4.28 0.49 -4.33 0.54 -4.23 0.58 -4.18 0.61 -4.09 0.66 -3.94 0.68 -3.79 0.72 -3.6 0.73 -3.36 0.76 -1.07 0.26 -4.09 1.08 -3.94 1.21 -3.79 1.34 -3.7 1.45 -3.6 1.58 -3.45 1.68 -3.31 1.8 -3.21 1.9 -3.11 2 -2.97 2.1 -2.82 2.19 -2.77 2.28 -2.58 2.36 -2.48 2.44 -2.38 2.52 -2.24 2.58 -2.14 2.66 -2.04 2.71 -1.9 2.77 -1.8 2.83 -1.65 2.88 -1.56 2.92 -1.46 2.96 -1.31 3.01 -1.22 3.04 -1.12 3.06 -0.97 3.09 -0.88 3.11 -0.78 3.13 -0.68 3.14 -0.54 3.15 -0.44 3.15 -0.34 3.15 -0.2 3.15 -0.1 3.14 0 3.12 0.1 3.11z"></path> <polygon class="fil0" points="976.08,842.4 970.24,864.07 954.39,879.94 932.69,885.75 911.04,879.94 895.18,864.07 889.35,842.4 895.18,820.72 911.04,804.86 932.69,799.05 954.39,804.86 970.24,820.72 "></polygon> <polygon class="fil0" points="1096.48,842.49 1090.69,864.22 1074.78,880.12 1053.04,885.95 1031.34,880.12 1015.44,864.22 1009.6,842.49 1015.44,820.76 1031.34,804.86 1053.04,799.04 1074.78,804.86 1090.69,820.76 "></polygon> </g> </g> </svg> 