<?xml version="1.0" encoding="UTF-8"?> <svg xmlns="http://www.w3.org/2000/svg" xmlns:xlink="http://www.w3.org/1999/xlink" xmlns:xodm="http://www.corel.com/coreldraw/odm/2003" xml:space="preserve" width="300mm" height="106.771mm" version="1.1" style="shape-rendering:geometricPrecision; text-rendering:geometricPrecision; image-rendering:optimizeQuality; fill-rule:evenodd; clip-rule:evenodd" viewBox="0 0 1989.81 708.18"> <defs> <style type="text/css"> .fil0 {fill:#727271;fill-rule:nonzero} </style> </defs> <g id="Слой_x0020_1"> <metadata id="CorelCorpID_0Corel-Layer"></metadata> <g id="_2062955738832"> <path class="fil0" d="M232.79 333.38c-0.8,7.79 -5.12,11.72 -12.96,11.72l-73.4 0 -14.6 143.08c-0.8,7.84 -5.07,11.77 -12.87,11.77l-9.78 0c-7.8,0 -11.27,-3.92 -10.47,-11.77l14.6 -143.08 -73.07 0c-7.84,0 -11.37,-3.92 -10.57,-11.72l0.38 -3.68c0.79,-7.75 5.11,-11.62 12.95,-11.62l179.59 0c7.84,0 11.37,3.87 10.58,11.62l-0.38 3.68zm194.14 123.57c-2.92,28.66 -25.88,43 -68.93,43l-77.08 0c-7.46,0 -15.49,-1.02 -24.09,-3.1 -27.88,-6.73 -40.86,-19.51 -38.94,-38.3l1.87 -18.3c1.52,-14.86 10.4,-26.05 26.67,-33.6 12.4,-5.76 26.98,-8.67 43.74,-8.67l111.41 0c-0.61,-9.68 -12.51,-14.53 -35.66,-14.53l-23.77 0c-7.75,0 -11.22,-3.92 -10.43,-11.72l0.32 -3.15c0.81,-7.89 5.08,-11.86 12.83,-11.86l17.33 0c49.97,0 73.46,14.67 70.46,44.01l-5.74 56.21zm-31.54 1.6l3.45 -33.85 -112.14 0c-6,0 -12.6,1.07 -19.84,3.24 -9.94,3 -15.2,7.12 -15.73,12.25l-1.84 18.06c-0.61,5.96 4.58,10.12 15.61,12.59 3.84,0.82 9.75,1.74 17.79,2.66l78.34 0c21.89,0 33.34,-4.99 34.35,-14.96zm119.93 -110.06c-0.52,5.13 -3.12,9.2 -7.79,12.25 -4.06,2.76 -8.75,4.12 -14.07,4.12 -5.33,0 -9.89,-1.36 -13.67,-4.12 -4.34,-3.05 -6.25,-7.12 -5.72,-12.25 0.52,-5.08 3.26,-9.15 8.22,-12.2 4.24,-2.66 9.07,-3.97 14.5,-3.97 5.37,0 9.84,1.31 13.39,3.97 3.96,2.95 5.67,7.02 5.15,12.2zm-18.73 138c-2.33,22.81 -15.63,36.46 -39.93,41.11 -7.9,1.5 -18.34,2.28 -31.41,2.28l-15.3 0c-7.75,0 -11.22,-3.97 -10.41,-11.86l0.31 -3c0.81,-7.89 5.08,-11.86 12.83,-11.86l14.91 0c6.63,0 13.7,-0.97 21.17,-2.95 10.3,-2.76 15.73,-6.54 16.21,-11.33l11.13 -109.14c0.79,-7.7 5.1,-11.57 12.9,-11.57l8.09 0c7.7,0 11.18,3.87 10.39,11.62l-10.89 106.72zm155.36 -58.68c-0.8,7.8 -5.12,11.72 -12.96,11.72l-98.05 0c-7.84,0 -11.37,-3.92 -10.57,-11.72l0.82 -7.99c0.8,-7.79 5.11,-11.67 12.96,-11.67l98.05 0c7.84,0 11.37,3.87 10.58,11.67l-0.82 7.99z"></path> <path class="fil0" d="M977.57 488.17c-0.8,7.84 -5.07,11.77 -12.82,11.77l-9.88 0c-7.75,0 -11.22,-3.92 -10.42,-11.77l12 -117.61 -110.06 120.56c-5.84,6.44 -13.19,9.68 -21.95,9.68 -8.91,0 -15.65,-3.2 -20.32,-9.64l-87.28 -121.19 -12.06 118.19c-0.8,7.84 -5.12,11.77 -12.97,11.77l-9.73 0c-7.75,0 -11.22,-3.92 -10.42,-11.77l15.58 -152.67c0.51,-4.99 2.97,-9.15 7.37,-12.44 4.1,-3.15 8.76,-4.7 13.99,-4.7 7.12,0 12.91,3 17.43,9.01l102.25 137.7 127.82 -138c5.22,-5.62 12.04,-8.42 20.47,-8.42 12.2,0 17.68,6.05 16.45,18.16l-15.44 151.36zm237.35 -32.68c-1.69,16.56 -11.36,28.76 -28.95,36.51 -11.97,5.28 -27.15,7.94 -45.5,7.94l-52.29 0c-33.75,0 -55.26,-8.38 -64.5,-25.13 -3.35,-6.05 -4.68,-12.49 -3.98,-19.32l5.38 -52.78c1.19,-11.67 7.64,-21.74 19.4,-30.26 14.39,-10.51 33.76,-15.74 58.16,-15.74l52.44 0c46.63,0 68.36,15.25 65.25,45.71l-5.41 53.07zm-31.96 0.05l5.62 -55.1c1.16,-11.33 -11.19,-16.99 -37.05,-16.99l-51.23 0c-9.3,0 -17.79,1.11 -25.48,3.39 -11.53,3.39 -17.65,8.76 -18.39,16.03l-5.37 52.68c-0.71,6.97 4.45,11.96 15.51,15.01 7.16,1.99 15.39,2.95 24.68,2.95l51.23 0c8.18,0 16,-1.11 23.49,-3.39 10.64,-3.19 16.32,-8.09 16.98,-14.57zm78.54 -71.22c-7.89,0 -11.41,-3.92 -10.61,-11.81l0.3 -2.95c0.8,-7.79 5.11,-11.67 13,-11.67l11.14 0 2.88 -28.18c0.79,-7.75 5.06,-11.62 12.76,-11.62l8.23 0c7.7,0 11.18,3.87 10.39,11.62l-2.88 28.18 49.92 0c7.84,0 11.37,3.87 10.58,11.67l-0.3 2.95c-0.81,7.89 -5.13,11.81 -12.97,11.81l-49.92 0 -10.6 103.86c-0.8,7.84 -5.07,11.77 -12.77,11.77l-8.23 0c-7.7,0 -11.17,-3.92 -10.37,-11.77l10.6 -103.86 -11.14 0zm321.41 71.18c-1.69,16.56 -11.36,28.76 -28.95,36.51 -11.97,5.28 -27.15,7.94 -45.5,7.94l-52.29 0c-33.75,0 -55.26,-8.38 -64.5,-25.13 -3.35,-6.05 -4.68,-12.49 -3.98,-19.32l5.38 -52.78c1.19,-11.67 7.64,-21.74 19.4,-30.26 14.39,-10.51 33.76,-15.74 58.16,-15.74l52.44 0c46.63,0 68.36,15.25 65.25,45.71l-5.41 53.07zm-31.96 0.05l5.62 -55.1c1.16,-11.33 -11.19,-16.99 -37.05,-16.99l-51.23 0c-9.3,0 -17.79,1.11 -25.48,3.39 -11.53,3.39 -17.65,8.76 -18.39,16.03l-5.37 52.68c-0.71,6.97 4.44,11.96 15.51,15.01 7.16,1.99 15.39,2.95 24.68,2.95l51.23 0c8.18,0 16,-1.11 23.49,-3.39 10.64,-3.19 16.32,-8.09 16.98,-14.57zm172.84 -83.81c-0.8,7.8 -5.12,11.72 -12.96,11.72l-14.48 0c-23.53,0 -35.9,5.96 -37.12,17.87l-8.86 86.86c-0.8,7.84 -5.07,11.77 -12.87,11.77l-8.62 0c-7.8,0 -11.26,-3.97 -10.45,-11.91l9.3 -86.86c1.74,-16.12 10.84,-27.99 27.31,-35.64 12.61,-5.86 27.92,-8.81 45.88,-8.81l12.64 0c7.84,0 11.36,3.97 10.56,11.86l-0.32 3.15zm205.1 87.4c-2.78,27.21 -24.98,40.82 -66.58,40.82l-106.52 0c-7.75,0 -11.22,-3.92 -10.42,-11.82l0.29 -2.81c0.81,-7.89 5.08,-11.81 12.83,-11.81l106.86 0c19.71,0 30.03,-4.79 31.01,-14.43l0.55 -5.37c0.88,-8.67 -7.68,-13.03 -25.64,-13.03l-51.23 0c-19.85,0 -34.86,-1.94 -44.97,-5.81 -16.03,-6.15 -23.22,-17.33 -21.56,-33.55l0.79 -7.8c2.51,-24.55 26.41,-36.8 71.69,-36.8l23.29 0c7.84,0 11.36,3.97 10.56,11.86l-0.32 3.15c-0.79,7.8 -5.12,11.72 -13.01,11.72l-22.71 0c-11.96,0 -19.04,0.15 -21.35,0.44 -10.64,1.31 -16.25,4.55 -16.78,9.78l-0.76 7.5c-0.52,5.13 2.61,8.62 9.43,10.51 5.42,1.5 14.97,2.28 28.58,2.28l52.24 0c38.88,0 57.03,12.88 54.4,38.69l-0.66 6.49z"></path> <path class="fil0" d="M1120.87 222.43l-1.63 0c14.11,-11.1 46.32,-11.74 87.04,-14.93 9.17,-3.08 16.47,-12.08 20.17,-17.35 3.5,-5 7.14,-10.2 15.35,-14.39 8.05,-4.11 16.98,-6.46 24.61,-8.46 9.31,-2.45 23.27,-11.07 23.53,-14.48l0.12 -1.62c4.56,18.51 -6.98,26.56 -30.36,32.7 -7.48,1.96 -8.71,3.73 -16.42,7.67 -7.49,3.83 -10.89,8.69 -14.16,13.36 -4.03,5.75 -7.88,11.25 -18.17,14.66l-0.13 0.04 -0.12 0.02c-19.17,3.09 -52.37,2.93 -77.35,2.82 -3.74,-0.02 -7.31,-0.03 -12.45,-0.03z"></path> <path class="fil0" d="M1947.45 252.09l-0.98 1.29 -2.58 -1.96 0.98 -1.29c7,-9.23 10.87,-17.72 15.18,-27.2 0.81,-1.79 1.64,-3.62 2.55,-5.57l0.01 -0.03c3.3,-6.76 3.92,-11.89 4.52,-16.99 0.43,-3.61 0.86,-7.22 2.19,-11.42 -0.78,-7.53 -20.64,-7.99 -28.65,-9.25l-0.1 -0.02c-4.39,0.01 -9.34,1.07 -14.2,2.6 -4.96,1.56 -9.84,3.6 -13.97,5.52l-0 -0 -0.33 0.17 0 0.01c-6.83,3.41 -12.76,9.03 -18.99,8.91 -0.62,-0.01 -18.74,-7.93 -20.74,-9.09 -45.5,-26.26 -127.37,-53.18 -217.56,-77.45 -136.5,-36.72 -291.97,-67.33 -369.55,-80.45 -41.17,-6.93 -97.93,-11.78 -152.74,-11.17 -44.61,0.5 -87.92,4.61 -120.4,14.17 -36.57,10.75 -110.01,42.72 -179.36,77.01 -62.69,31 -121.99,63.87 -147.59,84.63l-1.26 1.02 -2.05 -2.52 1.26 -1.02c25.82,-20.94 84.94,-69.34 147.8,-100.43 69.49,-34.36 143.14,-66.41 179.88,-77.22 32.78,-9.64 76.39,-13.8 121.29,-14.29 55.01,-0.61 111.98,4.26 153.3,11.21 77.66,13.14 233.27,43.77 369.86,80.52 28.78,7.74 205.66,67.99 223.19,79.67l3.25 0.77c11.18,3.4 18.72,6.35 28.96,1.24l0 0.01 0.38 -0.19 0.04 -0.02c4.24,-1.97 9.25,-4.07 14.36,-5.67 5.18,-1.62 10.49,-2.75 15.25,-2.75l0.08 0 0.17 0.03 0.27 0.04c8.85,1.4 30.97,13.77 31.42,24.15l0.01 0.3 -0.09 0.28c-1.3,4.01 -1.72,7.56 -2.15,11.1 -0.64,5.38 -1.28,10.78 -4.83,18.04l-0 -0c-0.85,1.83 -1.7,3.69 -2.52,5.51 -4.38,9.64 -8.31,18.28 -15.56,27.82z"></path> <path class="fil0" d="M1823.8 204.05l1.6 0.25 -0.51 3.2 -1.6 -0.25c-72.19,-31.03 -172.25,-35.42 -272.45,-34.77 -78.58,0.51 -156.88,9.78 -208.99,27.81l-1.53 0.53c-13.1,2.84 -13.12,-11.91 -1.05,-17.59l1.53 -0.53c52.45,-18.14 131.14,-27.47 210.03,-27.99 79.38,-0.52 159.05,7.88 212.48,25.18l60.5 24.16z"></path> <path class="fil0" d="M6.37 311.74l-1.38 0.86c-16.04,11.39 10.78,-31.28 21.7,-39.8 111.86,-87.27 448.82,-87.19 590.73,-87.15l8.96 0 0.15 0 0.12 0.02c5.25,0.88 16.5,5.9 30.93,12.34 28.45,16.62 58.38,32.32 92.58,45.35l-1.59 -0.3c-28.77,-5.43 -63.34,-20.85 -88.31,-31.98 -14.12,-6.29 -25.13,-11.21 -30.04,-12.08l-8.8 -0c-141.53,-0.04 -477.75,-0.12 -588.73,86.46 -3.45,2.69 -8.1,7.82 -12.66,12.85 -5.17,5.7 -10.24,11.29 -13.66,13.43z"></path> <path class="fil0" d="M404.8 605.21l-23 0 1.63 -8.63 56.65 0 -1.63 8.63 -22.98 0 -13.41 75.46 -10.67 0 13.41 -75.46zm44.32 69.98c3.27,0 6.12,-0.95 8.57,-2.86 2.45,-1.91 4.47,-4.41 6.07,-7.52 1.59,-3.11 2.78,-6.65 3.56,-10.61 0.78,-3.97 1.17,-7.97 1.17,-12.01 0,-5.13 -0.97,-8.98 -2.92,-11.55 -1.94,-2.57 -4.78,-3.85 -8.51,-3.85 -3.27,0 -6.12,0.95 -8.57,2.86 -2.45,1.9 -4.47,4.43 -6.07,7.58 -1.59,3.15 -2.78,6.73 -3.56,10.73 -0.78,4 -1.17,8.11 -1.17,12.3 0,4.43 0.91,8.03 2.74,10.79 1.83,2.76 4.72,4.14 8.69,4.14zm-1.05 7.58c-3.73,0 -6.92,-0.66 -9.56,-1.98 -2.64,-1.32 -4.8,-3.09 -6.47,-5.31 -1.67,-2.22 -2.9,-4.76 -3.67,-7.64 -0.78,-2.88 -1.17,-5.83 -1.17,-8.86 0,-6.92 0.87,-12.89 2.62,-17.9 1.75,-5.01 4.04,-9.14 6.88,-12.36 2.84,-3.23 6.12,-5.62 9.86,-7.17 3.73,-1.55 7.58,-2.33 11.55,-2.33 3.73,0 6.92,0.64 9.56,1.92 2.64,1.28 4.8,3.03 6.47,5.25 1.67,2.22 2.9,4.78 3.67,7.7 0.78,2.92 1.17,6.05 1.17,9.39 0,6.61 -0.85,12.38 -2.56,17.32 -1.71,4.94 -3.99,9.04 -6.82,12.3 -2.84,3.27 -6.12,5.7 -9.86,7.29 -3.73,1.59 -7.62,2.39 -11.66,2.39zm51.2 -62.05l10.03 0 -6.3 34.76c-0.16,0.7 -0.31,1.56 -0.47,2.57 -0.16,1.01 -0.29,2.06 -0.41,3.15 -0.12,1.09 -0.23,2.12 -0.35,3.09 -0.12,0.97 -0.18,1.73 -0.18,2.27 0,5.29 2.72,7.93 8.16,7.93 4.45,0 8.13,-1.34 11.04,-4.02 2.92,-2.68 4.92,-7.02 6.01,-13l6.53 -36.74 10.01 0 -8.63 48.64 3.85 8.86 -8.26 4.32 -4.9 -8.4c-1.01,1.09 -2.1,2.14 -3.27,3.15 -1.17,1.01 -2.47,1.92 -3.91,2.74 -1.44,0.82 -3.05,1.48 -4.84,1.98 -1.79,0.5 -3.81,0.76 -6.08,0.76 -2.8,0 -5.21,-0.37 -7.23,-1.11 -2.02,-0.74 -3.66,-1.77 -4.9,-3.09 -1.24,-1.32 -2.16,-2.88 -2.74,-4.67 -0.58,-1.79 -0.88,-3.73 -0.88,-5.83 0,-0.7 0.04,-1.54 0.12,-2.51 0.08,-0.97 0.18,-1.98 0.29,-3.03 0.12,-1.05 0.23,-2.08 0.35,-3.09 0.12,-1.01 0.25,-1.91 0.41,-2.68l6.53 -36.04zm12.6 -24.49c0.62,2.02 1.73,3.75 3.32,5.19 1.59,1.44 4.1,2.16 7.52,2.16 3.27,0 5.97,-0.64 8.11,-1.92 2.14,-1.28 3.87,-3.09 5.19,-5.42l6.42 2.1c-1.94,4.82 -4.68,8.26 -8.22,10.32 -3.54,2.06 -7.48,3.09 -11.84,3.09 -4.67,0 -8.55,-1.19 -11.66,-3.56 -3.11,-2.37 -5.05,-5.58 -5.83,-9.62l7 -2.33zm63.33 78.96c3.27,0 6.12,-0.95 8.57,-2.86 2.45,-1.91 4.47,-4.41 6.06,-7.52 1.59,-3.11 2.78,-6.65 3.56,-10.61 0.78,-3.97 1.17,-7.97 1.17,-12.01 0,-5.13 -0.97,-8.98 -2.92,-11.55 -1.94,-2.57 -4.78,-3.85 -8.52,-3.85 -3.27,0 -6.12,0.95 -8.57,2.86 -2.45,1.9 -4.47,4.43 -6.06,7.58 -1.59,3.15 -2.78,6.73 -3.56,10.73 -0.78,4 -1.17,8.11 -1.17,12.3 0,4.43 0.91,8.03 2.74,10.79 1.83,2.76 4.72,4.14 8.69,4.14zm-1.05 7.58c-3.73,0 -6.92,-0.66 -9.56,-1.98 -2.64,-1.32 -4.8,-3.09 -6.47,-5.31 -1.67,-2.22 -2.9,-4.76 -3.67,-7.64 -0.78,-2.88 -1.17,-5.83 -1.17,-8.86 0,-6.92 0.87,-12.89 2.62,-17.9 1.75,-5.01 4.04,-9.14 6.88,-12.36 2.84,-3.23 6.12,-5.62 9.85,-7.17 3.73,-1.55 7.58,-2.33 11.55,-2.33 3.73,0 6.92,0.64 9.56,1.92 2.64,1.28 4.8,3.03 6.47,5.25 1.67,2.22 2.9,4.78 3.67,7.7 0.78,2.92 1.17,6.05 1.17,9.39 0,6.61 -0.85,12.38 -2.57,17.32 -1.71,4.94 -3.99,9.04 -6.82,12.3 -2.84,3.27 -6.12,5.7 -9.85,7.29 -3.73,1.59 -7.62,2.39 -11.66,2.39zm49.26 -50.15l-2.8 -9.21 8.4 -4.08 3.73 8.52c1.01,-1.01 2.16,-2.04 3.44,-3.09 1.3,-1.05 2.68,-1.98 4.16,-2.8 1.48,-0.82 3.03,-1.48 4.67,-1.98 1.63,-0.51 3.3,-0.76 5.04,-0.76 4.12,0 7.25,0.88 9.39,2.62 2.16,1.75 3.65,3.83 4.51,6.24 0.78,-0.85 1.75,-1.81 2.95,-2.86 1.21,-1.05 2.57,-2.02 4.08,-2.92 1.5,-0.89 3.13,-1.63 4.88,-2.22 1.75,-0.58 3.54,-0.88 5.4,-0.88 2.8,0 5.11,0.39 6.98,1.17 1.87,0.78 3.34,1.85 4.47,3.21 1.13,1.36 1.94,2.94 2.45,4.72 0.51,1.79 0.76,3.65 0.76,5.6 0,1.48 -0.12,3.11 -0.35,4.9 -0.23,1.79 -0.51,3.46 -0.82,5.02l-6.41 36.86 -10.03 0 6.18 -35.57c0.23,-1.32 0.49,-2.88 0.76,-4.66 0.27,-1.79 0.41,-3.19 0.41,-4.2 0,-2.57 -0.51,-4.63 -1.52,-6.18 -1.01,-1.56 -2.86,-2.33 -5.58,-2.33 -1.85,0 -3.62,0.39 -5.27,1.17 -1.67,0.78 -3.19,1.85 -4.53,3.21 -1.36,1.36 -2.51,2.95 -3.44,4.78 -0.93,1.83 -1.54,3.75 -1.85,5.77l-6.65 38.02 -10.03 0 6.18 -35.57c0.08,-0.47 0.19,-1.13 0.35,-1.98 0.16,-0.86 0.29,-1.73 0.41,-2.62 0.12,-0.89 0.21,-1.75 0.29,-2.57 0.08,-0.82 0.12,-1.42 0.12,-1.81 0,-2.26 -0.45,-4.22 -1.34,-5.89 -0.89,-1.67 -2.72,-2.51 -5.44,-2.51 -1.4,0 -2.9,0.29 -4.49,0.87 -1.61,0.58 -3.17,1.48 -4.68,2.68 -1.52,1.21 -2.86,2.76 -4.02,4.67 -1.19,1.9 -2,4.14 -2.47,6.71l-6.65 38.02 -10.03 0 8.4 -48.05zm119.1 41.64c-2.49,2.41 -5.05,4.43 -7.74,6.06 -2.68,1.63 -5.85,2.45 -9.49,2.45 -5.52,0 -9.76,-1.81 -12.69,-5.42 -2.95,-3.62 -4.43,-8.92 -4.43,-15.92 0,-6.14 0.84,-11.8 2.51,-16.97 1.67,-5.17 4.06,-9.62 7.15,-13.35 3.11,-3.73 6.88,-6.65 11.31,-8.75 4.43,-2.1 9.35,-3.15 14.79,-3.15 3.81,0 7.13,0.39 9.97,1.17 2.82,0.78 4.86,1.44 6.1,1.98l-8.16 47.24 3.97 8.63 -8.4 4.32 -4.9 -8.28zm6.65 -46.65c-0.78,-0.31 -1.69,-0.56 -2.72,-0.76 -1.05,-0.19 -2.35,-0.29 -3.91,-0.29 -3.34,0 -6.47,0.82 -9.37,2.45 -2.92,1.63 -5.44,3.93 -7.58,6.88 -2.12,2.95 -3.79,6.47 -5,10.56 -1.21,4.08 -1.81,8.53 -1.81,13.35 0,3.03 0.23,5.5 0.7,7.41 0.47,1.9 1.11,3.4 1.92,4.49 0.82,1.09 1.81,1.83 3.01,2.22 1.21,0.39 2.55,0.58 4.02,0.58 1.4,0 2.88,-0.31 4.41,-0.93 1.56,-0.62 3.07,-1.55 4.55,-2.8 1.48,-1.24 2.76,-2.8 3.83,-4.67 1.09,-1.87 1.87,-4.08 2.33,-6.65l5.6 -31.84zm54.91 -31.02l10.94 0 -13.18 75.23 34.95 0 13.3 -75.23 11.02 0 -13.3 75.23 5.79 0 -4.32 25.43 -10.83 0 2.8 -16.56 -51.77 0 14.58 -84.09zm75.66 51.79c0.86,0.08 2,0.14 3.44,0.18 1.44,0.04 2.94,0.06 4.49,0.06 2.49,0 4.82,-0.31 7,-0.93 2.18,-0.62 4.08,-1.53 5.71,-2.74 1.63,-1.21 2.93,-2.68 3.91,-4.43 0.97,-1.75 1.46,-3.75 1.46,-6.01 0,-2.25 -0.64,-4.1 -1.92,-5.54 -1.28,-1.44 -3.21,-2.16 -5.77,-2.16 -2.33,0 -4.47,0.64 -6.41,1.92 -1.94,1.28 -3.71,2.94 -5.31,4.96 -1.59,2.02 -2.95,4.33 -4.08,6.94 -1.13,2.6 -1.96,5.19 -2.51,7.76zm-1.05 6.76c-0.08,0.7 -0.12,1.4 -0.12,2.1 0,0.7 0,1.24 0,1.63 0,5.13 1.05,9.06 3.15,11.78 2.1,2.72 5.33,4.08 9.68,4.08 2.88,0 5.35,-0.39 7.41,-1.17 2.06,-0.78 3.98,-1.59 5.77,-2.45l2.33 7.35c-2.1,1.09 -4.51,2.08 -7.23,2.97 -2.72,0.89 -5.91,1.34 -9.56,1.34 -3.97,0 -7.35,-0.6 -10.15,-1.81 -2.8,-1.21 -5.07,-2.82 -6.82,-4.84 -1.75,-2.02 -3.03,-4.41 -3.85,-7.17 -0.82,-2.76 -1.22,-5.66 -1.22,-8.69 0,-5.13 0.74,-10.17 2.22,-15.1 1.48,-4.94 3.58,-9.33 6.3,-13.18 2.72,-3.85 6.03,-6.94 9.91,-9.27 3.89,-2.33 8.28,-3.5 13.18,-3.5 3.03,0 5.58,0.41 7.64,1.23 2.06,0.82 3.71,1.89 4.96,3.21 1.24,1.32 2.12,2.8 2.62,4.43 0.51,1.63 0.76,3.27 0.76,4.9 0,3.58 -0.72,6.76 -2.16,9.56 -1.44,2.8 -3.42,5.15 -5.95,7.06 -2.53,1.91 -5.52,3.36 -8.98,4.37 -3.46,1.01 -7.21,1.52 -11.26,1.52 -1.09,0 -2.33,-0.02 -3.73,-0.06 -1.4,-0.04 -3.03,-0.14 -4.9,-0.29zm53.22 -34.41l10.19 0 -4.14 24.61 25.1 0 4.26 -24.61 10.3 0 -10.5 59.95 -10.19 0 4.9 -27.53 -25.11 0 -5 27.53 -10.19 0 10.38 -59.95zm62.87 11.9l-2.8 -9.21 8.4 -4.08 3.73 8.52c1.01,-1.01 2.16,-2.04 3.44,-3.09 1.3,-1.05 2.68,-1.98 4.16,-2.8 1.48,-0.82 3.03,-1.48 4.67,-1.98 1.63,-0.51 3.3,-0.76 5.03,-0.76 4.12,0 7.25,0.88 9.39,2.62 2.16,1.75 3.65,3.83 4.51,6.24 0.78,-0.85 1.75,-1.81 2.95,-2.86 1.21,-1.05 2.57,-2.02 4.08,-2.92 1.5,-0.89 3.13,-1.63 4.88,-2.22 1.75,-0.58 3.54,-0.88 5.4,-0.88 2.8,0 5.11,0.39 6.98,1.17 1.87,0.78 3.34,1.85 4.47,3.21 1.13,1.36 1.94,2.94 2.45,4.72 0.51,1.79 0.76,3.65 0.76,5.6 0,1.48 -0.12,3.11 -0.35,4.9 -0.23,1.79 -0.51,3.46 -0.82,5.02l-6.42 36.86 -10.03 0 6.18 -35.57c0.23,-1.32 0.49,-2.88 0.76,-4.66 0.27,-1.79 0.41,-3.19 0.41,-4.2 0,-2.57 -0.51,-4.63 -1.52,-6.18 -1.01,-1.56 -2.86,-2.33 -5.58,-2.33 -1.85,0 -3.62,0.39 -5.27,1.17 -1.67,0.78 -3.19,1.85 -4.53,3.21 -1.36,1.36 -2.51,2.95 -3.44,4.78 -0.93,1.83 -1.54,3.75 -1.85,5.77l-6.65 38.02 -10.03 0 6.18 -35.57c0.08,-0.47 0.19,-1.13 0.35,-1.98 0.16,-0.86 0.29,-1.73 0.41,-2.62 0.12,-0.89 0.21,-1.75 0.29,-2.57 0.08,-0.82 0.12,-1.42 0.12,-1.81 0,-2.26 -0.45,-4.22 -1.34,-5.89 -0.89,-1.67 -2.72,-2.51 -5.44,-2.51 -1.4,0 -2.9,0.29 -4.49,0.87 -1.61,0.58 -3.17,1.48 -4.68,2.68 -1.52,1.21 -2.86,2.76 -4.02,4.67 -1.19,1.9 -2,4.14 -2.47,6.71l-6.65 38.02 -10.03 0 8.4 -48.05zm95.17 41.29c1.01,0.31 2.24,0.6 3.67,0.88 1.44,0.27 2.93,0.41 4.49,0.41 2.93,0 5.81,-0.64 8.61,-1.92 2.8,-1.28 5.31,-3.31 7.52,-6.06 2.2,-2.76 3.97,-6.32 5.29,-10.67 1.32,-4.36 1.98,-9.56 1.98,-15.63 0,-2.64 -0.21,-4.82 -0.64,-6.53 -0.43,-1.71 -1.07,-3.07 -1.92,-4.08 -0.85,-1.01 -1.9,-1.71 -3.15,-2.1 -1.22,-0.39 -2.66,-0.58 -4.3,-0.58 -1.71,0 -3.42,0.33 -5.13,0.99 -1.71,0.66 -3.3,1.63 -4.82,2.92 -1.52,1.28 -2.82,2.92 -3.91,4.9 -1.09,1.98 -1.87,4.26 -2.33,6.82l-5.37 30.67zm-2.95 -41.29l-2.8 -9.21 8.42 -4.08 3.87 8.52c1.87,-2.26 4.43,-4.26 7.7,-6.01 3.27,-1.75 6.9,-2.62 10.94,-2.62 5.13,0 9.25,1.79 12.4,5.37 3.15,3.58 4.72,8.71 4.72,15.4 0,7.08 -0.89,13.28 -2.68,18.6 -1.79,5.33 -4.24,9.76 -7.35,13.3 -3.09,3.54 -6.73,6.2 -10.89,7.99 -4.16,1.79 -8.57,2.68 -13.22,2.68 -3.34,0 -6.49,-0.43 -9.45,-1.28l-4.43 24.84 -10.07 0 12.83 -73.48z"></path> <path class="fil0" d="M1168.66 657.83c-1.73,-1.73 -3.12,-3.36 -4.15,-4.89 -1.03,-1.53 -1.54,-3.36 -1.54,-5.5 0,-2.89 0.76,-5.22 2.28,-6.99 1.53,-1.77 3.53,-3.61 6,-5.5l13.98 -10.52 5.94 4.58 -14.84 12.25c-1.4,1.15 -2.35,2.17 -2.85,3.03 -0.5,0.87 -0.75,1.75 -0.75,2.66 0,0.66 0.13,1.33 0.37,1.98 0.25,0.66 0.74,1.44 1.48,2.35l10.77 13.11 -7.17 4.2 -9.53 -10.76zm23.38 0c-1.73,-1.73 -3.11,-3.36 -4.15,-4.89 -1.03,-1.53 -1.54,-3.36 -1.54,-5.5 0,-2.89 0.76,-5.22 2.29,-6.99 1.52,-1.77 3.52,-3.61 6,-5.5l13.98 -10.52 5.94 4.58 -14.84 12.25c-1.4,1.15 -2.35,2.17 -2.85,3.03 -0.5,0.87 -0.74,1.75 -0.74,2.66 0,0.66 0.12,1.33 0.37,1.98 0.25,0.66 0.74,1.44 1.49,2.35l10.76 13.11 -7.17 4.2 -9.53 -10.76zm48.5 -56.67l-24.4 0 1.73 -9.16 60.09 0 -1.73 9.16 -24.37 0 -14.23 80.05 -11.32 0 14.23 -80.05zm57.71 73.24c-2.64,2.56 -5.36,4.7 -8.2,6.43 -2.85,1.74 -6.21,2.6 -10.07,2.6 -5.85,0 -10.35,-1.92 -13.46,-5.75 -3.13,-3.84 -4.7,-9.47 -4.7,-16.89 0,-6.52 0.89,-12.52 2.66,-18 1.78,-5.49 4.31,-10.21 7.59,-14.17 3.3,-3.96 7.3,-7.06 12,-9.29 4.7,-2.22 9.92,-3.34 15.69,-3.34 4.04,0 7.56,0.41 10.57,1.24 2.99,0.83 5.16,1.52 6.48,2.1l-8.66 50.11 4.21 9.16 -8.91 4.58 -5.2 -8.79zm7.06 -49.48c-0.83,-0.33 -1.79,-0.6 -2.88,-0.81 -1.11,-0.2 -2.49,-0.3 -4.15,-0.3 -3.55,0 -6.87,0.87 -9.94,2.6 -3.09,1.73 -5.77,4.16 -8.04,7.3 -2.25,3.13 -4.02,6.87 -5.3,11.2 -1.28,4.33 -1.92,9.06 -1.92,14.17 0,3.22 0.25,5.84 0.74,7.86 0.5,2.02 1.18,3.61 2.04,4.76 0.87,1.15 1.92,1.94 3.2,2.35 1.28,0.41 2.71,0.62 4.27,0.62 1.48,0 3.05,-0.33 4.68,-0.99 1.65,-0.66 3.26,-1.65 4.83,-2.97 1.57,-1.32 2.92,-2.97 4.06,-4.95 1.15,-1.98 1.98,-4.33 2.47,-7.05l5.94 -33.77zm33.96 -30.44c1.9,-0.74 4.35,-1.49 7.36,-2.23 3.02,-0.74 6.09,-1.11 9.22,-1.11 9.15,0 16.08,2.91 20.79,8.72 4.7,5.82 7.05,15.32 7.05,28.52 0,3.22 -0.19,6.82 -0.55,10.82 -0.37,4.01 -1.03,8.05 -1.98,12.13 -0.95,4.08 -2.23,8.04 -3.84,11.87 -1.61,3.84 -3.65,7.26 -6.13,10.27 -2.47,3.01 -5.42,5.43 -8.84,7.24 -3.42,1.81 -7.45,2.72 -12.06,2.72 -4.37,0 -8.02,-0.66 -10.95,-1.98 -2.92,-1.33 -5.3,-3.12 -7.11,-5.39 -1.82,-2.26 -3.09,-4.94 -3.84,-8.04 -0.74,-3.09 -1.11,-6.37 -1.11,-9.84 0,-4.53 0.58,-8.97 1.73,-13.3 1.15,-4.33 2.88,-8.19 5.2,-11.56 2.31,-3.38 5.23,-6.13 8.78,-8.23 3.55,-2.1 7.76,-3.15 12.62,-3.15 4.45,0 8.25,1.03 11.38,3.09 3.13,2.07 5.48,4.75 7.05,8.05 0.09,-0.66 0.13,-1.36 0.13,-2.1 0,-0.74 0,-1.44 0,-2.11 0,-3.79 -0.29,-7.46 -0.87,-11.01 -0.58,-3.55 -1.58,-6.72 -3.03,-9.53 -1.44,-2.81 -3.42,-5.05 -5.93,-6.74 -2.52,-1.69 -5.68,-2.53 -9.46,-2.53 -2.31,0 -4.72,0.27 -7.24,0.8 -2.51,0.54 -4.59,1.09 -6.25,1.67l-2.1 -7.05zm11.38 80.91c3.47,0 6.43,-0.99 8.91,-2.97 2.47,-1.98 4.51,-4.43 6.12,-7.36 1.61,-2.92 2.78,-6.08 3.53,-9.46 0.74,-3.38 1.11,-6.47 1.11,-9.28 0,-4.95 -1.19,-8.91 -3.59,-11.87 -2.39,-2.97 -5.86,-4.46 -10.39,-4.46 -3.79,0 -6.87,1.03 -9.22,3.09 -2.35,2.06 -4.16,4.58 -5.44,7.55 -1.28,2.97 -2.14,6.14 -2.6,9.53 -0.45,3.38 -0.68,6.39 -0.68,9.03 0,2.14 0.16,4.21 0.5,6.19 0.33,1.98 0.97,3.71 1.92,5.19 0.94,1.49 2.21,2.66 3.77,3.53 1.57,0.87 3.59,1.29 6.06,1.29zm58.36 -28.15c-0.66,-0.58 -1.15,-1.44 -1.48,-2.6l-4.16 -15.05c-0.74,-2.53 -1.73,-4.15 -2.97,-4.8 -1.24,-0.66 -2.77,-0.99 -4.58,-0.99l1.98 -7.18c2.22,0 4.1,0.21 5.63,0.62 1.52,0.41 2.78,0.99 3.77,1.73 0.99,0.74 1.79,1.67 2.41,2.78 0.62,1.11 1.14,2.37 1.53,3.77l4.55 15.77c0.58,1.82 1.84,2.71 3.77,2.66l4.79 0 4.31 -26.35 10.41 0 -4.3 26.35 4.49 0c1.94,0.05 3.45,-0.84 4.54,-2.66l10.42 -17.03c1.92,-3.03 3.98,-5.08 6.18,-6.1 2.23,-1.03 4.5,-1.55 6.78,-1.55l1.73 7.06c-1.89,0.33 -3.46,0.89 -4.7,1.67 -1.23,0.79 -2.31,1.96 -3.21,3.52l-9.28 15.66c-0.91,1.32 -1.86,2.35 -2.85,3.1l13.98 31.3 -9.88 3.16 -13.07 -29.57 -6.87 0 -4.97 28.71 -10.42 0 5.22 -28.71 -5.68 0 -22.8 29.57 -9.43 -3.09 24.15 -31.73zm103.47 -55.25l11.57 0 12.12 45.78c0.41,1.4 0.76,2.33 1.05,2.78 0.29,0.45 0.72,0.68 1.3,0.68 0.58,0 1.11,-0.24 1.61,-0.74 0.49,-0.49 1.15,-1.4 1.98,-2.72l28.08 -45.78 10.78 0 -11.75 89.21 -11.13 0 9.28 -67.43 -18.33 29.32c-1.9,2.97 -3.73,5.36 -5.51,7.18 -1.77,1.81 -4.23,2.72 -7.36,2.72 -3.4,0 -5.71,-0.86 -6.95,-2.6 -1.25,-1.74 -2.31,-4.21 -3.22,-7.43l-8.29 -29.94 -14.72 68.17 -10.81 0 20.29 -89.21zm100.22 83.39c3.47,0 6.5,-1.01 9.1,-3.03 2.6,-2.02 4.74,-4.68 6.43,-7.98 1.69,-3.3 2.95,-7.06 3.77,-11.26 0.83,-4.21 1.24,-8.46 1.24,-12.75 0,-5.44 -1.04,-9.53 -3.1,-12.25 -2.07,-2.72 -5.08,-4.08 -9.03,-4.08 -3.47,0 -6.5,1.01 -9.1,3.03 -2.6,2.03 -4.74,4.7 -6.43,8.05 -1.69,3.34 -2.95,7.13 -3.77,11.38 -0.83,4.25 -1.24,8.6 -1.24,13.05 0,4.7 0.97,8.51 2.91,11.45 1.94,2.92 5.01,4.39 9.22,4.39zm-1.11 8.05c-3.96,0 -7.34,-0.7 -10.15,-2.11 -2.8,-1.4 -5.09,-3.28 -6.86,-5.63 -1.78,-2.35 -3.07,-5.05 -3.9,-8.11 -0.83,-3.05 -1.24,-6.18 -1.24,-9.4 0,-7.34 0.93,-13.67 2.78,-18.99 1.86,-5.32 4.29,-9.69 7.3,-13.11 3.02,-3.42 6.5,-5.96 10.46,-7.61 3.96,-1.64 8.05,-2.47 12.25,-2.47 3.96,0 7.34,0.68 10.15,2.04 2.8,1.36 5.09,3.21 6.86,5.57 1.78,2.35 3.07,5.08 3.9,8.16 0.83,3.1 1.24,6.42 1.24,9.96 0,7.01 -0.9,13.14 -2.72,18.37 -1.82,5.24 -4.23,9.59 -7.24,13.06 -3.01,3.46 -6.49,6.03 -10.45,7.73 -3.96,1.69 -8.09,2.54 -12.37,2.54zm52.25 -53.2l-2.97 -9.78 8.9 -4.33 3.96 9.03c1.08,-1.07 2.29,-2.16 3.65,-3.27 1.38,-1.11 2.85,-2.11 4.41,-2.97 1.57,-0.87 3.22,-1.57 4.95,-2.11 1.73,-0.54 3.51,-0.8 5.34,-0.8 4.37,0 7.7,0.93 9.96,2.78 2.29,1.86 3.88,4.06 4.79,6.62 0.83,-0.9 1.86,-1.92 3.13,-3.03 1.28,-1.11 2.72,-2.14 4.33,-3.09 1.59,-0.95 3.32,-1.74 5.18,-2.35 1.86,-0.62 3.76,-0.93 5.74,-0.93 2.96,0 5.42,0.41 7.4,1.24 1.98,0.83 3.55,1.96 4.74,3.4 1.2,1.44 2.07,3.11 2.6,5.01 0.53,1.89 0.8,3.87 0.8,5.94 0,1.57 -0.12,3.3 -0.37,5.19 -0.25,1.89 -0.54,3.67 -0.87,5.32l-6.81 39.1 -10.63 0 6.56 -37.74c0.24,-1.4 0.51,-3.05 0.8,-4.95 0.29,-1.89 0.43,-3.38 0.43,-4.45 0,-2.72 -0.53,-4.91 -1.61,-6.56 -1.07,-1.65 -3.03,-2.48 -5.92,-2.48 -1.96,0 -3.84,0.41 -5.59,1.24 -1.77,0.83 -3.38,1.96 -4.8,3.41 -1.44,1.44 -2.66,3.13 -3.65,5.07 -0.99,1.94 -1.63,3.98 -1.96,6.13l-7.06 40.33 -10.64 0 6.56 -37.74c0.09,-0.5 0.21,-1.19 0.37,-2.11 0.16,-0.9 0.31,-1.83 0.44,-2.78 0.12,-0.95 0.23,-1.86 0.3,-2.72 0.09,-0.87 0.12,-1.5 0.12,-1.92 0,-2.39 -0.48,-4.48 -1.42,-6.24 -0.95,-1.78 -2.89,-2.67 -5.78,-2.67 -1.48,0 -3.07,0.31 -4.76,0.93 -1.71,0.62 -3.36,1.57 -4.97,2.85 -1.61,1.28 -3.03,2.93 -4.27,4.95 -1.25,2.02 -2.12,4.4 -2.62,7.12l-7.05 40.33 -10.64 0 8.91 -50.97zm113.16 45.16c3.47,0 6.5,-1.01 9.1,-3.03 2.6,-2.02 4.74,-4.68 6.43,-7.98 1.69,-3.3 2.95,-7.06 3.77,-11.26 0.83,-4.21 1.24,-8.46 1.24,-12.75 0,-5.44 -1.04,-9.53 -3.09,-12.25 -2.07,-2.72 -5.08,-4.08 -9.03,-4.08 -3.47,0 -6.5,1.01 -9.1,3.03 -2.6,2.03 -4.74,4.7 -6.43,8.05 -1.69,3.34 -2.95,7.13 -3.77,11.38 -0.83,4.25 -1.24,8.6 -1.24,13.05 0,4.7 0.98,8.51 2.91,11.45 1.94,2.92 5.01,4.39 9.22,4.39zm-1.11 8.05c-3.96,0 -7.34,-0.7 -10.15,-2.11 -2.8,-1.4 -5.09,-3.28 -6.86,-5.63 -1.78,-2.35 -3.07,-5.05 -3.9,-8.11 -0.83,-3.05 -1.24,-6.18 -1.24,-9.4 0,-7.34 0.93,-13.67 2.78,-18.99 1.86,-5.32 4.29,-9.69 7.3,-13.11 3.02,-3.42 6.5,-5.96 10.46,-7.61 3.96,-1.64 8.05,-2.47 12.25,-2.47 3.96,0 7.34,0.68 10.15,2.04 2.8,1.36 5.09,3.21 6.86,5.57 1.78,2.35 3.07,5.08 3.9,8.16 0.83,3.1 1.24,6.42 1.24,9.96 0,7.01 -0.9,13.14 -2.72,18.37 -1.82,5.24 -4.23,9.59 -7.24,13.06 -3.01,3.46 -6.49,6.03 -10.45,7.73 -3.96,1.69 -8.08,2.54 -12.37,2.54zm54.97 -9.4c1.07,0.33 2.37,0.64 3.9,0.93 1.52,0.29 3.11,0.43 4.76,0.43 3.11,0 6.16,-0.68 9.13,-2.04 2.97,-1.36 5.63,-3.5 7.98,-6.43 2.33,-2.92 4.2,-6.7 5.61,-11.32 1.4,-4.62 2.11,-10.14 2.11,-16.58 0,-2.81 -0.23,-5.11 -0.68,-6.93 -0.46,-1.82 -1.14,-3.26 -2.04,-4.33 -0.91,-1.08 -2.02,-1.82 -3.34,-2.23 -1.29,-0.41 -2.82,-0.62 -4.55,-0.62 -1.82,0 -3.63,0.35 -5.44,1.04 -1.82,0.7 -3.51,1.74 -5.11,3.1 -1.61,1.36 -2.99,3.1 -4.15,5.2 -1.15,2.1 -1.98,4.51 -2.47,7.24l-5.69 32.54zm-3.13 -43.8l-2.97 -9.78 8.93 -4.33 4.1 9.03c1.98,-2.39 4.7,-4.51 8.17,-6.37 3.46,-1.86 7.32,-2.78 11.61,-2.78 5.44,0 9.82,1.89 13.15,5.69 3.34,3.8 5.01,9.24 5.01,16.33 0,7.5 -0.95,14.08 -2.85,19.73 -1.89,5.65 -4.5,10.35 -7.8,14.1 -3.27,3.75 -7.13,6.58 -11.55,8.47 -4.41,1.89 -9.09,2.85 -14.02,2.85 -3.55,0 -6.89,-0.45 -10.03,-1.36l-4.7 26.35 -10.68 0 13.61 -77.94zm100.33 48.99c-2.06,1.08 -4.59,2.04 -7.61,2.91 -3.01,0.87 -6.41,1.3 -10.21,1.3 -7.75,0 -13.5,-2.19 -17.26,-6.56 -3.75,-4.37 -5.63,-10.39 -5.63,-18.06 0,-5.53 0.7,-10.87 2.1,-16.02 1.4,-5.16 3.57,-9.71 6.49,-13.68 2.93,-3.96 6.6,-7.13 11.02,-9.53 4.41,-2.39 9.63,-3.59 15.65,-3.59 3.38,0 6.43,0.45 9.15,1.36 2.73,0.9 4.95,1.93 6.68,3.09l-4.2 6.81c-1.4,-0.83 -3.16,-1.57 -5.26,-2.23 -2.1,-0.66 -4.48,-0.98 -7.11,-0.98 -4.12,0 -7.63,0.98 -10.52,2.96 -2.88,1.98 -5.28,4.58 -7.17,7.8 -1.9,3.22 -3.28,6.84 -4.15,10.89 -0.86,4.04 -1.3,8.16 -1.3,12.37 0,6.1 1.15,10.46 3.47,13.06 2.31,2.6 5.57,3.9 9.77,3.9 2.39,0 4.87,-0.37 7.42,-1.11 2.56,-0.74 4.75,-1.57 6.57,-2.48l2.1 7.8zm24.87 -27.83c1.4,-1.16 2.35,-2.14 2.85,-2.97 0.49,-0.83 0.74,-1.73 0.74,-2.72 0,-1.4 -0.62,-2.85 -1.86,-4.34l-10.76 -12.61 7.17 -4.21 9.53 10.27c1.65,1.65 3.01,3.26 4.09,4.83 1.07,1.57 1.61,3.42 1.61,5.57 0,2.64 -0.79,4.91 -2.35,6.81 -1.57,1.89 -3.55,3.8 -5.93,5.69l-13.99 11.01 -5.93 -4.58 14.84 -12.74zm23.51 0c1.4,-1.16 2.35,-2.14 2.85,-2.97 0.5,-0.83 0.74,-1.73 0.74,-2.72 0,-1.4 -0.62,-2.85 -1.86,-4.34l-10.76 -12.61 7.17 -4.21 9.53 10.27c1.65,1.65 3.01,3.26 4.09,4.83 1.07,1.57 1.61,3.42 1.61,5.57 0,2.64 -0.79,4.91 -2.35,6.81 -1.57,1.89 -3.54,3.8 -5.93,5.69l-13.98 11.01 -5.94 -4.58 14.84 -12.74z"></path> </g> </g> </svg> 