<?xml version="1.0" encoding="UTF-8"?> <svg xmlns="http://www.w3.org/2000/svg" xmlns:xlink="http://www.w3.org/1999/xlink" xmlns:xodm="http://www.corel.com/coreldraw/odm/2003" xml:space="preserve" width="300mm" height="98.0504mm" version="1.1" style="shape-rendering:geometricPrecision; text-rendering:geometricPrecision; image-rendering:optimizeQuality; fill-rule:evenodd; clip-rule:evenodd" viewBox="0 0 2015.39 658.7"> <defs> <style type="text/css"> .fil0 {fill:#727271} .fil1 {fill:#2B2A29} </style> </defs> <g id="Слой_x0020_1"> <metadata id="CorelCorpID_0Corel-Layer"></metadata> <path class="fil0" d="M1.76 641.46l122.35 -0.07 0.03 -219.81 89.36 109.57c15.17,18.75 29.29,36.54 44.74,55.29l43.36 54.95 179.39 -0.73c-14.05,-20.1 -32.83,-41.1 -49,-61.25 -12.54,-15.62 -143.04,-174.47 -146.66,-183 11.72,-16.49 93.68,-107.91 114.02,-132.29 11.42,-13.68 62.45,-69.7 67.79,-78.7 -43.64,-1.56 -89.8,-0.19 -133.71,-0.19 -61.6,0 -36.94,-5.36 -70.52,29.53 -5.64,5.86 -9.55,10.95 -15.6,17.71l-77.32 89.44c-3.06,3.8 -4.77,5.13 -7.96,8.67 -2.93,3.24 -4.56,6.08 -7.42,9.33l-30.47 33.78 -0.45 -371.1 -121.97 -0.02 0.04 638.89z"></path> <path class="fil0" d="M1733.28 295.34c75.05,-8.24 134.8,47.73 141.85,113.01 8.01,74.19 -48.32,132.79 -113.46,140.17 -77,8.72 -137,-47.86 -143.7,-113.54 -7.64,-74.85 48.83,-132.33 115.32,-139.63zm282.11 142.14l0 -32.41c-2.14,-5.59 -4.85,-32.29 -7.37,-42.12 -15.12,-58.79 -55.4,-108.4 -105.66,-138.8 -37.18,-22.48 -46.4,-19.78 -63.39,-27.61 -4.47,-2.06 -2.27,-1.05 -4.15,-2.4 -9.64,1.29 -34.59,-5.56 -47.3,-6.8 -15.19,-1.48 -39.6,-0.06 -52.2,-2.75 -6.66,4.06 -32.55,3.63 -43.19,5.2 -13.3,1.96 -25.55,4.77 -38.35,8.06 -21.48,5.51 -48.57,17.25 -64.85,27.72 -38.67,24.88 -66.36,52.41 -88.7,96.55 -52.87,104.43 -6.69,221.43 55.58,272.71 39.23,32.3 74.85,49.71 128.41,58.58 102.31,16.93 214.01,-5.53 277.7,-84.49 52.27,-64.8 45.69,-110.56 53.47,-131.43z"></path> <path class="fil0" d="M682.86 291.54c76.47,-8.77 136.42,47.94 144.34,113.13 9.2,75.75 -48.34,134.69 -114.96,142.74 -76.39,9.23 -136.84,-47.19 -144.9,-112.7 -9.39,-76.33 48.64,-135.5 115.53,-143.16zm-40.08 360.99c56.83,7.02 107.03,1.98 151,-34.75 13.31,-11.12 14.52,-15.77 23.16,-25.09 2.69,-2.9 4.93,-4.56 6.51,-6.18l0.07 54.9 119.33 -0.63 0.02 -442.98 -119.35 -0.08 0 51.83c-5.91,-3.14 -20.8,-16.44 -24.79,-22.66 -5.66,-1.04 -25.03,-17.11 -42.75,-25.16 -53.72,-24.41 -111.8,-19.79 -164.18,2.91 -143.94,62.4 -198.33,226.29 -114.44,346.05 42.93,61.29 95.41,83.53 165.42,101.84z"></path> <path class="fil0" d="M1125.41 193.49l-120 -0.2 -0.04 448.1 120.86 -0.56c0.18,-72.2 0.03,-144.43 0.01,-216.63 -0.01,-38.08 2.71,-61.3 23.22,-84.23 39.88,-44.57 124.01,-39.57 152.52,-0.7 16.73,22.8 20.66,53.02 20.62,86.78 -0.08,71.63 0.05,143.26 -0,215.29l121 0.05c0.42,-94.95 2.08,-192.9 -0.03,-287.59 -1.46,-65.24 -23.66,-109.09 -73.32,-142.12 -7.4,-4.92 -13.53,-8.68 -22.44,-12.78 -4.42,-2.04 -8.26,-3.71 -13.21,-5.26l-12.67 -5.12c-10.49,1.66 -59.56,-11.97 -116.6,9.11 -44.71,16.52 -71.99,51.54 -79.02,54.68l-0.9 -58.83z"></path> <polygon class="fil1" points="-0,641.55 1.76,641.46 1.72,2.57 123.69,2.59 123.27,0 -0,0 "></polygon> </g> </svg> 