<?xml version="1.0" encoding="UTF-8"?> <svg xmlns="http://www.w3.org/2000/svg" xmlns:xlink="http://www.w3.org/1999/xlink" xmlns:xodm="http://www.corel.com/coreldraw/odm/2003" xml:space="preserve" width="300mm" height="121.292mm" version="1.1" style="shape-rendering:geometricPrecision; text-rendering:geometricPrecision; image-rendering:optimizeQuality; fill-rule:evenodd; clip-rule:evenodd" viewBox="0 0 22024.32 8904.56"> <defs> <style type="text/css"> .fil1 {fill:#727271} .fil0 {fill:#727271;fill-rule:nonzero} </style> </defs> <g id="Слой_x0020_1"> <metadata id="CorelCorpID_0Corel-Layer"></metadata> <g id="_2810231409728"> <path class="fil0" d="M3884.56 8622.62l0 242.78c-143.58,26.11 -281.94,39.15 -415.08,39.15 -336.77,0 -642.2,-72.44 -916.32,-217.33 -274.11,-144.88 -509.06,-355.69 -704.85,-632.41 -161.86,65.27 -331.55,97.89 -509.06,97.89 -245.39,0 -470.56,-58.74 -675.49,-176.21 -204.93,-117.48 -366.79,-278.68 -485.56,-483.61 -118.78,-204.94 -178.18,-430.09 -178.18,-675.49 0,-248 59.4,-473.82 178.18,-677.45 118.78,-203.62 280.63,-364.17 485.56,-481.66 204.94,-117.48 430.1,-176.21 675.49,-176.21 242.78,0 467.29,58.73 673.53,176.21 206.24,117.49 369.4,278.04 489.48,481.66 120.09,203.63 180.13,429.44 180.13,677.45 0,229.74 -52.21,441.19 -156.63,634.37 -104.43,193.18 -246.71,351.13 -426.83,473.82 182.74,240.18 388.98,419.65 618.7,538.43 229.74,118.79 493.4,178.18 791.01,178.18 107.03,0 232.35,-6.53 375.93,-19.57zm-3567.37 -1809.14c0,198.41 44.39,377.88 133.14,538.44 88.77,160.54 211.46,287.16 368.1,379.84 156.63,92.68 331.54,139.02 524.72,139.02 190.58,0 364.18,-46.34 520.82,-139.02 156.63,-92.68 279.33,-219.3 368.09,-379.84 88.77,-160.56 133.14,-338.73 133.14,-534.52 0,-198.4 -44.38,-377.89 -133.14,-538.43 -88.75,-160.56 -211.46,-286.51 -368.09,-377.89 -156.64,-91.37 -331.55,-137.06 -524.73,-137.06 -193.18,0 -367.44,45.69 -522.77,137.06 -155.33,91.37 -277.37,216.68 -366.14,375.93 -88.76,159.24 -133.14,338.07 -133.14,536.48zm2909.5 -1288.33l908.49 0c167.08,0 312.62,31.99 436.62,95.94 124,63.97 219.93,152.72 287.81,266.28 67.87,113.56 101.81,242.14 101.81,385.72 0,146.19 -33.94,276.72 -101.81,391.59 -67.88,114.86 -163.81,204.28 -287.81,268.23 -124,63.97 -269.55,95.95 -436.62,95.95l-603.05 0 0 1080.78 -305.44 0 0 -2584.49zm900.66 1229.59c164.47,0 291.73,-43.73 381.79,-131.18 90.08,-87.47 135.1,-202.98 135.1,-346.56 0,-140.97 -45.03,-255.83 -135.1,-344.6 -90.06,-88.76 -217.32,-133.14 -381.79,-133.14l-595.21 0 0 955.47 595.21 0zm3003.49 1354.9l-802.76 -1084.7 -552.13 0 0 1084.7 -305.44 0 0 -2584.49 908.49 0c167.08,0 312.61,31.99 436.62,95.94 124,63.97 219.94,152.72 287.82,266.28 67.87,113.56 101.81,242.14 101.81,385.72 0,174.9 -48.3,325.67 -144.89,452.28 -96.59,126.62 -229.73,214.72 -399.43,264.32l826.26 1119.95 -356.34 0zm-1354.9 -1358.81l591.29 0c167.08,0 295.65,-43.07 385.71,-129.22 90.07,-86.15 135.1,-201.02 135.1,-344.6 0,-140.97 -45.69,-255.83 -137.06,-344.6 -91.36,-88.76 -219.28,-133.14 -383.75,-133.14l-591.29 0 0 951.56zm4605.08 834.08l-1268.75 0 -219.3 524.73 -321.1 0 1119.94 -2627.56 113.56 0 1119.94 2627.56 -325.02 0 -219.28 -524.73zm-634.37 -1546.77l-516.9 1272.65 1033.79 0 -516.9 -1272.65zm2341.69 2114.56c-148.8,0 -283.25,-33.28 -403.34,-99.85 -120.09,-66.56 -214.72,-160.54 -283.9,-281.94 -69.18,-121.39 -103.76,-261.71 -103.76,-420.96l0 -1147.36 297.6 0 0 1166.93c0,154.03 46.99,276.74 140.98,368.1 93.98,91.37 211.46,137.06 352.43,137.06 138.36,0 253.88,-46.34 346.55,-139.02 92.68,-92.68 139.02,-214.72 139.02,-366.14l0 -1166.93 301.52 0 0 1147.36c0,159.24 -34.59,299.57 -103.77,420.96 -69.19,121.4 -163.81,215.38 -283.9,281.94 -120.08,66.57 -253.23,99.85 -399.42,99.85zm3238.43 -2979.98l0 2936.91 -285.86 0 0 -301.52c-73.09,107.03 -174.26,191.22 -303.47,252.57 -129.23,61.35 -268.24,92.02 -417.05,92.02 -177.52,0 -338.07,-43.73 -481.65,-131.18 -143.58,-87.45 -256.5,-206.89 -338.73,-358.3 -82.24,-151.42 -123.35,-319.8 -123.35,-505.15 0,-185.36 41.11,-354.39 123.35,-507.1 82.23,-152.73 195.14,-272.81 338.73,-360.27 143.58,-87.45 304.13,-131.18 481.65,-131.18 143.58,0 278.03,28.71 403.33,86.14 125.32,57.43 225.82,137.05 301.53,238.87l0 -1311.82 301.51 0zm-963.3 2701.96c114.86,0 223.19,-26.11 325.01,-78.32 101.81,-52.21 184.04,-131.84 246.69,-238.87 62.67,-107.03 93.99,-240.18 93.99,-399.42 0,-159.25 -31.33,-293.04 -93.99,-401.39 -62.65,-108.33 -144.88,-188.61 -246.69,-240.82 -101.82,-52.21 -210.15,-78.32 -325.01,-78.32 -127.92,0 -243.44,30.68 -346.56,92.03 -103.12,61.34 -184.05,146.84 -242.79,256.48 -58.74,109.64 -88.1,232.35 -88.1,368.09 0,135.75 29.37,258.45 88.1,368.1 58.74,109.64 139.67,195.8 242.79,258.45 103.12,62.65 218.64,93.98 346.56,93.98zm1625.08 -1672.09l301.53 0 0 1907.04 -301.53 0 0 -1907.04zm152.72 -509.06c-62.65,0 -116.17,-20.89 -160.55,-62.65 -44.39,-41.78 -66.57,-93.99 -66.57,-156.64 0,-60.04 22.19,-111.6 66.57,-154.68 44.38,-43.08 97.9,-64.6 160.55,-64.6 60.05,0 112.25,21.53 156.64,64.6 44.38,43.07 66.56,94.64 66.56,154.68 0,62.65 -21.53,114.86 -64.61,156.64 -43.06,41.77 -95.94,62.65 -158.59,62.65zm1852.21 2161.56l0 254.54c-120.08,28.71 -225.82,43.06 -317.19,43.06 -198.4,0 -355.03,-50.9 -469.9,-152.72 -114.86,-101.8 -172.3,-257.13 -172.3,-465.99l0 -1061.2 -321.1 0 0 -270.2 321.1 0 0 -520.81 301.53 0 0 520.81 595.21 0 0 270.2 -595.21 0 0 1041.62c0,135.76 34.59,230.39 103.77,283.9 69.18,53.53 169.04,80.28 299.57,80.28 73.1,0 157.94,-7.83 254.53,-23.49z"></path> <polygon class="fil1" points="18280.62,0 21438.35,846.11 19126.73,3157.74 "></polygon> <polygon class="fil1" points="18420.29,2848.68 18975.4,4920.38 16903.7,4365.27 "></polygon> <polygon class="fil1" points="19712.7,3470.87 22024.32,5782.49 18866.57,6628.61 "></polygon> </g> </g> </svg> 