<?xml version="1.0" encoding="UTF-8"?> <svg xmlns="http://www.w3.org/2000/svg" xmlns:xlink="http://www.w3.org/1999/xlink" xmlns:xodm="http://www.corel.com/coreldraw/odm/2003" xml:space="preserve" width="300mm" height="225.192mm" version="1.1" style="shape-rendering:geometricPrecision; text-rendering:geometricPrecision; image-rendering:optimizeQuality; fill-rule:evenodd; clip-rule:evenodd" viewBox="0 0 2650.82 1989.81"> <defs> <style type="text/css"> .fil0 {fill:#727271;fill-rule:nonzero} </style> </defs> <g id="Слой_x0020_1"> <metadata id="CorelCorpID_0Corel-Layer"></metadata> <path class="fil0" d="M286.61 1620.55l-153.41 0 -28.51 70.49 -104.69 0 160.15 -362.79 101.06 0 160.67 362.79 -106.76 0 -28.51 -70.49zm724.45 -593.96l216.38 -374.79 75.26 130.36 -216.38 374.79 -451.59 0 592.7 -1026.59 517.44 896.23 150.53 0 -592.7 -1026.59 150.53 0 667.97 1156.95 -451.58 0 -141.12 -244.42 -141.11 244.42 -150.53 0 216.38 -374.79 -225.79 -391.09 -366.91 635.51 150.53 0zm-283.53 792.27l47.41 0 0 167.6 -47.41 0 0 -167.6zm240.63 0l0 167.6 -39.03 0 -73.98 -89.31 0 89.31 -46.45 0 0 -167.6 39.02 0 73.99 89.31 0 -89.31 46.45 0zm92.42 170.95c-13.57,0 -26.74,-1.67 -39.51,-5.03 -12.77,-3.35 -23.15,-7.82 -31.13,-13.41l15.56 -34.96c7.5,4.95 16.2,8.94 26.1,11.97 9.9,3.03 19.63,4.55 29.21,4.55 18.2,0 27.29,-4.55 27.29,-13.65 0,-4.79 -2.59,-8.34 -7.78,-10.66 -5.19,-2.32 -13.53,-4.75 -25.02,-7.3 -12.61,-2.72 -23.14,-5.63 -31.6,-8.74 -8.46,-3.11 -15.72,-8.1 -21.79,-14.96 -6.07,-6.87 -9.1,-16.12 -9.1,-27.78 0,-10.21 2.79,-19.43 8.38,-27.65 5.59,-8.22 13.93,-14.73 25.02,-19.51 11.09,-4.79 24.7,-7.18 40.82,-7.18 11.01,0 21.87,1.24 32.56,3.71 10.7,2.47 20.11,6.1 28.25,10.89l-14.6 35.2c-15.96,-8.62 -31.45,-12.93 -46.45,-12.93 -9.42,0 -16.28,1.4 -20.59,4.19 -4.31,2.79 -6.46,6.42 -6.46,10.9 0,4.47 2.55,7.82 7.66,10.06 5.11,2.23 13.33,4.55 24.66,6.94 12.77,2.71 23.34,5.63 31.72,8.74 8.38,3.11 15.64,8.06 21.79,14.85 6.15,6.78 9.22,16 9.22,27.65 0,10.06 -2.79,19.15 -8.38,27.29 -5.58,8.14 -13.97,14.64 -25.14,19.51 -11.17,4.87 -24.74,7.3 -40.7,7.3zm255.47 -170.95l0 167.6 -47.41 0 0 -65.36 -64.65 0 0 65.36 -47.41 0 0 -167.6 47.41 0 0 62.97 64.65 0 0 -62.97 47.41 0zm145.82 135.04l-70.87 0 -13.17 32.56 -48.36 0 73.98 -167.6 46.69 0 74.22 167.6 -49.32 0 -13.17 -32.56zm-13.89 -34.96l-21.55 -53.63 -21.55 53.63 43.1 0zm209.02 34.96l-70.87 0 -13.17 32.56 -48.36 0 73.98 -167.6 46.69 0 74.22 167.6 -49.32 0 -13.17 -32.56zm-13.89 -34.96l-21.55 -53.63 -21.55 53.63 43.1 0zm117.08 -62.49l-51.48 0 0 -37.59 150.12 0 0 37.59 -51.24 0 0 130.01 -47.41 0 0 -130.01zm-1503.64 -311.57l-46.65 -116.09 -46.64 116.09 93.29 0zm465.64 -43.02c20.73,7.26 36.97,18.57 48.72,33.95 11.75,15.38 17.62,33.95 17.62,55.72 0,31.79 -12.78,56.32 -38.35,73.59 -25.57,17.28 -62.54,25.92 -110.91,25.92l-195.91 0 0 -362.79 185.54 0c46.3,0 81.54,8.55 105.73,25.65 24.19,17.1 36.28,40.17 36.28,69.19 0,17.28 -4.23,32.74 -12.7,46.39 -8.47,13.65 -20.47,24.45 -36.02,32.39zm-177.25 -99.51l0 69.97 70.49 0c34.55,0 51.83,-11.75 51.83,-35.24 0,-23.15 -17.28,-34.73 -51.83,-34.73l-70.49 0zm86.04 214.57c35.93,0 53.9,-12.26 53.9,-36.8 0,-24.53 -17.97,-36.8 -53.9,-36.8l-86.04 0 0 73.6 86.04 0zm203.39 -288.68l171.55 0c39.73,0 74.98,7.43 105.73,22.28 30.75,14.86 54.59,35.93 71.52,63.23 16.93,27.3 25.39,59.26 25.39,95.88 0,36.62 -8.46,68.59 -25.39,95.88 -16.93,27.3 -40.77,48.37 -71.52,63.23 -30.75,14.86 -65.99,22.29 -105.73,22.29l-171.55 0 0 -362.79zm167.4 280.9c31.1,0 56.06,-8.81 74.89,-26.43 18.83,-17.62 28.24,-41.98 28.24,-73.08 0,-31.1 -9.41,-55.46 -28.24,-73.08 -18.83,-17.62 -43.8,-26.43 -74.89,-26.43l-64.78 0 0 199.02 64.78 0zm420.55 89.14c-53.9,0 -95.79,-14.69 -125.68,-44.05 -29.88,-29.37 -44.83,-71.01 -44.83,-124.91l0 -201.09 102.62 0 0 197.98c0,58.05 22.98,87.07 68.93,87.07 45.61,0 68.41,-29.02 68.41,-87.07l0 -197.98 101.06 0 0 201.09c0,53.9 -14.94,95.53 -44.83,124.91 -29.89,29.37 -71.78,44.05 -125.68,44.05zm232.42 -370.05l102.62 0 0 281.42 173.1 0 0 81.37 -275.72 0 0 -362.79zm308.61 0l102.62 0 0 281.42 173.1 0 0 81.37 -275.72 0 0 -362.79zm485.86 370.05c-38.35,0 -72.82,-8.12 -103.4,-24.36 -30.58,-16.24 -54.59,-38.7 -72.04,-67.38 -17.45,-28.68 -26.17,-60.98 -26.17,-96.92 0,-35.93 8.72,-68.24 26.17,-96.92 17.45,-28.68 41.46,-51.14 72.04,-67.38 30.58,-16.24 65.04,-24.36 103.4,-24.36 38.35,0 72.82,8.12 103.4,24.36 30.58,16.24 54.59,38.7 72.04,67.38 17.45,28.68 26.17,60.98 26.17,96.92 0,35.93 -8.72,68.24 -26.17,96.92 -17.45,28.68 -41.46,51.14 -72.04,67.38 -30.58,16.24 -65.04,24.36 -103.4,24.36zm0 -85c18.31,0 34.9,-4.32 49.75,-12.96 14.86,-8.64 26.61,-20.82 35.24,-36.54 8.64,-15.72 12.95,-33.78 12.95,-54.16 0,-20.39 -4.32,-38.44 -12.95,-54.16 -8.64,-15.72 -20.39,-27.9 -35.24,-36.54 -14.86,-8.64 -31.44,-12.96 -49.75,-12.96 -18.31,0 -34.9,4.32 -49.75,12.96 -14.86,8.64 -26.6,20.82 -35.24,36.54 -8.64,15.72 -12.95,33.77 -12.95,54.16 0,20.38 4.32,38.44 12.95,54.16 8.64,15.72 20.39,27.9 35.24,36.54 14.86,8.64 31.44,12.96 49.75,12.96z"></path> </g> </svg> 