<?xml version="1.0" encoding="UTF-8"?> <svg xmlns="http://www.w3.org/2000/svg" width="277" height="66" viewBox="0 0 277 66" fill="none"><path d="M26.232 43.272L25.728 43.344C21.648 46.56 17.04 48.168 11.904 48.168C8.30398 48.168 5.56798 47.4 3.69598 45.864C1.77598 44.28 0.815979 42.264 0.815979 39.816C0.815979 37.464 1.79998 35.52 3.76798 33.984C5.73598 32.448 8.68798 31.68 12.624 31.68H26.016V30.096C26.016 24 22.392 20.952 15.144 20.952C9.04798 20.952 5.99998 23.136 5.99998 27.504V27.864C5.99998 28.152 5.75998 28.296 5.27998 28.296H2.68798C2.54398 28.296 2.39998 28.2 2.25598 28.008C2.11198 27.816 2.03998 27.648 2.03998 27.504V27.144C2.03998 24.024 3.16798 21.6 5.42398 19.872C7.63198 18.144 10.92 17.28 15.288 17.28C20.52 17.28 24.312 18.456 26.664 20.808C29.064 23.208 30.264 26.4 30.264 30.384V46.8C30.264 46.944 30.192 47.088 30.048 47.232C29.904 47.376 29.736 47.448 29.544 47.448H27.6C27.216 47.448 26.952 47.136 26.808 46.512L26.232 43.272ZM11.904 44.64L11.832 44.712C17.112 44.712 21.792 43.032 25.872 39.672V34.992H12.48C9.74398 34.992 7.77598 35.472 6.57598 36.432C5.42398 37.344 4.84798 38.496 4.84798 39.888C4.84798 41.328 5.47198 42.48 6.71998 43.344C7.91998 44.208 9.64798 44.64 11.904 44.64Z" fill="white"></path><path d="M69.8218 27.504L69.5338 27.36C69.6298 28.032 69.6778 28.536 69.6778 28.872C69.6778 29.304 69.4378 29.52 68.9578 29.52H66.3658C66.0298 29.52 65.8138 29.304 65.7178 28.872C65.2858 26.328 64.0618 24.336 62.0458 22.896C60.0298 21.456 57.5818 20.736 54.7018 20.736C51.1018 20.736 48.1978 21.888 45.9898 24.192C43.7818 26.448 42.6778 29.28 42.6778 32.688C42.6778 36.192 43.8778 39.072 46.2778 41.328C48.6298 43.536 51.6538 44.64 55.3498 44.64C59.5258 44.64 63.4138 42.84 67.0138 39.24C67.2058 39.048 67.4218 38.952 67.6618 38.952C67.9018 38.952 68.1178 39.048 68.3098 39.24L69.5338 40.464C69.7738 40.704 69.8938 40.92 69.8938 41.112C69.8938 41.304 69.7738 41.568 69.5338 41.904C66.0778 46.08 61.3978 48.168 55.4938 48.168C50.6938 48.168 46.7338 46.776 43.6138 43.992C40.4458 41.208 38.8618 37.464 38.8618 32.76C38.8618 28.152 40.3738 24.408 43.3978 21.528C46.4218 18.648 50.2618 17.208 54.9178 17.208C59.0458 17.208 62.4298 18.216 65.0698 20.232C67.7098 22.248 69.2938 24.672 69.8218 27.504Z" fill="white"></path><path d="M102.662 43.272L102.158 43.344C98.0777 46.56 93.4697 48.168 88.3337 48.168C84.7337 48.168 81.9977 47.4 80.1257 45.864C78.2057 44.28 77.2457 42.264 77.2457 39.816C77.2457 37.464 78.2297 35.52 80.1977 33.984C82.1657 32.448 85.1177 31.68 89.0537 31.68H102.446V30.096C102.446 24 98.8217 20.952 91.5737 20.952C85.4777 20.952 82.4297 23.136 82.4297 27.504V27.864C82.4297 28.152 82.1897 28.296 81.7097 28.296H79.1177C78.9737 28.296 78.8297 28.2 78.6857 28.008C78.5417 27.816 78.4697 27.648 78.4697 27.504V27.144C78.4697 24.024 79.5977 21.6 81.8537 19.872C84.0617 18.144 87.3497 17.28 91.7177 17.28C96.9497 17.28 100.742 18.456 103.094 20.808C105.494 23.208 106.694 26.4 106.694 30.384V46.8C106.694 46.944 106.622 47.088 106.478 47.232C106.334 47.376 106.166 47.448 105.974 47.448H104.03C103.646 47.448 103.382 47.136 103.238 46.512L102.662 43.272ZM88.3337 44.64L88.2617 44.712C93.5417 44.712 98.2217 43.032 102.302 39.672V34.992H88.9097C86.1737 34.992 84.2057 35.472 83.0057 36.432C81.8537 37.344 81.2777 38.496 81.2777 39.888C81.2777 41.328 81.9017 42.48 83.1497 43.344C84.3497 44.208 86.0777 44.64 88.3337 44.64Z" fill="white"></path><path d="M141.571 43.2V43.272C138.739 46.536 134.923 48.168 130.123 48.168C126.043 48.168 122.587 46.824 119.755 44.136C116.875 41.4 115.435 37.608 115.435 32.76C115.435 28.344 116.851 24.648 119.683 21.672C122.467 18.744 126.067 17.28 130.483 17.28C135.427 17.28 139.123 19.008 141.571 22.464H141.715V0.792003C141.715 0.696001 141.787 0.528 141.931 0.288001C142.075 0.0960002 142.219 0 142.363 0H144.955C145.099 0 145.243 0.0960002 145.387 0.288001C145.531 0.528 145.603 0.696001 145.603 0.792003V46.8C145.603 46.944 145.531 47.088 145.387 47.232C145.243 47.376 145.075 47.448 144.883 47.448H142.939C142.555 47.448 142.291 47.136 142.147 46.512L141.571 43.2ZM119.467 32.76L119.251 32.832C119.251 36.384 120.307 39.264 122.419 41.472C124.531 43.632 127.171 44.712 130.339 44.712C134.899 44.712 138.643 42.816 141.571 39.024V28.584C140.611 26.232 139.147 24.384 137.179 23.04C135.115 21.648 132.859 20.952 130.411 20.952C127.291 20.952 124.699 22.032 122.635 24.192C120.523 26.4 119.467 29.256 119.467 32.76Z" fill="white"></path><path d="M185.774 33.84H158.486C158.774 37.344 160.07 40.008 162.374 41.832C164.726 43.656 167.582 44.568 170.942 44.568C175.214 44.568 178.934 42.984 182.102 39.816C182.39 39.528 182.654 39.384 182.894 39.384C183.134 39.384 183.35 39.48 183.542 39.672L184.838 40.896C185.03 41.088 185.126 41.304 185.126 41.544C185.126 41.88 184.934 42.24 184.55 42.624C181.046 46.272 176.51 48.096 170.942 48.096C166.094 48.096 162.134 46.704 159.062 43.92C155.942 41.088 154.382 37.344 154.382 32.688C154.382 28.32 155.87 24.648 158.846 21.672C161.822 18.696 165.758 17.208 170.654 17.208C175.502 17.208 179.246 18.528 181.886 21.168C184.766 24.048 186.11 27.36 185.918 31.104L185.774 33.84ZM170.582 20.736C167.654 20.736 165.038 21.528 162.734 23.112C160.478 24.696 159.086 27.12 158.558 30.384H181.67C181.574 27.408 180.566 25.056 178.646 23.328C176.678 21.6 173.99 20.736 170.582 20.736Z" fill="white"></path><path d="M194.832 46.728L194.616 18.792C194.616 18.696 194.688 18.528 194.832 18.288C194.976 18.096 195.12 18 195.264 18H197.208C197.592 18 197.832 18.336 197.928 19.008L198.576 23.184H198.792C199.992 21.408 201.552 19.968 203.472 18.864C205.296 17.808 207.288 17.28 209.448 17.28C211.656 17.28 213.6 17.832 215.28 18.936C216.96 19.992 218.112 21.576 218.736 23.688H218.88C221.712 19.368 225.528 17.208 230.328 17.208C233.544 17.208 236.064 18.192 237.888 20.16C239.664 22.08 240.552 24.816 240.552 28.368V46.728C240.552 46.872 240.48 47.016 240.336 47.16C240.192 47.304 240.048 47.376 239.904 47.376H237.312C237.168 47.376 237.024 47.304 236.88 47.16C236.736 47.016 236.664 46.872 236.664 46.728V29.52C236.664 23.712 234.456 20.808 230.04 20.808C227.928 20.808 225.912 21.504 223.992 22.896C222.168 24.24 220.704 26.112 219.6 28.512V46.728C219.6 46.872 219.528 47.016 219.384 47.16C219.24 47.304 219.096 47.376 218.952 47.376H216.36C216.216 47.376 216.072 47.304 215.928 47.16C215.784 47.016 215.712 46.872 215.712 46.728V29.52C215.712 23.712 213.504 20.808 209.088 20.808C206.88 20.808 204.864 21.504 203.04 22.896C201.264 24.288 199.824 26.16 198.72 28.512V46.728C198.72 46.872 198.648 47.016 198.504 47.16C198.36 47.304 198.216 47.376 198.072 47.376H195.48C195.336 47.376 195.192 47.304 195.048 47.16C194.904 47.016 194.832 46.872 194.832 46.728Z" fill="white"></path><path d="M276.552 19.368L257.76 64.8C257.616 65.232 257.256 65.448 256.68 65.448H253.872C253.536 65.448 253.368 65.328 253.368 65.088C253.368 64.896 253.488 64.536 253.728 64.008L260.64 47.304L245.808 19.296C245.568 18.864 245.448 18.552 245.448 18.36C245.448 18.072 245.616 17.928 245.952 17.928H248.832C249.36 17.928 249.768 18.216 250.056 18.792L260.568 38.664L262.44 42.624H262.584L272.52 18.648C272.712 18.168 273.072 17.928 273.6 17.928H276.408C276.696 17.928 276.84 18.072 276.84 18.36C276.84 18.648 276.744 18.984 276.552 19.368Z" fill="white"></path></svg> 