<?xml version="1.0" encoding="UTF-8"?> <svg xmlns="http://www.w3.org/2000/svg" xmlns:xlink="http://www.w3.org/1999/xlink" xmlns:xodm="http://www.corel.com/coreldraw/odm/2003" xml:space="preserve" width="300mm" height="45.8981mm" version="1.1" style="shape-rendering:geometricPrecision; text-rendering:geometricPrecision; image-rendering:optimizeQuality; fill-rule:evenodd; clip-rule:evenodd" viewBox="0 0 1989.81 304.43"> <defs> <style type="text/css"> .fil0 {fill:#727271} </style> </defs> <g id="Слой_x0020_1"> <metadata id="CorelCorpID_0Corel-Layer"></metadata> <path class="fil0" d="M809.6 103.68l2.21 0 0 -6.62 2.21 0 0 -4.41 2.21 0 0 -4.41 2.21 0 0 -2.21 2.21 0 0 -2.21 2.21 0 0 -2.21 2.21 0 0 -2.21 2.21 0 0 -2.21 2.21 0 0 -2.21 4.41 0 0 -2.21 4.41 0 0 -2.21 6.62 0 0 -2.21 30.88 0 0 2.21 6.62 0 0 2.21 4.41 0 0 2.21 4.41 0 0 2.21 2.21 0 0 2.21 2.21 0 0 2.21 2.21 0 0 2.21 2.21 0 0 2.21 2.21 0 0 4.41 2.21 0 0 2.21 2.21 0 0 6.62 2.21 0 0 4.41 2.21 0 0 103.68 -2.21 0 0 2.21 -2.21 0 0 6.62 -2.21 0 0 4.41 -2.21 0 0 2.21 -2.21 0 0 4.41 -2.21 0 0 2.21 -2.21 0 0 2.21 -4.41 0 0 2.21 -2.21 0 0 2.21 -4.41 0 0 2.21 -4.41 0 0 2.21 -39.71 0 0 -2.21 -4.41 0 0 -2.21 -4.41 0 0 -2.21 -4.41 0 0 -2.21 -2.21 0 0 -2.21 -2.21 0 0 -2.21 -2.21 0 0 -2.21 -2.21 0 0 -4.41 -2.21 0 0 -2.21 -2.21 0 0 -6.62 -2.21 0 0 -4.41 -2.21 0 0 -103.68zm-83.83 28.68l0 6.62 4.41 0 0 -6.62 0 -4.41 2.21 0 0 -13.24 0 -6.62 2.21 0 0 -19.85 2.21 0 0 -17.65 57.36 0 0 167.66 -37.5 0 0 -90.45 -2.21 0 0 17.65 -2.21 0 0 15.44 -2.21 0 0 13.24 -2.21 0 0 17.65 -2.21 0 0 15.44 -2.21 0 0 11.03 -28.68 0 0 -4.41 -2.21 0 0 -19.85 -2.21 0 0 -17.65 -2.21 0 0 -4.41 -2.21 0 0 -15.44 -2.21 0 0 -15.44 -2.21 0 0 -13.24 -2.21 0 0 90.45 -37.5 0 0 -165.45 55.15 0 0 8.82 2.21 0 0 6.62 2.21 0 0 17.65 2.21 0 0 15.44 0 4.41 2.21 0 0 6.62zm774.3 15.44l-4.41 0 0 -6.62 -2.21 0 0 -19.85 -2.21 0 0 -11.03 -2.21 0 0 -11.03 -2.21 0 0 -17.65 -2.21 0 0 -6.62 0 -2.21 -52.94 0 0 163.24 35.3 0 0 -108.09 2.21 0 0 6.62 2.21 0 0 19.85 2.21 0 0 13.24 2.21 0 0 11.03 2.21 0 0 13.24 2.21 0 0 13.24 2.21 0 0 17.65 2.21 0 0 13.24 24.27 0 0 -15.44 2.21 0 0 -17.65 2.21 0 0 -13.24 2.21 0 0 -15.44 2.21 0 0 -11.03 2.21 0 0 -19.85 2.21 0 0 -8.82 2.21 0 0 -8.82 2.21 0 0 110.3 35.3 0 0 -163.24 -52.94 0 0 11.03 -2.21 0 0 13.24 -2.21 0 0 22.06 -2.21 0 0 19.85 -2.21 0 0 8.82zm264.72 11.03l0 -2.21 -11.03 0 0 -2.21 2.21 0 0 -2.21 13.24 0 0 -2.21 6.62 0 0 -2.21 2.21 0 0 -2.21 4.41 0 0 -4.41 2.21 0 0 -2.21 2.21 0 0 -4.41 2.21 0 0 -52.94 2.21 0 0 -4.41 2.21 0 0 -4.41 -35.3 0 0 2.21 -2.21 0 0 8.82 -2.21 0 0 6.62 -2.21 0 0 46.33 -2.21 0 0 2.21 -2.21 0 0 2.21 -2.21 0 0 2.21 -4.41 0 0 2.21 -6.62 0 0 -72.8 -37.5 0 0 163.24 37.5 0 0 -70.59 6.62 0 0 2.21 6.62 0 0 2.21 2.21 0 0 2.21 2.21 0 0 52.94 2.21 0 0 4.41 2.21 0 0 4.41 2.21 0 0 2.21 35.3 0 0 -2.21 -2.21 0 0 -4.41 -2.21 0 0 -57.36 -2.21 0 0 -4.41 -2.21 0 0 -2.21 -2.21 0 0 -2.21 -4.41 0 0 -2.21 -6.62 0 0 -2.21 -6.62 0zm-1738.32 66.18l0 -2.21 -4.41 0 0 -2.21 -2.21 0 0 -2.21 -4.41 0 0 2.21 2.21 0 0 2.21 2.21 0 0 2.21 2.21 0 0 2.21 2.21 0 0 2.21 4.41 0 0 2.21 2.21 0 0 2.21 4.41 0 0 2.21 4.41 0 0 2.21 4.41 0 0 2.21 4.41 0 0 2.21 8.82 0 0 2.21 4.41 0 0 2.21 52.94 0 0 -2.21 6.62 0 0 -2.21 4.41 0 0 -2.21 6.62 0 0 -2.21 4.41 0 0 -2.21 2.21 0 0 -2.21 4.41 0 0 -2.21 2.21 0 0 -2.21 2.21 0 0 -2.21 2.21 0 0 -2.21 2.21 0 0 -2.21 2.21 0 0 -2.21 2.21 0 0 -2.21 2.21 0 0 -2.21 2.21 0 0 -4.41 2.21 0 0 -4.41 2.21 0 0 -6.62 2.21 0 0 -30.88 -2.21 0 0 -4.41 -2.21 0 0 -4.41 -2.21 0 0 -2.21 -2.21 0 0 -2.21 -2.21 0 0 -2.21 -2.21 0 0 -2.21 -2.21 0 0 -2.21 -4.41 0 0 -2.21 -2.21 0 0 -2.21 -4.41 0 0 -2.21 -4.41 0 0 -2.21 -4.41 0 0 -2.21 -4.41 0 0 -2.21 -2.21 0 0 -2.21 -2.21 0 0 -2.21 -2.21 0 0 -4.41 -2.21 0 0 -24.27 2.21 0 0 -4.41 2.21 0 0 -4.41 2.21 0 0 -2.21 2.21 0 0 -4.41 2.21 0 0 -2.21 2.21 0 0 -2.21 4.41 0 0 -2.21 4.41 0 0 -2.21 4.41 0 0 -2.21 4.41 0 0 -2.21 8.82 0 0 -2.21 4.41 0 0 -2.21 11.03 0 0 -2.21 22.06 0 0 2.21 11.03 0 0 2.21 4.41 0 0 2.21 6.62 0 0 2.21 4.41 0 0 2.21 4.41 0 0 2.21 4.41 0 0 2.21 4.41 0 0 2.21 2.21 0 0 2.21 4.41 0 0 2.21 2.21 0 0 2.21 2.21 0 0 2.21 2.21 0 0 2.21 4.41 0 0 2.21 2.21 0 0 2.21 2.21 0 0 2.21 2.21 0 0 2.21 2.21 0 0 2.21 2.21 0 0 2.21 2.21 0 0 2.21 2.21 0 0 2.21 2.21 0 0 2.21 2.21 0 0 2.21 2.21 0 0 2.21 2.21 0 0 4.41 2.21 0 0 2.21 2.21 0 0 -4.41 -2.21 0 0 -4.41 -2.21 0 0 -4.41 -2.21 0 0 -2.21 -2.21 0 0 -4.41 -2.21 0 0 -2.21 -2.21 0 0 -4.41 -2.21 0 0 -2.21 -2.21 0 0 -2.21 -2.21 0 0 -4.41 -2.21 0 0 -2.21 -2.21 0 0 -2.21 -2.21 0 0 -2.21 -2.21 0 0 -2.21 -2.21 0 0 -2.21 -2.21 0 0 -2.21 -2.21 0 0 -2.21 -4.41 0 0 -2.21 -2.21 0 0 -2.21 -2.21 0 0 -2.21 -4.41 0 0 -2.21 -2.21 0 0 -2.21 -4.41 0 0 -2.21 -4.41 0 0 -2.21 -4.41 0 0 -2.21 -4.41 0 0 -2.21 -11.03 0 0 -2.21 -8.82 0 0 -2.21 -28.68 0 0 2.21 -17.65 0 0 2.21 -4.41 0 0 2.21 -4.41 0 0 2.21 -4.41 0 0 2.21 -4.41 0 0 2.21 -4.41 0 0 2.21 -2.21 0 0 2.21 -2.21 0 0 2.21 -2.21 0 0 2.21 -4.41 0 0 4.41 -2.21 0 0 2.21 -2.21 0 0 2.21 -2.21 0 0 2.21 -2.21 0 0 4.41 -2.21 0 0 2.21 -2.21 0 0 4.41 -2.21 0 0 8.82 -2.21 0 0 6.62 -2.21 0 0 19.85 2.21 0 0 6.62 2.21 0 0 2.21 2.21 0 0 4.41 2.21 0 0 2.21 2.21 0 0 2.21 2.21 0 0 2.21 2.21 0 0 2.21 2.21 0 0 2.21 2.21 0 0 2.21 2.21 0 0 2.21 2.21 0 0 2.21 2.21 0 0 2.21 4.41 0 0 2.21 2.21 0 0 2.21 2.21 0 0 2.21 2.21 0 0 2.21 2.21 0 0 2.21 2.21 0 0 2.21 2.21 0 0 2.21 2.21 0 0 2.21 2.21 0 0 6.62 2.21 0 0 13.24 -2.21 0 0 4.41 -2.21 0 0 2.21 -2.21 0 0 4.41 -2.21 0 0 2.21 -2.21 0 0 2.21 -4.41 0 0 2.21 -2.21 0 0 2.21 -2.21 0 0 2.21 -4.41 0 0 2.21 -4.41 0 0 2.21 -4.41 0 0 2.21 -6.62 0 0 2.21 -4.41 0 0 2.21 -8.82 0 0 2.21 -28.68 0 0 -2.21 -6.62 0 0 -2.21 -8.82 0 0 -2.21 -8.82 0 0 -2.21 -4.41 0 0 -2.21 -4.41 0 0 -2.21 -4.41 0zm-22.06 -72.8l0 -4.41 -2.21 0 0 -2.21 -2.21 0 0 17.65 2.21 0 0 4.41 2.21 0 0 6.62 2.21 0 0 4.41 2.21 0 0 4.41 2.21 0 0 2.21 2.21 0 0 2.21 2.21 0 0 2.21 2.21 0 0 2.21 2.21 0 0 2.21 2.21 0 0 2.21 4.41 0 0 2.21 2.21 0 0 2.21 4.41 0 0 2.21 4.41 0 0 2.21 4.41 0 0 2.21 6.62 0 0 2.21 4.41 0 0 2.21 13.24 0 0 2.21 17.65 0 0 -2.21 6.62 0 0 -2.21 2.21 0 0 -2.21 2.21 0 0 -2.21 2.21 0 0 -19.85 -2.21 0 0 -6.62 -2.21 0 0 -4.41 -2.21 0 0 -4.41 -2.21 0 0 -4.41 -2.21 0 0 -4.41 -2.21 0 0 -4.41 -2.21 0 0 -4.41 -2.21 0 0 -8.82 -2.21 0 0 -11.03 -2.21 0 0 -22.06 2.21 0 0 -8.82 2.21 0 0 -8.82 2.21 0 0 -4.41 2.21 0 0 -4.41 2.21 0 0 -2.21 2.21 0 0 -4.41 2.21 0 0 -2.21 2.21 0 0 -2.21 2.21 0 0 -4.41 2.21 0 0 -2.21 2.21 0 0 -2.21 2.21 0 0 -2.21 4.41 0 0 -2.21 2.21 0 0 -2.21 2.21 0 0 -2.21 2.21 0 0 -2.21 4.41 0 0 -2.21 2.21 0 0 -2.21 4.41 0 0 -2.21 4.41 0 0 -2.21 6.62 0 0 -2.21 4.41 0 0 -2.21 13.24 0 0 -2.21 33.09 0 0 2.21 8.82 0 0 2.21 13.24 0 0 2.21 6.62 0 0 2.21 4.41 0 0 2.21 4.41 0 0 2.21 4.41 0 0 2.21 6.62 0 0 2.21 2.21 0 0 2.21 4.41 0 0 2.21 4.41 0 0 2.21 4.41 0 0 2.21 2.21 0 0 2.21 4.41 0 0 -2.21 -2.21 0 0 -2.21 -2.21 0 0 -2.21 -2.21 0 0 -2.21 -2.21 0 0 -2.21 -2.21 0 0 -2.21 -2.21 0 0 -2.21 -4.41 0 0 -2.21 -2.21 0 0 -2.21 -4.41 0 0 -2.21 -4.41 0 0 -2.21 -4.41 0 0 -2.21 -4.41 0 0 -2.21 -4.41 0 0 -2.21 -6.62 0 0 -2.21 -6.62 0 0 -2.21 -15.44 0 0 -2.21 -35.3 0 0 2.21 -15.44 0 0 2.21 -6.62 0 0 2.21 -6.62 0 0 2.21 -4.41 0 0 2.21 -4.41 0 0 2.21 -4.41 0 0 2.21 -4.41 0 0 2.21 -2.21 0 0 2.21 -4.41 0 0 2.21 -2.21 0 0 2.21 -2.21 0 0 2.21 -2.21 0 0 2.21 -2.21 0 0 2.21 -2.21 0 0 2.21 -2.21 0 0 2.21 -2.21 0 0 4.41 -2.21 0 0 2.21 -2.21 0 0 4.41 -2.21 0 0 2.21 -2.21 0 0 4.41 -2.21 0 0 4.41 -2.21 0 0 4.41 -2.21 0 0 6.62 -2.21 0 0 4.41 -2.21 0 0 8.82 -2.21 0 0 4.41 -2.21 0 0 13.24 -2.21 0 0 6.62 -2.21 0 0 15.44 -2.21 0 0 6.62 -2.21 0 0 13.24 -2.21 0 0 6.62 -2.21 0 0 2.21 -8.82 0 0 -2.21 -4.41 0 0 -2.21 -4.41 0 0 -2.21 -2.21 0 0 -2.21 -4.41 0 0 -2.21 -2.21 0 0 -2.21 -2.21 0 0 -2.21 -2.21 0 0 -2.21 -4.41 0 0 -4.41 -2.21 0 0 -2.21 -2.21 0 0 -2.21zm1050.05 110.3l0 2.21 24.27 0 0 -59.56 -2.21 0 -6.62 0 0 -130.15 0 -2.21 -92.65 0 0 52.94 0 17.65 -2.21 0 0 19.85 -2.21 0 0 11.03 -2.21 0 0 11.03 -2.21 0 0 6.62 -2.21 0 0 4.41 -2.21 0 0 6.62 -2.21 0 0 2.21 -6.62 0 -2.21 0 0 59.56 28.68 0 0 -28.68 72.8 0 0 26.47zm-514 -94.86l-28.68 0 0 37.5 33.09 0 0 33.09 -75 0 0 -165.45 75 0 0 33.09 -33.09 0 0 30.88 28.68 0 0 30.88zm591.21 -17.65l-2.21 0 0 -77.21 -33.09 0 0 2.21 0 161.04 35.3 0 0 -8.82 2.21 0 0 -4.41 2.21 0 0 -11.03 2.21 0 0 -6.62 2.21 0 0 -4.41 2.21 0 0 -11.03 2.21 0 0 -6.62 2.21 0 0 -8.82 2.21 0 0 -6.62 2.21 0 0 -4.41 2.21 0 0 -8.82 2.21 0 0 81.62 33.09 0 0 -163.24 -33.09 0 0 6.62 -2.21 0 0 6.62 -2.21 0 0 6.62 -2.21 0 0 6.62 -2.21 0 0 6.62 -2.21 0 0 6.62 -2.21 0 0 6.62 -2.21 0 0 4.41 -2.21 0 0 6.62 -2.21 0 0 6.62 -2.21 0 0 6.62 -2.21 0 0 6.62zm-765.48 -44.12l0 -33.09 92.65 0 0 33.09 -24.27 0 0 132.36 -44.12 0 0 -132.36 -24.27 0zm1436.1 103.68l-2.21 0 0 13.24 -2.21 0 0 13.24 41.91 0 0 -28.68 22.06 0 0 28.68 41.91 0 0 -6.62 -2.21 0 0 -11.03 -2.21 0 0 -15.44 -2.21 0 0 -8.82 -2.21 0 0 -17.65 -2.21 0 0 -17.65 -2.21 0 0 -6.62 0 -4.41 -2.21 0 0 -13.24 -2.21 0 0 -17.65 -2.21 0 0 -11.03 -2.21 0 0 -15.44 -2.21 0 0 -17.65 -59.56 0 0 8.82 -2.21 0 0 8.82 0 11.03 -2.21 0 0 11.03 -2.21 0 0 22.06 -2.21 0 0 8.82 -2.21 0 0 24.27 -2.21 0 0 15.44 -2.21 0 0 11.03 -2.21 0 0 15.44zm-183.1 -63.97l-2.21 0 0 -72.8 -35.3 0 0 163.24 2.21 0 33.09 0 0 -4.41 2.21 0 0 -4.41 2.21 0 0 -6.62 2.21 0 0 -11.03 2.21 0 0 -4.41 2.21 0 0 -11.03 2.21 0 0 -6.62 2.21 0 0 -4.41 2.21 0 0 -11.03 2.21 0 0 -4.41 2.21 0 0 -8.82 2.21 0 0 -6.62 2.21 0 0 83.83 30.88 0 0 -163.24 -30.88 0 0 2.21 -2.21 0 0 6.62 -2.21 0 0 6.62 -2.21 0 0 8.82 -2.21 0 0 6.62 -2.21 0 0 6.62 -2.21 0 0 6.62 -2.21 0 0 6.62 -2.21 0 0 6.62 -2.21 0 0 4.41 -2.21 0 0 8.82 -2.21 0 0 2.21zm-1021.37 -2.21l11.03 0 0 -2.21 2.21 0 0 -2.21 2.21 0 0 -33.09 -2.21 0 0 -2.21 -2.21 0 0 -2.21 -11.03 0 0 41.91zm705.92 92.65l2.21 0 0 -163.24 -41.91 0 0 59.56 -15.44 0 0 -59.56 -39.71 0 0 163.24 2.21 0 37.5 0 0 -68.39 17.65 0 0 68.39 37.5 0zm-445.61 -136.77l-2.21 0 0 2.21 -2.21 0 0 108.09 2.21 0 0 2.21 8.82 0 0 -2.21 2.21 0 0 -108.09 -2.21 0 0 -2.21 -2.21 0 0 -2.21 -4.41 0 0 2.21zm-734.6 -88.24l-8.82 0 0 2.21 -8.82 0 0 2.21 -6.62 0 0 2.21 -6.62 0 0 2.21 -2.21 0 0 2.21 -4.41 0 0 2.21 -4.41 0 0 2.21 -4.41 0 0 2.21 -4.41 0 0 2.21 -4.41 0 0 2.21 -2.21 0 0 2.21 -4.41 0 0 2.21 -2.21 0 0 2.21 -2.21 0 0 2.21 -4.41 0 0 2.21 -2.21 0 0 2.21 -2.21 0 0 2.21 -2.21 0 0 2.21 -2.21 0 0 2.21 -2.21 0 0 2.21 -2.21 0 0 2.21 -2.21 0 0 2.21 -2.21 0 0 2.21 -2.21 0 0 2.21 -2.21 0 0 2.21 -2.21 0 0 2.21 -2.21 0 0 4.41 -2.21 0 0 2.21 -2.21 0 0 2.21 -2.21 0 0 4.41 -2.21 0 0 2.21 -2.21 0 0 11.03 11.03 0 0 -2.21 2.21 0 0 -2.21 2.21 0 0 -2.21 2.21 0 0 -2.21 2.21 0 0 -2.21 2.21 0 0 -2.21 2.21 0 0 -4.41 2.21 0 0 -2.21 2.21 0 0 -2.21 2.21 0 0 -2.21 2.21 0 0 -2.21 2.21 0 0 -2.21 2.21 0 0 -2.21 2.21 0 0 -2.21 2.21 0 0 -2.21 2.21 0 0 -2.21 2.21 0 0 -2.21 2.21 0 0 -2.21 2.21 0 0 -2.21 4.41 0 0 -2.21 2.21 0 0 -2.21 2.21 0 0 -2.21 4.41 0 0 -2.21 2.21 0 0 -2.21 4.41 0 0 -2.21 4.41 0 0 -2.21 2.21 0 0 -2.21 4.41 0 0 -2.21 4.41 0 0 -2.21 4.41 0 0 -2.21 8.82 0 0 -2.21 4.41 0 0 -2.21 4.41 0 0 -2.21 8.82 0 0 -2.21 8.82 0 0 -2.21 46.33 0 0 -2.21 -6.62 0 0 -2.21 -13.24 0 0 -2.21 -44.12 0 0 2.21zm1725.09 94.86l2.21 0 0 -11.03 2.21 0 0 17.65 2.21 0 0 17.65 2.21 0 0 26.47 2.21 0 0 13.24 2.21 0 0 11.03 -19.85 0 0 -8.82 2.21 0 0 -26.47 2.21 0 0 -28.68 2.21 0 0 -11.03zm-1614.79 110.3l-4.41 0 0 2.21 -2.21 0 0 2.21 -2.21 0 0 4.41 -2.21 0 0 2.21 -2.21 0 0 2.21 -2.21 0 0 4.41 -2.21 0 0 2.21 -2.21 0 0 2.21 -2.21 0 0 2.21 -2.21 0 0 2.21 -2.21 0 0 2.21 -2.21 0 0 2.21 -2.21 0 0 2.21 -2.21 0 0 2.21 -4.41 0 0 2.21 -2.21 0 0 2.21 -2.21 0 0 2.21 -2.21 0 0 2.21 -4.41 0 0 2.21 -2.21 0 0 2.21 -4.41 0 0 2.21 -2.21 0 0 2.21 -4.41 0 0 2.21 -4.41 0 0 2.21 -4.41 0 0 2.21 -4.41 0 0 2.21 -6.62 0 0 2.21 -6.62 0 0 2.21 -6.62 0 0 2.21 -4.41 0 0 2.21 -11.03 0 0 2.21 -15.44 0 0 2.21 8.82 0 0 2.21 39.71 0 0 -2.21 17.65 0 0 -2.21 4.41 0 0 -2.21 11.03 0 0 -2.21 2.21 0 0 -2.21 8.82 0 0 -2.21 4.41 0 0 -2.21 4.41 0 0 -2.21 4.41 0 0 -2.21 4.41 0 0 -2.21 4.41 0 0 -2.21 4.41 0 0 -2.21 2.21 0 0 -2.21 4.41 0 0 -2.21 2.21 0 0 -2.21 4.41 0 0 -2.21 2.21 0 0 -2.21 2.21 0 0 -2.21 2.21 0 0 -4.41 2.21 0 0 -6.62 2.21 0 0 -15.44 -2.21 0 0 -4.41 -2.21 0 0 -4.41 -2.21 0 0 -2.21 -2.21 0 0 -2.21 -8.82 0 0 2.21zm-108.09 44.12l0 2.21 -6.62 0 0 2.21 -13.24 0 0 2.21 -39.71 0 0 2.21 11.03 0 0 2.21 41.91 0 0 -2.21 4.41 0 0 -2.21 8.82 0 0 -2.21 6.62 0 0 -2.21 6.62 0 0 -2.21 4.41 0 0 -2.21 4.41 0 0 -2.21 4.41 0 0 -2.21 2.21 0 0 -2.21 4.41 0 0 -2.21 2.21 0 0 -2.21 4.41 0 0 -2.21 2.21 0 0 -2.21 2.21 0 0 -2.21 2.21 0 0 -2.21 2.21 0 0 -2.21 2.21 0 0 -4.41 2.21 0 0 -2.21 2.21 0 0 -2.21 2.21 0 0 -4.41 2.21 0 0 -4.41 2.21 0 0 -4.41 2.21 0 0 -4.41 2.21 0 0 -4.41 2.21 0 0 -8.82 2.21 0 0 -4.41 2.21 0 0 -6.62 2.21 0 0 -13.24 2.21 0 0 -8.82 2.21 0 0 -15.44 2.21 0 0 -13.24 2.21 0 0 -2.21 2.21 0 0 -2.21 15.44 0 0 2.21 4.41 0 0 2.21 4.41 0 0 2.21 2.21 0 0 2.21 2.21 0 0 2.21 2.21 0 0 2.21 2.21 0 0 2.21 2.21 0 0 2.21 2.21 0 0 4.41 2.21 0 0 4.41 2.21 0 0 2.21 2.21 0 0 4.41 2.21 0 0 6.62 2.21 0 0 6.62 2.21 0 0 4.41 2.21 0 0 13.24 2.21 0 0 11.03 2.21 0 0 4.41 2.21 0 0 -46.33 -2.21 0 0 -6.62 -2.21 0 0 -4.41 -2.21 0 0 -6.62 -2.21 0 0 -4.41 -2.21 0 0 -2.21 -2.21 0 0 -4.41 -2.21 0 0 -2.21 -2.21 0 0 -2.21 -2.21 0 0 -4.41 -2.21 0 0 -2.21 -2.21 0 0 -2.21 -2.21 0 0 -2.21 -4.41 0 0 -2.21 -2.21 0 0 -2.21 -2.21 0 0 -2.21 -2.21 0 0 -2.21 -4.41 0 0 -2.21 -4.41 0 0 -2.21 -4.41 0 0 -2.21 -2.21 0 0 -2.21 -6.62 0 0 -2.21 -4.41 0 0 -2.21 -6.62 0 0 -2.21 -4.41 0 0 -2.21 -13.24 0 0 -2.21 -13.24 0 0 2.21 -4.41 0 0 2.21 -2.21 0 0 4.41 -2.21 0 0 8.82 2.21 0 0 4.41 2.21 0 0 4.41 2.21 0 0 2.21 2.21 0 0 4.41 2.21 0 0 4.41 2.21 0 0 8.82 2.21 0 0 4.41 2.21 0 0 48.53 -2.21 0 0 11.03 -2.21 0 0 6.62 -2.21 0 0 4.41 -2.21 0 0 6.62 -2.21 0 0 2.21 -2.21 0 0 4.41 -2.21 0 0 4.41 -2.21 0 0 2.21 -2.21 0 0 2.21 -2.21 0 0 4.41 -2.21 0 0 2.21 -2.21 0 0 2.21 -2.21 0 0 2.21 -4.41 0 0 2.21 -2.21 0 0 2.21 -2.21 0 0 2.21 -4.41 0 0 2.21 -4.41 0 0 2.21 -4.41 0 0 2.21 -4.41 0 0 2.21 -4.41 0zm1233.15 -88.24l2.21 0 0 -24.27 2.21 0 0 -13.24 2.21 0 0 -22.06 2.21 0 0 -17.65 2.21 0 0 4.41 2.21 0 0 30.88 2.21 0 0 15.44 2.21 0 0 26.47 2.21 0 0 8.82 -19.85 0 0 -8.82zm-22.06 -81.62l-2.21 0 0 15.44 -2.21 0 0 19.85 -2.21 0 0 11.03 -2.21 0 0 11.03 -2.21 0 0 17.65 -2.21 0 0 22.06 -2.21 0 0 15.44 -2.21 0 0 11.03 -2.21 0 0 22.06 39.71 0 0 -28.68 22.06 0 0 28.68 41.91 0 0 -8.82 -2.21 0 0 -6.62 -2.21 0 0 -19.85 -2.21 0 0 -13.24 -2.21 0 0 -19.85 -2.21 0 0 -8.82 -2.21 0 0 -11.03 -2.21 0 0 -22.06 -2.21 0 0 -15.44 -2.21 0 0 -13.24 -2.21 0 0 -15.44 -2.21 0 0 -8.82 -59.56 0 0 17.65zm-333.11 110.3l2.21 0 0 -11.03 2.21 0 0 -11.03 2.21 0 0 -22.06 2.21 0 0 -17.65 2.21 0 0 -37.5 15.44 0 0 103.68 -26.47 0 0 -4.41zm908.87 39.71l0 2.21 -4.41 0 0 2.21 -2.21 0 0 2.21 -2.21 0 0 2.21 -4.41 0 0 2.21 -2.21 0 0 2.21 -4.41 0 0 2.21 -4.41 0 0 2.21 -4.41 0 0 2.21 -4.41 0 0 2.21 -4.41 0 0 2.21 -6.62 0 0 2.21 -11.03 0 0 2.21 -11.03 0 0 2.21 -911.08 0 0 -236.04 913.28 0 0 2.21 15.44 0 0 2.21 4.41 0 0 2.21 8.82 0 0 2.21 4.41 0 0 2.21 4.41 0 0 2.21 4.41 0 0 2.21 4.41 0 0 2.21 4.41 0 0 2.21 2.21 0 0 2.21 2.21 0 0 2.21 4.41 0 0 2.21 2.21 0 0 2.21 2.21 0 0 2.21 2.21 0 0 2.21 2.21 0 0 2.21 2.21 0 0 2.21 2.21 0 0 2.21 2.21 0 0 2.21 2.21 0 0 2.21 2.21 0 0 4.41 2.21 0 0 2.21 2.21 0 0 4.41 2.21 0 0 2.21 2.21 0 0 4.41 2.21 0 0 4.41 2.21 0 0 4.41 2.21 0 0 4.41 2.21 0 0 8.82 2.21 0 0 8.82 2.21 0 0 13.24 2.21 0 0 24.27 -2.21 0 0 17.65 -2.21 0 0 6.62 -2.21 0 0 4.41 -2.21 0 0 6.62 -2.21 0 0 4.41 -2.21 0 0 4.41 -2.21 0 0 2.21 -2.21 0 0 4.41 -2.21 0 0 4.41 -2.21 0 0 2.21 -2.21 0 0 2.21 -2.21 0 0 2.21 -2.21 0 0 4.41 -2.21 0 0 2.21 -2.21 0 0 2.21 -2.21 0 0 2.21 -2.21 0 0 2.21 -2.21 0zm-1266.24 -86.03l-2.21 0 0 4.41 -2.21 0 0 2.21 -2.21 0 0 2.21 -2.21 0 0 2.21 -2.21 0 0 2.21 -4.41 0 0 2.21 -8.82 0 0 2.21 -24.27 0 0 66.18 -41.91 0 0 -167.66 66.18 0 0 2.21 2.21 0 0 2.21 6.62 0 0 2.21 4.41 0 0 2.21 2.21 0 0 2.21 2.21 0 0 2.21 2.21 0 0 2.21 2.21 0 0 4.41 2.21 0 0 4.41 2.21 0 0 52.94 -2.21 0 0 6.62zm-211.78 -152.21l-8.82 0 0 2.21 -8.82 0 0 2.21 -13.24 0 0 2.21 -6.62 0 0 2.21 -4.41 0 0 2.21 -4.41 0 0 2.21 -4.41 0 0 2.21 -4.41 0 0 2.21 -4.41 0 0 2.21 -4.41 0 0 2.21 -2.21 0 0 2.21 -4.41 0 0 2.21 -2.21 0 0 2.21 -2.21 0 0 2.21 -4.41 0 0 2.21 -2.21 0 0 2.21 -2.21 0 0 2.21 -2.21 0 0 2.21 -2.21 0 0 2.21 -2.21 0 0 2.21 -2.21 0 0 2.21 -2.21 0 0 2.21 -2.21 0 0 2.21 -2.21 0 0 2.21 -2.21 0 0 2.21 -2.21 0 0 4.41 -2.21 0 0 2.21 -2.21 0 0 2.21 -2.21 0 0 4.41 -2.21 0 0 2.21 -2.21 0 0 4.41 -2.21 0 0 4.41 -2.21 0 0 4.41 -2.21 0 0 4.41 -2.21 0 0 4.41 -2.21 0 0 8.82 -2.21 0 0 2.21 -2.21 0 0 8.82 -2.21 0 0 13.24 -2.21 0 0 55.15 2.21 0 0 4.41 2.21 0 0 11.03 2.21 0 0 4.41 2.21 0 0 6.62 2.21 0 0 4.41 2.21 0 0 6.62 2.21 0 0 2.21 2.21 0 0 4.41 2.21 0 0 4.41 2.21 0 0 4.41 2.21 0 0 2.21 2.21 0 0 2.21 2.21 0 0 4.41 2.21 0 0 2.21 2.21 0 0 2.21 2.21 0 0 2.21 2.21 0 0 4.41 2.21 0 0 2.21 2.21 0 0 2.21 2.21 0 0 2.21 2.21 0 0 2.21 4.41 0 0 2.21 2.21 0 0 2.21 2.21 0 0 2.21 2.21 0 0 2.21 2.21 0 0 2.21 4.41 0 0 2.21 2.21 0 0 2.21 4.41 0 0 2.21 2.21 0 0 2.21 4.41 0 0 2.21 4.41 0 0 2.21 4.41 0 0 2.21 4.41 0 0 2.21 6.62 0 0 2.21 4.41 0 0 2.21 6.62 0 0 2.21 8.82 0 0 2.21 15.44 0 0 2.21 1427.28 0 0 -2.21 8.82 0 0 -2.21 11.03 0 0 -2.21 4.41 0 0 -2.21 6.62 0 0 -2.21 6.62 0 0 -2.21 4.41 0 0 -2.21 4.41 0 0 -2.21 4.41 0 0 -2.21 4.41 0 0 -2.21 2.21 0 0 -2.21 4.41 0 0 -2.21 2.21 0 0 -2.21 4.41 0 0 -2.21 2.21 0 0 -2.21 2.21 0 0 -2.21 2.21 0 0 -2.21 4.41 0 0 -2.21 2.21 0 0 -2.21 2.21 0 0 -2.21 2.21 0 0 -2.21 2.21 0 0 -2.21 2.21 0 0 -2.21 2.21 0 0 -4.41 2.21 0 0 -2.21 2.21 0 0 -2.21 2.21 0 0 -2.21 2.21 0 0 -4.41 2.21 0 0 -2.21 2.21 0 0 -4.41 2.21 0 0 -4.41 2.21 0 0 -2.21 2.21 0 0 -4.41 2.21 0 0 -4.41 2.21 0 0 -6.62 2.21 0 0 -4.41 2.21 0 0 -8.82 2.21 0 0 -4.41 2.21 0 0 -13.24 2.21 0 0 -13.24 2.21 0 0 -30.88 -2.21 0 0 -8.82 -2.21 0 0 -13.24 -2.21 0 0 -6.62 -2.21 0 0 -6.62 -2.21 0 0 -4.41 -2.21 0 0 -4.41 -2.21 0 0 -4.41 -2.21 0 0 -4.41 -2.21 0 0 -4.41 -2.21 0 0 -4.41 -2.21 0 0 -2.21 -2.21 0 0 -4.41 -2.21 0 0 -2.21 -2.21 0 0 -4.41 -2.21 0 0 -2.21 -2.21 0 0 -2.21 -2.21 0 0 -2.21 -2.21 0 0 -2.21 -2.21 0 0 -2.21 -2.21 0 0 -2.21 -2.21 0 0 -2.21 -2.21 0 0 -2.21 -2.21 0 0 -2.21 -2.21 0 0 -2.21 -2.21 0 0 -2.21 -2.21 0 0 -2.21 -2.21 0 0 -2.21 -4.41 0 0 -2.21 -2.21 0 0 -2.21 -4.41 0 0 -2.21 -2.21 0 0 -2.21 -4.41 0 0 -2.21 -4.41 0 0 -2.21 -4.41 0 0 -2.21 -4.41 0 0 -2.21 -4.41 0 0 -2.21 -6.62 0 0 -2.21 -4.41 0 0 -2.21 -6.62 0 0 -2.21 -15.44 0 0 -2.21 -8.82 0 0 -2.21 -1418.45 0 0 2.21z"></path> </g> </svg> 