<?xml version="1.0" encoding="UTF-8"?> <svg xmlns="http://www.w3.org/2000/svg" xmlns:xlink="http://www.w3.org/1999/xlink" xmlns:xodm="http://www.corel.com/coreldraw/odm/2003" xml:space="preserve" width="300mm" height="108.424mm" version="1.1" style="shape-rendering:geometricPrecision; text-rendering:geometricPrecision; image-rendering:optimizeQuality; fill-rule:evenodd; clip-rule:evenodd" viewBox="0 0 1989.81 719.14"> <defs> <style type="text/css"> .fil0 {fill:#727271;fill-rule:nonzero} </style> </defs> <g id="Слой_x0020_1"> <metadata id="CorelCorpID_0Corel-Layer"></metadata> <g id="_2062904407008"> <path class="fil0" d="M6.76 649.58l-6.76 24.64 48.79 0 0 -21.26 14.01 -241.06 125.12 -6.28 -12.08 241.54 -6.28 25.6 55.07 0 -5.8 -24.64 10.63 -251.68 7.73 -31.88 -215.45 11.11 0 21.26 -14.98 252.65zm477.28 34.78l3.86 15.94 52.17 0 -15.46 -30.92 -108.21 -332.84 -161.35 372.94c18.68,-9.02 33.17,-16.26 43.48,-21.74 12.88,-7.09 25.2,-13.93 36.95,-20.53 11.76,-6.6 23.43,-13.04 35.02,-19.32 11.59,-6.28 23.19,-12.72 34.78,-19.32 11.59,-6.6 23.67,-13.45 36.23,-20.53 4.51,-2.58 9.98,-4.67 16.43,-6.28l26.09 82.61zm-141.06 -70.53l68.11 -156.52 32.37 100.48c-4.51,2.58 -11.43,6.44 -20.77,11.59 -9.34,5.15 -19.16,10.63 -29.47,16.43 -10.31,5.8 -20.13,11.35 -29.47,16.66 -9.34,5.32 -16.26,9.1 -20.77,11.35zm288.88 -50.24l14.01 -20.29 74.88 -73.43 -160.38 -121.25 12.08 323.18 -5.8 24.15 54.59 0 -5.8 -24.64 -4.83 -130.91 21.26 23.19zm-21.26 -125.12l44.93 35.26 -44.93 39.13 0 -74.39zm278.25 124.63l14.01 -20.29 74.88 -73.43 -114.49 -104.34 0 -15.46 -15.94 0.97 -0.97 13.04 -122.22 106.28 74.88 73.43 14.01 20.29 21.26 -23.19 -4.83 130.91 -5.8 24.64 54.59 0 -12.08 -155.07 22.7 22.22zm-55.07 -124.63l0 74.39 -44.93 -39.13 44.93 -35.26zm34.3 -0.48l44.93 35.26 -45.41 36.23 0.48 -71.5zm270.52 244.44l13.53 21.26 37.2 -37.68 -19.81 -13.04 -106.76 -121.25 85.5 2.9 25.12 5.8 0 -55.07 -25.12 6.28 -83.57 5.31 106.28 -103.38 20.77 -14.01 -37.2 -37.2 -13.53 20.77 -158.45 148.31c23.51,25.12 48.31,52.25 74.39,81.4 26.09,29.15 53.3,59.02 81.64,89.61zm85.02 -32.85l-6.76 24.64 48.79 0 0 -21.26 7.24 -115.94 125.6 -20.77 -5.8 130.91 -6.28 25.6 55.07 0 -5.8 -24.64 10.63 -251.68 6.28 -25.12 -55.07 0 5.8 24.16 -2.9 75.36 -124.63 21.26 5.8 -90.82 6.28 -25.6 -49.27 0 0 21.26 -14.98 252.65zm387.91 69.56l124.15 -215.94 -141.54 -176.32 -122.7 173.91 140.09 218.35zm-88.4 -216.9l72.95 -104.34 88.4 109.18 -74.88 128.98 -86.47 -133.81zm237.68 147.34l-6.76 24.64 48.79 0 0 -21.26 7.24 -115.94 125.6 -20.77 -5.8 130.91 -6.28 25.6 55.07 0 -5.8 -24.64 10.63 -251.68 6.28 -25.12 -55.07 0 5.8 24.16 -2.9 75.36 -124.63 21.26 5.8 -90.82 6.28 -25.6 -49.27 0 0 21.26 -14.98 252.65z"></path> <path class="fil0" d="M798.91 227.47l8.22 12.2 21.84 -21.84 -11.63 -7.94 -77.43 -85.94 64.1 -72.89 11.91 -7.94 -21.56 -21.84 -8.23 12.76 -62.68 70.34 0 -55.88 3.69 -14.75 -32.62 0 3.4 14.75 0 154.01 -3.4 14.75 32.62 0 -3.69 -14.75 0 -59.28 75.45 84.24zm120.83 18.44l72.89 -126.78 -83.1 -103.53 -72.04 102.11 82.25 128.2zm-51.9 -127.35l42.83 -61.26 51.9 64.1 -43.96 75.73 -50.77 -78.57zm139.55 81.12l-8.79 8.79 21.27 21.27 7.94 -15.32 43.11 -58.99 34.6 58.71 3.4 13.9 30.07 -15.03 -11.63 -11.35 -40.28 -68.07 53.04 -72.04 8.23 -8.51 -20.99 -21.56 -7.66 15.6 -46.23 63.25 -25.24 -42.26 -3.4 -13.9 -30.06 14.75 11.63 11.63 30.63 51.62 -49.64 67.5zm183.51 -25.24l-3.4 -97.29 3.4 -18.44 -32.62 0 3.97 14.46 6.81 188.33 97.57 -167.91 0 94.45 -3.69 14.47 32.33 0 -2.27 -14.47 0 -188.05 -102.11 174.43z"></path> </g> </g> </svg> 