<?xml version="1.0" encoding="UTF-8"?> <svg xmlns="http://www.w3.org/2000/svg" xmlns:xlink="http://www.w3.org/1999/xlink" xmlns:xodm="http://www.corel.com/coreldraw/odm/2003" xml:space="preserve" width="300mm" height="137.466mm" version="1.1" style="shape-rendering:geometricPrecision; text-rendering:geometricPrecision; image-rendering:optimizeQuality; fill-rule:evenodd; clip-rule:evenodd" viewBox="0 0 1989.81 911.77"> <defs> <style type="text/css"> .fil0 {fill:#727271} </style> </defs> <g id="Слой_x0020_1"> <metadata id="CorelCorpID_0Corel-Layer"></metadata> <g id="_2062173451872"> <path class="fil0" d="M661.54 560.74c-0.66,2.7 -0.02,0.86 -0.81,1.46 -0.22,2.95 -5.15,16.47 -6.53,17.58 -0.91,2.98 -2.66,7.74 -5.16,9.76 0,2.07 -1,2.93 -2.08,4.73 -1.14,1.9 -1.87,2.89 -3.09,4.79 -0.71,0.96 0.04,-0.3 -0.76,1.18 -0.76,1.41 -0.17,0.09 -0.87,1.82 -0.56,0.28 -5.87,7.14 -6.83,8.38 -5.19,6.7 -13.66,14.61 -20.5,19.72l-3.43 2.54c-1.12,0.66 -0.55,0.34 -1.31,0.61 -0.86,1.07 0.42,0.13 -1.2,1.22 -0.83,0.55 -0.41,0.38 -1.56,0.67 -1.02,1.51 -3.76,2.78 -5.41,3.77 -1.06,0.63 -4.9,2.63 -5.4,3.29l-18.24 7.84c-2.94,1.11 -6.54,2.27 -9.47,3.03l-10.54 2.5c-38.67,8.99 -81.08,-0.97 -116.42,-17.36 -1.65,-0.77 -2.69,-1.36 -4.35,-2.17 -1.88,-0.92 -2.65,-1.17 -3.97,-2.81 -2.38,-0 -4.72,-1.85 -6.56,-2.96 -2.19,-1.32 -3.91,-2.37 -6.22,-3.83 -1.02,-0.37 -1.17,-0.57 -2.23,-1.26 -1.84,-1.21 -1.47,-0.61 -2.38,-2.27 -1.7,-0.05 -0.46,0.28 -2.19,-0.78 -0.77,-0.47 -0.99,-0.7 -1.94,-1.34 -1.58,-1.06 -2.92,-1.75 -4.3,-3.05l-1.31 -1.21c-0.08,-0.08 -0.23,-0.24 -0.29,-0.31 -0.07,-0.07 -0.2,-0.21 -0.3,-0.32l-3.41 -3.17c1.81,-3.55 3.84,-10.45 5.57,-13.18 0.22,-2.07 28.54,-71.88 31.6,-79.52l4.05 -10.09c0.91,-1.59 -0.03,-0.38 1.02,-1.4 0,-2.07 1.15,-4.06 1.91,-5.98l5.8 -14.85c0.34,-0.82 0.35,-0.86 0.66,-1.5l0.57 -1.03c1,2.02 5.72,13.49 5.72,15.22 0.99,0.8 0.18,-0.02 0.91,0.93 0.3,0.4 0.62,0.95 0.85,1.39 0.65,1.25 0.91,1.78 1.22,3.16l2.5 4c1.25,1.79 1.67,2.17 2.13,4.1 3.29,2.67 7.22,11.35 20.4,14.1 10.13,2.11 22.03,-1.89 24.98,-9.22 4.39,-3.38 7.05,-19.85 7.04,-28.28 -0,-3.43 0.59,-4.51 0.58,-8.12l-0.01 -244.51 147.5 -0c-0.98,5.03 -0.22,263.28 -0.25,287.45 -0.01,5.53 -1.25,13.82 -2.03,18.61 -0.9,5.54 -2.17,11.88 -3.69,16.67zm748.48 -276.97l-21.58 56.53c-1.51,3.75 -5.63,15.89 -7.16,18.31 -1.42,5.01 -4.53,11.07 -5.49,15.23l-11.13 -7.07 -17.47 -9.43c-2.09,-1.04 -3.85,-1.75 -6.01,-2.68 -4.6,-1.97 -7.99,-3.23 -13,-4.94l-11.72 -3.51c-1.36,-0.55 -0.67,-0.1 -1.51,-0.9 -2.32,0.4 -22.92,-4.66 -37.19,-1.59 -4.29,0.92 -8.61,2.85 -10.12,2.67 -2.07,2.55 -11.37,5.06 -11.44,17.65 -0.05,9.73 5.69,13.45 13,15.85 12.48,4.09 21.93,5.57 34.85,8.62 2.52,0.59 9.59,1.81 11.31,2.7 3.79,0.29 9.07,1.99 12.92,2.95 1.74,0.43 10.2,2.39 11.36,3.59 2.82,0.2 9.05,2.57 11.41,3.8 1.57,0.17 12.55,4.7 14.33,6.16l0.61 0.63c1.77,-0 1.89,0.28 3.26,1.22 2.49,0.89 4.29,2.22 6.43,3.51 1.1,0.66 1.9,1.12 3.07,1.81 2.17,1.28 1.41,0.25 2.46,2.16 1.69,0.04 0.5,-0.29 2.2,0.78 0.75,0.48 0.83,0.66 1.54,1.2 1.21,0.93 2.22,1.69 3.33,2.61 2.55,1.79 5.26,3.9 7.47,6.15 1.44,1.47 2.62,1.98 3.79,3.27 0.86,0.95 0.55,0.84 1.39,1.85 0.64,0.77 0.97,1.02 1.75,1.8 5.92,5.96 11.09,13.63 14.97,21.19 0.08,0.15 0.3,0.58 0.37,0.72 6.83,13.69 11.55,29.65 11.55,47.36 0.62,0.66 0.1,-0.66 0.44,0.97 0.13,0.64 0.14,1.29 0.15,1.95 0.09,6.78 -1.17,21.86 -1.98,27.46 -1.37,9.48 -3.91,18.43 -6.83,26.31 -6.76,18.19 -14.18,27.42 -25.38,41.45 -12.85,16.08 -42.29,33.55 -59.54,40.44 -9.57,3.83 -27.91,9.78 -38.41,11.58 -11.84,2.02 -16.58,2.94 -29.24,3.9 -4.23,0.32 -11.76,0.16 -16.03,0.82l-15.53 -0.31c-11.35,0.06 -33.8,-3.11 -45.48,-5.05 -15.31,-2.54 -39.09,-8.39 -53.61,-13.22 -11.89,-3.96 -24.7,-8.73 -36.02,-13.97 -2.13,-0.99 -3.3,-1.71 -5.53,-2.62 -1.95,-0.79 -3.94,-2.14 -6.05,-2.65 2.08,-3.83 3.93,-9.82 5.74,-14.33l29.03 -73.67c0.69,-1.75 10.73,-27.83 11.95,-29.33 4.29,2.88 11.6,9.21 17.7,13.26 6.54,4.34 11.97,8.06 19.05,11.92 22.87,12.47 64.58,27.57 90.99,12.35 1.81,-1.05 3.29,-2.11 4.86,-3.29 9.23,-6.92 10,-24.44 -1.81,-30.84 -4.15,-2.25 -6.6,-2.76 -11.24,-4.24 -7.52,-1.68 -14.35,-2.86 -22.06,-4.31 -3.96,-0.74 -7.28,-1.24 -11.05,-1.99l-10.36 -2.25c-2.14,0.2 -17.71,-3.2 -21.21,-4.73 -0.94,-0.41 -0.51,-0.21 -0.94,-0.58 -3.8,-0.3 -8.99,-2.57 -12.08,-3.81 -21.15,-8.48 -31.93,-15.41 -47.14,-30.56 -16.9,-16.84 -26.82,-42.45 -26.76,-66.69 0.03,-11.42 0.5,-19.55 2.01,-28.96l6.62 -24.27 5.14 -12.32c0.67,-1.12 0.27,-0.54 0.9,-1.27 0.5,-2.11 2.18,-5.53 4.07,-7.05 0,-1.82 3.02,-6.52 4.63,-8.03 0.9,-1.95 0.03,-1.18 1.62,-2.26 0.84,-3.28 16.94,-21.39 19.57,-22.74l2.86 -2.71c1.08,-1.08 1.55,-1.65 2.8,-2.63 17.64,-13.8 19.95,-15.09 38.9,-24.68 2.33,-1.18 4.64,-2.17 7.08,-3.25 14.58,-6.43 42.22,-14.08 59.22,-15.21 2.83,-0.19 6.58,-0.35 9.53,-0.79 6.52,-0.97 14.07,-0.32 20.87,-0.32 11.13,0 10.39,0.53 20.12,1.08 12.1,0.68 25.65,3.47 36.28,6.09 9.67,2.38 15.56,4.34 24.49,7.57 6.11,2.21 30.51,12.35 35.3,16.43l0.62 0.62c1.82,-0 2.86,1.03 4.32,1.94 1.38,0.85 2.49,1.7 4.37,2.15 -1.13,2.32 -2.31,5.73 -3.19,8.18l-3.33 8.22zm415.68 37.09c-0.02,0.03 -0.57,0.71 -0.58,0.72 -0.03,0.03 -0.22,0.27 -0.25,0.19 -0.03,-0.08 -0.17,0.12 -0.26,0.18 -1.13,2.77 -2.1,3.97 -3.7,6.35 -1.35,2 -2.21,3.6 -3.58,5.66 -2.6,3.89 -4.66,7.51 -7.4,11.22 -1.16,1.86 -2.05,3.48 -3.26,5.29 -1.07,1.6 -2.26,3.29 -3.23,4.92l-6.32 9.76c-0.61,1.31 -3.25,5.37 -4.02,5.99 -0.74,1.8 -0.04,0.21 -0.84,1.8 -0.15,0.3 -0.49,0.86 -0.51,0.9 -1.14,1.39 -8.36,12.36 -9.51,15.23 -1.26,0.63 -3.91,5.57 -4.89,7.06l-3.83 5.92c-0.72,1.35 -0.39,0.56 -1.06,2.23 -1.45,0.74 -5.09,7.93 -7.06,10.05 -0.3,0.84 -0.17,0.58 -0.68,1.25 -1.01,1.32 -0.28,0.42 -1.22,1.18 -0.04,1.54 -0.48,1.75 -1.46,3.17 -0.69,1 -1.05,1.5 -1.76,2.59 -1.32,2.02 -1.92,3.6 -3.58,5.39 -0.39,1.08 -1.08,1.84 -1.72,2.88 -1.22,1.99 -0.47,1.78 -2.35,2.82 -0.04,1.56 -0.46,1.72 -1.47,3.15 -0.84,1.21 -1.15,1.41 -1.53,2.84 0.19,1.67 14.41,20.93 15.75,24.13 0.4,0.31 0.17,0.07 0.72,0.63 0.03,0.03 0.16,0.33 0.19,0.25 0.02,-0.08 0.11,0.17 0.17,0.26 9.57,14.93 21.52,31.76 31.63,46.9 2.71,4.06 5.08,7.62 7.82,11.74l86.61 128.54 -174.94 0.01 -24.48 -42.91c-16.1,-28 -32.59,-58.17 -49.05,-85.71 -7,-11.72 -12.49,-19.48 -18.67,-31.86 -3.39,-6.78 -2.69,-7.88 -4.39,-12.87l-2.87 -0 1.06 43.51c0.53,6.42 0.06,15.56 0.02,22.25 -0.02,4.14 0.58,6.04 0.55,10.31 -0.08,15.25 0.26,38.55 1.08,53.8 0.38,7.02 -0.03,15.15 -0.02,22.3 0.01,3.67 0.57,6.04 0.56,10.3 -0.01,3.62 -0,7.24 -0,10.87l-143.33 0c-1.19,0 -2.85,-0.26 -3.9,0.27l0 -414.3 147.23 -0c0.16,22.57 -1.08,45.41 -1.08,68.46 0,6.18 -0.55,10.25 -0.55,16.3 0,5.8 -0.01,11.6 0.01,17.4 0.01,3.6 -0.57,4.68 -0.57,8.12 -0.01,5.98 0.88,22.93 -0.53,25.82 0,14.94 -0.53,28.81 -0.54,43.21 3.12,-0.01 2.9,0.37 3.56,-2.44 0.29,-1.25 0.47,-3.41 1.62,-4.61 -0.71,-5.93 15.8,-35.01 19.3,-40.49l0 -0.82c1.21,-0.93 5.81,-10.77 7.61,-13.14l0.81 -2.06c2.88,-3.54 5.34,-11.17 7.88,-13.42 0.37,-1.82 0.63,-1.99 1.35,-3.43l5.62 -9.93c0.73,-0.96 -0.1,-0.13 0.9,-0.94 0,-1.61 2.74,-6.18 3.66,-7.06 0.24,-1.61 1.84,-4.09 2.77,-5.81 0.71,-1.33 0.88,-1.44 1.61,-2.73 0.7,-1.23 0.62,-1.36 1.47,-2.34 0.44,-1.89 1.15,-2.49 2.18,-4.08l35.86 -66.01 164.61 0.01 -33.36 51.91c-1.31,1.96 -2.07,3.37 -3.36,5.34l-16.53 25.59zm-957.13 -64.91l8.65 20.41c2.92,6.95 5.66,13.31 8.61,20.19 1.29,3.01 16.83,38.56 17.11,40.91l3.93 8.69 4.37 0c0.26,-3.16 6.86,-21.34 8.22,-25.47 0.81,-2.45 1.78,-5.43 2.91,-7.67 0.73,-2.47 2.06,-5.47 3.01,-7.6 0.97,-2.19 2,-5 3.11,-7.07 0.74,-2.08 0.84,-1.36 1.23,-3.82 1.27,-0.97 7.04,-16.13 8.69,-19.28 0.36,-1.17 0.89,-2.24 1.35,-3.52l11.07 -25.63c0.99,-2.4 2.3,-6.24 3.87,-8.07l168.98 0c-0.55,2.22 -0.08,0.55 -1.04,2.21l-3.68 6.09c-1.7,2.84 -3.05,4.9 -4.75,7.74 -3.28,5.49 -6.09,10.31 -9.54,15.72 -0.38,1.07 -0.92,1.6 -1.49,2.43l-5.45 9.37c-0.07,0.12 -0.79,1.23 -0.86,1.32 -0.92,1.11 -0.04,0.43 -1.16,1.01 -0.27,1.51 -0.05,0.97 -0.82,2.44 -0.39,0.74 -0.59,0.91 -1.05,1.67 -1.43,2.33 -4.67,9.11 -6.82,10.29 0,1.85 -1.06,2.86 -2.15,4.66 -1.01,1.66 -1.67,2.76 -2.65,4.41 -1.76,2.95 -3.29,5.65 -5.12,8.32l-7.47 11.96c-0.58,2.5 -3.69,6.67 -5.2,9.21 -1.74,2.92 -3.46,5.78 -5.3,8.83l-8.15 13.58c-1.09,1.81 -1.38,2.75 -2.95,4.24 -0.28,1.87 -1.66,3.42 -2.56,4.93l-13.64 22.76c-1.77,2.95 -3.4,5.86 -5.4,9l-1.48 2.12c-0.04,-0.09 -0.18,0.22 -0.28,0.31 -1.02,2.66 -4.04,7.46 -5.85,9.92 -0.31,1.02 -0.56,1.41 -1.26,2.38 -0.29,0.4 -0.43,0.57 -0.77,0.94 -0.69,0.75 -0.13,0.21 -0.95,0.88 -0.04,1.45 -0.33,1.52 -1.17,2.91 -0.7,1.16 -0.76,1.2 -1.45,2.36 -0.93,1.56 -1.88,3.58 -3.09,4.63 -0.51,1.96 -3.74,6.73 -4.86,8.61 -1.74,2.9 -3.3,5.48 -5.09,8.49 -1.8,3.03 -3.28,5.46 -5.09,8.49 -1.43,2.4 -3.49,6.48 -5.32,7.97 -0.04,1.44 -0.33,1.52 -1.17,2.91 -0.7,1.16 -0.76,1.2 -1.46,2.36 -0.97,1.63 -1.83,3.45 -3.09,4.79 -0.76,2.45 -1.33,1.4 -1.62,4.08 -0.6,5.53 0,172.48 0,177.69l-147.8 0c0,-57.46 -0.5,-117.09 0.01,-174.43 0.03,-3.12 0.31,-3.44 -0.95,-5.57l-6.66 -11 -5.97 -9.51c-1.02,-1.55 -1.85,-2.97 -2.89,-4.72 -0.97,-1.63 -2.03,-2.84 -2.69,-4.52l-25.94 -42.13c-1.19,-1.81 -1.83,-3.08 -2.95,-4.91 -0.99,-1.62 -1.94,-2.49 -2.49,-4.3 -1.14,-1.23 -2.89,-4.09 -3.26,-5.73 -1.45,-1.03 -2.16,-2.77 -3.16,-4.42 -0.99,-1.64 -2.18,-3.22 -2.55,-4.8l-2.44 -3.78c-1.79,-1.43 -4.79,-8.48 -6.52,-9.79 -0.7,-1.74 -0.06,-0.38 -0.88,-1.82 -0.36,-0.65 -0.53,-0.82 -0.67,-1.04 -0.69,-1.11 -0.78,-0.98 -1.17,-2.47 -1.35,-1.17 -2.64,-3.96 -3.7,-5.65 -1.05,-1.66 -2.86,-4.02 -3.4,-5.88l-0.51 -0.81c-1.97,-2.12 -12.77,-20.76 -15.54,-24.95l-15.06 -24.6c-3.4,-5.74 -29.29,-46.59 -29.99,-49.62 -0.95,-0.77 -0.19,-0.06 -0.9,-0.94 -0.53,-0.65 -0.17,-0.2 -0.71,-1 -0.55,-0.82 -0.78,-1.21 -1.27,-1.97 -0.51,-0.79 -0.79,-1.24 -1.23,-2.04l-0.78 -1.63 170.34 0 1.1 2.15c0.38,0.82 0.65,1.47 0.98,2.27l5.79 13.52zm-737.6 -83.7c0,-17.55 18.1,-27.3 38.02,-16.84 8.46,4.44 15.52,11.62 20.41,19.8 7.44,12.44 7.03,30.91 -8.93,36.78 -5.76,2.12 -13.5,1.51 -19.41,-0.84 -6,-2.39 -12,-6.08 -16.54,-10.63 -0.67,-0.67 -1.04,-1.3 -1.74,-2.06 -6.23,-6.78 -11.82,-14.96 -11.82,-26.21zm199.67 -29.87c2.3,0.72 5.88,3.2 8.18,4.58l15.22 9.77c8.32,6.06 21.24,15.33 28.62,21.91l33.55 29.48c3.18,2.42 14.58,14.29 18.88,18.61l5.97 6.53c7.64,7.84 8.52,19.79 0.98,26.75 -9.76,9.01 -33.27,13.22 -46.61,15.87 -28.4,5.63 -57.94,8.81 -91.7,8.83 -4.25,8.06 -12.65,19.06 -18.64,26.45 -2.23,2.75 -4.28,5.49 -6.76,7.91 -1.64,1.6 -2.07,2.52 -3.52,4.08 -10.91,11.78 -23.71,21.56 -37.25,30.13 -36.1,22.83 -90.99,15.38 -119.3,29.58 -19.24,9.65 -18.68,34.97 -12.79,53.4 3.64,11.38 8.15,20.85 14.04,31.06 1.82,3.16 3.49,6.26 5.46,9.22 5.37,8.07 12.13,18.91 18.31,26.24 11.23,13.34 22.59,27.4 33.08,41.36l12.41 17.48c2.2,3.16 3.81,6.01 5.97,9.24 7.26,10.84 18.85,30.67 24.77,42.6 0.88,1.77 1.6,2.76 2.54,4.52l9.6 20.29c5.34,11.08 12.66,30.7 16.59,42.63 6.56,19.87 11.81,38.27 15.43,59.01 0.13,0.76 0.4,1.95 0.66,3.18 0.03,0.16 0.06,0.29 0.09,0.45l1.43 8.85c2.54,17.64 4.46,34.58 4.71,55.06 0.05,4.46 0.98,9.25 0.53,14.62 -0.37,4.49 -0.52,8.89 -0.5,14.17l-0.78 13.88c-0.34,2.29 -0.29,4.67 -0.63,6.98 -0.49,3.34 0.35,4.82 -1.04,6.27 0.72,3.83 -1.43,17.21 -2.07,21.59l-2.47 15.46c-0.21,1.29 -0.4,3.66 -1.17,4.67 -0.26,1.76 1.45,1.28 -5.96,1.22 -2.17,-0.02 -4.35,-0 -6.52,-0l-39.11 -0.55c2.41,-10.04 4.68,-19.4 6.29,-30.63 0.8,-5.59 1.5,-11.01 1.88,-16.6 1.18,-17.46 2.95,-35.61 0.99,-53.19 -0.59,-5.33 -0.97,-11.45 -1.6,-16.88 -4.28,-37.35 -13.08,-68.64 -26.12,-103.18 -1.48,-3.92 -3.67,-8.82 -5.43,-13.08 -4.77,-11.53 -14.74,-31.97 -21.49,-43.17 -11.37,-18.87 -13.39,-21.98 -25.38,-39.28l-30.97 -42.92c-10.49,-15.16 -19.94,-28.39 -29.49,-44.41 -19.58,-32.83 -40.97,-70.3 -36.54,-110.07 1.56,-13.98 7.47,-29.67 16.12,-39.3 9.75,-10.85 17.03,-17.52 31.96,-23.46 23.09,-9.19 80.88,-8.3 109.07,-20.25 3.95,-1.67 9.23,-3.82 12.43,-6.05 18.01,-12.57 31.91,-33.89 36.37,-56.01 4.1,-20.34 1.86,-46.05 -3.92,-65.75 -7.82,-26.65 -15.45,-31.39 -17.87,-37.28 -1.03,-0.41 -1.31,-1.14 -2.32,-2.3 -11.62,-13.32 -24.62,-22.89 -41.77,-29.42 -50.95,-19.39 -106.67,-15.37 -154.09,10.96 -3.34,1.86 -21.36,12.08 -22.46,15.03l-0.51 -62.47 9.41 -4.7c14.77,-6.88 37.3,-13.77 53.02,-17.07 7.64,-1.6 15.25,-2.82 23.72,-3.99 16.16,-2.24 24.96,-1.86 40.45,-1.94 7.12,-0.04 18.34,1.31 25.37,2.33 10.35,1.51 23.71,4.5 33.22,8.07 26.83,10.08 48.15,21.45 68.96,42.43 1.47,1.49 1.82,2.35 3.24,3.82 3.44,3.57 4.42,5.68 7.27,6.86l23.85 10.93c3.16,1.59 6.1,3.05 9.42,4.71 3.2,1.6 24.61,12.9 26.72,14.85zm-330.63 769.4l1989.81 0 0 -911.77 -1989.81 0 0 911.77z"></path> <path class="fil0" d="M378.2 235.01l-1.64 0.8c0.1,-0.22 0.19,-0.43 0.31,-0.66l1.32 -2.59c-2.1,0.57 -1.45,0.14 -2.55,1.4 0.34,-2.49 0.39,-0.85 -0.32,-3.41 2.29,2.53 -0.59,0.92 2.77,1.91 -0.83,-2.6 -0.44,-1.5 -3.33,-4.14l0.72 -0.39c-0.09,-0.12 -0.23,-0.26 -0.3,-0.33l-1.88 -1.6c-9.28,-6.39 -23.82,-14.64 -33.38,-20.39l-27.51 -15.97c-1.9,-1.09 -7.43,-4.45 -9.23,-4.92 -6.42,13.39 -2.09,38.64 3.8,51.1 3.36,0 6.22,0.41 9.48,0.86l37.23 2.98c6.8,0.55 11.42,1.12 18.38,-0.71 2.62,-0.69 4.89,-1.51 6.12,-3.94z"></path> <path class="fil0" d="M262.44 905.1c0.78,-1.02 0.96,-3.38 1.17,-4.67l2.47 -15.46c0.64,-4.38 2.79,-17.76 2.07,-21.59l-0.27 -6.6c-0.09,0.12 -0.19,0.29 -0.23,0.4l-0.58 2.95c-0.13,7.55 0.59,1.81 -0.76,9.36 -0.4,2.25 -0,3.98 -0.42,6.37l-4.53 28.71c-9.87,1.11 -32.55,-0.19 -44.28,-0.21 0.03,-3.6 -0.69,0.73 -1.28,-0.22 -0.1,-0.16 -0.34,0.29 -0.59,0.35l-1.06 0.14c5.16,-0.11 5.16,-0.78 9.05,0.66 2.83,1.06 22.21,0.49 27.29,0.49 2.64,0 9.93,0.85 11.94,-0.68z"></path> <path class="fil0" d="M378.2 235.01c0.08,-0.06 0.24,-0.12 0.27,-0.15 1.26,-0.84 0.81,-1.29 0.82,-5.04 -1.86,-0.5 -1.21,-0.62 -3.15,-1.65l-0.65 -0.25 -0.72 0.39c2.89,2.64 2.5,1.54 3.33,4.14 -3.36,-0.99 -0.48,0.62 -2.77,-1.91 0.71,2.56 0.66,0.92 0.32,3.41 1.09,-1.26 0.45,-0.84 2.55,-1.4l-1.32 2.59c-0.11,0.23 -0.21,0.44 -0.31,0.66l1.64 -0.8z"></path> </g> </g> </svg> 