<?xml version="1.0" encoding="UTF-8"?> <svg xmlns="http://www.w3.org/2000/svg" xmlns:xlink="http://www.w3.org/1999/xlink" xmlns:xodm="http://www.corel.com/coreldraw/odm/2003" xml:space="preserve" width="300mm" height="420.673mm" version="1.1" style="shape-rendering:geometricPrecision; text-rendering:geometricPrecision; image-rendering:optimizeQuality; fill-rule:evenodd; clip-rule:evenodd" viewBox="0 0 15445.19 21657.89"> <defs> <style type="text/css"> .fil1 {fill:#727271} .fil0 {fill:#727271;fill-rule:nonzero} </style> </defs> <g id="Слой_x0020_1"> <metadata id="CorelCorpID_0Corel-Layer"></metadata> <g id="_2810231408384"> <path class="fil0" d="M8.33 18767.51l0 -233.03 187.41 -38.19 0 -1251.51 -187.41 -38.23 0 -234.3 1377.24 0 0 472.26 -295.93 0 -13.55 -170.09 -485.81 0 0 1221.87 189.91 38.19 0 233.03 -771.85 0zm1494.36 0l0 -233.03 189.87 -38.19 0 -1251.51 -189.87 -38.23 0 -234.3 189.87 0 673.22 0c140.56,0 261.78,24.68 363.73,73.99 102.74,48.5 181.66,116.74 236.73,204.77 55.06,87.1 82.62,189.05 82.62,305.68 0,115.99 -27.55,217.43 -82.62,304.52 -55.07,87.14 -133.99,155.01 -236.73,203.5 -101.96,48.5 -223.18,72.69 -363.73,72.69l-278.65 0 0 358.88 188.64 38.19 0 233.03 -773.09 0zm584.45 -933.32l278.65 0c95.35,0 167.29,-25.91 215.74,-77.76 48.5,-51.75 72.76,-117.53 72.76,-197.23 0,-82.99 -24.26,-151.23 -72.76,-204.7 -48.46,-53.42 -120.4,-80.08 -215.74,-80.08l-278.65 0 0 559.77zm744.72 933.32l0 -233.03 128.24 -18.44 553.61 -1543.79 415.52 0 552.38 1543.79 126.97 18.44 0 233.03 -638.69 0 0 -233.03 120.84 -22.22 -67.79 -221.94 -605.39 0 -65.37 221.94 120.84 22.22 0 233.03 -641.15 0zm674.41 -760.77l427.87 0 -192.34 -581.91 -18.52 -57.98 -7.39 0 -19.75 62.83 -189.88 577.05zm1202.16 760.77l0 -233.03 189.87 -38.19 0 -1251.51 -189.87 -38.23 0 -234.3 773.09 0 0 234.3 -188.64 38.23 0 487.04 694.16 0 0 -487.04 -188.64 -38.23 0 -234.3 188.64 0 393.3 0 189.91 0 0 234.3 -189.91 38.23 0 1251.51 189.91 38.19 0 233.03 -771.86 0 0 -233.03 188.64 -38.19 0 -459.9 -694.16 0 0 459.9 188.64 38.19 0 233.03 -773.09 0zm2019.63 440.15l-24.68 -741.02 133.17 0c43.57,-33.67 83.03,-80.53 118.38,-140.56 35.35,-59.96 64.51,-139.66 87.54,-239.15 23,-99.46 37.37,-225.19 43.16,-377.33l34.49 -467.29 -170.12 -35.77 0 -234.3 1570.82 0 0 234.3 -187.41 38.23 0 1221.86 202.19 0 -37 743.48 -357.57 0 0 -442.62 -1044.31 0 0 440.15 -368.66 0zm558.53 -741.02l652.24 0 0 -1192.22 -427.83 0 -28.37 435.19c-4.93,118.35 -16.02,224.04 -33.3,316.88 -17.25,92.06 -39.43,174.23 -66.57,246.66 -27.1,71.49 -59.17,136 -96.17,193.49zm2012.24 300.87l0 -233.03 189.84 -38.19 0 -1251.51 -189.84 -38.23 0 -234.3 584.45 0 187.37 0 0 234.3 -187.37 38.23 0 1221.86 478.38 0 0 -1221.86 -189.95 -38.23 0 -234.3 771.93 0 0 234.3 -188.64 38.23 0 1221.86 473.42 0 0 -1221.86 -189.84 -38.23 0 -234.3 189.84 0 392.03 0 189.95 0 0 234.3 -189.95 38.23 0 1251.51 189.95 38.19 0 233.03 -2511.56 0zm3462.21 25.87c-122.49,0 -234.72,-22.62 -336.63,-67.76 -101.14,-45.25 -188.68,-108.93 -262.64,-191.14 -73.99,-82.17 -131.08,-178.38 -171.4,-288.51 -39.42,-111.03 -59.17,-231.84 -59.17,-362.5l0 -28.37c0,-129.88 19.75,-249.91 59.17,-360.04 40.32,-110.13 96.99,-206.34 170.2,-288.51 73.99,-82.17 161.5,-145.9 262.64,-191.14 101.85,-46.03 214.07,-69.03 336.52,-69.03 121.7,0 233.52,23 335.36,69.03 101.95,45.24 190.73,108.97 266.4,191.14 75.56,82.17 133.95,178.38 175.02,288.51 41.1,110.13 61.64,230.16 61.64,360.04l0 28.37c0,130.67 -20.54,251.47 -61.64,362.5 -41.07,110.13 -99.46,206.34 -175.02,288.51 -74.89,82.21 -163.18,145.9 -265.14,191.14 -101.92,45.14 -213.73,67.76 -335.32,67.76zm0 -302.06c96.09,0 177.1,-25.46 242.89,-76.45 66.56,-50.96 116.66,-121.67 150.45,-212.05 33.68,-91.28 50.47,-197.68 50.47,-319.34l0 -30.84c0,-119.2 -17.21,-224 -51.78,-314.38 -33.68,-90.39 -83.85,-161.13 -150.42,-212.09 -65.7,-50.96 -146.68,-76.46 -242.92,-76.46 -98.56,0 -179.95,25.5 -244.04,76.46 -64.14,50.18 -111.81,120.4 -143.06,210.78 -31.21,89.71 -46.89,194.88 -46.89,315.68l0 30.84c0,121.67 15.68,228.06 46.89,319.34 32.03,91.28 80.11,162.4 144.22,213.25 64.99,50.18 146.31,75.26 244.19,75.26zm2684.15 45.66l0 675.61 -394.53 0 0 -445.08 -357.58 0 0 -233.03 149.19 -14.78 -307.02 -419.21 -314.38 419.21 146.68 14.78 0 233.03 -724.93 0 0 -233.03 159.04 -30.8 493.16 -618.94 -468.49 -646.08 -141.83 -32.11 0 -234.3 736.09 0 0 234.3 -171.4 16.02 282.38 395.77 287.28 -395.77 -165.27 -16.02 0 -234.3 722.54 0 0 234.3 -157.84 32.11 -451.2 605.39 508.02 658.36 170.09 34.57zm-12179.34 3095.04l0 -233 187.41 -38.23 0 -1251.51 -187.41 -38.23 0 -234.3 1855.63 0 0 234.3 -187.41 38.23 0 1251.51 187.41 38.23 0 233 -770.59 0 0 -233 188.64 -38.23 0 -1221.87 -691.7 0 0 1221.87 189.87 38.23 0 233 -771.85 0zm1948.1 0l0 -233 128.24 -18.48 553.61 -1543.79 415.52 0 552.38 1543.79 127.01 18.48 0 233 -638.69 0 0 -233 120.81 -22.25 -67.79 -221.94 -605.39 0 -65.33 221.94 120.81 22.25 0 233 -641.15 0zm674.45 -760.77l427.84 0 -192.34 -581.91 -18.52 -57.98 -7.39 0 -19.71 62.83 -189.88 577.05zm1220.64 760.77l0 -300.87 48.08 0c55.89,-5.71 101.92,-20.53 138.1,-44.35 36.18,-23.82 64.14,-60.85 83.85,-111.03 19.71,-50.88 33.71,-119.13 41.92,-204.66 8.21,-86.24 12.32,-194.8 12.32,-325.47l-1.24 -536.36 -187.41 -38.23 0 -234.3 1634.91 0 0 234.3 -188.64 38.23 0 1251.51 188.64 38.23 0 233 -771.82 0 0 -233 188.64 -38.23 0 -1221.87 -470.99 0 1.23 506.72c0,175.91 -13.18,326.36 -39.46,451.31 -25.49,124.84 -64.14,226.8 -115.92,305.72 -51.78,78.92 -116.29,136.9 -193.57,173.82 -77.28,37.03 -168.11,55.52 -272.49,55.52l-96.17 0zm1717.53 0l0 -233 128.24 -18.48 553.61 -1543.79 415.48 0 552.45 1543.79 126.93 18.48 0 233 -638.69 0 0 -233 120.88 -22.25 -67.87 -221.94 -605.39 0 -65.3 221.94 120.81 22.25 0 233 -641.16 0zm674.46 -760.77l427.8 0 -192.34 -581.91 -18.44 -57.98 -7.43 0 -19.75 62.83 -189.84 577.05zm1998.65 786.64c-172.59,0 -324.68,-35.35 -456.17,-105.99 -131.56,-71.49 -233.89,-173.44 -307.1,-305.79 -73.1,-132.39 -109.65,-291.01 -109.65,-475.92l0 -70.33c0,-173.45 34.49,-326.74 103.52,-459.91 69.07,-133.91 167.33,-238.74 294.67,-314.38 128.31,-76.46 280.33,-114.69 456.25,-114.69 123.27,0 239.64,16.87 348.88,50.58 110.24,33.68 210.11,88.4 299.67,163.97l0 447.54 -289.81 0 -39.39 -268.76c-27.96,-18.89 -57.61,-35.39 -88.81,-49.32 -31.21,-13.93 -64.89,-24.68 -101.06,-32.11 -36.26,-7.28 -75.26,-11.05 -117.12,-11.05 -97.03,0 -180.88,23.41 -251.59,70.34 -70.63,46.81 -125.36,113.79 -163.97,200.93 -38.64,87.1 -58.01,191.89 -58.01,314.38l0 72.8c0,118.35 19.79,221.95 59.28,310.65 40.21,88.03 96.99,156.16 170.09,204.7 73.21,48.5 158.25,72.8 255.24,72.8 50.96,0 101.92,-5.34 152.92,-16.02 50.96,-11.57 98.56,-26.35 143.02,-44.46l40.69 -252.75 289.7 0 0 438.96c-70.71,47.71 -159.82,88.77 -267.56,123.27 -106.81,33.78 -228.1,50.55 -363.7,50.55z"></path> <path class="fil0" d="M7902.13 0l3753.48 1975.51 0 2469.41 -2765.73 1481.67 0 8889.88 2765.73 0 0 -10371.55 2765.76 1481.67 0 8889.88 987.75 0 0 592.66 -7506.99 0 0 -15409.12zm6124.11 6025.33l-395.1 -211.64 0 9002.77 395.1 0 0 -8791.14zm-790.19 -444.48l-395.13 -211.64 0 9447.26 395.13 0 0 -9235.62zm-790.22 -444.49l-395.1 -211.64 0 9891.74 395.1 0 0 -9680.11z"></path> <path class="fil1" d="M3753.52 5926.59l-2765.77 1481.63 0 7408.25 -987.75 0 0 592.66 7507 0 0 -15409.12 -3753.48 1975.51 0 3951.08zm-2370.63 1545.13l395.09 -211.68 0 7556.43 -395.09 0 0 -7344.75zm790.18 -395.1l395.13 -211.67 0 7951.52 -395.13 0 0 -7739.85zm790.23 -395.09l395.09 -211.68 0 8346.61 -395.09 0 0 -8134.93zm790.22 -754.95l2765.73 1481.63 0 7408.25 -2765.73 0 0 -8889.88z"></path> </g> </g> </svg> 