<?xml version="1.0" encoding="UTF-8"?> <svg xmlns="http://www.w3.org/2000/svg" width="183" height="23" viewBox="0 0 183 23" fill="none"><path d="M11.9042 20.6657L11.6681 20.7C9.75716 22.2333 7.5989 23 5.19333 23C3.50718 23 2.22571 22.6338 1.34892 21.9015C0.449639 21.1463 0 20.1851 0 19.0179C0 17.8965 0.46088 16.9697 1.38264 16.2373C2.3044 15.505 3.68704 15.1388 5.53056 15.1388H11.803V14.3836C11.803 11.4771 10.1056 10.0239 6.71086 10.0239C3.85565 10.0239 2.42805 11.0652 2.42805 13.1478V13.3194C2.42805 13.4567 2.31564 13.5254 2.09082 13.5254H0.876796C0.80935 13.5254 0.741904 13.4796 0.674458 13.3881C0.607012 13.2965 0.573289 13.2164 0.573289 13.1478V12.9761C0.573289 11.4886 1.10162 10.3328 2.15827 9.50896C3.19244 8.68507 4.73245 8.27313 6.7783 8.27313C9.22884 8.27313 11.0049 8.83383 12.1065 9.95522C13.2306 11.0995 13.7927 12.6214 13.7927 14.5209V22.3478C13.7927 22.4164 13.7589 22.4851 13.6915 22.5537C13.6241 22.6224 13.5454 22.6567 13.4554 22.6567H12.5449C12.3651 22.6567 12.2414 22.508 12.174 22.2104L11.9042 20.6657ZM5.19333 21.3179L5.15961 21.3522C7.63262 21.3522 9.82461 20.5512 11.7356 18.9493V16.7179H5.46311C4.18164 16.7179 3.25988 16.9468 2.69783 17.4045C2.15827 17.8393 1.88848 18.3886 1.88848 19.0522C1.88848 19.7388 2.18075 20.2881 2.76528 20.7C3.32733 21.1119 4.13668 21.3179 5.19333 21.3179Z" fill="white"></path><path d="M20.0454 11.191V11.1567C20.6973 10.2184 21.473 9.49751 22.3723 8.99403C23.294 8.46766 24.2383 8.20448 25.205 8.20448C26.6438 8.20448 27.7567 8.61642 28.5435 9.4403C29.3304 10.2871 29.7238 11.4428 29.7238 12.9075V13.697C29.7238 13.7657 29.6901 13.8343 29.6227 13.903C29.5552 13.9716 29.4878 14.006 29.4203 14.006H28.2063C28.1389 14.006 28.0714 13.9716 28.004 13.903C27.9365 13.8343 27.9028 13.7657 27.9028 13.697V13.0104C27.9028 12.0721 27.6443 11.3169 27.1272 10.7448C26.6101 10.1955 25.9019 9.9209 25.0026 9.9209C23.9685 9.9209 22.9793 10.2985 22.035 11.0537C21.0908 11.809 20.4163 12.7358 20.0117 13.8343V22.3134C20.0117 22.3821 19.9779 22.4507 19.9105 22.5194C19.843 22.5881 19.7756 22.6224 19.7081 22.6224H18.4941C18.4267 22.6224 18.3592 22.5881 18.2918 22.5194C18.2243 22.4507 18.1906 22.3821 18.1906 22.3134V8.9597C18.1906 8.91393 18.2243 8.83383 18.2918 8.7194C18.3592 8.62786 18.4267 8.58209 18.4941 8.58209H19.3372C19.5395 8.58209 19.6632 8.74229 19.7081 9.06269L20.0454 11.191Z" fill="white"></path><path d="M47.0084 13.1478L46.8735 13.0791C46.9185 13.3995 46.941 13.6398 46.941 13.8C46.941 14.006 46.8286 14.109 46.6037 14.109H45.3897C45.2323 14.109 45.1312 14.006 45.0862 13.8C44.8839 12.5871 44.3106 11.6373 43.3663 10.9507C42.4221 10.2642 41.2755 9.9209 39.9266 9.9209C38.2405 9.9209 36.8803 10.4701 35.8461 11.5687C34.812 12.6443 34.2949 13.9945 34.2949 15.6194C34.2949 17.2901 34.8569 18.6632 35.981 19.7388C37.0826 20.7915 38.499 21.3179 40.2301 21.3179C42.186 21.3179 44.0071 20.4597 45.6932 18.7433C45.7832 18.6517 45.8843 18.606 45.9967 18.606C46.1091 18.606 46.2103 18.6517 46.3002 18.7433L46.8735 19.3269C46.9859 19.4413 47.0421 19.5443 47.0421 19.6358C47.0421 19.7274 46.9859 19.8532 46.8735 20.0134C45.2548 22.0045 43.0628 23 40.2976 23C38.0494 23 36.1946 22.3363 34.7333 21.009C33.2495 19.6816 32.5076 17.8965 32.5076 15.6537C32.5076 13.4567 33.2157 11.6716 34.6321 10.2985C36.0485 8.92537 37.847 8.23881 40.0278 8.23881C41.9612 8.23881 43.5462 8.7194 44.7827 9.6806C46.0192 10.6418 46.7611 11.7975 47.0084 13.1478Z" fill="white"></path><path d="M53.1426 0.377611L53.0077 11.294H53.1088C53.6934 10.4244 54.4802 9.70348 55.4694 9.13134C56.5036 8.53632 57.6277 8.23881 58.8417 8.23881C60.7077 8.23881 62.1241 8.73085 63.0908 9.71493C64.08 10.7219 64.5746 12.0607 64.5746 13.7313V22.3134C64.5746 22.3821 64.5409 22.4507 64.4735 22.5194C64.406 22.5881 64.3386 22.6224 64.2711 22.6224H63.0571C62.9897 22.6224 62.9222 22.5881 62.8548 22.5194C62.7873 22.4507 62.7536 22.3821 62.7536 22.3134V13.7313C62.7536 12.5871 62.4051 11.6716 61.7082 10.9851C61.0112 10.2985 60.067 9.95522 58.8755 9.95522C57.5265 9.95522 56.3575 10.3443 55.3683 11.1224C54.3566 11.9234 53.6147 12.896 53.1426 14.0403V22.3134C53.1426 22.3821 53.1088 22.4507 53.0414 22.5194C52.9739 22.5881 52.9065 22.6224 52.8391 22.6224H51.625C51.5576 22.6224 51.4901 22.5881 51.4227 22.5194C51.3553 22.4507 51.3215 22.3821 51.3215 22.3134V0.377611C51.3215 0.308955 51.3553 0.228856 51.4227 0.137314C51.4901 0.0457712 51.5576 0 51.625 0H52.8391C52.9065 0 52.9739 0.0457712 53.0414 0.137314C53.1088 0.251741 53.1426 0.331841 53.1426 0.377611Z" fill="white"></path><path d="M70.9591 8.9597V22.3134C70.9591 22.3821 70.9253 22.4507 70.8579 22.5194C70.7905 22.5881 70.723 22.6224 70.6556 22.6224H69.4415C69.3741 22.6224 69.3066 22.5881 69.2392 22.5194C69.1717 22.4507 69.138 22.3821 69.138 22.3134V8.9597C69.138 8.91393 69.1717 8.83383 69.2392 8.7194C69.3066 8.62786 69.3741 8.58209 69.4415 8.58209H70.6556C70.723 8.58209 70.7905 8.62786 70.8579 8.7194C70.9253 8.83383 70.9591 8.91393 70.9591 8.9597ZM68.8008 3.15821V3.19254C68.8008 2.84925 68.9244 2.52886 69.1717 2.23134C69.3966 1.95672 69.6888 1.8194 70.0485 1.8194C70.4083 1.8194 70.7005 1.95672 70.9253 2.23134C71.1726 2.52886 71.2963 2.84925 71.2963 3.19254C71.2963 3.58159 71.1839 3.90199 70.9591 4.15373C70.7118 4.42836 70.4083 4.56567 70.0485 4.56567C69.6888 4.56567 69.3853 4.42836 69.138 4.15373C68.9132 3.90199 68.8008 3.57015 68.8008 3.15821Z" fill="white"></path><path d="M76.0657 10.2985L73.9074 10.2642C73.84 10.2642 73.7726 10.2298 73.7051 10.1612C73.6377 10.0925 73.6039 10.0239 73.6039 9.95522V8.85672C73.6039 8.78806 73.6377 8.7194 73.7051 8.65075C73.7726 8.58209 73.84 8.54776 73.9074 8.54776H76.0994V5.14925C76.0994 5.10348 76.1332 5.02338 76.2006 4.90896C76.2681 4.81741 76.3355 4.77164 76.4029 4.77164H77.617C77.6844 4.77164 77.7519 4.81741 77.8193 4.90896C77.8867 5.02338 77.9205 5.10348 77.9205 5.14925V8.54776H83.0801C83.1475 8.54776 83.215 8.58209 83.2824 8.65075C83.3499 8.7194 83.3836 8.78806 83.3836 8.85672V9.95522C83.3836 10.0239 83.3499 10.0925 83.2824 10.1612C83.215 10.2298 83.1475 10.2642 83.0801 10.2642H77.9205V17.8507C77.9205 20.1164 78.8647 21.2493 80.7532 21.2493C81.585 21.2493 82.3944 20.9517 83.1812 20.3567C83.2712 20.2652 83.3723 20.2194 83.4848 20.2194C83.5747 20.2194 83.6534 20.2766 83.7208 20.391L84.1929 21.1119C84.2829 21.2264 84.3278 21.3294 84.3278 21.4209C84.3278 21.5124 84.2716 21.6154 84.1592 21.7298C83.125 22.5537 81.956 22.9657 80.652 22.9657C79.1907 22.9657 78.0666 22.5537 77.2797 21.7298C76.4704 20.8831 76.0657 19.6015 76.0657 17.8851V10.2985Z" fill="white"></path><path d="M101.482 16.1687H88.701C88.8359 17.8393 89.4429 19.1095 90.522 19.9791C91.6237 20.8488 92.9613 21.2836 94.5351 21.2836C96.536 21.2836 98.2783 20.5284 99.7621 19.0179C99.897 18.8806 100.021 18.8119 100.133 18.8119C100.245 18.8119 100.347 18.8577 100.437 18.9493L101.044 19.5328C101.134 19.6244 101.178 19.7274 101.178 19.8418C101.178 20.002 101.089 20.1736 100.909 20.3567C99.2675 22.096 97.143 22.9657 94.5351 22.9657C92.2644 22.9657 90.4096 22.302 88.9708 20.9746C87.5095 19.6244 86.7788 17.8393 86.7788 15.6194C86.7788 13.5368 87.4757 11.7861 88.8696 10.3672C90.2635 8.94826 92.107 8.23881 94.4002 8.23881C96.6708 8.23881 98.4244 8.86816 99.6609 10.1269C101.01 11.5 101.639 13.0791 101.549 14.8642L101.482 16.1687ZM94.3664 9.9209C92.995 9.9209 91.7698 10.2985 90.6907 11.0537C89.634 11.809 88.982 12.9647 88.7347 14.5209H99.5598C99.5148 13.102 99.0427 11.9806 98.1434 11.1567C97.2217 10.3328 95.9627 9.9209 94.3664 9.9209Z" fill="white"></path><path d="M119.888 13.1478L119.753 13.0791C119.798 13.3995 119.821 13.6398 119.821 13.8C119.821 14.006 119.708 14.109 119.483 14.109H118.269C118.112 14.109 118.011 14.006 117.966 13.8C117.764 12.5871 117.19 11.6373 116.246 10.9507C115.302 10.2642 114.155 9.9209 112.806 9.9209C111.12 9.9209 109.76 10.4701 108.726 11.5687C107.692 12.6443 107.175 13.9945 107.175 15.6194C107.175 17.2901 107.737 18.6632 108.861 19.7388C109.962 20.7915 111.379 21.3179 113.11 21.3179C115.066 21.3179 116.887 20.4597 118.573 18.7433C118.663 18.6517 118.764 18.606 118.876 18.606C118.989 18.606 119.09 18.6517 119.18 18.7433L119.753 19.3269C119.866 19.4413 119.922 19.5443 119.922 19.6358C119.922 19.7274 119.866 19.8532 119.753 20.0134C118.135 22.0045 115.943 23 113.177 23C110.929 23 109.074 22.3363 107.613 21.009C106.129 19.6816 105.387 17.8965 105.387 15.6537C105.387 13.4567 106.095 11.6716 107.512 10.2985C108.928 8.92537 110.727 8.23881 112.907 8.23881C114.841 8.23881 116.426 8.7194 117.662 9.6806C118.899 10.6418 119.641 11.7975 119.888 13.1478Z" fill="white"></path><path d="M124.707 10.2985L122.549 10.2642C122.481 10.2642 122.414 10.2298 122.346 10.1612C122.279 10.0925 122.245 10.0239 122.245 9.95522V8.85672C122.245 8.78806 122.279 8.7194 122.346 8.65075C122.414 8.58209 122.481 8.54776 122.549 8.54776H124.741V5.14925C124.741 5.10348 124.774 5.02338 124.842 4.90896C124.909 4.81741 124.977 4.77164 125.044 4.77164H126.258C126.326 4.77164 126.393 4.81741 126.461 4.90896C126.528 5.02338 126.562 5.10348 126.562 5.14925V8.54776H131.721C131.789 8.54776 131.856 8.58209 131.924 8.65075C131.991 8.7194 132.025 8.78806 132.025 8.85672V9.95522C132.025 10.0239 131.991 10.0925 131.924 10.1612C131.856 10.2298 131.789 10.2642 131.721 10.2642H126.562V17.8507C126.562 20.1164 127.506 21.2493 129.395 21.2493C130.226 21.2493 131.036 20.9517 131.823 20.3567C131.913 20.2652 132.014 20.2194 132.126 20.2194C132.216 20.2194 132.295 20.2766 132.362 20.391L132.834 21.1119C132.924 21.2264 132.969 21.3294 132.969 21.4209C132.969 21.5124 132.913 21.6154 132.801 21.7298C131.766 22.5537 130.597 22.9657 129.293 22.9657C127.832 22.9657 126.708 22.5537 125.921 21.7298C125.112 20.8831 124.707 19.6015 124.707 17.8851V10.2985Z" fill="white"></path><path d="M147.52 20.0478L147.486 20.1164C146.924 20.9632 146.148 21.6612 145.159 22.2104C144.17 22.7368 143.057 23 141.82 23C139.954 23 138.538 22.4622 137.571 21.3866C136.582 20.2652 136.087 18.7891 136.087 16.9582V9.02836C136.087 8.9597 136.121 8.8796 136.189 8.78806C136.256 8.69652 136.324 8.65075 136.391 8.65075H137.605C137.672 8.65075 137.74 8.69652 137.807 8.78806C137.875 8.8796 137.909 8.9597 137.909 9.02836V16.9582C137.909 18.3313 138.246 19.407 138.92 20.1851C139.595 20.9632 140.561 21.3522 141.82 21.3522C143.079 21.3522 144.226 20.9746 145.26 20.2194C146.339 19.4413 147.104 18.503 147.553 17.4045V8.99403C147.553 8.94826 147.587 8.86816 147.654 8.75373C147.722 8.66219 147.789 8.61642 147.857 8.61642H149.071C149.138 8.61642 149.206 8.66219 149.273 8.75373C149.341 8.86816 149.374 8.94826 149.374 8.99403V22.3478C149.374 22.4164 149.341 22.4851 149.273 22.5537C149.206 22.6224 149.138 22.6567 149.071 22.6567H148.16C147.958 22.6567 147.834 22.4965 147.789 22.1761L147.52 20.0478Z" fill="white"></path><path d="M155.826 11.191V11.1567C156.478 10.2184 157.254 9.49751 158.153 8.99403C159.075 8.46766 160.019 8.20448 160.986 8.20448C162.425 8.20448 163.537 8.61642 164.324 9.4403C165.111 10.2871 165.505 11.4428 165.505 12.9075V13.697C165.505 13.7657 165.471 13.8343 165.404 13.903C165.336 13.9716 165.269 14.006 165.201 14.006H163.987C163.92 14.006 163.852 13.9716 163.785 13.903C163.717 13.8343 163.684 13.7657 163.684 13.697V13.0104C163.684 12.0721 163.425 11.3169 162.908 10.7448C162.391 10.1955 161.683 9.9209 160.783 9.9209C159.749 9.9209 158.76 10.2985 157.816 11.0537C156.872 11.809 156.197 12.7358 155.792 13.8343V22.3134C155.792 22.3821 155.759 22.4507 155.691 22.5194C155.624 22.5881 155.556 22.6224 155.489 22.6224H154.275C154.207 22.6224 154.14 22.5881 154.073 22.5194C154.005 22.4507 153.971 22.3821 153.971 22.3134V8.9597C153.971 8.91393 154.005 8.83383 154.073 8.7194C154.14 8.62786 154.207 8.58209 154.275 8.58209H155.118C155.32 8.58209 155.444 8.74229 155.489 9.06269L155.826 11.191Z" fill="white"></path><path d="M182.924 16.1687H170.143C170.278 17.8393 170.885 19.1095 171.964 19.9791C173.066 20.8488 174.403 21.2836 175.977 21.2836C177.978 21.2836 179.72 20.5284 181.204 19.0179C181.339 18.8806 181.463 18.8119 181.575 18.8119C181.688 18.8119 181.789 18.8577 181.879 18.9493L182.486 19.5328C182.576 19.6244 182.621 19.7274 182.621 19.8418C182.621 20.002 182.531 20.1736 182.351 20.3567C180.71 22.096 178.585 22.9657 175.977 22.9657C173.707 22.9657 171.852 22.302 170.413 20.9746C168.952 19.6244 168.221 17.8393 168.221 15.6194C168.221 13.5368 168.918 11.7861 170.312 10.3672C171.706 8.94826 173.549 8.23881 175.842 8.23881C178.113 8.23881 179.867 8.86816 181.103 10.1269C182.452 11.5 183.081 13.0791 182.992 14.8642L182.924 16.1687ZM175.809 9.9209C174.437 9.9209 173.212 10.2985 172.133 11.0537C171.076 11.809 170.424 12.9647 170.177 14.5209H181.002C180.957 13.102 180.485 11.9806 179.586 11.1567C178.664 10.3328 177.405 9.9209 175.809 9.9209Z" fill="white"></path></svg> 