<?xml version="1.0" encoding="UTF-8"?> <svg xmlns="http://www.w3.org/2000/svg" xmlns:xlink="http://www.w3.org/1999/xlink" xmlns:xodm="http://www.corel.com/coreldraw/odm/2003" xml:space="preserve" width="300mm" height="173.71mm" version="1.1" style="shape-rendering:geometricPrecision; text-rendering:geometricPrecision; image-rendering:optimizeQuality; fill-rule:evenodd; clip-rule:evenodd" viewBox="0 0 2650.83 1534.92"> <defs> <style type="text/css"> .fil0 {fill:#727271} </style> </defs> <g id="Слой_x0020_1"> <metadata id="CorelCorpID_0Corel-Layer"></metadata> <path class="fil0" d="M-0 0l2650.83 0 0 1534.92 -2650.83 0 0 -1534.92zm212.76 1306.27l34.22 78.66 -69.45 0 35.23 -78.66zm1498.83 -25.52l1.36 16.01 -0.74 11.33 -2.23 9.81 -3.71 8.28 -7.93 9.54 -10.43 6.07 -9.09 2.39 -11.73 1.44 -14.36 0.48 -9.64 0 0 -100.73 18.1 0 16.5 1.4 13.17 4.19 9.84 6.97 6.81 9.88 4.09 12.95zm426.32 165.85l13.43 6.55 15.99 2.18 10.98 -0.94 9.71 -2.82 8.42 -4.71 9.2 -8.65 7.73 -11.54 6.26 -14.42 3.63 -12.8 2.59 -14.6 1.55 -16.42 0.52 -18.22 -0.53 -21.33 -1.59 -18.46 -2.64 -15.61 -3.7 -12.73 -6.16 -13.58 -7.19 -10.63 -8.23 -7.68 -9.19 -5.18 -10.07 -3.1 -10.96 -1.04 -14.8 2.01 -12.92 6.04 -11.03 10.04 -9.15 14.07 -5.84 14.65 -4.18 17.51 -2.51 20.4 -0.84 23.27 1.29 27.45 3.87 23.62 6.45 19.8 9.03 15.96 10.86 10.91zm0.34 -538.01l4.09 12.95 1.36 16 -0.74 11.34 -2.23 9.8 -3.71 8.28 -7.93 9.54 -10.42 6.06 -9.1 2.4 -11.73 1.44 -14.36 0.48 -9.64 0 0 -100.73 18.11 0 16.5 1.4 13.17 4.18 9.84 6.97 6.81 9.89zm-482.49 113.49l2.22 9.61 0.74 10.35 -1.48 13.38 -4.47 12.07 -7.25 10.06 -9.85 7.36 -11.67 4.5 -12.7 1.5 -7.83 -1.16 -5.63 -3.48 -3.41 -5.75 -1.14 -7.99 0.01 -8.42 0.07 -73.76 15.85 0.47 12.98 1.65 10.12 2.83 11.45 7.04 8.27 10.86 3.71 8.88zm-4.78 -104.66l1.5 13.91 -1.52 13.92 -4.57 11.21 -7.42 8.75 -10.1 6.54 -9.02 3.02 -11.83 1.81 -14.63 0.6 0.08 -90.67 14.95 0.47 11.95 1.64 8.94 2.81 9.88 6.26 7.29 8.6 4.5 11.14zm-924.83 -374.82l224.71 -0.41 66.21 105.33 -453.25 0 64.67 -104.92 97.66 0zm65.8 -265.2l47.63 75.77 -62.72 104.74 -96.16 0 111.25 -180.51zm104.58 180.51l118.77 0 171.88 273.47 -788.95 1.43 385.33 -643.58 171.76 273.27 -58.8 95.4zm-444.12 376.87l-162.59 271.57 -115.22 0 162.46 -271.36 115.35 -0.21zm115.35 -0.2l450.04 -0.82 171.34 272.6 -116.87 0 -107.18 -170.52 -342.73 0 -102.09 170.52 -115.23 0 162.72 -271.77zm683.51 -1.25l171.61 273.02 -116.88 0 -171.47 -272.81 116.74 -0.21zm-194.76 399.73l119.97 0 0 6.24 -7.6 0 -9 0.9 -7.05 2.67 -3.93 3.23 -3 4.92 -1.39 7.39 -0.47 14.01 0 65.02 81.14 0 0 -65.02 -0.46 -14.34 -1.41 -7.73 -2.84 -4.14 -4.8 -3.59 -6.74 -2.48 -8.7 -0.83 -7.47 0 0 -6.24 119.97 0 0 6.24 -7.47 0 -9.12 0.9 -7.01 2.67 -3.94 3.23 -3.01 4.92 -1.4 7.39 -0.46 14.01 0 151.01 0.46 14.35 1.4 7.72 2.84 4.14 4.8 3.59 6.74 2.48 8.7 0.83 7.47 0 0 6.24 -119.97 0 0 -6.24 7.47 0 9.13 -0.89 7 -2.68 3.95 -3.23 3.01 -4.92 1.41 -7.39 0.46 -14.01 0 -71.09 -81.14 0 0 71.09 0.49 14.35 1.45 7.72 2.88 4.14 4.72 3.59 6.65 2.48 8.64 0.83 7.6 0 0 6.24 -119.97 0 0 -6.24 7.64 0 9.03 -0.89 7.08 -2.68 3.91 -3.23 2.88 -4.92 1.4 -7.39 0.47 -14.01 0 -151.01 -0.47 -14.34 -1.4 -7.73 -2.82 -4.14 -4.73 -3.59 -6.68 -2.48 -8.67 -0.83 -7.64 0 0 -6.24zm-36.36 -5.2l1.91 76.45 -6.93 0 -4.87 -17.93 -8.06 -15.42 -11.24 -12.93 -13.19 -9.74 -13.89 -5.83 -14.58 -1.95 -10.73 1.03 -9.14 3.08 -7.54 5.12 -7.57 9.93 -2.51 11.32 0.89 7.19 2.67 6.35 6.4 7.92 9.37 7.82 7.64 4.69 12.27 6.6 16.9 8.52 18.54 9.76 15.25 9.5 11.96 9.21 8.68 8.94 7.73 12.29 4.63 13.43 1.54 14.55 -1.41 13.88 -4.21 12.88 -7.01 11.86 -9.82 10.87 -11.98 9.06 -13.49 6.48 -15.01 3.88 -16.52 1.29 -10.54 -0.55 -9.95 -1.65 -10.88 -3.17 -13.34 -5.12 -7.41 -2.53 -5.97 -0.85 -9.32 3.43 -4.44 4.32 -3.52 6.12 -6.24 0 0 -86.69 6.24 0 4.59 17.18 6.32 15.01 8.04 12.84 9.76 10.68 14.54 10.66 15.27 6.4 16.01 2.13 11.78 -1.15 10.08 -3.44 8.36 -5.73 8.45 -11.18 2.81 -12.86 -1.08 -8 -3.25 -7.75 -5.45 -7.42 -7.69 -7.05 -7.39 -5.03 -10.4 -5.96 -13.42 -6.88 -18.95 -9.76 -15.02 -8.74 -11.08 -7.73 -8.4 -7.51 -7 -8.06 -5.59 -8.64 -4.08 -9.21 -2.45 -9.81 -0.81 -10.42 2.24 -17.37 6.72 -15.57 11.2 -13.77 14.6 -10.72 16.94 -6.43 19.27 -2.14 11.01 0.68 10.67 2.03 8.83 2.9 10.56 4.65 9.72 4.13 6.3 1.38 6.94 -2.72 2.45 -4.62 2.29 -8.43 5.02 0zm771.85 5.2l109.75 0 0 6.24 -3.73 0 -12.53 0.93 -7.79 2.8 -3.9 7.45 1.36 7.21 2.97 7.67 6.19 14.7 48.92 114.23 45.23 -101.72 6.65 -15.46 3.46 -9.34 1.4 -5.81 0.46 -4.87 -2.71 -8.98 -7.95 -5.94 -8.47 -2.16 -10.84 -0.72 0 -6.24 75.3 0 0 6.24 -11.85 4.36 -10.49 9.02 -5.51 8.19 -7.05 13.27 -8.6 18.35 -78.98 175.48 -5.59 0 -78.44 -182.71 -8.43 -18.95 -6.35 -12.9 -4.26 -6.85 -6.96 -4.69 -11.23 -2.58 0 -6.24zm-35.6 27.03l6.78 10.93 4.07 12.11 1.35 13.31 -2.02 15.97 -6.08 14 -10.14 12.05 -8.8 6.43 -10.87 5.25 -12.94 4.09 54.94 77.84 9.31 12.2 6.17 6.55 7.53 4.05 8.64 1.69 0 6.24 -72.26 0 -73.93 -104.72 -15.05 0 0 64.49 0.57 15.15 1.72 8.26 3.16 4.34 4.89 3.36 8.27 2.16 13.28 0.72 0 6.24 -117.72 0 0 -6.24 13.38 -0.74 8.26 -2.22 4.84 -3.4 3.13 -4.29 1.72 -8.2 0.57 -15.13 0 -149.28 -0.57 -15.15 -1.72 -8.27 -3.16 -4.34 -4.9 -3.36 -8.27 -2.16 -13.28 -0.72 0 -6.24 106.69 0 19.43 0.36 16.64 1.08 13.84 1.8 11.05 2.51 12.08 4.93 10.5 7.08 8.91 9.26zm-237.69 -27.03l0 67.79 -6.24 0 -3.73 -15.01 -4.61 -11.89 -5.5 -8.78 -6.76 -6.57 -8.41 -5.3 -10.04 -4.02 -8.19 -1.69 -11.89 -1.01 -15.58 -0.34 -23.75 0 0 93.62 4.61 0 13.31 -1.53 10.61 -4.58 7.93 -7.63 5.79 -10.61 4.21 -13.51 2.61 -16.41 6.24 0 0 120.33 -6.24 0 -1.86 -12.32 -2.88 -10.73 -3.86 -9.15 -7.09 -10.49 -8.16 -6.38 -10.65 -3.24 -14.56 -1.08 0 64.73 0.41 15.29 1.2 7.92 6.02 6.94 5.76 2.03 8.48 0.67 13.72 0 20.05 -1.65 17.2 -4.97 14.36 -8.28 11.72 -11.68 9.29 -15.14 6.86 -18.58 6.29 0 -10.34 72.97 -198.58 0 0 -6.24 7.64 0 9.04 -0.89 7.08 -2.68 3.91 -3.23 2.88 -4.92 1.4 -7.39 0.47 -14.01 0 -151.01 -0.21 -12.6 -0.64 -6.58 -2.42 -5.26 -3.87 -3.91 -7.64 -3.56 -10.01 -1.19 -7.64 0 0 -6.24 192.27 0zm788.21 0l81.41 0 113.34 142.37 0 -98.68 -1.48 -17.33 -4.43 -10.63 -6.63 -5.42 -9.06 -3.16 -11.51 -0.91 0 -6.24 75.77 0 0 6.24 -12.18 2.15 -7.4 2.68 -4.45 3.9 -3.35 5.76 -2.1 9.09 -0.7 13.87 0 191.23 -5.73 0 -155.32 -191.53 0 146.46 1 11.76 3.02 8.9 5.03 6.05 9.7 5.2 11.02 1.73 5.42 0 0 6.24 -81.31 0 0 -6.24 16.06 -2.03 10.31 -5.75 5.58 -10.26 1.86 -15.6 0 -162.23 -4.91 -6.08 -6.86 -7.6 -6.01 -4.47 -6.81 -2.25 -9.27 -0.98 0 -6.24zm-52.1 28.88l12.34 14.3 9.61 15.66 6.86 17.03 4.11 18.4 1.38 19.77 -1.6 21.18 -4.8 19.87 -7.99 18.57 -11.2 17.24 -14.67 15.85 -16.9 12.33 -19.15 8.8 -21.38 5.28 -23.62 1.76 -23.67 -1.67 -21.42 -5.04 -19.18 -8.4 -16.93 -11.76 -14.67 -15.11 -11.71 -17.37 -8.37 -18.91 -5.02 -20.45 -1.66 -22.01 1.39 -19.77 4.18 -18.41 6.96 -17.04 9.75 -15.69 12.53 -14.32 14.57 -12.21 15.84 -9.31 17.12 -6.42 18.41 -3.52 19.69 -0.63 21.14 0.63 19.48 3.51 17.84 6.4 16.19 9.28 14.55 12.17zm-1402.66 -28.88l0 6.24 -4.75 0 -8.88 0.97 -7.25 2.92 -5.57 4.86 -3.77 6.81 -1.65 7.56 -0.55 11.89 0 87.18 -0.33 18.83 -1 16.01 -1.66 13.19 -2.33 10.38 -5.25 11.64 -8.65 11 -12.06 10.37 -11.26 6.59 -13.14 4.71 -15.02 2.83 -16.9 0.93 -18.35 -0.88 -15.34 -2.65 -12.33 -4.42 -13.33 -7.9 -10.43 -9.26 -7.54 -10.61 -5.08 -12.59 -3.04 -15.18 -1.02 -17.77 0 -112.4 -0.55 -16.05 -1.65 -8.56 -3.01 -4.34 -4.61 -3.37 -7.71 -2.12 -12.29 -0.59 0 -6.24 118.42 0 0 6.24 -5.92 0 -11.26 0.7 -7.07 2.09 -4.27 3.32 -2.83 4.38 -1.58 8.58 -0.53 15.95 0 112.35 0.52 18.22 1.54 13.59 2.59 8.97 6.15 9.14 9.16 7.44 12.05 4.95 14.85 1.65 11.79 -0.93 10.58 -2.79 9.35 -4.65 8.01 -6.3 6.54 -7.69 5.08 -9.11 3.62 -12.24 2.17 -17.09 0.72 -21.94 0 -93.57 -0.8 -13.19 -2.4 -8.8 -3.63 -5.59 -4.47 -3.55 -9.16 -2.92 -12.29 -0.97 0 -6.24 79.41 0zm-327.68 0l75.77 0 0 6.24 -12.18 2.15 -7.4 2.68 -4.45 3.9 -3.35 5.76 -2.1 9.09 -0.7 13.87 0 191.23 -5.73 0 -155.32 -191.53 0 146.46 1 11.76 3.02 8.9 5.03 6.05 9.7 5.2 11.02 1.73 5.42 0 0 6.24 -81.31 0 0 -6.24 16.06 -2.03 10.31 -5.75 5.58 -10.26 1.86 -15.6 0 -162.23 -4.91 -6.08 -6.86 -7.6 -6.01 -4.47 -6.82 -2.25 -9.26 -0.98 0 -6.24 81.41 0 113.34 142.37 0 -98.68 -1.48 -17.33 -4.43 -10.63 -6.63 -5.42 -9.06 -3.16 -11.51 -0.91 0 -6.24zm-169.56 223.48l0 6.24 -111.07 0 0 -6.24 4.57 0 11.38 -0.93 7.42 -2.79 3.72 -7.8 -1.02 -6.27 -1.43 -3.94 -3.64 -8.77 -12.44 -28.62 -80.46 0 -10.01 22.36 -3.56 10.21 -1.18 8.26 1.95 8.39 5.84 5.84 7.92 2.38 14.6 1.69 0 6.24 -76.36 0 0 -6.24 11.26 -3.5 9.05 -6.75 5.72 -7.58 6.55 -11.55 7.37 -15.52 82.07 -183.27 3.22 0 82.81 188.34 7.43 15.65 6.49 11.23 5.55 6.83 6.94 4.15 9.31 1.95zm1385.16 -582.7l118.42 0 0 6.24 -5.92 0 -11.26 0.69 -7.07 2.1 -4.26 3.32 -2.84 4.37 -1.58 8.59 -0.53 15.94 0 112.36 0.52 18.22 1.55 13.59 2.58 8.97 6.16 9.14 9.15 7.45 12.05 4.95 14.85 1.65 11.79 -0.93 10.58 -2.79 9.35 -4.66 8.01 -6.29 6.55 -7.7 5.08 -9.11 3.62 -12.23 2.17 -17.1 0.72 -21.94 0 -93.57 -0.8 -13.19 -2.4 -8.79 -3.63 -5.59 -4.48 -3.55 -9.16 -2.92 -12.29 -0.97 0 -6.24 79.41 0 0 6.24 -4.75 0 -8.87 0.97 -7.26 2.92 -5.56 4.86 -3.78 6.81 -1.65 7.57 -0.55 11.88 0 87.19 -0.33 18.82 -1 16.02 -1.66 13.19 -2.33 10.38 -5.25 11.64 -8.65 11 -12.06 10.37 -11.26 6.59 -13.14 4.71 -15.03 2.82 -16.9 0.94 -18.34 -0.88 -15.34 -2.65 -12.33 -4.42 -13.32 -7.91 -10.44 -9.25 -7.54 -10.62 -5.07 -12.57 -3.05 -15.18 -1.02 -17.77 0 -112.41 -0.55 -16.04 -1.65 -8.57 -3.01 -4.34 -4.61 -3.36 -7.71 -2.12 -12.29 -0.59 0 -6.24zm-30.75 57.75l-1.34 10.66 -4.04 9.86 -6.74 9.04 -10.13 8.04 -14.24 6.86 -18.34 5.67 19.8 5.45 15.42 6.16 11.07 6.87 10.62 11.29 6.37 13.33 2.13 15.36 -2.31 16.28 -6.94 14.3 -11.58 12.29 -14.24 8.98 -17.14 6.4 -20.05 3.85 -22.94 1.29 -116.72 0 0 -6.24 13.39 -0.74 8.25 -2.22 4.84 -3.4 3.14 -4.29 1.71 -8.2 0.57 -15.13 0 -149.28 -0.57 -15.15 -1.71 -8.26 -3.16 -4.34 -4.9 -3.36 -8.28 -2.15 -13.28 -0.72 0 -6.24 110.07 0 23.74 0.78 18.63 2.35 13.51 3.9 10.18 5.46 8.64 7.01 7.09 8.54 5.27 9.51 3.16 9.91 1.04 10.3zm477.82 -30.73l6.77 10.93 4.07 12.11 1.35 13.31 -2.03 15.96 -6.08 14.01 -10.14 12.05 -8.8 6.42 -10.87 5.26 -12.94 4.08 54.94 77.84 9.31 12.21 6.17 6.55 7.53 4.05 8.64 1.69 0 6.24 -72.25 0 -73.93 -104.72 -15.06 0 0 64.49 0.57 15.15 1.72 8.27 3.16 4.33 4.9 3.37 8.27 2.15 13.28 0.72 0 6.24 -117.72 0 0 -6.24 13.38 -0.74 8.26 -2.22 4.84 -3.4 3.13 -4.29 1.72 -8.2 0.57 -15.13 0 -149.28 -0.57 -15.15 -1.72 -8.26 -3.16 -4.34 -4.89 -3.36 -8.28 -2.15 -13.28 -0.72 0 -6.24 106.69 0 19.43 0.36 16.64 1.08 13.84 1.79 11.05 2.52 12.08 4.92 10.5 7.09 8.92 9.26zm311.77 12.33l0 151 0.49 14.35 1.45 7.73 2.88 4.14 4.72 3.59 6.65 2.48 8.64 0.83 7.59 0 0 6.24 -119.97 0 0 -6.24 7.65 0 9.03 -0.9 7.08 -2.67 3.91 -3.23 2.88 -4.92 1.4 -7.39 0.47 -14.02 0 -151 -0.47 -14.35 -1.4 -7.72 -2.83 -4.14 -4.73 -3.59 -6.68 -2.49 -8.67 -0.82 -7.65 0 0 -6.24 119.97 0 0 6.24 -7.59 0 -9 0.89 -7.05 2.67 -3.93 3.23 -3 4.93 -1.4 7.39 -0.46 14.01zm-96.22 -39.35l0 6.24 -7.47 0 -9.16 0.89 -7.13 2.67 -3.82 3.23 -2.97 4.93 -1.41 7.39 -0.46 14.01 0 112.43 -0.74 20.01 -2.2 16 -3.66 12 -5.54 9.44 -7.81 8.35 -10.09 7.27 -11.99 5.59 -13.51 3.36 -15.03 1.12 -18.06 -1.69 -15.61 -5.09 -13.13 -8.48 -9.92 -10.52 -5.95 -11.24 -1.98 -11.96 1.81 -10.74 5.46 -8.5 8.07 -5.52 9.69 -1.85 9.5 1.66 7.85 4.96 5.27 7.38 1.75 8.91 -1.17 8.31 -5.3 8.56 -3.47 5.87 -1.16 3.87 4.4 7.63 7.41 3.57 9.34 1.18 6.64 -0.93 5.37 -2.79 4.04 -4.76 2.64 -6.83 1.08 -8.37 0.65 -14.59 0.21 -20.81 0 -122.77 -0.48 -14.35 -1.46 -7.72 -2.88 -4.14 -4.73 -3.59 -6.66 -2.49 -8.65 -0.82 -9.64 0 0 -6.24 122.05 0z"></path> </g> </svg> 