<?xml version="1.0" encoding="UTF-8"?> <svg xmlns="http://www.w3.org/2000/svg" xmlns:xlink="http://www.w3.org/1999/xlink" xmlns:xodm="http://www.corel.com/coreldraw/odm/2003" xml:space="preserve" width="300mm" height="87.0897mm" version="1.1" style="shape-rendering:geometricPrecision; text-rendering:geometricPrecision; image-rendering:optimizeQuality; fill-rule:evenodd; clip-rule:evenodd" viewBox="0 0 1989.81 577.64"> <defs> <style type="text/css"> .fil1 {fill:#727271} .fil0 {fill:#727271;fill-rule:nonzero} </style> </defs> <g id="Слой_x0020_1"> <metadata id="CorelCorpID_0Corel-Layer"></metadata> <g id="_2062955696592"> <path class="fil0" d="M888.8 161.3l0 27.44 86.43 0c6.51,0 12.06,-2.28 16.7,-6.86 4.63,-4.57 6.94,-10.11 6.94,-16.61 0,-6.5 -2.31,-12.06 -6.94,-16.69 -4.64,-4.63 -10.19,-6.95 -16.7,-6.95l-62.95 0 0 -47.27 62.95 0c6.51,0 12.06,-2.28 16.7,-6.86 4.63,-4.57 6.94,-10.17 6.94,-16.77 0,-6.5 -2.31,-12.04 -6.94,-16.61 -4.64,-4.57 -10.19,-6.86 -16.7,-6.86l-86.43 0 0 114.04zm-23.64 74.7c-6.51,0 -12.07,-2.32 -16.69,-6.95 -4.63,-4.63 -6.95,-10.19 -6.95,-16.69l0 -188.74c0,-6.5 2.33,-12.06 6.95,-16.69 4.61,-4.63 10.18,-6.94 16.69,-6.94l110.06 0c13,0 24.88,3.2 35.62,9.59 10.74,6.39 19.3,14.93 25.7,25.61 6.38,10.69 9.58,22.52 9.58,35.54 0,9.14 -1.6,17.74 -4.79,25.78 -3.19,8.05 -7.66,15.21 -13.38,21.49 5.72,6.28 10.19,13.44 13.38,21.49 3.19,8.04 4.79,16.64 4.79,25.78 0,13 -3.2,24.85 -9.58,35.53 -6.4,10.69 -14.96,19.23 -25.7,25.62 -10.74,6.39 -22.62,9.59 -35.62,9.59l-110.06 0z"></path> <path class="fil0" d="M1247.54 0.16c4.62,0 8.86,1.27 12.72,3.79 3.84,2.54 6.77,5.96 8.75,10.26l98.83 221.79 -51.55 0 -68.75 -154.2 -68.76 154.2 -51.74 0 98.84 -221.79c1.99,-4.3 4.9,-7.72 8.77,-10.26 3.85,-2.53 8.15,-3.79 12.89,-3.79z"></path> <path class="fil0" d="M1680.97 86.6c0,14.66 -4.02,27.82 -12.07,39.5 -8.04,11.68 -18.56,20.28 -31.56,25.79l40.82 84.12 -52.38 0 -38.19 -78.67 -71.73 0 0 78.67 -47.26 0 0 -102.31c0,-6.49 2.31,-12.06 6.94,-16.69 4.63,-4.63 10.19,-6.94 16.7,-6.94l118 0c6.49,0 12.06,-2.29 16.7,-6.86 4.63,-4.57 6.94,-10.11 6.94,-16.61l0 -15.86c0,-6.5 -2.31,-12.04 -6.94,-16.61 -4.63,-4.57 -10.2,-6.86 -16.7,-6.86l-141.63 0 0 -47.26 141.63 0c13,0 24.84,3.2 35.53,9.59 10.69,6.39 19.23,14.93 25.61,25.61 6.39,10.69 9.59,22.52 9.59,35.54l0 15.86z"></path> <path class="fil0" d="M1844.2 141.63c-13,0 -24.85,-3.19 -35.53,-9.59 -10.69,-6.38 -19.23,-14.93 -25.62,-25.62 -6.39,-10.68 -9.59,-22.58 -9.59,-35.69 0,-13.01 3.2,-24.85 9.59,-35.54 6.39,-10.69 14.93,-19.23 25.62,-25.61 10.69,-6.39 22.53,-9.59 35.53,-9.59l137.67 0 0 47.26 -137.67 0c-6.5,0 -12.04,2.29 -16.61,6.86 -4.57,4.57 -6.86,10.11 -6.86,16.61 0,6.61 2.29,12.2 6.86,16.77 4.57,4.57 10.11,6.86 16.61,6.86l74.87 0c13,0 24.85,3.2 35.54,9.59 10.69,6.39 19.23,14.96 25.61,25.7 6.39,10.74 9.59,22.61 9.59,35.61 0,13 -3.2,24.85 -9.59,35.53 -6.38,10.69 -14.92,19.23 -25.61,25.62 -10.69,6.39 -22.54,9.59 -35.54,9.59l-141.63 0 0 -47.27 141.63 0c6.5,0 12.04,-2.28 16.61,-6.86 4.57,-4.57 6.85,-10.11 6.85,-16.61 0,-6.5 -2.28,-12.06 -6.85,-16.69 -4.57,-4.63 -10.12,-6.95 -16.61,-6.95l-74.87 0z"></path> <path class="fil1" d="M919.65 539.67l-2.06 0c-13.68,0 -26.41,-3.63 -38.11,-10.72 -11.66,-7.07 -20.96,-16.53 -27.76,-28.35 -6.72,-11.68 -10.2,-24.28 -10.2,-37.75 0,-21.17 7.78,-39.25 22.76,-54.17 15.03,-14.97 33.21,-22.65 54.44,-22.65 14.34,0 27.73,3.83 40.12,11.06l1.98 1.16 0 16.78 -6.24 -4.25c-10.84,-7.38 -22.74,-11.32 -35.86,-11.32 -17.45,0 -32.17,6.27 -44.47,18.63 -12.33,12.39 -18.55,27.18 -18.55,44.67 0,17.52 6.24,32.34 18.56,44.77 12.28,12.4 26.99,18.72 44.46,18.72 13.12,0 25.02,-3.94 35.87,-11.32l6.24 -4.24 0 16.71 -1.9 1.17c-12.02,7.39 -25.16,11.11 -39.27,11.11z"></path> <path class="fil1" d="M1022.28 525.02c-9.15,-9.48 -14.07,-20.82 -14.07,-34.02 0,-13.19 4.98,-24.44 14.32,-33.71 9.5,-9.43 21.05,-14.2 34.44,-14.2 13.37,0 24.9,4.76 34.35,14.21 9.31,9.31 14.21,20.6 14.21,33.79 0,13.16 -4.78,24.52 -13.87,34.01 -9.2,9.61 -20.54,14.56 -33.86,14.56l-1.69 0c-13.32,0 -24.61,-5.08 -33.85,-14.64zm69.27 -33.56c0,-9.67 -3.49,-17.8 -10.23,-24.71 -6.7,-6.86 -14.66,-10.43 -24.27,-10.43 -9.67,0 -17.69,3.66 -24.46,10.54 -6.78,6.89 -10.4,15 -10.4,24.69 0,9.65 3.57,17.69 10.38,24.5 6.83,6.83 14.91,10.37 24.58,10.37 9.59,0 17.59,-3.48 24.28,-10.34 6.72,-6.88 10.12,-15 10.12,-24.63z"></path> <path class="fil1" d="M1166.91 453.78c7.31,-7.29 17.08,-10.69 28.67,-10.69 11.4,0 21.31,3.93 29.31,12.08 7.94,8.08 11.85,17.94 11.85,29.26l0 53.18 -13.98 0 0 -53.18c0,-7.69 -2.71,-14.21 -8,-19.77 -5.25,-5.53 -11.54,-8.33 -19.17,-8.33 -7.85,0 -14.4,3 -20.02,8.44 -5.58,5.41 -8.65,11.83 -8.65,19.66l0 53.18 -13.99 0 0 -92.46 13.99 0 0 8.63z"></path> <path class="fil1" d="M1311.2 456.14c-2.32,0 -4.28,0.73 -6.04,2.24 -1.55,1.31 -2.35,2.81 -2.35,4.85 0,2.32 1.32,4.18 2.96,5.71 2.8,2.61 6,4.8 9.35,6.65 4.09,2.27 8.12,4.67 12.09,7.15 4.46,2.79 8.26,6.36 11.35,10.62 3.37,4.65 4.98,9.93 4.98,15.66 0,8.61 -3.33,15.92 -9.62,21.79 -6.41,5.98 -14.14,8.86 -22.9,8.86 -5.54,0 -10.84,-1.22 -15.79,-3.73 -4.68,-2.37 -8.63,-5.73 -11.17,-10.37l-0.49 -0.9 0 -28.52 7.63 16.85c3.84,8.47 9.76,13.42 19.26,13.42 5.22,0 9.86,-1.46 13.76,-4.98 3.1,-2.8 5.35,-6.18 5.35,-10.46 0,-3.69 -0.92,-7.07 -3.3,-9.93 -2.6,-3.12 -5.71,-5.69 -9.2,-7.76 -3.96,-2.35 -7.93,-4.7 -11.91,-7.03 -4.22,-2.48 -7.98,-5.58 -11.15,-9.31 -3.46,-4.08 -5.18,-8.88 -5.18,-14.22 0,-5.74 2.4,-10.56 6.75,-14.29 4.63,-3.98 10.36,-5.56 16.39,-5.56 6.91,0 12.75,2.78 17.4,7.87l1.04 1.14 0 22.43 -7.31 -10.97c-2.87,-4.31 -6.57,-7.23 -11.88,-7.23z"></path> <path class="fil1" d="M1458.89 528.97c-7.31,7.29 -17.08,10.7 -28.67,10.7 -11.4,0 -21.31,-3.94 -29.31,-12.08 -7.94,-8.08 -11.85,-17.94 -11.85,-29.26l0 -53.17 13.99 0 0 53.17c0,7.7 2.7,14.2 8,19.77 5.25,5.52 11.53,8.34 19.16,8.34 7.86,0 14.41,-2.99 20.03,-8.45 5.57,-5.41 8.64,-11.83 8.64,-19.66l0 -53.17 13.99 0 0 92.46 -13.99 0 0 -8.64z"></path> <path class="fil1" d="M1563.15 526.05l0 13.24 -3.99 0c-9.77,0 -18.36,-3.28 -25.45,-10.02 -7.29,-6.92 -10.63,-15.69 -10.63,-25.7l0 -114.74 13.99 0 0 114.74c0,6.28 1.93,11.68 6.41,16.11 4.37,4.32 9.54,6.36 15.68,6.36l3.99 0z"></path> <path class="fil1" d="M1619.85 445.34l25.9 0 0 13.23 -25.9 0 0 44.44c0,6.28 1.92,11.68 6.41,16.12 4.37,4.31 9.55,6.36 15.68,6.36l3.99 0 0 13.23 -3.99 0c-9.77,0 -18.37,-3.27 -25.46,-10.01 -7.29,-6.92 -10.62,-15.69 -10.62,-25.7l0 -91.84 13.99 0 0 34.16z"></path> <path class="fil1" d="M1706.94 445.34l0 92.27 -13.98 0 0 -92.27 13.98 0zm-6.99 -12.66c-5.65,0 -9.44,-3.28 -9.44,-9.06 0,-5.78 3.79,-9.06 9.44,-9.06 5.64,0 9.42,3.3 9.42,9.06 0,5.76 -3.78,9.06 -9.42,9.06z"></path> <path class="fil1" d="M1775.44 453.78c7.31,-7.29 17.09,-10.69 28.67,-10.69 11.4,0 21.31,3.93 29.31,12.07 7.94,8.08 11.84,17.94 11.84,29.26l0 53.18 -13.99 0 0 -53.18c0,-7.7 -2.7,-14.2 -8,-19.77 -5.25,-5.52 -11.54,-8.33 -19.17,-8.33 -7.85,0 -14.4,3 -20.02,8.44 -5.58,5.41 -8.65,11.83 -8.65,19.66l0 53.18 -13.98 0 0 -92.46 13.98 0 0 8.63z"></path> <path class="fil1" d="M1975.83 525.55c-2.91,2.94 -6.26,5.46 -9.99,7.59 -7.58,4.31 -15.77,6.72 -24.5,6.72 -13.35,0 -24.87,-4.8 -34.35,-14.2 -9.44,-9.37 -14.32,-20.77 -14.32,-34.09 0,-13.31 4.88,-24.71 14.32,-34.08 9.47,-9.41 20.99,-14.21 34.35,-14.21 8.84,0 17.13,2.23 24.8,6.64 3.65,2.1 6.9,4.6 9.7,7.51l0 -12.27 13.98 0 0 80.58c0,13.74 -3.44,26.97 -13.12,37.1 -9.25,9.68 -21.13,13.81 -34.42,13.81 -7.9,0 -15.46,-1.85 -22.57,-5.28 -6.83,-3.29 -12.85,-7.83 -17.28,-14.03l-0.74 -1.04 0 -25.65 7.5 13.83c3.16,5.83 8.1,10.18 13.79,13.47 5.96,3.45 12.39,5.47 19.31,5.47 9.47,0 17.59,-2.99 24.12,-9.92 7.13,-7.58 9.44,-17.6 9.44,-27.76l0 -0.18zm-69.18 -33.99c0,9.7 3.53,17.83 10.38,24.68 6.83,6.83 14.91,10.37 24.58,10.37 9.59,0 17.58,-3.47 24.27,-10.33 6.74,-6.9 10.12,-15.06 10.12,-24.72 0,-9.65 -3.39,-17.8 -10.12,-24.71 -6.69,-6.86 -14.68,-10.35 -24.27,-10.35 -9.67,0 -17.75,3.55 -24.58,10.38 -6.85,6.85 -10.38,14.97 -10.38,24.67z"></path> <polygon class="fil1" points="841.52,326.34 1989.81,326.34 1989.81,304.68 841.52,304.68 "></polygon> <path class="fil1" d="M71.42 326.71c10.07,23.75 18.92,45.04 28.27,66.1 1.12,2.53 5.06,5.39 7.73,5.42 36.47,0.36 72.94,0.24 109.42,0.24 0,-25.38 0,-48.51 0,-71.75 -47.6,0 -93.86,0 -145.42,0zm-0.02 -75.81c52.1,0 98.62,0 145.68,0 0,-24.17 0,-47.23 0,-71.82 -36.41,0 -71.72,-0.19 -107.01,0.27 -3.69,0.05 -9.23,3.05 -10.66,6.16 -9.4,20.55 -17.92,41.51 -28.01,65.39zm343.42 -144.97c-18.7,-10.51 -50.18,-25.09 -91.71,-30.33 -50.9,-6.42 -91.73,4.37 -113.33,11.8 -41.51,0.28 -83.03,0.59 -124.55,0.87 19.85,-17.88 110.89,-96.03 239.65,-87.64 75.98,4.95 129.82,37.71 145.36,47.8 45.75,29.71 82.87,72.87 111.48,129.74 -97.77,0 -192.54,0 -290.25,0 -0.08,25.23 -0.16,50.45 -0.24,75.68 -4.99,2.17 -9.99,4.41 -15.03,6.71 -19.98,9.1 -39.01,18.54 -57.14,28.19 19.68,10.62 40,21.03 60.96,31.15 3.45,1.67 6.9,3.32 10.34,4.94l1.03 145.99 -225.22 0.17c-0.77,-0.83 -4.42,-4.79 -8.63,-9.98 -74.62,-91.99 -78.78,-266.85 -0.13,-344.06 5.71,-5.61 10.71,-9.58 12.27,-10.8 109.6,-0.15 219.23,-0.22 328.88,-0.23 0.52,0 15.72,0 16.24,0z"></path> <path class="fil1" d="M384.03 324.01c48.59,0 95.65,0 143.63,0 0,-24.45 0,-47.35 0,-70.56 -49.45,0 -96.13,0 -143.63,0 0,23.8 0,46.5 0,70.56zm-73.88 184.36c0,-106.98 0,-208.2 0,-311.37 7.53,0 13.12,0 18.71,0 113.06,0.02 157.53,-0.94 242.65,-0.29 6.92,0.06 12.57,0.11 16.15,0.14 1.63,4 3.85,9.79 6.07,16.89 10.77,34.3 10.21,62.57 9.66,82.63 -0.53,19.16 -1.73,50.99 -16.31,88.34 -2.4,6.14 -4.67,11.16 -6.31,14.64 -4.88,-0.07 -9.79,-0.13 -14.69,-0.18 -31.25,-0.36 -62.29,-0.45 -93.1,-0.3 25.21,23.01 47.17,43.05 70.27,64.15 -17.32,18 -33.75,35.07 -50.89,52.91 -36.93,-33.36 -71.29,-64.41 -108.19,-97.74 0,51.15 0,99.41 0,146.96 -86.78,30.84 -225.89,4.37 -303.44,-76.54 30.9,-0.02 61.8,-0.04 92.7,-0.06 17.18,5.6 43.91,14.4 68.57,17.63 26.18,3.42 49.35,3.44 68.14,2.21z"></path> </g> </g> </svg> 