<?xml version="1.0" encoding="UTF-8"?> <svg xmlns="http://www.w3.org/2000/svg" xmlns:xlink="http://www.w3.org/1999/xlink" xmlns:xodm="http://www.corel.com/coreldraw/odm/2003" xml:space="preserve" width="300mm" height="83.6035mm" version="1.1" style="shape-rendering:geometricPrecision; text-rendering:geometricPrecision; image-rendering:optimizeQuality; fill-rule:evenodd; clip-rule:evenodd" viewBox="0 0 1989.81 554.52"> <defs> <style type="text/css"> .fil0 {fill:#727271} </style> </defs> <g id="Слой_x0020_1"> <metadata id="CorelCorpID_0Corel-Layer"></metadata> <g id="_2062948800352"> <path class="fil0" d="M1898.46 235.69l7.98 -14.65c10.09,14.87 0.23,174.77 4.99,208.93l70.69 0.6c5.5,-16.17 3.2,-249.82 1.76,-284.56 -25.78,-4.88 -89.74,-5.21 -109.3,3.82 -1.27,16.6 -42.6,85.08 -53.05,105.45l-47.65 92.65c-6.42,8.59 -1.94,5.56 -11.94,9.84 -10.94,-32.33 -87.27,-167.87 -109.68,-215.41l-106.62 0.76 0.91 289.95c19.01,1.95 61.02,3.68 78.61,-1.58l5.45 -194.44c10.83,10.57 44.52,83.87 51.3,97.22 15.86,31.25 33.9,70.99 50.96,99.82l67.27 -0.98 98.32 -197.42z"></path> <path class="fil0" d="M1418.05 252.68c6.03,6.13 5.69,-9.49 5.4,10.73 -32.92,8.2 -140.59,0.67 -184.8,2.51l0.35 45.86 184.57 1.29c0.97,9.78 4.39,1.95 -1.6,14.55l-7.88 8.93c-0.4,-0.71 -1.74,1.39 -2.6,2.09 -29.36,38.45 -85.47,54.36 -145.8,47.61 -38.99,-4.36 -46.59,-14.07 -69.87,-26.58 -18.12,-9.74 -68.71,-4.63 -93.46,-4.48 7.72,32.35 65.64,62.7 92.77,72.14 38.92,13.55 96.6,18.44 143.45,12.29 231.32,-30.38 218,-280.24 -6.62,-300.08 -48.7,-4.3 -103.9,-0.04 -145.29,16.17 -30.15,11.81 -81,40.46 -87.64,72.13 39.46,1.35 77.02,5.92 98.89,-9.64 66.59,-47.38 193.66,-28.92 220.13,34.48z"></path> <path class="fil0" d="M706.59 197.06c4.51,5.03 6.11,1.05 5.98,26.24 -0.21,40.81 -3.42,190.39 1.78,208.03l71.23 0.61c12.24,-40.92 -4.7,-180.6 3.41,-235.72 21.87,-7.2 50.51,-0.74 73.86,-3.49 2.46,-14.38 3.66,-34.33 -1.2,-47.58l-226.52 -0.29 -1.92 49.55 73.37 2.64z"></path> <path class="fil0" d="M1099.96 190.62l-0.56 -48.24 -202.4 0.22c-5.18,19.05 -4.97,275.61 -0.12,287.39l69.88 0.38 1.31 -234.57c28.22,-10.45 97.92,1.92 131.88,-5.18z"></path> <path class="fil0" d="M315.89 384.53l2.2 -127.88c0.05,6.83 -0.7,15.51 -0.53,21.8 0.15,5.61 0.38,10.04 2.01,15.3 3.3,10.71 -0.06,3.64 5.9,10.83 0.05,-22.89 2.66,-227.53 -2.65,-229.69 -10.82,7.54 -95.69,143.99 -112.64,169.58 -10.09,15.24 -53.36,78.19 -56.39,87.59 -3.98,12.3 -2.87,119.63 -1.47,138.43 10.81,-5.38 112.08,-165.62 132.99,-198.83 19.78,-31.42 8.65,-19.69 22.47,-24.28l0.41 148.39c7.7,-4.18 5.73,-2.84 7.71,-11.24z"></path> <path class="fil0" d="M388.03 1.49c-26.9,-0.54 -26.11,-0.73 -30.98,8.13 5.24,3.71 1.42,2.03 9.31,4.13 20.41,5.42 92.11,-5.98 135.29,7.55 138.69,43.44 105.13,209.21 104.56,360.9 -0.34,90.78 -62.19,153.41 -155.33,154.12l-273.01 -0.25c-26.26,-0.55 -26.23,-0.86 -31.59,8.23 7.12,9.34 -3.1,5.13 16.62,6.79l302.83 -0.55c83.92,-4.49 152.41,-75.16 152.95,-168.44 0.32,-54.03 -0.07,-108.23 -0.08,-162.29 -0.02,-60.23 4.71,-95.41 -23.3,-140.53 -19.97,-32.16 -50.41,-58.67 -92.77,-70.92 -34.04,-9.85 -75.85,-6.08 -114.49,-6.86z"></path> <path class="fil0" d="M489.24 33.12c-15.66,-4.06 -117.91,-8.42 -132.29,-1.38 0.4,15.9 5.31,11.76 23.46,11.6 73.09,-0.66 141.99,-11.36 183.56,63.3 24.42,43.84 13.18,208.23 13.17,271.73 -0.01,50.05 -16.04,80.08 -42.96,101.72 -36.08,29.02 -58.36,27.66 -112.83,27.67l-210.18 -0.01c-17.87,-0.01 -51.3,-7.03 -57.81,10.72 15.4,8.1 251.32,2.73 290.13,2.73 93.58,-0.02 147.49,-54.56 147.97,-146.5 0.73,-140.84 32.57,-306.65 -102.21,-341.57z"></path> <path class="fil0" d="M372.84 57.35c-16.92,0.87 -14.86,-2.17 -15.7,11.27 33.25,17.61 120.62,-21.32 166.86,30.16 34.13,38 28.54,109.35 25.46,168.53 -20.45,2.98 -71.22,-3.28 -85.18,4.12 1.09,22.33 37.71,6.02 84.93,11.95 14.94,226.15 -47.77,196.36 -242.18,196.42 -24.58,0.01 -49.17,-0.02 -73.75,-0.01 -21.98,0.01 -52.39,-5.36 -61.75,9.19 16.29,11.61 219.46,3.77 257.18,3.87 93.28,0.26 134.43,-33.75 134.05,-129.24 -0.23,-58.31 9.18,-210.98 -12.12,-250.45 -33.82,-62.68 -114.65,-59.07 -177.81,-55.8z"></path> <path class="fil0" d="M322.81 74.89c5.32,2.16 2.7,206.8 2.65,229.69 -5.96,-7.19 -2.59,-0.12 -5.9,-10.83 -1.62,-5.26 -1.85,-9.69 -2.01,-15.3 -0.17,-6.29 0.57,-14.98 0.53,-21.8l-2.2 127.88c13.25,-10.3 60.69,-88.93 77.58,-115.11 7.48,-11.6 15.55,-29.49 27.38,-33.98 8.7,82.06 -19.58,105.23 28.96,96.4l-0.23 -184.78c-13.14,6.48 -64.88,95.09 -83.02,121.29 -4.65,6.72 -7.22,10.86 -12.76,20.23 -7.76,13.14 -8.87,14.45 -18.52,17.62 0.81,-34.61 5.93,-233.55 -3.74,-248.57l-8.72 17.26z"></path> <path class="fil0" d="M41.8 113.8c-12.15,69.71 -7.56,144.35 -7.56,216.61 0,47.44 -5.78,184.41 1.58,219.47 12.24,-7.59 8.84,-4.36 8.55,-23.91l-0.2 -180.8c0,-13.66 -6.91,-196.84 6.57,-207.07 -0.38,-43.8 51.75,-86.31 95.19,-93.48 25.05,-4.14 67.81,-1.63 94.73,-1.63 40.01,0 73.78,7.2 79.56,-11.25 -10.27,-5.31 -162.23,-4.5 -180.01,-0.33 -49.81,11.67 -80.13,44.01 -98.4,82.4z"></path> <path class="fil0" d="M96.85 550.69c13.09,-7.5 5.9,-56.49 5.9,-72.78l0 -243.37c0,-59.08 -10.53,-104.39 35.05,-128.28 39.37,-20.64 129.99,7.21 144.72,-15.52 -11.87,-8.82 -61.94,-5 -82.42,-5.04 -108.21,-0.19 -111.19,32.95 -111.18,141.47l-0.12 291.42c-0.68,40.18 1.23,29.5 8.05,32.1z"></path> <path class="fil0" d="M229.6 128.06c18.19,0 30.36,4.68 35.76,-11.51 -5.93,-3.27 -106.41,-12.52 -131.86,10.87 -18.01,16.56 -17.42,30.27 -17.29,59.12l0.06 298.75c0,26.55 -5.08,59.5 6.4,65.37 9.77,-3.6 5.81,4.67 8.57,-13.41l0.04 -354.33c-0.01,-63.33 22.14,-54.87 98.32,-54.86z"></path> <path class="fil0" d="M8.94 137.11c-0.86,68.44 -1.68,138.8 -1.67,208.05l-0.01 154.87c-0.03,14.15 -3.52,34.54 4.78,46.06 10.11,-32.21 -2.97,-313.96 1.66,-385.5 0.76,-11.81 1.46,-15.09 8.01,-22.5 -1.78,-27.09 23.99,-63.18 35.49,-75.93 55.9,-61.96 140.53,-47.54 231.4,-47.26 48.51,0.15 40.92,4.4 49.16,-8.97 -15.39,-10.1 -12.31,-4.23 -12.33,-4.23l-44.2 -0.19c-19.67,0.01 -39.33,0.02 -59,0.01 -40.56,-0.01 -73.31,-2.99 -109.73,9.07 -52.95,17.53 -108.15,82.97 -103.55,126.52z"></path> <path class="fil0" d="M476.59 296.7c-15.96,3.43 -5.98,-3.07 -11.95,7.91 11.1,5.95 -9.88,2.47 12.13,5.76l43.79 1.45c3.69,102.68 9.45,139.56 -99.22,139.44 -39.33,-0.04 -78.67,0 -118,0 -21.55,0 -101,-6.34 -112.78,8.21l252.93 5.52c36.98,-0.23 69.3,-10.13 84.93,-46.75 9.4,-22.02 8.85,-95.08 4.11,-121.15l-55.95 -0.4z"></path> <path class="fil0" d="M65.36 142.52l-1.53 379.72c-0.01,0.97 -0.12,10.93 -0.09,11.17 1.58,15.76 -2.69,-10.03 1.17,6.88l2.44 6.18c13.15,-22.43 -5.56,-363.72 7.34,-394.94 0.29,-0.7 1.04,-1.78 1.61,-2.64 2.72,-37.99 37.79,-72.85 79.44,-76.88 22.9,-2.21 53.8,-0.53 77.54,-0.52 41.59,0.02 60.17,6.29 67.5,-10.25 -5.26,-2.81 0.38,-1.12 -8.96,-2.88l-29.01 -0.69c-29.32,0.27 -97.79,-2.05 -118.61,2.38 -35.3,7.52 -81.39,45.4 -78.83,82.47z"></path> <path class="fil0" d="M473.57 325.77c-8.51,2.45 -3.09,-0.08 -8.52,4.64 6.46,7.71 0.33,5.11 11.66,8.56 0.95,0.29 10.67,0.54 15.4,1.62 13.51,104.98 -30.23,82.4 -199.83,82.35 -40.2,-0.01 -76.28,-7.04 -84.5,10.72 17.08,10.83 168.96,3.54 202.5,3.55 91.98,0.02 105.1,-9.79 95.87,-110.9 -6.76,-1.08 -15.46,-2.53 -22.36,-2.19 -5.39,0.26 -5.36,0.26 -10.22,1.66z"></path> <path class="fil0" d="M706.59 197.06c-0.75,38.16 -7.86,215.81 4.16,238.27 16.88,3.07 65.62,4.47 80.08,-1.66 7.69,-25.75 2.92,-192.03 2.92,-232.32 19.44,-9.04 50.34,0.01 72.94,-4.89 3.33,-10.68 6.14,-42.84 -0.9,-51.93 -7.59,-7.81 -13.24,-5.22 -27.57,-5.08 -27.32,0.26 -190.92,-5.39 -203.08,5.42l226.52 0.29c4.86,13.25 3.66,33.19 1.2,47.58 -23.36,2.75 -51.99,-3.7 -73.86,3.49 -8.11,55.12 8.83,194.8 -3.41,235.72l-71.23 -0.61c-5.2,-17.63 -1.99,-167.22 -1.78,-208.03 0.13,-25.2 -1.48,-21.22 -5.98,-26.24z"></path> <path class="fil0" d="M21.71 138.08c-6.55,7.42 -7.24,10.69 -8.01,22.5 -4.63,71.54 8.45,353.29 -1.66,385.5 -8.29,-11.52 -4.81,-31.9 -4.78,-46.06l0.01 -154.87c-0.01,-69.25 0.81,-139.62 1.67,-208.05 -11.24,10.31 -7.5,27.45 -7.46,49.5 0.17,82.63 -4.01,317.26 0.98,364.07l17.23 -0.57 2.01 -412.02z"></path> <path class="fil0" d="M76.3 148.88c-0.57,0.86 -1.32,1.93 -1.61,2.64 -12.91,31.23 5.81,372.52 -7.34,394.94l-2.44 -6.18c-3.86,-16.91 0.41,8.89 -1.17,-6.88 -0.02,-0.24 0.08,-10.2 0.09,-11.17l1.53 -379.72c-12.54,14.63 -6.51,84.62 -6.51,103.09 -0,52.04 -3.08,288.27 2.36,306.09 15.02,-2 13.76,4.14 15.62,-14.35l-0.52 -388.46z"></path> <path class="fil0" d="M359.98 89.17c-0.62,-0.94 -2.12,0.91 -3.06,1.56 9.27,9.7 -10.29,5.9 16.07,9.24 26.13,3.31 90.78,-9.8 120.83,10.33 36.9,24.72 27.58,76.83 26.95,128.24 -16.43,3.41 -44.62,-4.57 -56.13,7.06 5.31,10.44 -5.15,6.01 15.33,8.58l54.05 -2.76c4.74,-44.55 9.35,-114.47 -25.02,-145.2 -19.9,-17.79 -39.31,-20.73 -69.17,-20.62l-79.84 3.56z"></path> <path class="fil0" d="M1099.96 190.62c-33.96,7.1 -103.66,-5.27 -131.88,5.18l-1.31 234.57 -69.88 -0.38c-4.86,-11.78 -5.07,-268.34 0.12,-287.39 -9.94,6.25 -6.68,-3.77 -8.41,17.9l0.55 55.6c0,40.5 -3.32,201.39 2.93,218.71 15.56,2.27 65.03,3.61 78.31,-1.15 9.93,-31.06 0.17,-186.26 3.31,-233.86 17.79,-6.57 43.72,-2.64 63.45,-2.64 11.11,0 22.17,-0.05 33.27,0.17 33.39,0.65 26.21,-0.12 29.55,-6.7z"></path> <path class="fil0" d="M50.74 138.1c-13.48,10.23 -6.57,193.4 -6.57,207.07l0.2 180.8c0.29,19.56 3.69,16.33 -8.55,23.91 -7.36,-35.06 -1.58,-172.03 -1.58,-219.47 -0,-72.26 -4.59,-146.9 7.56,-216.61 -4.55,6.23 0.19,-6.37 -6.91,11.7 -9.65,24.55 -5.02,328.1 -5.03,378.21 -0.01,38.34 -5.12,39.35 7.99,50.79 13.18,-6.02 10.8,-3.09 10.99,-21.07 1.36,-127.31 -4.05,-271.28 1.9,-395.34z"></path> <path class="fil0" d="M413.96 114.36c-38.52,0.03 -53.28,-6.48 -57.29,9.56 48.07,26.83 151.72,-52.18 136.14,86.91l-28.65 5.28c3.6,15.5 21.89,11.22 40.39,9.37 8.93,-38.68 5.4,-92.95 -26.6,-106.77 -17.39,-7.51 -43.62,-4.36 -63.99,-4.34z"></path> <path class="fil0" d="M1874.57 149.83c19.56,-9.03 83.52,-8.71 109.3,-3.82 1.45,34.75 3.75,268.4 -1.76,284.56l-70.69 -0.6c-4.76,-34.16 5.1,-194.07 -4.99,-208.93l-7.98 14.65c6.76,-3.53 7.67,3.15 5.81,-3.91 3.49,45.89 -6.19,169.1 3.42,203.64l78.76 0.03c4.74,-16.78 4.39,-278.1 -0.56,-294.24l-89.79 -1.23c-16.7,0.25 -13.8,-0.96 -21.53,9.84z"></path> <path class="fil0" d="M1411.5 338.63c0.86,-0.7 2.21,-2.8 2.6,-2.09l7.88 -8.93c5.98,-12.6 2.57,-4.77 1.6,-14.55l-184.57 -1.29 -0.35 -45.86c44.21,-1.84 151.88,5.69 184.8,-2.51 0.29,-20.22 0.63,-4.6 -5.4,-10.73l-1.12 7.5 -183.11 1.91 0.87 51.77c24.69,8.01 147.22,1.16 184.82,3.33 -0.92,11.29 -2.7,10.34 -8.01,21.45z"></path> </g> </g> </svg> 