<?xml version="1.0" encoding="UTF-8"?> <svg xmlns="http://www.w3.org/2000/svg" xmlns:xlink="http://www.w3.org/1999/xlink" xmlns:xodm="http://www.corel.com/coreldraw/odm/2003" xml:space="preserve" width="300mm" height="83.311mm" version="1.1" style="shape-rendering:geometricPrecision; text-rendering:geometricPrecision; image-rendering:optimizeQuality; fill-rule:evenodd; clip-rule:evenodd" viewBox="0 0 1989.81 552.58"> <defs> <style type="text/css"> .fil0 {fill:#727271;fill-rule:nonzero} </style> </defs> <g id="Слой_x0020_1"> <metadata id="CorelCorpID_0Corel-Layer"></metadata> <g id="_2062902695504"> <path class="fil0" d="M154.12 531.68c0,11.5 -9.4,20.89 -20.92,20.89l-112.31 0c-11.5,0 -20.89,-9.4 -20.89,-20.89l0 -509.49c0,-11.53 9.39,-20.95 20.89,-20.95l112.31 0c11.53,0 20.92,9.42 20.92,20.95l0 509.49z"></path> <path class="fil0" d="M749.65 397.95c-67.35,0 -121.92,-54.57 -121.92,-121.95 0,-67.32 54.58,-121.92 121.92,-121.92 67.35,0 121.95,54.6 121.95,121.92 0,67.37 -54.6,121.95 -121.95,121.95zm0 -396.28c-151.53,0 -274.32,122.83 -274.32,274.34 0,151.53 122.79,274.38 274.32,274.38 151.54,0 274.38,-122.84 274.38,-274.38 0,-151.51 -122.84,-274.34 -274.38,-274.34z"></path> <path class="fil0" d="M1715.46 397.95c-67.35,0 -121.95,-54.57 -121.95,-121.95 0,-67.32 54.6,-121.92 121.95,-121.92 67.35,0 121.95,54.6 121.95,121.92 0,67.37 -54.6,121.95 -121.95,121.95zm0 -396.28c-151.54,0 -274.38,122.83 -274.38,274.34 0,151.53 122.84,274.38 274.38,274.38 151.53,0 274.35,-122.84 274.35,-274.38 0,-151.51 -122.82,-274.34 -274.35,-274.34z"></path> <path class="fil0" d="M1010.24 0.11c-11.5,0 -16.05,8.08 -10.12,17.9l148.06 247.08c5.95,9.87 16.48,23.68 10.81,38.82l-101.74 226.63c-5.47,13.28 1.75,22.03 20.89,22.03l127.29 0c11.5,0 15.82,-8.76 20.92,-20.89l100.83 -225.68c7.23,-17.25 -3.92,-31.05 -9.89,-40.92l-148.05 -247.08c-5.94,-9.82 -20.22,-17.9 -31.7,-17.9l-127.3 0z"></path> <path class="fil0" d="M485.78 552.58c11.53,0 16.05,-8.06 10.12,-17.9l-148.06 -247.08c-5.93,-9.86 -16.45,-23.68 -10.81,-38.82l101.75 -226.58c5.48,-13.28 -1.72,-22.09 -20.92,-22.09l-127.25 0c-11.51,0 -15.81,8.79 -20.92,20.92l-100.84 225.7c-7.2,17.19 3.94,31.01 9.88,40.87l148.05 247.08c5.96,9.84 20.22,17.9 31.7,17.9l127.3 0z"></path> <path class="fil0" d="M1433.45 0l-127.26 0c-11.52,0 -15.82,8.81 -20.91,20.92l-30.92 68.77 -0.03 0.03c-0.64,1.56 -1.02,3.28 -1.02,5.11 0,2.52 0.76,4.88 1.96,6.86l0.41 0.64 78.52 132.62 2.14 3.61c2.41,2.94 6.01,4.81 10.09,4.81 5.08,0 9.42,-2.91 11.62,-7.12 0.25,-0.47 0.49,-0.98 0.67,-1.49l95.66 -212.67c5.48,-13.28 -1.72,-22.09 -20.92,-22.09z"></path> </g> </g> </svg> 