<?xml version="1.0" encoding="UTF-8"?> <svg xmlns="http://www.w3.org/2000/svg" width="131" height="31" viewBox="0 0 131 31" fill="none"><path d="M0.100192 21.926L0 8.83787C0 8.79289 0.0333974 8.71418 0.100192 8.60174C0.166987 8.51179 0.233782 8.46681 0.300577 8.46681H1.20231C1.38043 8.46681 1.49175 8.62423 1.53628 8.93906L1.83686 10.8955H1.93705C2.49367 10.0635 3.21728 9.38883 4.10788 8.8716C4.95395 8.37686 5.87794 8.12949 6.87987 8.12949C7.90405 8.12949 8.80578 8.3881 9.58505 8.90533C10.3643 9.40007 10.8987 10.1422 11.1881 11.1317H11.2549C12.5686 9.10773 14.3386 8.09576 16.5651 8.09576C18.0569 8.09576 19.2258 8.55676 20.0718 9.47878C20.8956 10.3783 21.3075 11.6601 21.3075 13.3243V21.926C21.3075 21.9935 21.2741 22.0609 21.2074 22.1284C21.1406 22.1959 21.0738 22.2296 21.007 22.2296H19.8047C19.7379 22.2296 19.6711 22.1959 19.6043 22.1284C19.5375 22.0609 19.5041 21.9935 19.5041 21.926V13.864C19.5041 11.1429 18.4799 9.78237 16.4315 9.78237C15.4519 9.78237 14.5167 10.1085 13.6261 10.7606C12.7801 11.3903 12.101 12.2673 11.5889 13.3917V21.926C11.5889 21.9935 11.5555 22.0609 11.4887 22.1284C11.4219 22.1959 11.3551 22.2296 11.2883 22.2296H10.086C10.0192 22.2296 9.95243 22.1959 9.88563 22.1284C9.81884 22.0609 9.78544 21.9935 9.78544 21.926V13.864C9.78544 11.1429 8.76125 9.78237 6.71288 9.78237C5.68869 9.78237 4.75356 10.1085 3.9075 10.7606C3.08369 11.4128 2.41575 12.2898 1.90365 13.3917V21.926C1.90365 21.9935 1.87025 22.0609 1.80346 22.1284C1.73666 22.1959 1.66987 22.2296 1.60308 22.2296H0.400769C0.333974 22.2296 0.267179 22.1959 0.200384 22.1284C0.13359 22.0609 0.100192 21.9935 0.100192 21.926Z" fill="white"></path><path d="M32.8816 8.09576H32.8148C34.9299 8.09576 36.7 8.74792 38.125 10.0522C39.5722 11.379 40.2958 13.1444 40.2958 15.3482C40.2958 17.5745 39.5833 19.3399 38.1584 20.6442C36.7557 21.926 34.9856 22.5669 32.8482 22.5669C30.7107 22.5669 28.9407 21.926 27.538 20.6442C26.113 19.3399 25.4006 17.5745 25.4006 15.3482C25.4006 13.1444 26.1242 11.379 27.5714 10.0522C28.9963 8.74792 30.7664 8.09576 32.8816 8.09576ZM32.8148 9.78237L32.8482 9.74864C31.2451 9.74864 29.9092 10.2546 28.8405 11.2666C27.7718 12.2786 27.2374 13.6279 27.2374 15.3145C27.2374 17.0236 27.7718 18.3841 28.8405 19.3961C29.9092 20.4081 31.2451 20.914 32.8482 20.914C34.429 20.914 35.7537 20.4081 36.8225 19.3961C37.8912 18.3841 38.4255 17.0348 38.4255 15.3482C38.4255 13.6616 37.8912 12.3123 36.8225 11.3003C35.7537 10.2884 34.4179 9.78237 32.8148 9.78237Z" fill="white"></path><path d="M56.3122 20.2731V20.3069C54.9986 21.8361 53.2285 22.6007 51.002 22.6007C49.1095 22.6007 47.5064 21.971 46.1928 20.7116C44.8569 19.4298 44.1889 17.6532 44.1889 15.3819C44.1889 13.313 44.8458 11.5814 46.1594 10.1872C47.4508 8.81538 49.1206 8.12949 51.169 8.12949C53.4623 8.12949 55.1767 8.93906 56.3122 10.5582H56.379V0.404789C56.379 0.359811 56.4124 0.281102 56.4792 0.168661C56.546 0.0787084 56.6128 0.0337319 56.6796 0.0337319H57.8819C57.9487 0.0337319 58.0155 0.0787084 58.0823 0.168661C58.1491 0.281102 58.1824 0.359811 58.1824 0.404789V21.9597C58.1824 22.0272 58.1491 22.0947 58.0823 22.1621C58.0155 22.2296 57.9375 22.2633 57.8485 22.2633H56.9467C56.7686 22.2633 56.6462 22.1172 56.5794 21.8248L56.3122 20.2731ZM46.0592 15.3819L45.959 15.4157C45.959 17.0798 46.4488 18.4291 47.4285 19.4635C48.4081 20.4755 49.6327 20.9815 51.1022 20.9815C53.2174 20.9815 54.954 20.0932 56.3122 18.3167V13.4255C55.8669 12.3235 55.1878 11.4577 54.275 10.8281C53.3176 10.1759 52.2711 9.84984 51.1356 9.84984C49.6884 9.84984 48.4861 10.3558 47.5287 11.3678C46.549 12.4022 46.0592 13.7403 46.0592 15.3819Z" fill="white"></path><path d="M76.8156 15.8879H64.158C64.2916 17.5296 64.8927 18.7777 65.9614 19.6322C67.0524 20.4868 68.3772 20.914 69.9357 20.914C71.9173 20.914 73.6428 20.1719 75.1123 18.6877C75.2459 18.5528 75.3684 18.4853 75.4797 18.4853C75.591 18.4853 75.6912 18.5303 75.7803 18.6202L76.3814 19.1937C76.4705 19.2836 76.515 19.3848 76.515 19.4973C76.515 19.6547 76.4259 19.8234 76.2478 20.0033C74.6225 21.7124 72.5185 22.5669 69.9357 22.5669C67.687 22.5669 65.8501 21.9148 64.4252 20.6104C62.9779 19.2836 62.2543 17.5296 62.2543 15.3482C62.2543 13.3018 62.9445 11.5814 64.325 10.1872C65.7054 8.79289 67.5311 8.09576 69.8021 8.09576C72.0509 8.09576 73.7876 8.71418 75.0121 9.95103C76.348 11.3003 76.9714 12.852 76.8824 14.6061L76.8156 15.8879ZM69.7687 9.74864C68.4106 9.74864 67.1971 10.1197 66.1284 10.8618C65.082 11.6039 64.4363 12.7396 64.1914 14.2688H74.9119C74.8674 12.8745 74.3998 11.7726 73.5092 10.963C72.5964 10.1534 71.3495 9.74864 69.7687 9.74864Z" fill="white"></path><path d="M82.8874 0.371055V21.926C82.8874 21.9935 82.854 22.0609 82.7872 22.1284C82.7204 22.1959 82.6536 22.2296 82.5868 22.2296H81.3845C81.3177 22.2296 81.2509 22.1959 81.1841 22.1284C81.1173 22.0609 81.0839 21.9935 81.0839 21.926V0.371055C81.0839 0.303591 81.1173 0.224883 81.1841 0.13493C81.2509 0.0449765 81.3177 0 81.3845 0H82.5868C82.6536 0 82.7204 0.0449765 82.7872 0.13493C82.854 0.24737 82.8874 0.326079 82.8874 0.371055Z" fill="white"></path><path d="M89.2472 0.371055V21.926C89.2472 21.9935 89.2139 22.0609 89.1471 22.1284C89.0803 22.1959 89.0135 22.2296 88.9467 22.2296H87.7444C87.6776 22.2296 87.6108 22.1959 87.544 22.1284C87.4772 22.0609 87.4438 21.9935 87.4438 21.926V0.371055C87.4438 0.303591 87.4772 0.224883 87.544 0.13493C87.6108 0.0449765 87.6776 0 87.7444 0H88.9467C89.0135 0 89.0803 0.0449765 89.1471 0.13493C89.2139 0.24737 89.2472 0.326079 89.2472 0.371055Z" fill="white"></path><path d="M95.6071 8.80414V21.926C95.6071 21.9935 95.5737 22.0609 95.5069 22.1284C95.4401 22.1959 95.3733 22.2296 95.3065 22.2296H94.1042C94.0374 22.2296 93.9706 22.1959 93.9038 22.1284C93.8371 22.0609 93.8036 21.9935 93.8036 21.926V8.80414C93.8036 8.75916 93.8371 8.68045 93.9038 8.56801C93.9706 8.47806 94.0374 8.43308 94.1042 8.43308H95.3065C95.3733 8.43308 95.4401 8.47806 95.5069 8.56801C95.5737 8.68045 95.6071 8.75916 95.6071 8.80414ZM93.4697 3.10337V3.13711C93.4697 2.79978 93.5921 2.48495 93.837 2.1926C94.0597 1.92274 94.3491 1.78781 94.7054 1.78781C95.0616 1.78781 95.3511 1.92274 95.5737 2.1926C95.8186 2.48495 95.9411 2.79978 95.9411 3.13711C95.9411 3.51941 95.8298 3.83424 95.6071 4.08161C95.3622 4.35147 95.0616 4.4864 94.7054 4.4864C94.3491 4.4864 94.0486 4.35147 93.8036 4.08161C93.581 3.83424 93.4697 3.50816 93.4697 3.10337Z" fill="white"></path><path d="M111.552 21.926L111.452 13.5267C111.452 12.4022 111.107 11.5027 110.417 10.8281C109.704 10.1534 108.758 9.8161 107.578 9.8161C106.309 9.8161 105.162 10.1759 104.138 10.8955C103.158 11.5927 102.412 12.5034 101.9 13.6279V21.9597C101.9 22.0272 101.867 22.0947 101.8 22.1621C101.733 22.2296 101.666 22.2633 101.6 22.2633H100.397C100.33 22.2633 100.264 22.2296 100.197 22.1621C100.13 22.0947 100.097 22.0272 100.097 21.9597V8.83787C100.097 8.79289 100.13 8.71418 100.197 8.60174C100.264 8.51179 100.33 8.46681 100.397 8.46681H101.266C101.444 8.46681 101.555 8.62423 101.6 8.93906L101.934 11.0979H102.034C102.568 10.2659 103.336 9.55749 104.338 8.9728C105.362 8.3881 106.476 8.09576 107.678 8.09576C109.526 8.09576 110.929 8.57925 111.886 9.54625C112.866 10.5357 113.355 11.8513 113.355 13.4929V21.926C113.355 21.9935 113.322 22.0609 113.255 22.1284C113.188 22.1959 113.122 22.2296 113.055 22.2296H111.853C111.786 22.2296 111.719 22.1959 111.652 22.1284C111.585 22.0609 111.552 21.9935 111.552 21.926Z" fill="white"></path><path d="M117.34 26.2775L117.374 26.1763C117.374 24.7595 117.986 23.5339 119.211 22.4995V22.4657C117.964 21.926 117.34 20.9927 117.34 19.6659C117.34 18.5415 117.841 17.5408 118.843 16.6638C118.064 15.6743 117.674 14.5499 117.674 13.2905C117.674 11.8063 118.187 10.5582 119.211 9.54625C120.257 8.53428 121.626 8.02829 123.319 8.02829C125.033 8.02829 126.425 8.56801 127.493 9.64744H127.527C128.239 8.56801 129.286 8.02829 130.666 8.02829C130.889 8.02829 131 8.107 131 8.26442V9.64744C131 9.80486 130.922 9.88357 130.766 9.88357C129.698 9.88357 128.896 10.2434 128.362 10.963C128.74 11.7951 128.929 12.5709 128.929 13.2905C128.929 14.7972 128.417 16.0566 127.393 17.0686C126.369 18.0805 125 18.5865 123.285 18.5865C121.972 18.5865 120.869 18.2829 119.979 17.6757C119.4 18.2604 119.111 18.8901 119.111 19.5647C119.111 20.7566 119.89 21.3526 121.448 21.3526H125.256C126.97 21.3526 128.295 21.7686 129.23 22.6007C130.143 23.4552 130.599 24.5234 130.599 25.8052C130.599 27.177 130.031 28.3914 128.896 29.4483C127.783 30.4828 126.124 31 123.92 31H123.786C121.827 31 120.257 30.539 119.077 29.617C117.919 28.7174 117.34 27.6043 117.34 26.2775ZM125.289 22.938H121.048C119.823 23.8375 119.211 24.8495 119.211 25.9739C119.211 26.8959 119.634 27.6605 120.48 28.2677C121.304 28.8749 122.372 29.1785 123.686 29.1785H123.92C125.456 29.1785 126.647 28.8411 127.493 28.1665C128.339 27.4918 128.762 26.6823 128.762 25.7378C128.762 24.9507 128.484 24.2873 127.927 23.7476C127.349 23.2078 126.469 22.938 125.289 22.938ZM120.547 10.7269C119.856 11.4015 119.511 12.2448 119.511 13.2568C119.511 14.2688 119.856 15.1121 120.547 15.7867C121.237 16.4614 122.15 16.7987 123.285 16.7987C124.421 16.7987 125.322 16.4614 125.99 15.7867C126.658 15.1121 126.992 14.2688 126.992 13.2568C126.992 12.2448 126.658 11.4015 125.99 10.7269C125.322 10.0522 124.421 9.71491 123.285 9.71491C122.15 9.71491 121.237 10.0522 120.547 10.7269Z" fill="white"></path></svg> 