<?xml version="1.0" encoding="UTF-8"?> <svg xmlns="http://www.w3.org/2000/svg" xmlns:xlink="http://www.w3.org/1999/xlink" xmlns:xodm="http://www.corel.com/coreldraw/odm/2003" xml:space="preserve" width="300mm" height="323.365mm" version="1.1" style="shape-rendering:geometricPrecision; text-rendering:geometricPrecision; image-rendering:optimizeQuality; fill-rule:evenodd; clip-rule:evenodd" viewBox="0 0 1989.81 2144.78"> <defs> <style type="text/css"> .fil1 {fill:#727271} .fil0 {fill:#727271;fill-rule:nonzero} </style> </defs> <g id="Слой_x0020_1"> <metadata id="CorelCorpID_0Corel-Layer"></metadata> <g id="_2097917041952"> <path class="fil0" d="M-0 2144.19l64.05 0 175.55 -308.41 33.21 257.4 -115.65 -0.59 -29.06 50.41 10.68 1.19 213.51 0c0.4,0 1.29,-1.48 2.67,-4.45 1.38,-2.97 2.47,-5.44 3.26,-7.41l0 -2.97 0 -2.97 -59.31 -367.71 -93.71 0 -205.21 385.51zm453.71 -1.19l39.14 1.78 16.01 0 249.69 -386.1 -83.03 0 -169.62 277.57 -39.14 -277.57 -59.31 0 46.26 384.32zm240.2 1.19l164.88 0 44.48 0 46.85 -1.19 17.79 -51.01 -190.97 0 26.1 -117.43 170.81 0 14.23 -52.19 -173.18 0 26.1 -116.25 17.79 0 154.2 0 20.16 0 16.61 -47.45 -265.7 0 -90.15 385.51zm300.7 -6.52l9.49 5.34 59.9 1.19c11.47,0 24.61,-0.1 39.44,-0.3 14.83,-0.2 30.45,-0.4 46.85,-0.59 16.41,-0.2 31.73,-1.48 45.96,-3.85 14.23,-2.37 27.18,-8.6 38.85,-18.68 11.66,-10.08 21.06,-21.05 28.17,-32.92 7.12,-11.86 10.68,-26.49 10.68,-43.89 0,-13.44 -3.36,-26.29 -10.08,-38.55 -6.72,-12.26 -15.22,-23.82 -25.5,-34.69 -10.28,-10.87 -21.35,-21.45 -33.21,-31.73 -11.86,-10.28 -22.93,-20.26 -33.21,-29.95 -10.28,-9.69 -18.78,-19.08 -25.5,-28.17 -6.72,-9.09 -10.08,-18.39 -10.08,-27.88 0,-3.16 0.89,-7.12 2.67,-11.86 1.78,-4.75 4.05,-9.39 6.82,-13.94 2.77,-4.55 5.93,-8.4 9.49,-11.56 3.56,-3.16 7.32,-4.75 11.27,-4.75l118.62 0 6.81 -3.61 5.66 -7.13 2.54 -7.07 9.91 -34.39 -18.98 0 -125.73 0c-13.84,1.19 -27.58,3.76 -41.22,7.71 -13.64,3.95 -25.8,9.79 -36.48,17.5 -10.68,7.71 -19.18,17.5 -25.5,29.36 -6.33,11.86 -9.49,26.1 -9.49,42.7 0,5.93 0.1,11.17 0.3,15.72 0.2,4.55 0.89,8.8 2.08,12.75 1.19,3.95 3.06,7.91 5.63,11.86 2.57,3.95 6.23,8.5 10.97,13.64l106.76 107.94c3.95,3.95 6.33,8.01 7.12,12.16 0.79,4.15 1.98,9.39 3.56,15.72 -1.58,6.33 -3.16,11.86 -4.74,16.61 -1.58,4.74 -3.95,9.88 -7.12,15.42 -3.16,5.53 -7.22,9.39 -12.16,11.56 -4.94,2.17 -10.38,3.26 -16.31,3.26l-142.34 0c-0.4,0 -1.09,1.28 -2.08,3.85 -0.99,2.57 -2.08,5.63 -3.26,9.19 -1.19,3.56 -2.47,7.22 -3.86,10.97 -1.38,3.76 -2.27,6.82 -2.67,9.19 0,0.4 -0.1,1.29 -0.3,2.67 -0.2,1.38 -0.3,2.47 -0.3,3.26 0,0.79 0.1,1.88 0.3,3.26 0.2,1.38 0.3,2.27 0.3,2.67zm438.29 -329.16l-70.58 335.69 67.02 -0.59 77.1 -335.09 118.62 0.59 13.05 -50.41 -308.4 0 -17.2 50.41 120.4 -0.59zm148.27 224.19c5.14,19.77 13.15,36.57 24.02,50.41 10.87,13.84 23.62,25.21 38.25,34.1 14.63,8.9 30.74,15.62 48.34,20.17 17.6,4.55 35.88,6.82 54.86,6.82 19.37,0 38.95,-1.98 58.72,-5.93 19.77,-3.95 38.45,-9.98 56.05,-18.09 17.6,-8.11 33.41,-18.88 47.45,-32.32 14.04,-13.44 27.08,-29.06 39.14,-46.85 12.06,-17.79 20.07,-32.03 24.02,-42.7 3.95,-10.68 7.22,-22.14 9.79,-34.4 2.57,-12.26 4.55,-24.02 5.93,-35.29 1.38,-11.27 2.08,-20.26 2.08,-26.99 0,-25.7 -4.15,-47.65 -12.45,-65.83 -8.3,-18.19 -19.97,-32.92 -34.99,-44.18 -15.02,-11.27 -32.92,-19.67 -53.67,-25.21 -20.76,-5.54 -43.59,-8.3 -68.5,-8.3 -35.19,0 -67.51,5.34 -96.97,16.01 -29.46,10.68 -54.86,25.7 -76.21,45.07 -21.35,19.37 -37.76,43.2 -49.23,71.47 -11.47,28.27 -17.2,60.2 -17.2,95.78 0,1.98 0,5.14 0,9.49 0,4.35 0,8.9 0,13.64 0,5.14 0.1,9.88 0.3,14.23 0.2,4.35 0.3,7.31 0.3,8.9zm71.76 -33.21c0,-25.31 3.66,-49.33 10.97,-72.06 7.31,-22.73 18.09,-42.9 32.32,-60.49 14.23,-17.6 31.93,-31.63 53.08,-42.11 21.15,-10.48 45.57,-15.72 73.25,-15.72 15.82,0 29.46,2.96 40.92,8.9 11.47,5.93 20.96,13.94 28.47,24.02 7.51,10.08 13.15,21.55 16.9,34.4 3.76,12.85 5.64,25.8 5.64,38.85 0,23.33 -3.86,45.47 -11.57,66.43 -7.71,20.96 -18.58,39.54 -32.62,55.75 -14.04,16.21 -31.04,29.26 -51.01,39.14 -19.97,9.88 -42.21,14.83 -66.72,14.83 -13.84,0 -26.79,-2.17 -38.85,-6.52 -12.06,-4.35 -22.54,-10.48 -31.43,-18.39 -8.9,-7.91 -16.01,-17.5 -21.35,-28.76 -5.34,-11.27 -8.01,-24.02 -8.01,-38.25z"></path> <polygon class="fil1" points="542.5,673.91 572.15,644.26 572.15,1253.07 542.5,1282.72 "></polygon> <polygon class="fil1" points="542.5,1282.72 738.04,1282.72 767.69,1312.36 512.86,1312.36 "></polygon> <polygon class="fil1" points="616.2,1064.19 616.21,1029.91 1041.36,1455.06 1041.36,1489.35 "></polygon> <polygon class="fil1" points="1041.36,1489.35 1174.27,1356.43 1208.57,1356.43 1041.37,1523.64 "></polygon> <polygon class="fil1" points="961.04,1312.36 931.39,1282.72 1540.2,1282.72 1569.85,1312.36 "></polygon> <polygon class="fil1" points="1540.2,1282.72 1540.2,1087.17 1510.55,1116.81 1510.55,1253.07 "></polygon> <polygon class="fil1" points="1355.98,1209 1321.69,1209 1746.83,783.87 1781.12,783.87 "></polygon> <polygon class="fil1" points="1746.83,783.87 1613.91,650.95 1613.91,685.24 1712.55,783.87 "></polygon> <polygon class="fil1" points="1540.2,893.82 1510.56,923.47 1510.56,314.67 1540.2,285.02 "></polygon> <polygon class="fil1" points="1540.2,285.02 1348.31,285.02 1329.64,266.35 1558.89,266.35 "></polygon> <polygon class="fil1" points="1466.5,503.53 1466.49,537.81 1041.34,112.67 1041.35,78.39 "></polygon> <polygon class="fil1" points="1121.83,254.89 1151.46,284.53 542.5,285.02 512.86,255.38 "></polygon> <polygon class="fil1" points="542.5,285.02 542.5,480.56 572.14,450.92 572.14,314.66 "></polygon> <polygon class="fil1" points="726.72,358.73 761,358.73 335.86,783.87 301.58,783.87 "></polygon> <polygon class="fil1" points="335.86,783.87 468.78,916.79 468.78,882.51 370.15,783.87 "></polygon> <polygon class="fil1" points="1595.63,229.59 1292.89,229.59 1310.62,247.33 1577.89,247.33 1577.89,856.13 1595.63,838.4 "></polygon> <polygon class="fil1" points="1502.51,931.52 1484.77,949.25 1484.77,340.45 1403.74,340.45 1386.01,322.71 1502.51,322.71 "></polygon> <polygon class="fil1" points="1825.22,783.87 1613.91,572.57 1613.91,597.65 1800.13,783.87 1375,1209 1400.08,1209 "></polygon> <polygon class="fil1" points="1268.39,1209 1243.31,1209 1668.44,783.87 1613.91,729.34 1613.91,704.26 1693.53,783.87 "></polygon> <polygon class="fil1" points="1595.63,1338.15 1595.63,1031.74 1577.89,1049.48 1577.89,1320.41 969.09,1320.41 986.82,1338.15 "></polygon> <polygon class="fil1" points="893.7,1245.03 875.97,1227.29 1484.77,1227.29 1484.77,1142.6 1502.51,1124.86 1502.51,1245.03 "></polygon> <polygon class="fil1" points="1041.36,1567.73 1252.66,1356.43 1227.57,1356.43 1041.36,1542.65 616.22,1117.51 616.22,1142.6 "></polygon> <polygon class="fil1" points="616.22,1010.91 616.22,985.82 1041.36,1410.96 1095.88,1356.43 1120.97,1356.43 1041.36,1436.04 "></polygon> <polygon class="fil1" points="487.07,1338.15 793.47,1338.15 775.73,1320.41 504.8,1320.41 504.8,711.6 487.07,729.34 "></polygon> <polygon class="fil1" points="580.19,636.22 597.92,618.48 597.92,1227.29 682.61,1227.29 700.35,1245.03 580.19,1245.03 "></polygon> <polygon class="fil1" points="257.48,783.87 468.78,995.18 468.78,970.09 282.56,783.87 707.7,358.74 682.61,358.74 "></polygon> <polygon class="fil1" points="814.3,358.74 839.39,358.74 414.25,783.87 468.78,838.4 468.78,863.49 389.17,783.87 "></polygon> <polygon class="fil1" points="487.07,229.59 487.07,535.99 504.8,518.26 504.8,247.33 1113.13,246.92 1095.39,229.19 "></polygon> <polygon class="fil1" points="1189,322.71 1206.74,340.45 597.92,340.45 597.92,425.14 580.19,442.87 580.19,322.71 "></polygon> <polygon class="fil1" points="1041.35,0 822.73,218.62 847.82,218.62 1041.35,25.08 1466.49,450.22 1466.49,425.14 "></polygon> <polygon class="fil1" points="1466.48,556.83 1466.48,581.91 1041.35,156.77 979.51,218.62 954.42,218.62 1041.35,131.69 "></polygon> <polygon class="fil1" points="1041.35,78.39 901.12,218.62 866.83,218.61 1041.34,44.09 "></polygon> <path class="fil1" d="M1041.56 435.07c96.29,0 183.46,39.03 246.56,102.13 63.1,63.1 102.13,150.28 102.13,246.56 0,96.29 -39.03,183.46 -102.13,246.56 -63.1,63.1 -150.27,102.13 -246.56,102.13 -96.29,0 -183.46,-39.03 -246.56,-102.13 -63.1,-63.1 -102.13,-150.28 -102.13,-246.56 0,-96.29 39.03,-183.46 102.13,-246.56 63.1,-63.1 150.28,-102.13 246.56,-102.13zm226.2 122.49c-57.89,-57.89 -137.87,-93.7 -226.2,-93.7 -88.34,0 -168.32,35.81 -226.21,93.7 -57.89,57.89 -93.7,137.87 -93.7,226.21 0,88.34 35.81,168.32 93.7,226.2 57.89,57.89 137.87,93.7 226.21,93.7 88.34,0 168.32,-35.81 226.2,-93.7 57.89,-57.89 93.7,-137.87 93.7,-226.2 0,-88.34 -35.81,-168.32 -93.7,-226.21z"></path> <g> <path class="fil1" d="M1047.98 595.4c0,-57.21 56.93,-83.63 99.52,-65.39 41.98,17.97 61.72,76.18 22.12,115.78 -28.44,28.5 -56.87,57 -85.31,85.49 -11.85,-9.48 -23.99,-14.08 -36.33,-15.09l0 -120.79z"></path> <path class="fil1" d="M912.75 645.78c-40.45,-40.45 -18.88,-99.39 24.13,-116.61 42.4,-16.98 97.51,10.22 97.51,66.23 0.04,40.26 0.09,80.52 0.13,120.77 -15.08,1.68 -26.92,7 -36.36,15.02l-85.41 -85.42z"></path> <path class="fil1" d="M852.74 777.04c-57.21,-0 -83.63,-56.93 -65.39,-99.52 17.97,-41.98 76.18,-61.72 115.78,-22.12 28.5,28.44 57,56.87 85.49,85.31 -9.48,11.85 -14.08,23.99 -15.09,36.33l-120.79 0z"></path> <path class="fil1" d="M903.14 912.27c-40.45,40.45 -99.39,18.88 -116.62,-24.13 -16.98,-42.4 10.22,-97.51 66.23,-97.51 40.26,-0.04 80.52,-0.09 120.77,-0.13 1.68,15.08 7,26.92 15.02,36.36l-85.41 85.41z"></path> <path class="fil1" d="M1034.52 972.29c-0,57.21 -56.93,83.63 -99.52,65.39 -41.98,-17.97 -61.72,-76.18 -22.12,-115.78 28.44,-28.5 56.87,-57 85.31,-85.49 11.85,9.48 23.99,14.08 36.33,15.09l0 120.79z"></path> <path class="fil1" d="M1229.63 790.5c57.21,0 83.63,56.93 65.39,99.52 -17.97,41.98 -76.18,61.72 -115.78,22.12 -28.5,-28.44 -57,-56.87 -85.49,-85.31 9.48,-11.85 14.08,-23.99 15.09,-36.33l120.79 0z"></path> <path class="fil1" d="M1169.72 921.8c40.45,40.45 18.88,99.39 -24.13,116.62 -42.4,16.98 -97.51,-10.22 -97.51,-66.23 -0.04,-40.26 -0.09,-80.52 -0.13,-120.77 15.08,-1.68 26.92,-7 36.36,-15.02l85.41 85.41z"></path> <path class="fil1" d="M1179.23 655.4c40.45,-40.45 99.39,-18.88 116.62,24.13 16.98,42.4 -10.22,97.51 -66.23,97.51 -40.26,0.04 -80.52,0.09 -120.77,0.13 -1.68,-15.08 -7,-26.92 -15.02,-36.36l85.41 -85.41z"></path> </g> <circle class="fil1" cx="1041.18" cy="783.79" r="54.56"></circle> </g> </g> </svg> 